<svg xmlns="http://www.w3.org/2000/svg" xmlns:xlink="http://www.w3.org/1999/xlink" version="1.1" x="0px" y="0px" viewBox="0 0 64 80" enable-background="new 0 0 64 64" xml:space="preserve"><path d="M48.775,5.24c-7.75,0-13.82,3.502-13.82,7.973v8.114c-0.949-0.115-1.936-0.179-2.953-0.179  c-1.019,0-2.006,0.064-2.957,0.179v-8.115c0-4.471-6.069-7.973-13.816-7.973c-7.75,0-13.82,3.502-13.82,7.973v21.665  c0,4.47,6.071,7.972,13.82,7.972c1.001,0,1.985-0.079,2.953-0.199v8.138c0,4.47,6.071,7.972,13.82,7.972  c7.748,0,13.816-3.502,13.816-7.972V42.65c0.969,0.12,1.954,0.199,2.957,0.199c7.747,0,13.816-3.502,13.816-7.972V13.213  C62.592,8.743,56.522,5.24,48.775,5.24z M48.775,6.74c6.676,0,12.316,2.964,12.316,6.473c0,3.508-5.641,6.472-12.316,6.472  c-6.679,0-12.32-2.964-12.32-6.472C36.455,9.705,42.097,6.74,48.775,6.74z M44.318,29.122c0,3.508-5.64,6.473-12.316,6.473  c-6.678,0-12.32-2.964-12.32-6.473c0-3.509,5.642-6.473,12.32-6.473C38.679,22.649,44.318,25.613,44.318,29.122z M61.092,27.638  c0,0.007-0.004,0.013-0.004,0.02c0,3.507-5.641,6.471-12.316,6.471c-1.006,0-1.991-0.081-2.953-0.208v-4.798  c0-0.315-0.038-0.625-0.097-0.93c0.997,0.127,2.012,0.215,3.05,0.215c5.451,0,10.061-1.737,12.32-4.322V27.638z M44.318,36.325  c0,0.007-0.004,0.013-0.004,0.02c0,3.509-5.64,6.473-12.316,6.473s-12.316-2.964-12.316-6.473v-3.568  c2.262,2.583,6.871,4.318,12.32,4.318c5.448,0,10.054-1.735,12.316-4.317V36.325z M19.682,40c2.261,2.582,6.869,4.317,12.316,4.317  c5.451,0,10.06-1.737,12.32-4.322v3.553c0,0.007-0.004,0.013-0.004,0.02c0,3.508-5.64,6.471-12.316,6.471  s-12.316-2.963-12.316-6.471V40z M15.229,6.74c6.676,0,12.316,2.964,12.316,6.473c0,3.508-5.64,6.472-12.316,6.472  c-6.678,0-12.32-2.964-12.32-6.472C2.909,9.705,8.551,6.74,15.229,6.74z M15.229,21.185c5.448,0,10.055-1.735,12.316-4.317v4.696  c-4.129,0.788-7.333,2.645-8.673,5.034c-1.178,0.196-2.399,0.309-3.647,0.309c-6.676,0-12.316-2.964-12.316-6.472v-3.567  C5.171,19.45,9.779,21.185,15.229,21.185z M15.225,28.407c1.039,0,2.055-0.087,3.054-0.216c-0.059,0.306-0.097,0.615-0.097,0.931  v4.798c-0.965,0.127-1.953,0.208-2.957,0.208c-6.676,0-12.316-2.963-12.316-6.471V24.09C5.17,26.672,9.777,28.407,15.225,28.407z   M15.229,41.35c-6.678,0-12.32-2.964-12.32-6.472v-3.566c2.261,2.582,6.869,4.316,12.316,4.316c1.002,0,1.988-0.079,2.957-0.199  v5.713C17.218,41.269,16.232,41.35,15.229,41.35z M32.002,57.26c-6.678,0-12.32-2.964-12.32-6.472v-3.566  c2.261,2.582,6.869,4.316,12.316,4.316c5.451,0,10.06-1.737,12.32-4.321v3.571C44.318,54.296,38.679,57.26,32.002,57.26z   M48.775,41.35c-1.005,0-1.992-0.081-2.957-0.209V35.43c0.965,0.119,1.949,0.198,2.953,0.198c5.451,0,10.061-1.737,12.32-4.321  v3.571C61.092,38.386,55.451,41.35,48.775,41.35z M61.092,20.416c0,0.007-0.004,0.013-0.004,0.02c0,3.508-5.641,6.472-12.316,6.472  c-1.248,0-2.467-0.112-3.644-0.308c-1.339-2.39-4.543-4.248-8.673-5.035v-4.696c2.262,2.582,6.87,4.317,12.32,4.317  c5.447,0,10.055-1.735,12.316-4.317V20.416z"/><text x="0" y="79" fill="#000000" font-size="5px" font-weight="bold" font-family="'Helvetica Neue', Helvetica, Arial-Unicode, Arial, Sans-serif">Created by Mohamed Mb</text><text x="0" y="84" fill="#000000" font-size="5px" font-weight="bold" font-family="'Helvetica Neue', Helvetica, Arial-Unicode, Arial, Sans-serif">from the Noun Project</text></svg>