<svg xmlns="http://www.w3.org/2000/svg" xmlns:xlink="http://www.w3.org/1999/xlink" version="1.1" x="0px" y="0px" viewBox="0 0 64 80" style="enable-background:new 0 0 64 64;" xml:space="preserve"><g><path d="M32,24c-4.411,0-8,3.589-8,8s3.589,8,8,8s8-3.589,8-8S36.411,24,32,24z M32,38c-3.309,0-6-2.691-6-6s2.691-6,6-6   s6,2.691,6,6S35.309,38,32,38z"/><path d="M32,28c-2.206,0-4,1.794-4,4c0,2.206,1.794,4,4,4s4-1.794,4-4C36,29.794,34.206,28,32,28z M32,34c-1.103,0-2-0.897-2-2   c0-1.103,0.897-2,2-2s2,0.897,2,2C34,33.103,33.103,34,32,34z"/><path d="M61,15.184V1H33v10.184c-1.161,0.414-2,1.514-2,2.816v5h-2.708l-0.644,1.826c-0.158,0.062-0.315,0.127-0.471,0.196   l-1.749-0.836l-5.242,5.244l0.836,1.748c-0.069,0.157-0.135,0.314-0.196,0.471L19,28.292v7.416l1.826,0.644   c0.062,0.157,0.127,0.314,0.196,0.471L20.938,37H4c-1.654,0-3,1.346-3,3v16c0,1.654,1.346,3,3,3h4v2H6v2h20v-2h-2v-2h4   c1.654,0,3-1.346,3-3V45h4.708l0.644-1.826c0.157-0.062,0.314-0.127,0.471-0.196l1.749,0.836l5.242-5.242l-0.836-1.749   c0.069-0.156,0.135-0.313,0.196-0.471L45,35.708V33h15c1.654,0,3-1.346,3-3V18C63,16.698,62.161,15.598,61,15.184z M59,3v12H45.618   l-1.171-2.342C43.936,11.635,42.907,11,41.764,11H35V3H59z M22,61H10v-2h12V61z M28,57H4c-0.552,0-1-0.448-1-1v-1h26v1   C29,56.552,28.552,57,28,57z M29,53H3V40c0-0.552,0.448-1,1-1h16.615l4.813,4.813l1.749-0.836c0.156,0.069,0.313,0.135,0.471,0.196   L28.292,45H29V53z M43,34.292l-1.393,0.491l-0.156,0.459c-0.13,0.382-0.291,0.767-0.477,1.145l-0.214,0.436l0.639,1.335   l-3.242,3.242l-1.335-0.639l-0.436,0.214c-0.378,0.186-0.763,0.347-1.145,0.477l-0.459,0.156L34.292,43h-4.584l-0.491-1.393   l-0.459-0.156c-0.382-0.13-0.767-0.291-1.145-0.477l-0.436-0.214l-1.335,0.639l-3.242-3.242l0.639-1.335l-0.214-0.436   c-0.186-0.378-0.347-0.763-0.477-1.145l-0.156-0.459L21,34.292v-4.584l1.393-0.491l0.156-0.458c0.13-0.38,0.29-0.765,0.477-1.146   l0.214-0.435l-0.639-1.334l3.242-3.242l1.335,0.638l0.436-0.214c0.375-0.185,0.761-0.345,1.146-0.477l0.458-0.157L29.708,21h4.584   l0.491,1.392l0.458,0.157c0.385,0.132,0.771,0.292,1.146,0.477l0.436,0.214l1.335-0.638l3.242,3.242l-0.639,1.334l0.214,0.435   c0.187,0.381,0.347,0.766,0.477,1.146l0.156,0.458L43,29.708V34.292z M61,30c0,0.551-0.448,1-1,1H45v-2.708l-1.826-0.645   c-0.062-0.157-0.127-0.314-0.196-0.471l0.836-1.748l-5.242-5.244l-1.749,0.836c-0.155-0.069-0.313-0.134-0.471-0.196L35.708,19H33   v-5c0-0.551,0.448-1,1-1h7.764c0.381,0,0.724,0.212,0.895,0.553L44.382,17H60c0.552,0,1,0.449,1,1V30z"/><rect x="35" y="15" width="2" height="2"/><rect x="39" y="15" width="2" height="2"/><rect x="37" y="5" width="6" height="2"/><rect x="45" y="5" width="12" height="2"/><rect x="47" y="9" width="10" height="2"/><polygon points="55,50 34.586,50 40.293,55.707 41.707,54.293 39.414,52 57,52 57,43 55,43  "/><rect x="55" y="35" width="2" height="2"/><rect x="55" y="39" width="2" height="2"/><polygon points="51,39 51,46 40,46 40,48 53,48 53,39  "/><polygon points="9,14 29.414,14 23.707,8.293 22.293,9.707 24.586,12 7,12 7,21 9,21  "/><rect x="7" y="27" width="2" height="2"/><rect x="7" y="23" width="2" height="2"/><polygon points="13,25 13,18 24,18 24,16 11,16 11,25  "/></g><text x="0" y="79" fill="#000000" font-size="5px" font-weight="bold" font-family="'Helvetica Neue', Helvetica, Arial-Unicode, Arial, Sans-serif">Created by Eucalyp</text><text x="0" y="84" fill="#000000" font-size="5px" font-weight="bold" font-family="'Helvetica Neue', Helvetica, Arial-Unicode, Arial, Sans-serif">from the Noun Project</text></svg>