<svg xml:space="preserve" version="1.1" viewBox="0 0 682 352.5" x="0" y="0" fill-rule="evenodd" clip-rule="evenodd" id="prefix__svg1" xmlns="http://www.w3.org/2000/svg"><defs id="prefix__defs1"><style type="text/css" id="syle1"/></defs><g id="prefix__g1"><path class="prefix__fil0" d="M0 353.37V236.834l7-8.771v-17.543h11v8.771l15-18.796 30 36.34v51.376h16V129.068h19v-32.58h48v32.58h19v40.099h25v93.981h19V35.086h26V0h11v35.086h26v125.31h24l1-41.353h22v-36.34h43v36.34h23v41.352h25l-1-125.309h27V0h11v35.086h26v228.062h19v-93.981h25v-40.099h19v-32.58h47v32.58h20l-1 159.142h16v-51.377l31-36.34 15 18.797v-8.771h11l-1 17.543 7.986 8.826.014 116.483zm556-83.956h-25v16.29h25zm0-23.809h-25v16.29h25zm0-23.809h-25v16.29h25zm0-23.808h-25v16.29h25zm0-23.809h-25v16.29h25zM407 307.006h-25v16.29h25zm0-23.808h-25v16.29h25zm0-23.809h-25v16.29h25zm0-23.809h-25v16.29h25zm0-25.061h-25v16.29h25zm0-23.809h-25V203h25zm186 82.704h-26v16.29h26zm0-23.809h-26v16.29h26zm0-23.809h-26v16.29h26zm0-23.808h-26v16.29h26zm0-23.809h-26v16.29h26zm0-23.809h-26v16.29h26zm-232 23.81v15.036h12V174.18zm92-105.26h-13v15.037h13zm0 35.086h-13v15.037h13zm0 36.34h-13v15.037h13zm0 36.34h-13v15.036h13zm0 36.339h-13v15.037h13zm215 98.994h-13v15.037h13zm0-61.402h-13v15.037h13zm-542 18.797h25v16.29h-25zm0-23.809h25v16.29h-25zm0-23.809h25v16.29h-25zm0-23.808h25v16.29h-25zm0-23.809h25v16.29h-25zm148 132.827h26v16.29h-26zm0-23.808h26v16.29h-26zm0-23.809h26v16.29h-26zm0-23.809h26v16.29h-26zm0-25.061h26v16.29h-26zm0-23.809h26V203h-26zM89 269.414h25v16.29H89zm0-23.809h25v16.29H89zm0-23.809h25v16.29H89zm0-23.808h25v16.29H89zm0-23.809h25v16.29H89zm0-23.809h25v16.29H89zm231 23.81v15.036h-12V174.18zM228 68.92h13v15.037h-13zm0 35.086h13v15.037h-13zm0 36.34h13v15.037h-13zm0 36.34h13v15.036h-13zm0 36.339h13v15.037h-13zM13 312.019h13v15.037H13zm0-61.402h13v15.037H13z" id="prefix__path1" stroke-width="1.119"/></g></svg>
