<svg xmlns="http://www.w3.org/2000/svg" xmlns:xlink="http://www.w3.org/1999/xlink" version="1.1" x="0px" y="0px" viewBox="0 0 72 90" style="enable-background:new 0 0 72 72;" xml:space="preserve"><g><path d="M15.07,24.73c-3.22,0.83-5.52,3.73-5.59,7.05c-0.04,1.99,0.69,3.88,2.07,5.31c0.15,0.15,0.34,0.23,0.54,0.23   c0.19,0,0.37-0.07,0.52-0.21c0.3-0.29,0.31-0.76,0.02-1.06c-1.1-1.15-1.69-2.65-1.65-4.24c0.05-2.65,1.89-4.97,4.46-5.63   c0.4-0.1,0.64-0.51,0.54-0.91C15.88,24.87,15.46,24.63,15.07,24.73z"/><path d="M49.5,20.22c0.54-0.36,1.16-0.54,1.79-0.54c0.92,0.02,1.76,0.38,2.38,1.02c0.61,0.63,0.94,1.46,0.92,2.34   c-0.01,0.45-0.11,0.88-0.29,1.29c-0.17,0.38,0,0.82,0.37,0.99c0.1,0.05,0.21,0.07,0.31,0.07c0.29,0,0.56-0.16,0.68-0.44   c0.27-0.6,0.42-1.23,0.43-1.88c0.03-1.28-0.45-2.5-1.35-3.42c-0.9-0.92-2.12-1.45-3.44-1.47c-0.94,0-1.85,0.27-2.63,0.79   c-0.35,0.23-0.44,0.69-0.21,1.04C48.68,20.35,49.15,20.45,49.5,20.22z"/><path d="M33.29,12.44c-0.23-0.34-0.7-0.43-1.04-0.2c-0.34,0.23-0.43,0.7-0.2,1.04c0.22,0.32,0.41,0.66,0.58,1   c0.13,0.27,0.4,0.43,0.68,0.43c0.11,0,0.22-0.02,0.32-0.07c0.37-0.18,0.53-0.63,0.35-1C33.79,13.23,33.55,12.82,33.29,12.44z"/><path d="M26.08,8.53l-0.19,0c-4.84,0-8.86,3.94-8.96,8.78c-0.01,0.41,0.32,0.76,0.73,0.77c0.01,0,0.01,0,0.02,0   c0.41,0,0.74-0.33,0.75-0.73c0.08-4.03,3.43-7.31,7.45-7.31l0.17,0c1.64,0.03,3.19,0.59,4.47,1.6c0.32,0.26,0.8,0.2,1.05-0.12   c0.26-0.32,0.2-0.8-0.12-1.05C29.91,9.23,28.05,8.57,26.08,8.53z"/><path d="M67.42,50.9l-6.76-4.59c-0.23-0.16-0.53-0.17-0.77-0.04c-0.25,0.13-0.4,0.39-0.4,0.66v2.39h-6.97v-5.94   c3.01-0.02,4.66-0.02,5.02-0.02c2.4,0.04,4.64-0.83,6.36-2.48c1.72-1.65,2.69-3.87,2.74-6.25c0.09-4.27-2.81-7.93-6.88-8.87   c0.28-0.85,0.43-1.73,0.45-2.62c0.05-2.38-0.83-4.63-2.48-6.35c-1.65-1.72-3.87-2.69-6.25-2.74c-1.55-0.04-3.07,0.33-4.44,1.08   c-1.73-2.46-4.5-3.94-7.52-4c-0.7-0.02-1.4,0.05-2.1,0.19C35.19,7.14,30.93,4.5,26.17,4.4c-7.23-0.19-13.2,5.61-13.36,12.82   c-0.03,1.25,0.13,2.5,0.48,3.74C8.68,22.49,5.46,26.8,5.36,31.7c-0.13,6.38,4.95,11.68,11.32,11.81c0.33,0.01,1.32,0.01,2.79,0.01   v5.8h-6.97v-2.39c0-0.28-0.15-0.53-0.4-0.66c-0.24-0.13-0.54-0.11-0.77,0.04L4.58,50.9c-0.21,0.14-0.33,0.37-0.33,0.62   S4.37,52,4.58,52.14l6.76,4.6c0.13,0.09,0.27,0.13,0.42,0.13c0.12,0,0.24-0.03,0.35-0.09c0.25-0.13,0.4-0.39,0.4-0.66v-2.21h10.81   c0.41,0,0.75-0.34,0.75-0.75v-9.65c1.45-0.01,3.05-0.01,4.74-0.02v16.1h-6.29v-2.32c0-0.28-0.16-0.54-0.41-0.67   c-0.25-0.13-0.55-0.11-0.78,0.06l-6.66,4.79c-0.2,0.14-0.31,0.37-0.31,0.61s0.12,0.47,0.31,0.61l6.66,4.79   c0.13,0.09,0.28,0.14,0.44,0.14c0.12,0,0.23-0.03,0.34-0.08c0.25-0.13,0.41-0.39,0.41-0.67v-2.67h10.13c0.41,0,0.75-0.34,0.75-0.75   V43.47l5.19-0.02v7.91c0,0.41,0.34,0.75,0.75,0.75s0.75-0.34,0.75-0.75V42.7c0-0.01,0-0.01,0-0.02c0-0.01,0-0.01,0-0.02V27.92h1.59   v32.42c0,0.41,0.34,0.75,0.75,0.75h7.79c0.41,0,0.75-0.34,0.75-0.75v-1.61l4.63,3.33l-4.63,3.33v-1.95c0-0.41-0.34-0.75-0.75-0.75   H40.1v-3.53c0-0.41-0.34-0.75-0.75-0.75s-0.75,0.34-0.75,0.75v4.28c0,0.41,0.34,0.75,0.75,0.75h10.13v2.67   c0,0.28,0.16,0.54,0.41,0.67c0.11,0.06,0.22,0.08,0.34,0.08c0.15,0,0.31-0.05,0.44-0.14l6.66-4.79c0.2-0.14,0.31-0.37,0.31-0.61   s-0.12-0.47-0.31-0.61l-6.66-4.79c-0.23-0.16-0.53-0.19-0.78-0.06c-0.25,0.13-0.41,0.39-0.41,0.67v2.32h-6.29V43.42   c1.66-0.01,3.25-0.02,4.74-0.02v9.76c0,0.41,0.34,0.75,0.75,0.75h10.81v2.21c0,0.28,0.15,0.53,0.4,0.66   c0.11,0.06,0.23,0.09,0.35,0.09c0.15,0,0.29-0.04,0.42-0.13l6.76-4.6c0.21-0.14,0.33-0.37,0.33-0.62S67.63,51.04,67.42,50.9z    M11.92,52.41c-0.12-0.03-0.24-0.02-0.36,0.01c-0.32,0.09-0.55,0.39-0.55,0.72v1.56l-4.67-3.18l4.67-3.18v1.74   c0,0.31,0.2,0.59,0.5,0.7c0.11,0.04,0.23,0.05,0.34,0.04h8.38c0.41,0,0.75-0.34,0.75-0.75V34.5h1.59v8.26c0,0,0,0.01,0,0.01   c0,0,0,0.01,0,0.01v9.63H11.92z M43.19,41.92V27.17c0-0.41-0.34-0.75-0.75-0.75h-3.09c-0.41,0-0.75,0.34-0.75,0.75v14.77   l-5.19,0.02V27.17c0-0.41-0.34-0.75-0.75-0.75h-3.09c-0.41,0-0.75,0.34-0.75,0.75v3.34c0,0.41,0.34,0.75,0.75,0.75   s0.75-0.34,0.75-0.75v-2.59h1.59v34.76H21.77c-0.41,0-0.75,0.34-0.75,0.75v1.95l-4.63-3.33l4.63-3.33v1.61   c0,0.41,0.34,0.75,0.75,0.75h7.79c0.41,0,0.75-0.34,0.75-0.75v-17.6c0,0,0,0,0,0s0,0,0,0v-5.25c0-0.41-0.34-0.75-0.75-0.75   s-0.75,0.34-0.75,0.75v4.51c-1.69,0-3.29,0.01-4.74,0.02v-8.26c0-0.41-0.34-0.75-0.75-0.75h-3.09c-0.41,0-0.75,0.34-0.75,0.75v8.28   c-1.45,0-2.43,0-2.76-0.01c-5.55-0.12-9.97-4.73-9.86-10.28c0.09-4.49,3.2-8.42,7.56-9.54c0.2-0.05,0.37-0.19,0.47-0.37   c0.1-0.18,0.12-0.4,0.05-0.6c-0.45-1.31-0.66-2.64-0.63-3.97C14.44,10.95,19.62,5.9,25.9,5.9c0.08,0,0.15,0,0.23,0   c4.4,0.09,8.31,2.63,10.21,6.61c0.16,0.33,0.52,0.49,0.88,0.4c0.75-0.21,1.5-0.31,2.27-0.28c2.76,0.05,5.26,1.51,6.68,3.9   c0.1,0.18,0.28,0.3,0.48,0.35c0.2,0.04,0.41,0.01,0.58-0.1c1.27-0.83,2.72-1.26,4.23-1.22c1.98,0.04,3.83,0.85,5.2,2.28   c1.37,1.43,2.1,3.3,2.06,5.28c-0.02,1-0.24,1.98-0.67,2.92c-0.1,0.22-0.09,0.47,0.03,0.68c0.12,0.21,0.33,0.35,0.56,0.38   c3.79,0.47,6.59,3.7,6.5,7.51c-0.04,1.98-0.85,3.83-2.28,5.2c-1.43,1.37-3.3,2.1-5.29,2.06c-0.38-0.01-2,0-5.05,0.02v-8.14   c0-0.41-0.34-0.75-0.75-0.75h-3.09c-0.41,0-0.75,0.34-0.75,0.75v8.15C46.44,41.9,44.84,41.91,43.19,41.92z M60.99,54.7v-1.56   c0-0.34-0.24-0.63-0.57-0.72c-0.06-0.02-0.12-0.02-0.18-0.02c-0.04,0-0.07,0-0.11,0.01h-10.7V34.5h1.59v8.13c0,0.01,0,0.01,0,0.02   c0,0.01,0,0.01,0,0.02v7.41c0,0.41,0.34,0.75,0.75,0.75h8.33c0.13,0.02,0.25,0.02,0.38-0.03c0.3-0.1,0.51-0.39,0.51-0.71v-1.74   l4.68,3.18L60.99,54.7z"/><path d="M39.35,57.41c0.41,0,0.75-0.34,0.75-0.75v-2.44c0-0.41-0.34-0.75-0.75-0.75s-0.75,0.34-0.75,0.75v2.44   C38.6,57.08,38.93,57.41,39.35,57.41z"/><path d="M28.81,34.49c0,0.41,0.34,0.75,0.75,0.75s0.75-0.34,0.75-0.75v-1.24c0-0.41-0.34-0.75-0.75-0.75s-0.75,0.34-0.75,0.75   V34.49z"/></g><text x="0" y="87" fill="#000000" font-size="5px" font-weight="bold" font-family="'Helvetica Neue', Helvetica, Arial-Unicode, Arial, Sans-serif">Created by Azam Ishaq</text><text x="0" y="92" fill="#000000" font-size="5px" font-weight="bold" font-family="'Helvetica Neue', Helvetica, Arial-Unicode, Arial, Sans-serif">from the Noun Project</text></svg>