<svg xmlns="http://www.w3.org/2000/svg" xmlns:xlink="http://www.w3.org/1999/xlink" version="1.1" x="0px" y="0px" viewBox="0 0 72 90" style="enable-background:new 0 0 72 72;" xml:space="preserve"><g><path d="M65.44,53.15h-4.09v-4.12c0-0.41-0.34-0.75-0.75-0.75h-8.65v-5.34c2.64-0.01,4.45-0.01,4.83,0   c2.31,0.05,4.51-0.81,6.18-2.41c1.67-1.6,2.62-3.76,2.67-6.08c0.09-4.15-2.72-7.7-6.67-8.62c0.27-0.81,0.41-1.66,0.43-2.53   c0.1-4.78-3.71-8.75-8.49-8.85c-1.51-0.02-2.99,0.33-4.3,1.04c-1.68-2.38-4.36-3.82-7.31-3.88c-0.68-0.01-1.36,0.05-2.02,0.19   c-2.18-4.06-6.31-6.61-10.94-6.71c-3.38-0.06-6.62,1.19-9.07,3.54c-2.45,2.35-3.84,5.52-3.91,8.92c-0.03,1.21,0.13,2.43,0.46,3.62   C9.33,22.64,6.2,26.83,6.1,31.59c-0.06,3,1.05,5.86,3.13,8.02c2.08,2.17,4.88,3.4,7.89,3.46c0.22,0,0.76,0.01,1.54,0.01   c0.33,0,0.71,0,1.12,0v5.2h-8.64c-0.41,0-0.75,0.34-0.75,0.75v4.12H6.56c-1.27,0-2.31,1.04-2.31,2.31v9.15   c0,1.27,1.04,2.31,2.31,2.31h9.15c1.27,0,2.31-1.04,2.31-2.31v-9.15c0-1.27-1.04-2.31-2.31-2.31h-3.82v-3.37h8.64   c0.41,0,0.75-0.34,0.75-0.75v-5.96c0.76,0,1.59,0,2.5-0.01c0.01,0,0.02,0,0.03,0c0.01,0,0.01,0,0.02,0   c2.21-0.01,4.8-0.02,7.56-0.03c0.01,0,0.02,0.01,0.03,0.01c0.01,0,0.02-0.01,0.02-0.01c1.2-0.01,2.43-0.01,3.68-0.02v10.14h-3.82   c-1.27,0-2.31,1.04-2.31,2.31v9.15c0,1.27,1.04,2.31,2.31,2.31h9.15c1.27,0,2.31-1.04,2.31-2.31v-9.15c0-1.27-1.04-2.31-2.31-2.31   h-3.83V43.01c0.61,0,1.22-0.01,1.82-0.01c0.62,0,1.24-0.01,1.86-0.01c0,0,0.01,0,0.01,0c2.69-0.01,5.29-0.03,7.6-0.04   c0.04,0,0.07,0,0.11,0c0.86,0,1.67-0.01,2.43-0.01v6.09c0,0.41,0.34,0.75,0.75,0.75h8.65v3.37h-3.56c-1.27,0-2.31,1.04-2.31,2.31   v9.15c0,1.27,1.04,2.31,2.31,2.31h9.15c1.27,0,2.31-1.04,2.31-2.31v-9.15C67.75,54.19,66.71,53.15,65.44,53.15z M16.52,55.46v9.15   c0,0.45-0.36,0.81-0.81,0.81H6.56c-0.45,0-0.81-0.36-0.81-0.81v-9.15c0-0.45,0.36-0.81,0.81-0.81h4.56c0.01,0,0.02,0,0.02,0   s0.02,0,0.02,0h4.55C16.16,54.65,16.52,55.01,16.52,55.46z M41.25,55.46v9.15c0,0.45-0.36,0.81-0.81,0.81h-9.15   c-0.45,0-0.81-0.36-0.81-0.81v-9.15c0-0.45,0.36-0.81,0.81-0.81h4.55c0.01,0,0.02,0,0.02,0s0.02,0,0.02,0h4.55   C40.89,54.65,41.25,55.01,41.25,55.46z M17.15,41.57c-2.6-0.05-5.03-1.12-6.84-3c-1.8-1.88-2.77-4.35-2.71-6.96   c0.09-4.35,3.1-8.15,7.32-9.24c0.2-0.05,0.37-0.19,0.47-0.37c0.1-0.18,0.12-0.4,0.05-0.6c-0.43-1.26-0.63-2.56-0.61-3.85   c0.06-3,1.29-5.79,3.45-7.87c2.11-2.02,4.85-3.12,7.76-3.12c0.08,0,0.16,0,0.24,0c4.26,0.09,8.05,2.54,9.89,6.4   c0.16,0.33,0.52,0.49,0.88,0.4c0.72-0.2,1.44-0.29,2.2-0.28c2.67,0.06,5.09,1.47,6.46,3.78c0.1,0.18,0.28,0.3,0.48,0.35   c0.2,0.05,0.41,0.01,0.58-0.1c1.22-0.8,2.64-1.2,4.09-1.18c3.96,0.08,7.11,3.37,7.02,7.32c-0.02,0.98-0.24,1.93-0.64,2.82   c-0.1,0.22-0.09,0.47,0.03,0.68c0.12,0.21,0.33,0.35,0.56,0.38c3.66,0.45,6.37,3.57,6.29,7.27c-0.04,1.92-0.82,3.7-2.21,5.03   c-1.38,1.33-3.24,2.03-5.12,2c-0.52-0.01-3.53,0-7.71,0.02c0.2-0.53,0.37-1.07,0.5-1.61l3.15-0.45c0.37-0.05,0.65-0.38,0.64-0.75   l-0.06-4.47c0-0.38-0.29-0.69-0.66-0.73l-3.16-0.36c-0.36-1.36-0.92-2.66-1.67-3.87l1.92-2.55c0.23-0.3,0.19-0.73-0.08-0.99   l-3.21-3.12c-0.27-0.26-0.69-0.29-0.99-0.05l-2.5,1.99c-1.24-0.73-2.55-1.25-3.91-1.57l-0.44-3.15c-0.05-0.37-0.37-0.65-0.74-0.65   c0,0-0.01,0-0.01,0l-4.48,0.06c-0.38,0-0.69,0.29-0.73,0.66l-0.36,3.16c-1.37,0.36-2.66,0.92-3.86,1.67l-2.55-1.92   c-0.3-0.23-0.72-0.19-0.99,0.08l-3.12,3.21c-0.26,0.27-0.28,0.69-0.05,0.99l1.98,2.5c-0.72,1.22-1.24,2.53-1.56,3.91l-3.16,0.45   c-0.37,0.05-0.65,0.38-0.64,0.75l0.06,4.47c0,0.38,0.29,0.69,0.66,0.73l3.17,0.37c0.12,0.45,0.27,0.9,0.45,1.36   C19.72,41.58,17.65,41.58,17.15,41.57z M42.17,41.48c1.07-1.39,1.66-3.09,1.66-4.88c-0.02-4.37-3.6-7.92-7.97-7.92   c-0.01,0-0.01,0-0.02,0c-2.12,0.01-4.12,0.85-5.61,2.35c-1.5,1.51-2.31,3.51-2.3,5.63c0,1.8,0.61,3.51,1.7,4.88   c-1.91,0.01-3.7,0.02-5.31,0.02c-0.33-0.76-0.58-1.49-0.74-2.2c-0.07-0.31-0.33-0.55-0.64-0.58l-3.03-0.36l-0.04-3.15l3.02-0.43   c0.32-0.04,0.57-0.29,0.63-0.6c0.3-1.56,0.88-3.02,1.74-4.36c0.17-0.27,0.16-0.62-0.04-0.87l-1.89-2.4l2.2-2.27l2.45,1.83   c0.26,0.19,0.61,0.2,0.87,0.02c1.31-0.89,2.76-1.52,4.32-1.87c0.31-0.07,0.55-0.33,0.58-0.65l0.35-3.02l3.16-0.04l0.42,3.01   c0.04,0.32,0.29,0.57,0.6,0.63c1.53,0.29,3,0.88,4.37,1.75c0.27,0.17,0.62,0.15,0.87-0.05l2.4-1.9l2.26,2.2l-1.83,2.45   c-0.19,0.26-0.2,0.61-0.02,0.87c0.9,1.33,1.53,2.78,1.87,4.33c0.07,0.31,0.33,0.54,0.65,0.58l3.02,0.35l0.04,3.15l-3.01,0.43   c-0.32,0.04-0.57,0.29-0.63,0.6c-0.16,0.83-0.43,1.64-0.77,2.43C45.82,41.47,44.03,41.47,42.17,41.48z M38.43,41.5   c-2.27,0.01-4.55,0.02-6.74,0.03c-1.44-1.22-2.27-2.98-2.27-4.88c-0.01-1.72,0.65-3.34,1.87-4.57c1.21-1.22,2.83-1.9,4.55-1.91   c0.01,0,0.01,0,0.02,0c3.55,0,6.45,2.88,6.47,6.43c0.01,1.88-0.8,3.64-2.23,4.88C39.54,41.49,38.99,41.5,38.43,41.5z M66.25,64.62   c0,0.45-0.36,0.81-0.81,0.81h-9.15c-0.45,0-0.81-0.36-0.81-0.81v-9.15c0-0.45,0.36-0.81,0.81-0.81h4.29c0.01,0,0.02,0,0.02,0   s0.02,0,0.02,0h4.82c0.45,0,0.81,0.36,0.81,0.81V64.62z"/><path d="M61.45,56.67c-0.01-0.01-0.03-0.02-0.04-0.03c-0.05-0.06-0.11-0.11-0.17-0.15c-0.03-0.02-0.05-0.04-0.08-0.05   c-0.1-0.05-0.2-0.08-0.32-0.08c0,0,0,0,0,0c-0.01,0-0.01,0-0.02,0.01c-0.11,0-0.21,0.03-0.3,0.07c-0.03,0.01-0.05,0.04-0.08,0.05   c-0.07,0.04-0.12,0.09-0.17,0.15c-0.01,0.01-0.03,0.02-0.04,0.03l-1.9,2.69c-0.24,0.34-0.16,0.81,0.18,1.04   c0.13,0.09,0.28,0.14,0.43,0.14c0.24,0,0.47-0.11,0.61-0.32l0.54-0.76v3.5c0,0.41,0.34,0.75,0.75,0.75s0.75-0.34,0.75-0.75v-3.55   l0.59,0.82c0.24,0.33,0.71,0.41,1.05,0.17c0.33-0.24,0.41-0.71,0.17-1.05L61.45,56.67z"/><path d="M11.64,56.57c-0.14-0.14-0.31-0.23-0.52-0.22c0,0,0,0,0,0c0,0,0,0,0,0c0,0,0,0,0,0c-0.01,0-0.01,0-0.02,0.01   c-0.11,0-0.21,0.03-0.3,0.07c-0.03,0.01-0.05,0.04-0.08,0.05c-0.07,0.04-0.12,0.09-0.17,0.15c-0.01,0.01-0.03,0.02-0.04,0.03   l-1.9,2.69c-0.24,0.34-0.16,0.81,0.18,1.04c0.13,0.09,0.28,0.14,0.43,0.14c0.24,0,0.47-0.11,0.61-0.32l0.54-0.76v3.5   c0,0.41,0.34,0.75,0.75,0.75s0.75-0.34,0.75-0.75v-3.55l0.59,0.82c0.24,0.33,0.71,0.41,1.05,0.17c0.33-0.24,0.41-0.71,0.17-1.05   l-1.95-2.69c-0.02-0.03-0.05-0.05-0.07-0.08C11.65,56.58,11.64,56.58,11.64,56.57z"/><path d="M35.14,57.11v3.55l-0.59-0.82c-0.24-0.33-0.71-0.41-1.05-0.17c-0.33,0.24-0.41,0.71-0.17,1.05l1.95,2.69   c0.01,0.01,0.03,0.02,0.04,0.03c0.05,0.06,0.11,0.11,0.17,0.15c0.03,0.02,0.05,0.04,0.08,0.05c0.1,0.05,0.2,0.08,0.32,0.08   c0,0,0,0,0,0c0.01,0,0.01,0,0.02-0.01c0.11,0,0.21-0.03,0.3-0.07c0.03-0.01,0.05-0.04,0.08-0.05c0.07-0.04,0.12-0.09,0.17-0.15   c0.01-0.01,0.03-0.02,0.04-0.03l1.9-2.69c0.24-0.34,0.16-0.81-0.18-1.04c-0.34-0.24-0.81-0.16-1.04,0.18l-0.54,0.76v-3.5   c0-0.41-0.34-0.75-0.75-0.75S35.14,56.69,35.14,57.11z"/></g></svg>