<svg xmlns="http://www.w3.org/2000/svg" xmlns:xlink="http://www.w3.org/1999/xlink" version="1.1" x="0px" y="0px" viewBox="0 0 72 90" style="enable-background:new 0 0 72 72;" xml:space="preserve"><g><path d="M25.96,24.89l1.47,0.38c0.21,0.82,0.53,1.6,0.97,2.33l-0.77,1.3c-0.17,0.29-0.13,0.67,0.12,0.91l1.53,1.53   c0.24,0.24,0.62,0.29,0.91,0.12l1.3-0.77c0.73,0.43,1.51,0.76,2.33,0.97l0.38,1.47c0.08,0.33,0.38,0.56,0.73,0.56h2.17   c0.34,0,0.64-0.23,0.73-0.56l0.38-1.47c0.82-0.21,1.6-0.53,2.33-0.97l1.3,0.77c0.29,0.17,0.67,0.13,0.91-0.12l1.53-1.53   c0.24-0.24,0.29-0.62,0.12-0.91l-0.77-1.3c0.43-0.73,0.76-1.51,0.97-2.33l1.47-0.38c0.33-0.08,0.56-0.38,0.56-0.73V22   c0-0.34-0.23-0.64-0.56-0.73l-1.47-0.38c-0.21-0.82-0.53-1.6-0.97-2.33l0.77-1.3c0.17-0.29,0.13-0.67-0.12-0.91l-1.53-1.53   c-0.24-0.24-0.62-0.29-0.91-0.12l-1.3,0.77c-0.73-0.43-1.51-0.76-2.33-0.97l-0.38-1.47c-0.08-0.33-0.38-0.56-0.73-0.56h-2.17   c-0.34,0-0.64,0.23-0.73,0.56l-0.38,1.47c-0.82,0.21-1.6,0.53-2.33,0.97l-1.3-0.77c-0.29-0.17-0.67-0.13-0.91,0.12l-1.53,1.53   c-0.24,0.24-0.29,0.62-0.12,0.91l0.77,1.3c-0.43,0.73-0.76,1.51-0.97,2.33l-1.47,0.38c-0.33,0.08-0.56,0.38-0.56,0.73v2.17   C25.39,24.51,25.62,24.81,25.96,24.89z M26.89,22.58l1.35-0.34c0.28-0.07,0.49-0.3,0.55-0.58c0.19-0.96,0.56-1.85,1.1-2.66   c0.16-0.24,0.17-0.55,0.02-0.8l-0.71-1.2l0.71-0.71l1.2,0.71c0.25,0.15,0.56,0.14,0.8-0.02c0.81-0.54,1.7-0.91,2.66-1.1   c0.28-0.06,0.51-0.27,0.58-0.55l0.34-1.35h1l0.34,1.35c0.07,0.28,0.3,0.49,0.58,0.55c0.96,0.19,1.85,0.56,2.66,1.1   c0.24,0.16,0.55,0.17,0.8,0.02l1.2-0.71l0.71,0.71l-0.71,1.2c-0.15,0.25-0.14,0.56,0.02,0.8c0.54,0.81,0.91,1.7,1.1,2.66   c0.06,0.28,0.27,0.51,0.55,0.58l1.35,0.34v1l-1.35,0.34c-0.28,0.07-0.49,0.3-0.55,0.58c-0.19,0.96-0.56,1.85-1.1,2.66   c-0.16,0.24-0.17,0.55-0.02,0.8l0.71,1.2l-0.71,0.71l-1.2-0.71c-0.25-0.15-0.56-0.14-0.8,0.02c-0.81,0.54-1.7,0.91-2.66,1.1   c-0.28,0.06-0.51,0.27-0.58,0.55l-0.34,1.35h-1l-0.34-1.35c-0.07-0.28-0.3-0.49-0.58-0.55c-0.96-0.19-1.85-0.56-2.66-1.1   c-0.24-0.16-0.55-0.17-0.8-0.02l-1.2,0.71l-0.71-0.71l0.71-1.2c0.15-0.25,0.14-0.56-0.02-0.8c-0.54-0.81-0.91-1.7-1.1-2.66   c-0.06-0.28-0.27-0.51-0.55-0.58l-1.35-0.34V22.58z"/><path d="M36,29.16c3.35,0,6.08-2.73,6.08-6.08S39.35,17,36,17s-6.08,2.73-6.08,6.08S32.65,29.16,36,29.16z M36,18.5   c2.53,0,4.58,2.05,4.58,4.58c0,2.53-2.05,4.58-4.58,4.58c-2.52,0-4.58-2.05-4.58-4.58C31.42,20.56,33.48,18.5,36,18.5z"/><path d="M64.69,47.28c-0.41,0-0.75,0.34-0.75,0.75v1.26c0,0.41,0.34,0.75,0.75,0.75s0.75-0.34,0.75-0.75v-1.26   C65.44,47.62,65.1,47.28,64.69,47.28z"/><path d="M67,54.36h-1.59c0.01-0.08,0.03-0.17,0.03-0.25v-2.56c0-0.41-0.34-0.75-0.75-0.75s-0.75,0.34-0.75,0.75v2.56   c0,0.13-0.11,0.25-0.24,0.25h-8.59c-0.19,0-0.38,0.07-0.52,0.21l-0.78,0.74h-2.89l-0.78-0.74c-0.14-0.13-0.32-0.21-0.52-0.21h-8.58   c-0.13-0.01-0.25-0.12-0.25-0.25V38.95c0-0.14,0.11-0.25,0.25-0.25h22.63c0.14,0,0.25,0.11,0.25,0.25v6.74   c0,0.41,0.34,0.75,0.75,0.75s0.75-0.34,0.75-0.75v-6.74c0-0.97-0.79-1.75-1.75-1.75H41.06c-0.97,0-1.75,0.79-1.75,1.75v15.17   c0,0.09,0.01,0.17,0.03,0.25h-1.58c-0.41,0-0.75,0.34-0.75,0.75v1.7c0,1.5,1.21,2.72,2.71,2.72h25.33c1.5,0,2.72-1.22,2.72-2.72   v-1.7C67.75,54.7,67.41,54.36,67,54.36z M66.25,56.81c0,0.67-0.55,1.22-1.22,1.22H39.71c-0.67,0-1.21-0.55-1.21-1.22v-0.95h2.52   c0.01,0,0.03,0,0.04,0c0.01,0,0.01,0,0.02,0h8.26l0.78,0.74c0.14,0.13,0.32,0.21,0.52,0.21h3.49c0.19,0,0.38-0.07,0.52-0.21   l0.78-0.74h8.26c0.01,0,0.01,0,0.02,0c0.01,0,0.03,0,0.04,0h2.52V56.81z"/><path d="M59.33,42.38H45.42c-0.41,0-0.75,0.34-0.75,0.75s0.34,0.75,0.75,0.75h13.91c0.41,0,0.75-0.34,0.75-0.75   S59.74,42.38,59.33,42.38z"/><path d="M59.33,46.18H45.42c-0.41,0-0.75,0.34-0.75,0.75s0.34,0.75,0.75,0.75h13.91c0.41,0,0.75-0.34,0.75-0.75   S59.74,46.18,59.33,46.18z"/><path d="M59.33,49.97H45.42c-0.41,0-0.75,0.34-0.75,0.75s0.34,0.75,0.75,0.75h13.91c0.41,0,0.75-0.34,0.75-0.75   S59.74,49.97,59.33,49.97z"/><path d="M31.94,47.28c-0.41,0-0.75,0.34-0.75,0.75v1.26c0,0.41,0.34,0.75,0.75,0.75s0.75-0.34,0.75-0.75v-1.26   C32.69,47.62,32.35,47.28,31.94,47.28z"/><path d="M34.25,54.36h-1.59c0.01-0.08,0.03-0.17,0.03-0.25v-2.56c0-0.41-0.34-0.75-0.75-0.75s-0.75,0.34-0.75,0.75v2.56   c0,0.13-0.11,0.25-0.24,0.25h-8.59c-0.19,0-0.38,0.07-0.52,0.21l-0.78,0.74h-2.89l-0.78-0.74c-0.14-0.13-0.32-0.21-0.52-0.21H8.3   c-0.13-0.01-0.25-0.12-0.25-0.25V38.95c0-0.14,0.11-0.25,0.25-0.25h22.63c0.14,0,0.25,0.11,0.25,0.25v6.74   c0,0.41,0.34,0.75,0.75,0.75s0.75-0.34,0.75-0.75v-6.74c0-0.97-0.79-1.75-1.75-1.75H8.31c-0.97,0-1.75,0.79-1.75,1.75v15.17   c0,0.09,0.01,0.17,0.03,0.25H5c-0.41,0-0.75,0.34-0.75,0.75v1.7c0,1.5,1.21,2.72,2.71,2.72h25.33c1.5,0,2.71-1.22,2.71-2.72v-1.7   C35,54.7,34.66,54.36,34.25,54.36z M33.5,56.81c0,0.67-0.54,1.22-1.21,1.22H6.96c-0.67,0-1.21-0.55-1.21-1.22v-0.95h2.52   c0.01,0,0.03,0,0.04,0c0.01,0,0.01,0,0.02,0h8.26l0.78,0.74c0.14,0.13,0.32,0.21,0.52,0.21h3.49c0.19,0,0.38-0.07,0.52-0.21   l0.78-0.74h8.26c0.01,0,0.01,0,0.02,0c0.01,0,0.03,0,0.04,0h2.52V56.81z"/><path d="M26.58,42.38H12.67c-0.41,0-0.75,0.34-0.75,0.75s0.34,0.75,0.75,0.75h13.91c0.41,0,0.75-0.34,0.75-0.75   S26.99,42.38,26.58,42.38z"/><path d="M26.58,46.18H12.67c-0.41,0-0.75,0.34-0.75,0.75s0.34,0.75,0.75,0.75h13.91c0.41,0,0.75-0.34,0.75-0.75   S26.99,46.18,26.58,46.18z"/><path d="M26.58,49.97H12.67c-0.41,0-0.75,0.34-0.75,0.75s0.34,0.75,0.75,0.75h13.91c0.41,0,0.75-0.34,0.75-0.75   S26.99,49.97,26.58,49.97z"/><path d="M49.66,23.83h5v8.2l-1.03-1.12c-0.28-0.3-0.75-0.32-1.06-0.04c-0.3,0.28-0.32,0.75-0.04,1.06l2.33,2.53   c0.14,0.15,0.34,0.24,0.55,0.24h0c0.21,0,0.41-0.09,0.55-0.24l2.34-2.53c0.28-0.3,0.26-0.78-0.04-1.06   c-0.3-0.28-0.78-0.26-1.06,0.04l-1.04,1.13v-8.96c0-0.41-0.34-0.75-0.75-0.75h-5.75c-0.41,0-0.75,0.34-0.75,0.75   S49.25,23.83,49.66,23.83z"/><path d="M16.04,34.46c0.14,0.15,0.34,0.24,0.55,0.24h0c0.21,0,0.41-0.09,0.55-0.24l2.33-2.53c0.28-0.3,0.26-0.78-0.04-1.06   c-0.3-0.28-0.78-0.26-1.06,0.04l-1.03,1.12v-8.2h5c0.41,0,0.75-0.34,0.75-0.75s-0.34-0.75-0.75-0.75h-5.75   c-0.41,0-0.75,0.34-0.75,0.75v8.96l-1.04-1.13c-0.28-0.31-0.76-0.32-1.06-0.04c-0.3,0.28-0.32,0.76-0.04,1.06L16.04,34.46z"/></g></svg>