<svg xmlns="http://www.w3.org/2000/svg" xmlns:xlink="http://www.w3.org/1999/xlink" version="1.1" x="0px" y="0px" viewBox="0 0 72 90" style="enable-background:new 0 0 72 72;" xml:space="preserve"><g><path d="M45.32,22.84c0.04,0,0.08,0,0.12-0.01c0.41-0.07,0.81-0.14,1.2-0.21c0.41-0.08,0.67-0.47,0.6-0.88   c-0.08-0.41-0.47-0.67-0.88-0.6c-0.38,0.07-0.76,0.14-1.16,0.2c-0.41,0.06-0.69,0.45-0.62,0.86   C44.63,22.58,44.95,22.84,45.32,22.84z"/><path d="M25.74,30.05c-0.26-0.05-0.52-0.1-0.78-0.15c-0.41-0.09-0.8,0.18-0.89,0.58c-0.08,0.41,0.18,0.8,0.58,0.89   c0.26,0.05,0.53,0.11,0.8,0.16c0.05,0.01,0.09,0.01,0.14,0.01c0.35,0,0.67-0.25,0.74-0.61C26.41,30.52,26.14,30.13,25.74,30.05z"/><path d="M60.01,52.19h-6.83v-5.17c0-0.41-0.34-0.75-0.75-0.75H36.75v-4.98c8.82-0.1,17.51-1.87,17.51-5.18v-8.88v-8.88V9.44   c0-3.41-9.18-5.19-18.26-5.19S17.74,6.03,17.74,9.44v8.88v8.88v8.88c0,3.32,8.69,5.09,17.51,5.18v4.98H19.56   c-0.41,0-0.75,0.34-0.75,0.75v5.17h-6.83c-0.41,0-0.75,0.34-0.75,0.75v11.24c0,0.41,0.34,0.75,0.75,0.75h6.83v1.32H16   c-0.41,0-0.75,0.34-0.75,0.75s0.34,0.75,0.75,0.75h7.12c0.41,0,0.75-0.34,0.75-0.75s-0.34-0.75-0.75-0.75h-2.81v-1.32h6.83   c0.41,0,0.75-0.34,0.75-0.75V52.94c0-0.41-0.34-0.75-0.75-0.75h-6.83v-4.42h31.38v4.42h-6.83c-0.41,0-0.75,0.34-0.75,0.75v11.24   c0,0.41,0.34,0.75,0.75,0.75h6.83v1.32h-2.81c-0.41,0-0.75,0.34-0.75,0.75s0.34,0.75,0.75,0.75H56c0.41,0,0.75-0.34,0.75-0.75   s-0.34-0.75-0.75-0.75h-2.81v-1.32h6.83c0.41,0,0.75-0.34,0.75-0.75V52.94C60.76,52.52,60.43,52.19,60.01,52.19z M36,5.75   c10.23,0,16.76,2.19,16.76,3.69S46.23,13.13,36,13.13s-16.76-2.19-16.76-3.69S25.77,5.75,36,5.75z M19.24,36.1v-6.68   c0.82,0.55,1.97,1.04,3.47,1.47c0.07,0.02,0.14,0.03,0.21,0.03c0.33,0,0.63-0.21,0.72-0.54c0.11-0.4-0.12-0.81-0.52-0.93   c-3.06-0.87-3.88-1.81-3.88-2.23v-6.69c2.96,1.98,9.89,3,16.76,3c2.3,0,4.55-0.11,6.67-0.33c0.41-0.04,0.71-0.41,0.67-0.82   c-0.04-0.41-0.41-0.72-0.82-0.67c-2.07,0.21-4.26,0.32-6.51,0.32c-10.23,0-16.76-2.19-16.76-3.69v-6.69c2.96,1.98,9.89,3,16.76,3   s13.8-1.02,16.76-3v6.69c0,0.4-0.75,1.29-3.58,2.14c-0.4,0.12-0.62,0.54-0.5,0.93c0.1,0.33,0.4,0.53,0.72,0.53   c0.07,0,0.14-0.01,0.22-0.03c1.35-0.4,2.38-0.87,3.15-1.37v6.68c0,1.51-6.53,3.69-16.76,3.69c-2.63,0-5.17-0.15-7.53-0.44   c-0.4-0.05-0.79,0.24-0.83,0.65c-0.05,0.41,0.24,0.79,0.65,0.83c2.42,0.3,5.01,0.45,7.71,0.45c6.87,0,13.8-1.02,16.76-3v6.69   c0,1.51-6.53,3.69-16.76,3.69S19.24,37.6,19.24,36.1z M26.39,63.43H12.74v-9.74h13.65V63.43z M59.26,63.43H45.61v-9.74h13.65V63.43   z"/><path d="M60.59,21.3c0.41,0,0.75-0.34,0.75-0.75v-2.22c0-0.41-0.34-0.75-0.75-0.75s-0.75,0.34-0.75,0.75v2.22   C59.84,20.96,60.18,21.3,60.59,21.3z"/><path d="M63.69,41.06c-0.32-0.26-0.79-0.22-1.06,0.1l-1.29,1.56V23.88c0-0.41-0.34-0.75-0.75-0.75s-0.75,0.34-0.75,0.75v18.99   l-1.53-1.69c-0.28-0.31-0.75-0.33-1.06-0.05c-0.31,0.28-0.33,0.75-0.05,1.06l2.83,3.12c0.14,0.16,0.34,0.25,0.56,0.25   c0.01,0,0.01,0,0.02,0c0.22-0.01,0.42-0.1,0.56-0.27l2.62-3.17C64.05,41.79,64.01,41.32,63.69,41.06z"/><path d="M12.37,44.81v-2.22c0-0.41-0.34-0.75-0.75-0.75s-0.75,0.34-0.75,0.75v2.22c0,0.41,0.34,0.75,0.75,0.75   S12.37,45.22,12.37,44.81z"/><path d="M10.87,39.25c0,0.41,0.34,0.75,0.75,0.75s0.75-0.34,0.75-0.75V20.42l1.29,1.56c0.15,0.18,0.36,0.27,0.58,0.27   c0.17,0,0.34-0.06,0.48-0.17c0.32-0.26,0.37-0.74,0.1-1.06l-2.62-3.17c-0.14-0.17-0.34-0.27-0.56-0.27   c-0.2-0.01-0.43,0.08-0.57,0.25l-2.83,3.12c-0.28,0.31-0.25,0.78,0.05,1.06c0.31,0.28,0.78,0.25,1.06-0.05l1.53-1.69V39.25z"/></g></svg>