<svg xmlns="http://www.w3.org/2000/svg" xmlns:xlink="http://www.w3.org/1999/xlink" version="1.1" x="0px" y="0px" viewBox="0 0 72 90" style="enable-background:new 0 0 72 72;" xml:space="preserve"><g><path d="M28.89,8.75c8.12,0,13.2,1.09,15.51,1.74c0.07,0.02,0.14,0.03,0.2,0.03c0.33,0,0.63-0.22,0.72-0.55   c0.11-0.4-0.12-0.81-0.52-0.93c-2.38-0.67-7.62-1.79-15.92-1.79c-0.41,0-0.75,0.34-0.75,0.75S28.47,8.75,28.89,8.75z"/><path d="M14.93,16.44L14.93,16.44c-1.24-0.07-2.28,0.9-2.33,2.13c-0.03,0.6,0.18,1.17,0.58,1.61c0.4,0.44,0.95,0.7,1.55,0.73   c0.04,0,0.07,0,0.11,0c0.56,0,1.09-0.2,1.5-0.58c0.44-0.4,0.7-0.95,0.73-1.55C17.11,17.54,16.16,16.49,14.93,16.44z M15.32,19.21   c-0.14,0.13-0.34,0.2-0.53,0.19c-0.2-0.01-0.38-0.09-0.51-0.24c-0.13-0.14-0.2-0.33-0.19-0.53c0.02-0.39,0.34-0.7,0.73-0.7   c0.01,0,0.02,0,0.03,0c0.4,0.02,0.72,0.36,0.7,0.77C15.55,18.9,15.46,19.08,15.32,19.21z"/><path d="M20.73,17.99c-0.59-0.04-1.17,0.18-1.61,0.58c-0.44,0.4-0.7,0.95-0.72,1.55c-0.06,1.23,0.9,2.28,2.13,2.33   c0.04,0,0.07,0,0.1,0c0.56,0,1.09-0.2,1.5-0.58c0.44-0.4,0.7-0.95,0.73-1.55c0.03-0.6-0.18-1.17-0.58-1.61   C21.88,18.27,21.33,18.02,20.73,17.99z M21.12,20.76c-0.15,0.13-0.33,0.2-0.53,0.19c-0.4-0.02-0.72-0.36-0.7-0.77   c0.01-0.2,0.09-0.38,0.24-0.51c0.14-0.12,0.31-0.19,0.49-0.19c0.01,0,0.02,0,0.03,0h0c0.19,0.01,0.38,0.09,0.51,0.24   c0.13,0.14,0.2,0.33,0.19,0.53C21.35,20.45,21.27,20.63,21.12,20.76z"/><path d="M28.37,19.2c-0.4-0.44-0.95-0.7-1.55-0.73c-1.23-0.07-2.28,0.9-2.33,2.13c-0.06,1.23,0.9,2.28,2.13,2.33   c0.03,0,0.07,0,0.1,0c1.18,0,2.17-0.93,2.23-2.13C28.97,20.21,28.77,19.64,28.37,19.2z M26.68,21.43c-0.4-0.02-0.72-0.36-0.7-0.77   c0.01-0.2,0.09-0.38,0.24-0.51c0.14-0.12,0.31-0.19,0.49-0.19c0.01,0,0.02,0,0.03,0h0c0.2,0.01,0.38,0.09,0.51,0.24   s0.2,0.33,0.19,0.53C27.43,21.14,27.05,21.45,26.68,21.43z"/><path d="M14.93,32.26L14.93,32.26c-1.24-0.08-2.28,0.9-2.33,2.13c-0.03,0.6,0.18,1.17,0.58,1.61c0.4,0.44,0.95,0.7,1.55,0.73   c0.04,0,0.07,0,0.11,0c0.56,0,1.09-0.2,1.5-0.58c0.44-0.4,0.7-0.95,0.73-1.55C17.11,33.37,16.16,32.32,14.93,32.26z M15.32,35.04   c-0.14,0.13-0.31,0.2-0.53,0.19c-0.2-0.01-0.38-0.09-0.51-0.24c-0.13-0.14-0.2-0.33-0.19-0.53c0.02-0.39,0.34-0.7,0.73-0.7   c0.01,0,0.02,0,0.03,0c0.4,0.02,0.72,0.36,0.7,0.77C15.55,34.72,15.46,34.9,15.32,35.04z"/><path d="M20.73,33.82c-0.59-0.04-1.17,0.18-1.61,0.58c-0.44,0.4-0.7,0.95-0.72,1.55c-0.06,1.23,0.9,2.28,2.13,2.33   c0.04,0,0.07,0,0.1,0c0.56,0,1.09-0.2,1.5-0.58c0.44-0.4,0.7-0.95,0.73-1.55c0.03-0.6-0.18-1.17-0.58-1.61   C21.88,34.1,21.33,33.84,20.73,33.82z M21.12,36.59c-0.15,0.13-0.33,0.19-0.53,0.19c-0.4-0.02-0.72-0.36-0.7-0.77   c0.01-0.2,0.09-0.38,0.24-0.51c0.14-0.12,0.31-0.19,0.49-0.19c0.01,0,0.02,0,0.03,0h0c0.19,0.01,0.38,0.09,0.51,0.24   c0.13,0.14,0.2,0.33,0.19,0.53C21.35,36.27,21.27,36.45,21.12,36.59z"/><path d="M28.37,35.02c-0.4-0.44-0.95-0.7-1.55-0.73c-1.23-0.07-2.28,0.9-2.33,2.13c-0.06,1.23,0.9,2.28,2.13,2.33   c0.03,0,0.07,0,0.1,0c1.18,0,2.17-0.93,2.23-2.13C28.97,36.04,28.77,35.47,28.37,35.02z M26.68,37.26c-0.4-0.02-0.72-0.36-0.7-0.77   c0.01-0.2,0.09-0.38,0.24-0.51c0.14-0.12,0.31-0.19,0.49-0.19c0.01,0,0.02,0,0.03,0h0c0.2,0.01,0.38,0.09,0.51,0.24   s0.2,0.33,0.19,0.53C27.43,36.97,27.05,37.28,26.68,37.26z"/><path d="M14.93,47.94c-0.61-0.04-1.17,0.18-1.61,0.58c-0.44,0.4-0.7,0.95-0.73,1.55c-0.03,0.6,0.18,1.17,0.58,1.61   c0.4,0.44,0.95,0.7,1.55,0.73c0.03,0,0.07,0,0.1,0c1.18,0,2.17-0.93,2.23-2.13c0.03-0.6-0.18-1.17-0.58-1.61   C16.07,48.22,15.52,47.97,14.93,47.94z M14.79,50.9c-0.2-0.01-0.38-0.09-0.51-0.24c-0.13-0.14-0.2-0.33-0.19-0.53   c0.01-0.2,0.09-0.38,0.24-0.51c0.14-0.12,0.31-0.19,0.49-0.19c0.01,0,0.02,0,0.03,0h0c0.2,0.01,0.38,0.09,0.51,0.24   s0.2,0.33,0.19,0.53C15.54,50.6,15.2,50.93,14.79,50.9z"/><path d="M20.73,49.49L20.73,49.49c-0.62-0.04-1.17,0.18-1.61,0.58c-0.44,0.4-0.7,0.95-0.73,1.55c-0.03,0.6,0.18,1.17,0.58,1.61   c0.4,0.44,0.95,0.7,1.55,0.73c0.04,0,0.07,0,0.11,0c0.56,0,1.09-0.2,1.5-0.58c0.44-0.4,0.7-0.95,0.72-1.55   C22.92,50.59,21.96,49.55,20.73,49.49z M21.12,52.26c-0.14,0.13-0.33,0.2-0.53,0.19c-0.19-0.01-0.38-0.09-0.51-0.24   c-0.13-0.14-0.2-0.33-0.19-0.53c0.01-0.2,0.09-0.38,0.24-0.51c0.14-0.12,0.31-0.19,0.49-0.19c0.01,0,0.02,0,0.03,0   c0.4,0.02,0.72,0.36,0.7,0.77C21.35,51.95,21.27,52.13,21.12,52.26z"/><path d="M26.82,49.97L26.82,49.97c-1.23-0.08-2.28,0.9-2.33,2.13c-0.03,0.6,0.18,1.17,0.58,1.61c0.4,0.44,0.95,0.7,1.55,0.73   c0.04,0,0.07,0,0.11,0c0.56,0,1.09-0.2,1.5-0.58c0.44-0.4,0.7-0.95,0.73-1.55c0.03-0.6-0.18-1.17-0.58-1.61   C27.96,50.26,27.42,50,26.82,49.97z M27.21,52.74c-0.14,0.13-0.33,0.2-0.53,0.19c-0.2-0.01-0.38-0.09-0.51-0.24   s-0.2-0.33-0.19-0.53c0.02-0.39,0.34-0.7,0.73-0.7c0.01,0,0.02,0,0.03,0c0.2,0.01,0.38,0.09,0.51,0.24s0.2,0.33,0.19,0.53   C27.44,52.43,27.35,52.61,27.21,52.74z"/><path d="M54.71,45.45c-1.07,0-2.1,0.16-3.08,0.44v-4.02c0-0.02-0.01-0.03-0.01-0.05c-0.03-1.18-0.97-2.22-2.81-3.12   c1.77-0.88,2.81-1.94,2.81-3.18v-9.32c0-0.02-0.01-0.03-0.01-0.04c-0.02-1.17-0.97-2.22-2.81-3.13c1.77-0.88,2.82-1.94,2.82-3.19   v-9.32c0-4.12-11.44-6.27-22.74-6.27S6.15,6.4,6.15,10.52v9.32c0,1.24,1.05,2.31,2.82,3.19c-1.83,0.91-2.78,1.95-2.81,3.11   c0,0.02-0.01,0.04-0.01,0.06v9.32c0,1.24,1.05,2.31,2.82,3.18c-1.83,0.9-2.77,1.94-2.8,3.12c0,0.02-0.01,0.04-0.01,0.06v9.31   c0,0.01,0,0.01,0,0.01c0,4.11,11.44,6.26,22.74,6.26c5.46,0,10.64-0.5,14.7-1.4c-0.01,0.18-0.03,0.36-0.03,0.55   c0,6.15,5,11.15,11.15,11.15c6.15,0,11.15-5,11.15-11.15S60.85,45.45,54.71,45.45z M28.89,5.75c13.16,0,21.24,2.78,21.24,4.77   s-8.08,4.77-21.24,4.77S7.65,12.51,7.65,10.52S15.73,5.75,28.89,5.75z M7.65,19.84v-6.92c3.46,2.55,12.39,3.87,21.24,3.87   s17.78-1.32,21.24-3.87v6.92c0,1.99-8.08,4.77-21.24,4.77S7.65,21.83,7.65,19.84z M10.9,23.82c4.38,1.51,11.21,2.28,17.98,2.28   c6.78,0,13.61-0.78,17.99-2.28c2.04,0.76,3.25,1.64,3.25,2.37c0,1.99-8.08,4.77-21.24,4.77c-13.16,0-21.23-2.78-21.23-4.77   C7.65,25.46,8.86,24.59,10.9,23.82z M7.65,35.51v-6.92c3.46,2.55,12.39,3.87,21.24,3.87c8.85,0,17.79-1.32,21.25-3.87v6.92   c0,1.99-8.08,4.77-21.24,4.77S7.65,37.5,7.65,35.51z M10.9,39.5c4.38,1.51,11.21,2.28,17.98,2.28c6.78,0,13.61-0.78,17.99-2.28   c2.38,0.88,3.25,1.8,3.25,2.37c0,1.99-8.08,4.77-21.24,4.77c-13.16,0-21.23-2.78-21.23-4.77C7.65,41.3,8.52,40.38,10.9,39.5z    M28.89,55.95c-13.15,0-21.23-2.77-21.24-4.76c0,0,0-0.01,0-0.01v-6.92c3.46,2.55,12.39,3.87,21.24,3.87   c8.85,0,17.79-1.32,21.25-3.87v2.17c-3.25,1.47-5.67,4.45-6.37,8.04C39.75,55.43,34.46,55.95,28.89,55.95z M54.71,66.25   c-5.32,0-9.65-4.33-9.65-9.65s4.33-9.65,9.65-9.65s9.65,4.33,9.65,9.65S60.03,66.25,54.71,66.25z"/><path d="M59.98,50.71c-1-1-2.59-1.04-3.54-0.08l-2.03,2.03c-0.88,0.88-0.91,2.3-0.12,3.3l-0.21,0.21   c-0.44-0.35-0.97-0.55-1.52-0.57c-0.65-0.03-1.31,0.22-1.78,0.69l-2.04,2.03c-0.95,0.95-0.92,2.54,0.08,3.54l0.61,0.61   c0.48,0.48,1.1,0.75,1.76,0.78c0.03,0,0.06,0,0.09,0c0.65,0,1.24-0.24,1.69-0.69l2.04-2.03c0.88-0.88,0.91-2.3,0.12-3.3l0.21-0.21   c0.44,0.35,0.97,0.55,1.52,0.57c0.03,0,0.06,0,0.09,0c0.65,0,1.24-0.24,1.69-0.69l2.03-2.03c0.45-0.45,0.69-1.05,0.69-1.7   c0-0.68-0.28-1.35-0.78-1.85L59.98,50.71z M53.95,59.47l-2.04,2.03c-0.17,0.17-0.41,0.25-0.67,0.25c-0.28-0.01-0.55-0.13-0.75-0.34   l-0.61-0.61c-0.42-0.42-0.45-1.05-0.08-1.42l2.04-2.03c0.16-0.16,0.39-0.25,0.63-0.25c0.01,0,0.02,0,0.04,0   c0.17,0.01,0.34,0.07,0.49,0.15l-1.1,1.1c-0.29,0.29-0.29,0.77,0,1.06c0.15,0.15,0.34,0.22,0.53,0.22s0.38-0.07,0.53-0.22l1.1-1.1   C54.27,58.7,54.25,59.17,53.95,59.47z M59.61,53.81l-2.03,2.03c-0.17,0.17-0.42,0.26-0.67,0.25c-0.17-0.01-0.34-0.07-0.49-0.15   l1.31-1.31c0.29-0.29,0.29-0.77,0-1.06s-0.77-0.29-1.06,0l-1.31,1.31c-0.22-0.39-0.2-0.86,0.1-1.16l2.03-2.03   c0.17-0.17,0.4-0.25,0.63-0.25c0.28,0,0.57,0.11,0.79,0.34l0.61,0.61c0,0,0,0,0,0c0.21,0.21,0.34,0.5,0.34,0.79   C59.87,53.42,59.78,53.65,59.61,53.81z"/><path d="M54.45,20.59c0.41,0,0.75-0.34,0.75-0.75V18.7c0-0.41-0.34-0.75-0.75-0.75s-0.75,0.34-0.75,0.75v1.14   C53.7,20.25,54.04,20.59,54.45,20.59z"/><path d="M54.45,17.14c0.41,0,0.75-0.34,0.75-0.75v-4.66c0-0.41-0.34-0.75-0.75-0.75s-0.75,0.34-0.75,0.75v4.66   C53.7,16.81,54.04,17.14,54.45,17.14z"/><path d="M54.45,36.73c0.41,0,0.75-0.34,0.75-0.75v-1.11c0-0.41-0.34-0.75-0.75-0.75s-0.75,0.34-0.75,0.75v1.11   C53.7,36.39,54.04,36.73,54.45,36.73z"/><path d="M54.45,33.31c0.41,0,0.75-0.34,0.75-0.75v-4.07c0-0.41-0.34-0.75-0.75-0.75s-0.75,0.34-0.75,0.75v4.07   C53.7,32.98,54.04,33.31,54.45,33.31z"/></g><text x="0" y="87" fill="#000000" font-size="5px" font-weight="bold" font-family="'Helvetica Neue', Helvetica, Arial-Unicode, Arial, Sans-serif">Created by Azam Ishaq</text><text x="0" y="92" fill="#000000" font-size="5px" font-weight="bold" font-family="'Helvetica Neue', Helvetica, Arial-Unicode, Arial, Sans-serif">from the Noun Project</text></svg>