<svg xmlns="http://www.w3.org/2000/svg" xmlns:xlink="http://www.w3.org/1999/xlink" version="1.1" x="0px" y="0px" viewBox="0 0 72 90" style="enable-background:new 0 0 72 72;" xml:space="preserve"><g><path d="M66.91,26.13c-0.54-0.37-1.22-0.44-1.82-0.19c-1.55,0.63-2.62,2.12-2.73,3.8l-0.73,13.1l-4.37,5.26l0.97-3.62l1.27-1.81   c1.49-2.12,1.41-5.02-0.21-7.05l-0.09-0.12c-0.14-0.18-0.36-0.28-0.59-0.28c0,0,0,0,0,0c-0.23,0-0.45,0.1-0.59,0.28l-5.96,7.51   c-0.07,0.08-0.12,0.18-0.14,0.29L49.4,53.5l-2.13,2.88c-0.54,0.73-0.88,1.58-0.99,2.48l-0.72,5.85c-0.05,0.41,0.24,0.79,0.65,0.84   c0.42,0.06,0.79-0.24,0.84-0.65l0.72-5.85c0.08-0.64,0.32-1.25,0.71-1.77l2.21-3c0.06-0.08,0.1-0.17,0.13-0.27l2.51-10.18   l5.22-6.58c0.75,1.43,0.67,3.21-0.29,4.57l-1.35,1.92c-0.05,0.07-0.09,0.15-0.11,0.24l-1.89,7.05c-0.09,0.34,0.07,0.7,0.38,0.86   c0.31,0.16,0.7,0.08,0.92-0.19l6.72-8.08c0.1-0.12,0.16-0.28,0.17-0.44l0.75-13.34c0.07-1.1,0.78-2.08,1.8-2.5   c0.19-0.08,0.35,0,0.41,0.04c0.06,0.04,0.19,0.15,0.19,0.36l-0.33,17.19c-0.01,0.66-0.23,1.29-0.62,1.82l-7.69,10.41   c-0.88,1.2-1.24,2.72-0.98,4.19l0.71,3.94c0.07,0.36,0.38,0.62,0.74,0.62c0.04,0,0.09,0,0.13-0.01c0.41-0.07,0.68-0.46,0.61-0.87   l-0.71-3.94c-0.19-1.06,0.07-2.17,0.71-3.03l7.69-10.41c0.58-0.78,0.89-1.71,0.91-2.68l0.33-17.19   C67.76,27.11,67.45,26.5,66.91,26.13z"/><path d="M24.72,56.38L22.6,53.5l-2.52-10.19c-0.03-0.1-0.07-0.2-0.14-0.29l-5.96-7.51c-0.14-0.18-0.36-0.28-0.59-0.28c0,0,0,0,0,0   c-0.23,0-0.45,0.1-0.59,0.28l-0.09,0.12c-1.62,2.03-1.7,4.93-0.21,7.05l1.27,1.81l0.97,3.62l-4.37-5.26L9.64,29.73   c-0.11-1.67-1.18-3.16-2.73-3.79c-0.6-0.25-1.29-0.18-1.82,0.19c-0.54,0.37-0.85,0.98-0.84,1.63l0.33,17.19   c0.02,0.97,0.33,1.9,0.91,2.68l7.69,10.41c0.64,0.87,0.9,1.97,0.71,3.03l-0.71,3.94c-0.07,0.41,0.2,0.8,0.61,0.87   c0.04,0.01,0.09,0.01,0.13,0.01c0.36,0,0.67-0.25,0.74-0.62l0.71-3.94c0.26-1.47-0.09-2.99-0.98-4.19L6.7,46.75   c-0.39-0.53-0.61-1.16-0.62-1.82l-0.33-17.2c0-0.21,0.13-0.32,0.19-0.36c0.06-0.04,0.21-0.13,0.41-0.04c1.02,0.42,1.73,1.4,1.8,2.5   l0.75,13.35c0.01,0.16,0.07,0.31,0.17,0.44l6.72,8.08c0.23,0.27,0.61,0.35,0.92,0.19c0.31-0.16,0.47-0.52,0.38-0.86l-1.89-7.05   c-0.02-0.08-0.06-0.17-0.11-0.24l-1.35-1.92c-0.95-1.35-1.04-3.13-0.29-4.57l5.22,6.58L21.18,54c0.02,0.1,0.07,0.19,0.13,0.27   l2.21,3c0.38,0.52,0.63,1.13,0.71,1.77l0.72,5.85c0.05,0.41,0.42,0.71,0.84,0.65c0.41-0.05,0.7-0.42,0.65-0.84l-0.72-5.85   C25.6,57.96,25.26,57.11,24.72,56.38z"/><path d="M50.94,11.19c-0.41,0-0.75,0.34-0.75,0.75v1c-1.33,0.34-2.33,1.54-2.33,2.97c0,1.7,1.38,3.08,3.08,3.08   c0.87,0,1.58,0.71,1.58,1.58s-0.71,1.58-1.58,1.58c-0.77,0-1.44-0.57-1.56-1.33c-0.06-0.41-0.45-0.69-0.85-0.63   c-0.41,0.06-0.69,0.45-0.63,0.85c0.19,1.23,1.12,2.2,2.29,2.5v1.01c0,0.41,0.34,0.75,0.75,0.75s0.75-0.34,0.75-0.75v-1   c1.33-0.34,2.33-1.54,2.33-2.97c0-1.7-1.38-3.08-3.08-3.08c-0.87,0-1.58-0.71-1.58-1.58c0-0.87,0.71-1.58,1.58-1.58   c0.73,0,1.38,0.52,1.54,1.23c0.09,0.41,0.5,0.66,0.9,0.57c0.4-0.09,0.66-0.49,0.57-0.9c-0.26-1.14-1.15-2.01-2.25-2.29v-1.01   C51.69,11.52,51.35,11.19,50.94,11.19z"/><path d="M13.1,32.8c0.41,0,0.75-0.34,0.75-0.75V7.59h45.09v23.13c0,0.41,0.34,0.75,0.75,0.75s0.75-0.34,0.75-0.75V6.84   c0-0.41-0.34-0.75-0.75-0.75H13.1c-0.41,0-0.75,0.34-0.75,0.75v25.2C12.35,32.46,12.69,32.8,13.1,32.8z"/><path d="M23.24,45.27h25.7c0.41,0,0.75-0.34,0.75-0.75s-0.34-0.75-0.75-0.75h-25.7c-0.41,0-0.75,0.34-0.75,0.75   S22.82,45.27,23.24,45.27z"/><path d="M20.09,36.79h4.55c0.41,0,0.75-0.34,0.75-0.75v-9.49c0-0.41-0.34-0.75-0.75-0.75h-4.55c-0.41,0-0.75,0.34-0.75,0.75v9.49   C19.34,36.45,19.67,36.79,20.09,36.79z M20.84,27.29h3.05v7.99h-3.05V27.29z"/><path d="M28.55,22.39c-0.41,0-0.75,0.34-0.75,0.75v12.89c0,0.41,0.34,0.75,0.75,0.75h4.55c0.41,0,0.75-0.34,0.75-0.75V23.14   c0-0.41-0.34-0.75-0.75-0.75H28.55z M32.35,35.29H29.3V23.89h3.05V35.29z"/><path d="M36.25,19.08v16.96c0,0.41,0.34,0.75,0.75,0.75h4.55c0.41,0,0.75-0.34,0.75-0.75V19.08c0-0.41-0.34-0.75-0.75-0.75H37   C36.59,18.33,36.25,18.67,36.25,19.08z M37.75,19.83h3.05v15.46h-3.05V19.83z"/><path d="M19.32,20.64c-0.41,0.05-0.7,0.43-0.65,0.84c0.05,0.38,0.37,0.66,0.74,0.66c0.03,0,0.06,0,0.09-0.01   c0.42-0.05,9.86-1.31,16.21-8.34l-0.13,1.76c-0.03,0.41,0.28,0.77,0.69,0.8c0.02,0,0.04,0,0.06,0c0.39,0,0.72-0.3,0.75-0.69   l0.3-4.06c0.02-0.23-0.07-0.46-0.25-0.62s-0.41-0.22-0.64-0.18l-3.98,0.75c-0.41,0.08-0.67,0.47-0.6,0.88   c0.08,0.41,0.47,0.68,0.88,0.6l1.91-0.36C28.71,19.38,19.42,20.63,19.32,20.64z"/><path d="M54.68,29.46h-1.41c-0.41,0-0.75,0.34-0.75,0.75s0.34,0.75,0.75,0.75h1.41c0.41,0,0.75-0.34,0.75-0.75   S55.09,29.46,54.68,29.46z"/><path d="M45.56,30.21c0,0.41,0.34,0.75,0.75,0.75h4.18c0.41,0,0.75-0.34,0.75-0.75s-0.34-0.75-0.75-0.75h-4.18   C45.89,29.46,45.56,29.8,45.56,30.21z"/><path d="M55.43,34.53c0-0.41-0.34-0.75-0.75-0.75h-8.37c-0.41,0-0.75,0.34-0.75,0.75s0.34,0.75,0.75,0.75h8.37   C55.09,35.28,55.43,34.95,55.43,34.53z"/></g><text x="0" y="87" fill="#000000" font-size="5px" font-weight="bold" font-family="'Helvetica Neue', Helvetica, Arial-Unicode, Arial, Sans-serif">Created by Azam Ishaq</text><text x="0" y="92" fill="#000000" font-size="5px" font-weight="bold" font-family="'Helvetica Neue', Helvetica, Arial-Unicode, Arial, Sans-serif">from the Noun Project</text></svg>