<svg xmlns="http://www.w3.org/2000/svg" xmlns:xlink="http://www.w3.org/1999/xlink" version="1.1" x="0px" y="0px" viewBox="0 0 100 125" enable-background="new 0 0 100 100" xml:space="preserve"><path d="M43,68h-2c-0.6,0-1,0.4-1,1v8c0,0.6,0.4,1,1,1s1-0.4,1-1v-3h1c1.7,0,3-1.3,3-3S44.7,68,43,68z M43,72h-1v-2h1  c0.6,0,1,0.4,1,1S43.6,72,43,72z M55,78c0.6,0,1-0.4,1-1v-3h1c1.7,0,3-1.3,3-3s-1.3-3-3-3h-2c-0.6,0-1,0.4-1,1v8  C54,77.6,54.4,78,55,78z M56,70h1c0.6,0,1,0.4,1,1s-0.4,1-1,1h-1V70z M47,69c0-0.6,0.4-1,1-1s1,0.4,1,1v3h2v-3c0-0.6,0.4-1,1-1  s1,0.4,1,1v8c0,0.6-0.4,1-1,1s-1-0.4-1-1v-3h-2v3c0,0.6-0.4,1-1,1s-1-0.4-1-1V69z M72.7,30.3l-12-12C60.5,18.1,60.3,18,60,18H30  c-1.7,0-3,1.3-3,3v58c0,1.7,1.3,3,3,3h40c1.7,0,3-1.3,3-3V31C73,30.7,72.9,30.5,72.7,30.3z M61,21.4l8.6,8.6H62c-0.6,0-1-0.4-1-1  V21.4z M71,79c0,0.6-0.4,1-1,1H30c-0.6,0-1-0.4-1-1V66h9c0.6,0,1-0.4,1-1s-0.4-1-1-1h-9V21c0-0.6,0.4-1,1-1h29v9c0,1.7,1.3,3,3,3h9  v32H47c-0.6,0-1,0.4-1,1s0.4,1,1,1h24V79z M43,64c0.6,0,1,0.4,1,1s-0.4,1-1,1h-1c-0.6,0-1-0.4-1-1s0.4-1,1-1H43z M42.3,52.7l-6-6  c-0.4-0.4-0.4-1,0-1.4l6-6c0.4-0.4,1-0.4,1.4,0c0.4,0.4,0.4,1,0,1.4L38.4,46l5.3,5.3c0.4,0.4,0.4,1,0,1.4  C43.303,53.098,42.712,53.112,42.3,52.7z M57.3,51.3l5.3-5.3l-5.3-5.3c-0.399-0.4-0.399-1,0-1.4c0.4-0.4,1-0.4,1.4,0l6,6  c0.399,0.4,0.399,1,0,1.4l-6,6c-0.397,0.397-0.988,0.412-1.4,0C56.9,52.3,56.9,51.7,57.3,51.3z M47.1,52.7l5-14  c0.2-0.5,0.801-0.8,1.301-0.6c0.5,0.2,0.8,0.8,0.6,1.3l-5,14c-0.416,0.622-1.107,0.693-1.3,0.5C47.1,53.8,46.9,53.2,47.1,52.7z"/><text x="0" y="115" fill="#000000" font-size="5px" font-weight="bold" font-family="'Helvetica Neue', Helvetica, Arial-Unicode, Arial, Sans-serif">Created by Setyo Ari Wibowo</text><text x="0" y="120" fill="#000000" font-size="5px" font-weight="bold" font-family="'Helvetica Neue', Helvetica, Arial-Unicode, Arial, Sans-serif">from the Noun Project</text></svg>