<svg xmlns="http://www.w3.org/2000/svg" width="47.47" height="59" viewBox="0 0 47.47 59"><title>php</title><path d="M4.17.15a4.05,4.05,0,0,0-4,4V52.59a4.05,4.05,0,0,0,4,4h3v.56a2,2,0,0,0,2,2H45.6a2,2,0,0,0,2-2V43.9a2,2,0,0,0-2-2H43V15.06a1.08,1.08,0,0,0,0-.19v0l0-.06v0l0-.06-.07-.09-.06-.06v0l-.06-.06L28.1.43a.76.76,0,0,0-.25-.18.85.85,0,0,0-.28-.1H4.17Zm0,2H26.42v10a4,4,0,0,0,4,4H41V41.9H9.17a2,2,0,0,0-2,2V54.62h-3a2,2,0,0,1-2-2V4.18a2,2,0,0,1,2-2ZM28.42,3.52,39.48,14.15H30.42a2,2,0,0,1-2-2Zm-5,15.25a1,1,0,0,0-.81.75L18.85,33.59a1,1,0,0,0,1.94.53h0l3.75-14.06a1,1,0,0,0-.66-1.25,1.26,1.26,0,0,0-.43,0ZM16.1,21.46a1,1,0,0,0-.43.22l-6.13,4.6a1,1,0,0,0-.19,1.4,1.14,1.14,0,0,0,.19.19l6.1,4.72a1,1,0,1,0,1.43-1.4.89.89,0,0,0-.22-.16l-5.06-3.94,5.1-3.81a1,1,0,0,0-.69-1.82ZM27,21.65a1,1,0,0,0-.44,1.81l5.06,3.82-5,3.93a1,1,0,0,0,1,1.73.83.83,0,0,0,.21-.16l6.1-4.72a1,1,0,0,0,.16-1.41,1.21,1.21,0,0,0-.2-.19l-6.12-4.59a1,1,0,0,0-.66-.22ZM15.7,46.74h2.5a9.11,9.11,0,0,1,1.84.1,2.08,2.08,0,0,1,1.13.78,2.35,2.35,0,0,1,.43,1.47,2.56,2.56,0,0,1-.25,1.22,2.17,2.17,0,0,1-.65.75,2.34,2.34,0,0,1-.81.34,9.1,9.1,0,0,1-1.63.13h-1v2.9H15.7V46.74Zm7.19,0h1.56v3h3v-3H29v7.69H27.48V51.06h-3v3.37H22.89Zm7.75,0h2.5a9.18,9.18,0,0,1,1.84.1,2,2,0,0,1,1.09.78,2.31,2.31,0,0,1,.47,1.47,2.68,2.68,0,0,1-.25,1.22,2.17,2.17,0,0,1-.65.75,2.31,2.31,0,0,1-.82.34,9,9,0,0,1-1.62.13h-1v2.9H30.64V46.74ZM17.26,48v2.19h.84a4.15,4.15,0,0,0,1.25-.12.94.94,0,0,0,.47-.38,1,1,0,0,0,.19-.59,1,1,0,0,0-.25-.69,1,1,0,0,0-.62-.34A6.42,6.42,0,0,0,18,48ZM32.2,48v2.19H33a4,4,0,0,0,1.22-.12,1.07,1.07,0,0,0,.5-.38,1,1,0,0,0,.19-.59,1,1,0,0,0-.25-.69,1.09,1.09,0,0,0-.63-.34A6.19,6.19,0,0,0,33,48ZM12.73,53H14.2v1.47H12.73Z" transform="translate(-0.14 -0.15)"/></svg>