<svg xmlns="http://www.w3.org/2000/svg" xmlns:xlink="http://www.w3.org/1999/xlink" version="1.1" x="0px" y="0px" viewBox="0 0 100 125" style="enable-background:new 0 0 100 100;" xml:space="preserve"><path class="st5" d="M82.7,70.6c1.3,0,2.3-1.1,2.3-2.3V22.1c0-1.3-1.1-2.3-2.3-2.3H15.3c-1.3,0-2.3,1.1-2.3,2.3v46.3      c0,1.3,1.1,2.3,2.3,2.3L82.7,70.6z M57.7,82.4h10.4c0.5,0,0.9,0.4,0.9,0.9v1.4c0,0.5-0.4,0.9-0.9,0.9H29.9      c-0.5,0-0.9-0.4-0.9-0.9v-1.4c0-0.5,0.4-0.9,0.9-0.9h10.4v-7h-9.5h-4.9H15.3c-3.9,0-7-3.1-7-7V22.1c0-3.9,3.1-7,7-7h67.4      c3.9,0,7,3.1,7,7v46.3c0,3.8-3.1,7-7,7H73h-4.9H57.7V82.4z"/></g></g></g></g><g><path d="M53.4,33.1c-4.1,7.7-8.2,15.4-12.2,23.2c-1.2,2.3,2.2,4.3,3.5,2c4.1-7.7,8.2-15.4,12.2-23.2C58,32.8,54.6,30.8,53.4,33.1   L53.4,33.1z"/></g><g><g><g><path d="M24.6,46.6c-0.7-0.9-0.7-1.9,0-2.8c3.1-3.9,6.2-7.7,9.3-11.6c1.6-2,4.4,0.8,2.8,2.8c-2.7,3.4-5.4,6.8-8.1,10.2     c2.7,3.4,5.4,6.8,8.1,10.2c1.6,2-1.2,4.8-2.8,2.8C30.8,54.3,27.7,50.4,24.6,46.6z"/><path d="M61.5,36c-1.6-2,1.2-4.8,2.8-2.8c3.1,3.9,6.2,7.7,9.3,11.6c0.7,0.9,0.7,1.9,0,2.8c-3.1,3.9-6.2,7.7-9.3,11.6     c-1.6,2-4.4-0.8-2.8-2.8c2.7-3.4,5.4-6.8,8.1-10.2C66.9,42.8,64.2,39.4,61.5,36z"/></g></svg>