<svg xmlns="http://www.w3.org/2000/svg" xmlns:xlink="http://www.w3.org/1999/xlink" version="1.1" x="0px" y="0px" viewBox="0 0 72 90" style="enable-background:new 0 0 72 72;" xml:space="preserve"><g><path d="M65.89,39.68h-4.34L61.5,17.81c0-0.03,0.02-0.06,0.02-0.09c0-0.03-0.01-0.06-0.02-0.09l-0.01-6.85   c-0.01-3.38-2.76-6.12-6.12-6.12c-0.01,0-0.01,0-0.02,0l-44.96,0.1C7,4.78,4.25,7.54,4.25,10.92l0.09,38.38   c0.01,1.64,0.65,3.18,1.81,4.33c1.16,1.15,2.69,1.78,4.32,1.78c0.01,0,0.02,0,0.02,0l25.98-0.05c0.44,0.93,1.42,1.58,2.53,1.58   h4.64c0.33,0.07,0.5,0.18,0.52,0.27c0.01,0.06-0.04,0.21-0.2,0.34c-0.19,0.17-0.47,0.29-0.85,0.45c-1.29,0.54-4.14,2.33-2.61,7.2   c0.21,0.66,0.56,1.2,1,1.57c0.42,0.37,0.93,0.57,1.43,0.57c0.26,0,0.52-0.05,0.76-0.17c0.67-0.32,0.99-0.95,1.22-1.53   c2.02-5.15,6.51-7.59,8.34-8.4c0.71-0.31,1.39-0.7,2.04-1.12c0.26,0.72,0.94,1.23,1.75,1.23h8.85c1.03,0,1.86-0.84,1.86-1.86V41.54   C67.75,40.52,66.91,39.68,65.89,39.68z M10.48,53.91c-0.01,0-0.01,0-0.02,0c-1.23,0-2.39-0.48-3.26-1.35   c-0.88-0.87-1.36-2.04-1.37-3.27L5.77,18.6l8.3-0.02c0.18,0,0.36-0.07,0.49-0.19l2.64-2.32l6.01-0.01l2.21,2.27   c0.14,0.14,0.33,0.23,0.54,0.23c0,0,0,0,0,0l3.99-0.01c0.41,0,0.75-0.34,0.75-0.75c0-0.41-0.34-0.75-0.75-0.75c0,0,0,0,0,0   l-3.67,0.01l-2.21-2.27c-0.14-0.14-0.33-0.23-0.54-0.23c0,0,0,0,0,0l-6.61,0.02c-0.18,0-0.36,0.07-0.49,0.19l-2.64,2.32L5.76,17.1   l-0.01-6.18c0-2.55,2.08-4.64,4.63-4.65l44.96-0.1c2.57,0,4.63,2.06,4.64,4.62L60,16.98l-21.63,0.05c-0.41,0-0.75,0.34-0.75,0.75   c0,0.41,0.34,0.75,0.75,0.75c0,0,0,0,0,0L60,18.48l0.05,21.21h-3.01c-0.81,0-1.49,0.52-1.75,1.24c-1.2-0.31-2.42-0.47-3.66-0.47   H39.97c-1.32,0-2.45,0.98-2.58,2.24c-0.05,0.54,0.07,1.08,0.34,1.54c-0.82,0.4-1.41,1.18-1.51,2.1c-0.05,0.53,0.05,1.05,0.29,1.51   c-0.52,0.12-1,0.41-1.37,0.81c-0.51,0.56-0.75,1.31-0.67,2.07c0.12,1.1,0.96,2.01,2.05,2.29c-0.14,0.26-0.23,0.55-0.28,0.85   L10.48,53.91z M52.63,55.86c-2,0.89-6.9,3.56-9.13,9.22c-0.11,0.29-0.27,0.63-0.46,0.73c-0.14,0.06-0.38-0.01-0.57-0.18   c-0.3-0.25-0.46-0.63-0.55-0.89c-1.06-3.38,0.37-4.79,1.84-5.4c0.38-0.16,0.82-0.34,1.18-0.67c0.56-0.48,0.82-1.18,0.67-1.81   c-0.1-0.42-0.46-1.17-1.78-1.42c-0.04-0.01-0.09-0.01-0.14-0.01H39c-0.65,0-1.21-0.46-1.27-1.04c-0.04-0.34,0.07-0.66,0.29-0.91   c0.22-0.25,0.53-0.38,0.86-0.38c0,0,0,0,0.01,0h2.65c0.41,0,0.75-0.34,0.75-0.75s-0.34-0.75-0.75-0.75H38.9c-0.01,0-0.01,0-0.01,0   h-1.63c-0.66,0-1.22-0.46-1.28-1.04c-0.04-0.33,0.07-0.66,0.29-0.91c0.22-0.25,0.54-0.39,0.87-0.39h1.73c0.01,0,0.01,0,0.02,0h2.08   c0.41,0,0.75-0.34,0.75-0.75s-0.34-0.75-0.75-0.75h-2.06c-0.01,0-0.01,0-0.02,0c-0.34,0-0.65-0.14-0.87-0.38   c-0.22-0.25-0.33-0.57-0.29-0.9c0.06-0.58,0.62-1.04,1.27-1.04h0.87c0.01,0,0.01,0,0.02,0h1.65c0.41,0,0.75-0.34,0.75-0.75   s-0.34-0.75-0.75-0.75h-1.66c0,0-0.01,0-0.01,0c-0.27,0-0.53-0.12-0.72-0.32c-0.19-0.21-0.28-0.48-0.25-0.77   c0.05-0.5,0.53-0.89,1.08-0.89h11.65c1.2,0,2.39,0.17,3.55,0.49v11.95l-0.44,0.3C54.06,55.15,53.36,55.54,52.63,55.86z    M66.25,55.48c0,0.2-0.16,0.36-0.36,0.36h-8.85c-0.2,0-0.36-0.16-0.36-0.36V41.54c0-0.2,0.16-0.36,0.36-0.36h8.85   c0.2,0,0.36,0.16,0.36,0.36V55.48z"/><path d="M35.97,17.78c0-0.41-0.34-0.75-0.75-0.75c0,0,0,0,0,0l-1.95,0c-0.41,0-0.75,0.34-0.75,0.75c0,0.41,0.34,0.75,0.75,0.75   c0,0,0,0,0,0l1.95,0C35.63,18.53,35.97,18.19,35.97,17.78z"/><path d="M46.28,14.35C46.28,14.35,46.28,14.35,46.28,14.35c1.39,0,2.52-1.13,2.51-2.52c0-1.38-1.13-2.51-2.51-2.51c0,0,0,0-0.01,0   c-0.67,0-1.3,0.26-1.77,0.74c-0.47,0.48-0.73,1.11-0.73,1.78C43.77,13.23,44.9,14.35,46.28,14.35z M45.56,11.12   c0.19-0.19,0.45-0.3,0.72-0.3c0,0,0,0,0,0c0.56,0,1.01,0.45,1.01,1.01c0,0.27-0.1,0.53-0.29,0.72c-0.19,0.19-0.45,0.3-0.72,0.3   c0,0,0,0,0,0c-0.56,0-1.01-0.45-1.01-1.01C45.27,11.57,45.37,11.31,45.56,11.12z"/><path d="M39.03,14.37C39.03,14.37,39.03,14.37,39.03,14.37c1.39,0,2.51-1.13,2.51-2.52c0-1.38-1.13-2.51-2.51-2.51   c0,0-0.01,0-0.01,0c-0.67,0-1.3,0.26-1.78,0.74c-0.47,0.48-0.73,1.11-0.73,1.78c0,0.67,0.26,1.3,0.74,1.77   C37.73,14.11,38.36,14.37,39.03,14.37z M38.31,11.14c0.19-0.19,0.45-0.3,0.72-0.3c0,0,0,0,0,0c0.56,0,1.01,0.45,1.01,1.01   c0,0.56-0.45,1.01-1.01,1.01c0,0,0,0,0,0c-0.27,0-0.52-0.1-0.71-0.29s-0.3-0.45-0.3-0.72S38.12,11.33,38.31,11.14z"/><path d="M53.53,14.33C53.53,14.33,53.53,14.33,53.53,14.33c0.68,0,1.31-0.26,1.78-0.74c0.47-0.48,0.73-1.11,0.73-1.78   c0-0.67-0.26-1.3-0.74-1.77c-0.47-0.47-1.1-0.73-1.77-0.73c0,0,0,0-0.01,0c-1.38,0-2.51,1.13-2.51,2.52   C51.02,13.21,52.15,14.33,53.53,14.33z M53.53,10.81C53.53,10.81,53.53,10.81,53.53,10.81c0.27,0,0.52,0.1,0.72,0.29   s0.3,0.45,0.3,0.72s-0.1,0.52-0.29,0.72s-0.45,0.3-0.72,0.3c0,0,0,0,0,0c-0.56,0-1.01-0.45-1.01-1.01   C52.52,11.26,52.97,10.81,53.53,10.81z"/><path d="M16.24,29.29H12.3c-0.41,0-0.75,0.34-0.75,0.75v16.9c0,0.41,0.34,0.75,0.75,0.75h3.94c0.41,0,0.75-0.34,0.75-0.75v-16.9   C16.99,29.62,16.65,29.29,16.24,29.29z M15.49,46.19h-2.44v-15.4h2.44V46.19z"/><path d="M23.8,34.91h-3.94c-0.41,0-0.75,0.34-0.75,0.75v11.28c0,0.41,0.34,0.75,0.75,0.75h3.94c0.41,0,0.75-0.34,0.75-0.75V35.66   C24.55,35.25,24.21,34.91,23.8,34.91z M23.05,46.19H20.6v-9.78h2.44V46.19z"/><path d="M31.35,38.73h-3.94c-0.41,0-0.75,0.34-0.75,0.75v7.46c0,0.41,0.34,0.75,0.75,0.75h3.94c0.41,0,0.75-0.34,0.75-0.75v-7.46   C32.1,39.07,31.77,38.73,31.35,38.73z M30.6,46.19h-2.44v-5.96h2.44V46.19z"/><path d="M31.43,32.68l-0.85,0.83v-3.48c0-0.41-0.34-0.75-0.75-0.75h-7.78v-4.02c0-0.41-0.34-0.75-0.75-0.75h-8.25   c-0.41,0-0.75,0.34-0.75,0.75s0.34,0.75,0.75,0.75h7.5v4.02c0,0.41,0.34,0.75,0.75,0.75h7.78v2.65l-0.71-0.75   c-0.29-0.3-0.76-0.31-1.06-0.02c-0.3,0.29-0.31,0.76-0.02,1.06l2.01,2.09c0.14,0.14,0.33,0.23,0.53,0.23c0,0,0.01,0,0.01,0   c0.2,0,0.39-0.08,0.53-0.22l2.12-2.09c0.29-0.29,0.3-0.77,0.01-1.06C32.2,32.39,31.73,32.39,31.43,32.68z"/><path d="M47.76,36.26c3.93,0,7.13-3.2,7.13-7.13s-3.2-7.13-7.13-7.13c-3.93,0-7.13,3.2-7.13,7.13S43.83,36.26,47.76,36.26z    M53.34,28.38h-4.82v-4.82C51.02,23.9,53,25.88,53.34,28.38z M47.01,23.56v5.57c0,0.41,0.34,0.75,0.75,0.75h5.57   c-0.37,2.75-2.72,4.88-5.57,4.88c-3.1,0-5.63-2.53-5.63-5.63C42.13,26.29,44.26,23.93,47.01,23.56z"/></g><text x="0" y="87" fill="#000000" font-size="5px" font-weight="bold" font-family="'Helvetica Neue', Helvetica, Arial-Unicode, Arial, Sans-serif">Created by Azam Ishaq</text><text x="0" y="92" fill="#000000" font-size="5px" font-weight="bold" font-family="'Helvetica Neue', Helvetica, Arial-Unicode, Arial, Sans-serif">from the Noun Project</text></svg>