<svg xmlns="http://www.w3.org/2000/svg" xmlns:xlink="http://www.w3.org/1999/xlink" version="1.1" x="0px" y="0px" viewBox="0 0 72 90" style="enable-background:new 0 0 72 72;" xml:space="preserve"><g><path d="M62.01,13.61H50.8c-0.41,0-0.75,0.34-0.75,0.75s0.34,0.75,0.75,0.75h11.2c0.63,0,1.14,0.51,1.14,1.14v37   c0,0.63-0.51,1.14-1.14,1.14H42.15h-12.3H9.99c-0.63,0-1.14-0.51-1.14-1.14v-37c0-0.63,0.51-1.14,1.14-1.14h10.57   c0.41,0,0.75-0.34,0.75-0.75s-0.34-0.75-0.75-0.75H9.99c-1.46,0-2.64,1.18-2.64,2.64v37c0,1.46,1.18,2.64,2.64,2.64h19.05   c-0.22,2.74-1.24,5.03-3.11,6.96h-3.53c-1.86,0-3.38,1.51-3.38,3.38V67c0,0.41,0.34,0.75,0.75,0.75h32.43   c0.41,0,0.75-0.34,0.75-0.75v-0.78c0-1.86-1.51-3.38-3.38-3.38h-3.55c-2.14-1.99-3.18-4.28-3.15-6.96h19.12   c1.46,0,2.64-1.18,2.64-2.64v-37C64.65,14.79,63.46,13.61,62.01,13.61z M51.47,66.22l-30.93,0.03v-0.03c0-1.03,0.84-1.88,1.88-1.88   h3.86h19.47h3.86C50.63,64.35,51.47,65.19,51.47,66.22z M43.95,62.85h-16c1.57-1.99,2.43-4.29,2.62-6.96h10.81   C41.35,58.49,42.22,60.82,43.95,62.85z"/><path d="M60.78,47.28V18.43c0-0.41-0.34-0.75-0.75-0.75h-8.62c-0.41,0-0.75,0.34-0.75,0.75s0.34,0.75,0.75,0.75h7.87v27.35H12.72   V19.18h6.44c0.41,0,0.75-0.34,0.75-0.75s-0.34-0.75-0.75-0.75h-7.19c-0.41,0-0.75,0.34-0.75,0.75v28.85c0,0.41,0.34,0.75,0.75,0.75   h48.06C60.44,48.03,60.78,47.7,60.78,47.28z"/><path d="M14.2,50.44c-0.41,0-0.75,0.34-0.75,0.75s0.34,0.75,0.75,0.75h1.1c0.41,0,0.75-0.34,0.75-0.75s-0.34-0.75-0.75-0.75H14.2z"/><path d="M18.32,50.44c-0.41,0-0.75,0.34-0.75,0.75s0.34,0.75,0.75,0.75h1.1c0.41,0,0.75-0.34,0.75-0.75s-0.34-0.75-0.75-0.75H18.32   z"/><path d="M22.43,50.44c-0.41,0-0.75,0.34-0.75,0.75s0.34,0.75,0.75,0.75h1.1c0.41,0,0.75-0.34,0.75-0.75s-0.34-0.75-0.75-0.75H22.43   z"/><path d="M26.48,5.75h2.3c0.2,4.35,2.14,8.89,4.93,10.63c-2.79,1.74-4.73,6.29-4.93,10.63h-2.3c-0.41,0-0.75,0.34-0.75,0.75   s0.34,0.75,0.75,0.75h3.03h13.27h3.03c0.41,0,0.75-0.34,0.75-0.75s-0.34-0.75-0.75-0.75h-2.3c-0.2-4.35-2.14-8.89-4.93-10.63   c2.79-1.74,4.72-6.29,4.93-10.63h2.3c0.41,0,0.75-0.34,0.75-0.75s-0.34-0.75-0.75-0.75h-3.03H29.5h-3.03   c-0.41,0-0.75,0.34-0.75,0.75S26.06,5.75,26.48,5.75z M42.01,27.02H30.27c0.25-5.18,2.98-9.88,5.87-9.88S41.76,21.84,42.01,27.02z    M42.01,5.75c-0.25,5.18-2.98,9.88-5.87,9.88s-5.62-4.71-5.87-9.88H42.01z"/><path d="M45.67,9.12c-0.19,0.11-0.32,0.3-0.36,0.51l-0.57,3.11c-0.08,0.41,0.19,0.8,0.6,0.87c0.05,0.01,0.09,0.01,0.14,0.01   c0.35,0,0.67-0.25,0.74-0.61l0.18-0.96c1.59,3.07,1.4,6.71-0.6,9.67c-0.23,0.34-0.14,0.81,0.2,1.04c0.13,0.09,0.28,0.13,0.42,0.13   c0.24,0,0.48-0.12,0.62-0.33c2.39-3.53,2.55-7.89,0.53-11.5l0.95,0.32c0.39,0.13,0.82-0.08,0.95-0.47   c0.13-0.39-0.08-0.82-0.47-0.95l-2.71-0.9C46.08,8.98,45.85,9.01,45.67,9.12z"/><path d="M23.01,22.17l2.71,0.9c0.08,0.03,0.16,0.04,0.24,0.04c0.13,0,0.26-0.04,0.38-0.1c0.19-0.11,0.32-0.3,0.36-0.51l0.57-3.11   c0.08-0.41-0.19-0.8-0.6-0.87c-0.41-0.08-0.8,0.19-0.87,0.6l-0.18,0.98c-1.36-3.14-0.94-6.73,1.24-9.55   c0.25-0.33,0.19-0.8-0.14-1.05s-0.8-0.19-1.05,0.14c-2.6,3.38-3.03,7.7-1.27,11.41l-0.9-0.3c-0.39-0.13-0.82,0.08-0.95,0.47   C22.4,21.61,22.62,22.04,23.01,22.17z"/><path d="M36.14,10.84c0.41,0,0.75-0.34,0.75-0.75V9.25c0-0.41-0.34-0.75-0.75-0.75s-0.75,0.34-0.75,0.75v0.84   C35.39,10.5,35.73,10.84,36.14,10.84z"/><path d="M36.14,14.04c0.41,0,0.75-0.34,0.75-0.75v-0.83c0-0.41-0.34-0.75-0.75-0.75s-0.75,0.34-0.75,0.75v0.83   C35.39,13.71,35.73,14.04,36.14,14.04z"/><path d="M36.14,21.92c0.41,0,0.75-0.34,0.75-0.75v-0.83c0-0.41-0.34-0.75-0.75-0.75s-0.75,0.34-0.75,0.75v0.83   C35.39,21.59,35.73,21.92,36.14,21.92z"/><path d="M36.14,25.13c0.41,0,0.75-0.34,0.75-0.75v-0.84c0-0.41-0.34-0.75-0.75-0.75s-0.75,0.34-0.75,0.75v0.84   C35.39,24.79,35.73,25.13,36.14,25.13z"/><path d="M30.73,44.54c0.41,0,0.75-0.34,0.75-0.75v-5.68c0-0.41-0.34-0.75-0.75-0.75h-3.35c-0.41,0-0.75,0.34-0.75,0.75v5.68   c0,0.41,0.34,0.75,0.75,0.75H30.73z M28.13,38.86h1.85v4.18h-1.85V38.86z"/><path d="M37.67,44.54c0.41,0,0.75-0.34,0.75-0.75v-9.04c0-0.41-0.34-0.75-0.75-0.75h-3.35c-0.41,0-0.75,0.34-0.75,0.75v9.04   c0,0.41,0.34,0.75,0.75,0.75H37.67z M35.08,35.5h1.85v7.54h-1.85V35.5z"/><path d="M44.62,44.54c0.41,0,0.75-0.34,0.75-0.75v-11.5c0-0.41-0.34-0.75-0.75-0.75h-3.35c-0.41,0-0.75,0.34-0.75,0.75v11.5   c0,0.41,0.34,0.75,0.75,0.75H44.62z M42.02,33.04h1.85v10h-1.85V33.04z"/><path d="M47.1,32.9c-0.23,0.34-0.15,0.81,0.2,1.04c0.13,0.09,0.28,0.13,0.42,0.13c0.24,0,0.47-0.11,0.62-0.33l0.77-1.13v11.17   c0,0.41,0.34,0.75,0.75,0.75s0.75-0.34,0.75-0.75V32.53l0.75,1.05c0.24,0.34,0.71,0.41,1.05,0.17c0.34-0.24,0.41-0.71,0.17-1.05   l-2.11-2.94c-0.14-0.2-0.37-0.31-0.61-0.31c0,0-0.01,0-0.01,0c-0.24,0-0.47,0.13-0.61,0.33L47.1,32.9z"/></g></svg>