<svg xmlns="http://www.w3.org/2000/svg" xmlns:xlink="http://www.w3.org/1999/xlink" version="1.1" x="0px" y="0px" viewBox="0 0 72 90" style="enable-background:new 0 0 72 72;" xml:space="preserve"><g><path d="M35.54,18.78h-2.14c-0.41,0-0.75,0.34-0.75,0.75s0.34,0.75,0.75,0.75h2.14c0.41,0,0.75-0.34,0.75-0.75   S35.96,18.78,35.54,18.78z"/><path d="M67.38,19.53c0-0.01,0-0.02,0-0.02v-8.59c0-3.68-2.99-6.67-6.66-6.67H11.29c-3.68,0-6.67,2.99-6.67,6.67v42.19   c0,3.68,2.99,6.67,6.67,6.67h8.56c0.01,0.01,0,0.02,0.01,0.03c0.05,0.09,0.12,0.17,0.2,0.22c3.74,4.7,9.49,7.72,15.94,7.72   c6.5,0,12.29-3.07,16.02-7.83c0.04-0.04,0.09-0.07,0.12-0.12c0.01-0.01,0-0.02,0.01-0.03h8.56c3.67,0,6.66-2.99,6.66-6.67V19.56   C67.38,19.55,67.38,19.54,67.38,19.53z M50.88,58.27c-1.59-0.79-3.43-1.43-5.47-1.92c0.61-2.49,0.98-5.27,1.03-8.24h8.4   c-0.15,3.78-1.4,7.27-3.46,10.16H50.88z M35.25,28.56v9.35c-2.37-0.04-4.65-0.27-6.76-0.67C29.97,32.45,32.45,29.08,35.25,28.56z    M36.75,39.41c2.51-0.04,4.93-0.29,7.17-0.72c0.61,2.4,0.97,5.09,1.02,7.92h-8.19V39.41z M36.75,37.91v-9.35   c2.8,0.52,5.28,3.88,6.76,8.68C41.4,37.64,39.12,37.87,36.75,37.91z M35.25,39.41v7.2h-8.19c0.06-2.83,0.42-5.52,1.02-7.92   C30.33,39.13,32.75,39.37,35.25,39.41z M35.25,48.11v7.2c-2.51,0.04-4.93,0.29-7.17,0.72c-0.61-2.4-0.97-5.09-1.02-7.92H35.25z    M35.25,56.81v9.35c-2.8-0.52-5.28-3.89-6.76-8.69C30.6,57.08,32.88,56.85,35.25,56.81z M36.75,66.17v-9.35   c2.37,0.04,4.65,0.27,6.76,0.67C42.03,62.28,39.55,65.65,36.75,66.17z M36.75,55.31v-7.2h8.19c-0.06,2.83-0.42,5.52-1.02,7.92   C41.68,55.6,39.26,55.36,36.75,55.31z M46.45,46.61c-0.05-2.97-0.42-5.75-1.03-8.24c2.19-0.52,4.17-1.23,5.83-2.11   c2.14,2.93,3.45,6.49,3.6,10.35H46.45z M45.02,36.93c-1.02-3.38-2.52-6.1-4.33-7.84c3.79,0.97,7.13,3.09,9.61,5.97   C48.78,35.83,47,36.46,45.02,36.93z M26.98,36.93c-1.98-0.47-3.76-1.1-5.28-1.86c2.48-2.88,5.82-5,9.61-5.97   C29.5,30.83,28,33.55,26.98,36.93z M20.76,36.27c1.67,0.87,3.64,1.58,5.83,2.11c-0.61,2.49-0.98,5.27-1.03,8.24h-8.4   C17.31,42.76,18.62,39.2,20.76,36.27z M25.56,48.11c0.05,2.97,0.42,5.75,1.03,8.24c-2.03,0.49-3.88,1.13-5.47,1.92h-0.51   c-2.06-2.89-3.31-6.38-3.46-10.16H25.56z M21.7,59.66c1.52-0.77,3.3-1.39,5.28-1.86c1.02,3.38,2.52,6.1,4.33,7.84   C27.52,64.66,24.18,62.55,21.7,59.66z M40.69,65.64c1.82-1.74,3.31-4.46,4.33-7.84c1.98,0.47,3.76,1.1,5.28,1.86   C47.82,62.55,44.49,64.66,40.69,65.64z M60.72,58.27h-7.52c2.01-3.16,3.19-6.9,3.19-10.91c0-4.65-1.58-8.93-4.22-12.37   c-0.01-0.02-0.01-0.05-0.02-0.07c-0.05-0.09-0.12-0.17-0.2-0.23C48.21,30,42.46,26.98,36,26.98c-6.45,0-12.21,3.02-15.94,7.72   c-0.08,0.06-0.15,0.13-0.2,0.23c-0.01,0.02-0.01,0.05-0.02,0.07c-2.63,3.43-4.22,7.71-4.22,12.37c0,4.01,1.18,7.75,3.19,10.91   h-7.53c-2.85,0-5.17-2.32-5.17-5.17V16.5h16.2l2.44,3.47c0.14,0.2,0.37,0.32,0.61,0.32h4.39c0.41,0,0.75-0.34,0.75-0.75   s-0.34-0.75-0.75-0.75h-4l-2.44-3.47C23.18,15.12,22.95,15,22.7,15H6.12v-4.08c0-2.85,2.32-5.17,5.17-5.17h49.43   c2.84,0,5.16,2.32,5.16,5.17v7.87H39.01c-0.41,0-0.75,0.34-0.75,0.75s0.34,0.75,0.75,0.75h26.86v32.82   C65.88,55.96,63.56,58.27,60.72,58.27z"/><path d="M48.41,15.06c1.6,0,2.9-1.3,2.9-2.9s-1.3-2.9-2.9-2.9s-2.9,1.3-2.9,2.9S46.81,15.06,48.41,15.06z M48.41,10.77   c0.77,0,1.4,0.63,1.4,1.4s-0.63,1.4-1.4,1.4s-1.4-0.63-1.4-1.4S47.64,10.77,48.41,10.77z"/><path d="M42.47,12.17c0-1.6-1.3-2.9-2.9-2.9s-2.9,1.3-2.9,2.9s1.3,2.9,2.9,2.9S42.47,13.76,42.47,12.17z M38.17,12.17   c0-0.77,0.63-1.4,1.4-1.4s1.4,0.63,1.4,1.4s-0.63,1.4-1.4,1.4S38.17,12.94,38.17,12.17z"/><path d="M57.24,15.06c1.6,0,2.9-1.3,2.9-2.9s-1.3-2.9-2.9-2.9s-2.9,1.3-2.9,2.9S55.64,15.06,57.24,15.06z M57.24,10.77   c0.77,0,1.4,0.63,1.4,1.4s-0.63,1.4-1.4,1.4s-1.4-0.63-1.4-1.4S56.47,10.77,57.24,10.77z"/><path d="M59.34,47.1c-0.42,0-0.76,0.32-0.77,0.73c-0.01,0.59-0.05,1.2-0.1,1.83c-0.04,0.41,0.27,0.78,0.68,0.81   c0.02,0,0.04,0,0.06,0c0.38,0,0.71-0.3,0.75-0.69c0.06-0.66,0.09-1.3,0.1-1.92C60.09,47.46,59.76,47.11,59.34,47.1z"/><path d="M59.25,45.81c0.02,0,0.04,0,0.06,0c0.41-0.03,0.72-0.39,0.69-0.81c-0.81-10.26-7-14.98-7.26-15.18   c-0.33-0.25-0.8-0.18-1.05,0.15c-0.25,0.33-0.18,0.8,0.15,1.05c0.06,0.04,5.91,4.54,6.66,14.09   C58.54,45.51,58.86,45.81,59.25,45.81z"/></g></svg>