<svg viewBox="0 0 64 64" xmlns="http://www.w3.org/2000/svg" aria-labelledby="title"
aria-describedby="desc" role="img" xmlns:xlink="http://www.w3.org/1999/xlink">
  <title>Hosting web ecommerce</title>
  <desc>Hosting web ecommerce</desc><path data-name="layer2" fill="none" stroke="#475569" stroke-miterlimit="10" stroke-width="3" d="M36 36h12v22H36z" stroke-linejoin="round" stroke-linecap="round"></path><path data-name="layer2" fill="none" stroke="#475569" stroke-miterlimit="10" stroke-width="3" d="M56 30v28H8V30" stroke-linejoin="round" stroke-linecap="round"></path><path data-name="layer2" fill="none" stroke="#475569" stroke-miterlimit="10" stroke-width="3" d="M16 36h14v12H16z" stroke-linejoin="round" stroke-linecap="round"></path><path data-name="layer1" d="M52.6 6H11.4L2 22.5a7.5 7.5 0 0 0 15 0 7.5 7.5 0 0 0 15 0 7.5 7.5 0 0 0 15 0 7.5 7.5 0 0 0 15 0zM2 22h60M32 6v16.5m-15 0L22 6m25 16.5L42 6" fill="none" stroke="#2563eb" stroke-miterlimit="10" stroke-width="3" stroke-linejoin="round" stroke-linecap="round"></path></svg>