<svg xmlns="http://www.w3.org/2000/svg" width="100.21" height="99.97" viewBox="0 0 100.21 99.97"><defs><style>.a{fill:gold; transition: 500ms}.b{fill:#777; transition: 500ms}.c{fill:#010101; transition: 500ms}</style></defs><title>empiric</title><polygon class="a" points="0 100 50 30 100 100 50 100"/><path class="b" d="M15.48,17.13a6.42,6.42,0,0,0-5.37-2.61c-3.17,0-4.69,1.37-4.69,3.11,0,2,2.33,2.6,5.05,2.93,4.72.6,9.12,1.87,9.12,7.45,0,5.2-4.47,7.44-9.51,7.44C5.46,35.45,1.9,34,.22,29.71L3.77,27.8c1,2.57,3.63,3.71,6.37,3.71s5.21-1,5.21-3.5c0-2.21-2.23-3.11-5.24-3.44C5.49,24,1.22,22.73,1.22,17.49c0-4.8,4.59-6.77,8.76-6.8,3.53,0,7.18,1,8.9,4.63Z" transform="translate(-0.01 -0.02)"/><path class="b" d="M48,15.49H40.78v-4H59.41v4H52.23V34.85H48Z" transform="translate(-0.01 -0.02)"/><path class="b" d="M99.34,11.52V24.9c0,6.91-4.11,10.45-9.8,10.45-5.43,0-10.06-3.41-10.06-10.45V11.52h4.24V24.9c0,4.21,2.33,6.44,5.85,6.44s5.53-2.43,5.53-6.44V11.52Z" transform="translate(-0.01 -0.02)"/><path class="b" d="M21.27,78.05C21.37,84,17.88,89.93,10,89.93H1.06V66.57H10C17.71,66.57,21.17,72.28,21.27,78.05Zm-16,7.64H10c5.14,0,7.18-3.87,7.08-7.67-.09-3.64-2.16-7.28-7.08-7.28H5.3Z" transform="translate(-0.01 -0.02)"/><path class="b" d="M48,89.93V66.57H52.2V89.93Z" transform="translate(-0.01 -0.02)"/><path class="b" d="M100.22,78.38c-.07,6-3.66,12.08-11.61,12.08S77,84.56,77,78.42,80.78,66.1,88.61,66.1,100.28,72.28,100.22,78.38Zm-19,.1c.09,3.84,2.1,8,7.44,8s7.34-4.14,7.4-8-2.07-8.34-7.4-8.34S81.07,74.55,81.17,78.48Z" transform="translate(-0.01 -0.02)"/><path class="c" d="M11,58.71H1.12V43.32H11v2.81H3.6v3.54h7.17v2.71H3.6v3.47H11Z" transform="translate(-0.01 -0.02)"/><path class="c" d="M28.47,47.56l-4.31,6.69h-.49l-4.22-6.71V58.73H17V43.34h2.88L24,50l4.14-6.62H31V58.73h-2.5Z" transform="translate(-0.01 -0.02)"/><path class="c" d="M43.53,54.18H39.79v4.53h-2.5V43.32l6.24,0C50,43.3,50,54.18,43.53,54.18Zm-3.74-2.66h3.74c3.2,0,3.18-5.45,0-5.45H39.79Z" transform="translate(-0.01 -0.02)"/><path class="c" d="M54.07,58.71V43.32h2.48V58.71Z" transform="translate(-0.01 -0.02)"/><path class="c" d="M74.61,58.71h-3l-3.86-5.14h-2.4v5.14h-2.5V43.3l6.3,0c3.12,0,4.76,2.44,4.76,5.1,0,2.11-.83,4.24-3.34,4.84l4,5.25ZM65.39,46V51h3.8a2.47,2.47,0,0,0,0-4.93Z" transform="translate(-0.01 -0.02)"/><path class="c" d="M79.63,58.71V43.32h2.48V58.71Z" transform="translate(-0.01 -0.02)"/><path class="c" d="M100.1,56.78a6.48,6.48,0,0,1-5,2.28c-4.92,0-7-3.93-7-7.94s2.23-8.11,7-8.11a6.38,6.38,0,0,1,4.86,2.35l-1.67,1.87a4.2,4.2,0,0,0-3.19-1.45c-3.2,0-4.58,2.77-4.56,5.34s1.29,5.22,4.56,5.22a4.53,4.53,0,0,0,3.33-1.57Z" transform="translate(-0.01 -0.02)"/></svg>