<?xml version="1.0" encoding="UTF-8"?><svg xmlns="http://www.w3.org/2000/svg" viewBox="0 0 200 193.06"><g id="a"/><g id="b"><g id="c"><g id="d"><g id="e"><polygon points="189.98 88.85 168.26 92.27 168.26 22.14 189.98 29.16 189.98 88.85" fill="#9e0000"/><polygon points="149.48 25.53 149.48 35.17 168.26 38.34 168.26 22.14 149.48 25.53" fill="#bd001f"/></g><g id="f"><polygon points="9.98 88.85 31.7 92.27 31.7 22.14 9.98 29.16 9.98 88.85" fill="#9e0000"/><polygon points="50.48 25.53 50.48 35.17 31.69 38.34 31.69 22.14 50.48 25.53" fill="#bd001f"/></g><g id="g"><polygon points="139.17 96.91 99.98 103.1 99.98 0 139.17 12.37 139.17 96.91" fill="#9e0000"/><polygon points="60.79 96.91 99.98 103.1 99.98 0 60.79 12.37 60.79 96.91" fill="#bd001f"/></g></g><rect y="148.05" width="200" height="45.01"/><g id="h"><path d="M17.99,183.04c-.33,0-.64-.14-.89-.41-.25-.27-.38-.6-.38-.96v-1.48c0-.39,.13-.74,.38-1.01,.25-.27,.56-.41,.89-.41h10.48c.24,0,.43-.08,.59-.26s.24-.38,.24-.64v-14.65c0-.26-.08-.46-.24-.64s-.35-.26-.59-.26H14.31v19.35c0,.35-.12,.67-.35,.94-.24,.28-.56,.43-.93,.43h-1.76c-.33,0-.64-.14-.89-.41-.25-.27-.38-.6-.38-.96v-22.21c0-.39,.13-.74,.38-1.01,.25-.27,.56-.41,.89-.41H28.94c1.31,0,2.43,.49,3.33,1.46,.9,.97,1.35,2.17,1.35,3.58v14.93c0,1.41-.46,2.62-1.37,3.58-.91,.96-2.03,1.45-3.35,1.45h-10.91Z" fill="#fff"/><path d="M39.95,183.04c-.33,0-.64-.14-.89-.41-.25-.27-.38-.6-.38-.96v-22.21c0-.39,.13-.74,.38-1.01,.25-.27,.56-.41,.89-.41h17.59c.36,0,.68,.14,.93,.41,.25,.27,.38,.62,.38,1.01v1.48c0,.36-.13,.69-.38,.96s-.57,.41-.93,.41h-14.55v16.45h14.76c.33,0,.64,.14,.89,.41,.25,.27,.38,.62,.38,1.01v1.48c0,.36-.13,.69-.38,.96-.25,.27-.56,.41-.89,.41h-17.8Zm6.68-10.94c-.36,0-.68-.13-.91-.39-.24-.25-.36-.59-.36-.98v-1.44c0-.39,.13-.73,.36-.98,.24-.25,.55-.39,.91-.39h9.79c.32,0,.62,.13,.87,.37,.26,.26,.4,.6,.4,1v1.44c0,.4-.14,.74-.4,1-.25,.24-.55,.37-.87,.37h-9.79Z" fill="#fff"/><path d="M65.07,183.04c-.33,0-.64-.14-.89-.41-.25-.27-.38-.6-.38-.96v-22.21c0-.39,.13-.74,.38-1.01,.25-.27,.56-.41,.89-.41h17.42c.37,0,.69,.15,.93,.43,.23,.27,.35,.61,.35,.99v1.44c0,.38-.12,.72-.35,.99-.24,.28-.56,.43-.93,.43h-14.33v19.35c0,.36-.13,.69-.38,.96-.25,.27-.56,.41-.89,.41h-1.81Zm6.76-9.78c-.36,0-.69-.14-.93-.41-.25-.27-.38-.62-.38-1.01v-1.39c0-.4,.14-.74,.4-1,.25-.24,.56-.37,.92-.37h9.28c.35,0,.67,.13,.92,.37,.26,.26,.4,.6,.4,1v1.39c0,.39-.13,.74-.38,1.01s-.57,.41-.93,.41h-9.28Z" fill="#fff"/><path d="M89.75,183.04c-.33,0-.64-.14-.89-.41-.25-.27-.38-.6-.38-.96v-22.21c0-.39,.13-.74,.38-1.01,.25-.27,.56-.41,.89-.41h17.59c.36,0,.68,.14,.93,.41,.25,.27,.38,.62,.38,1.01v1.48c0,.36-.13,.69-.38,.96-.25,.27-.57,.41-.93,.41h-14.55v16.45h14.76c.33,0,.64,.14,.89,.41,.25,.27,.38,.62,.38,1.01v1.48c0,.36-.13,.69-.38,.96-.25,.27-.56,.41-.89,.41h-17.8Zm6.68-10.94c-.36,0-.68-.13-.91-.39-.24-.25-.36-.59-.36-.98v-1.44c0-.39,.13-.73,.36-.98,.24-.25,.55-.39,.91-.39h9.79c.32,0,.62,.13,.87,.37,.26,.26,.4,.61,.4,1v1.44c0,.4-.14,.74-.4,1-.25,.25-.55,.37-.88,.37h-9.79Z" fill="#fff"/><path d="M133.78,183.04c-.28,0-.58-.09-.92-.26-.34-.17-.62-.4-.83-.67l-18.09-22.44c-.21-.23-.34-.53-.34-.86,0-.38,.25-.77,.8-.77h2.62c.34,0,.67,.18,1,.53l14.58,18.17v-17.28c0-.39,.13-.74,.39-1.01,.25-.27,.58-.41,.94-.41h1.44c.36,0,.69,.14,.94,.41,.25,.27,.39,.62,.39,1.01v22.21c0,.4-.14,.75-.4,1-.25,.24-.56,.37-.92,.37h-1.59Zm-18.87,0c-.36,0-.68-.13-.91-.39-.24-.25-.36-.59-.36-.98v-16.06c0-.56,.34-.82,.67-.82,.28,0,.54,.18,.89,.6l2.03,2.56c.29,.4,.42,.75,.42,1.09v12.63c0,.39-.12,.73-.36,.98-.24,.26-.55,.39-.91,.39h-1.46Z" fill="#fff"/><path d="M147.9,183.04c-.84,0-1.67-.18-2.49-.52-.81-.35-1.55-.83-2.21-1.44-.66-.61-1.21-1.35-1.62-2.2-.42-.86-.64-1.8-.64-2.78,0-.64,.38-1.05,.97-1.05h2.11c.59,0,.97,.39,.97,1,.09,.71,.39,1.36,.91,1.91,.5,.53,1.13,.79,1.95,.79h8.21c.84,0,1.5-.31,2.04-.94,.55-.65,.81-1.38,.81-2.23s-.26-1.56-.81-2.18c-.54-.61-1.21-.9-2.05-.9h-7.83c-.93,0-1.8-.19-2.61-.58-.8-.38-1.51-.9-2.11-1.55-.6-.65-1.08-1.43-1.42-2.31s-.51-1.83-.51-2.83,.17-1.94,.51-2.81c.34-.86,.82-1.63,1.42-2.28,.6-.65,1.31-1.17,2.11-1.55,.81-.38,1.68-.58,2.61-.58h7.65c.78,0,1.57,.17,2.35,.5,.78,.33,1.49,.79,2.12,1.37,.63,.58,1.16,1.28,1.56,2.08,.41,.82,.62,1.72,.62,2.67,0,.61-.38,1-.97,1h-1.85c-.55,0-.92-.36-.97-.95-.1-.66-.36-1.23-.82-1.7-.44-.46-1.01-.68-1.74-.68h-8.13c-.78,0-1.39,.26-1.87,.81-.49,.55-.72,1.2-.72,1.99s.23,1.42,.71,2.01c.47,.57,1.08,.84,1.89,.84h7.93c.95,0,1.87,.19,2.71,.57,.85,.38,1.6,.92,2.23,1.6,.63,.68,1.14,1.49,1.51,2.39,.37,.92,.56,1.92,.56,2.97s-.19,2.06-.56,2.97c-.37,.91-.88,1.71-1.51,2.37-.63,.66-1.38,1.2-2.22,1.59-.85,.4-1.76,.6-2.72,.6h-8.1Z" fill="#fff"/><path d="M187.14,183.04c-.42,0-.77-.24-.96-.67l-2.32-5.22h-8.5c-.48,0-.8-.35-.8-.86,0-.17,.03-.33,.09-.47l.95-2.04c.17-.48,.57-.76,1.09-.76h5.33l-4.47-10.4-8.91,19.75c-.2,.44-.54,.67-.96,.67h-2.15c-.56,0-.93-.38-.93-.96,0-.09,.02-.19,.11-.5l10.22-22.37c.15-.32,.37-.6,.65-.82,.3-.24,.63-.36,.96-.36h2.02c.34,0,.66,.12,.96,.36,.28,.22,.5,.5,.65,.82l10.19,22.3c.12,.36,.14,.46,.14,.56,0,.58-.37,.96-.93,.96h-2.41Z" fill="#fff"/></g><g id="i"><path d="M12.97,137.99c-.86,0-1.58-.33-2.14-.99-.55-.64-.82-1.37-.82-2.18v-18.63c0-.7,.26-1.4,.78-2.08,.55-.72,1.3-1.09,2.23-1.09H29.86c.4,0,.74,.16,1,.46,.24,.29,.37,.64,.37,1.01v1.51c0,.41-.13,.78-.39,1.05-.26,.27-.6,.42-.98,.42H14.55v16.06h15.87c.39,0,.72,.14,.98,.41,.26,.28,.39,.64,.39,1.05v1.51c0,.37-.13,.72-.37,1-.26,.3-.6,.46-1,.46H12.97Z" fill="#bd001f"/><path d="M43.81,137.99c-.44,0-.89-.13-1.32-.38-.4-.23-.75-.51-1.06-.84-.31-.33-.58-.71-.79-1.13-.23-.46-.35-.93-.35-1.41v-17.43c0-.48,.12-.95,.35-1.41,.21-.42,.48-.8,.79-1.13,.31-.33,.67-.62,1.06-.84,.43-.25,.87-.38,1.32-.38h17.29c.44,0,.89,.13,1.32,.38,.39,.23,.75,.51,1.06,.84,.31,.34,.58,.72,.79,1.13,.23,.46,.35,.93,.35,1.41v17.43c0,.47-.12,.95-.35,1.41-.21,.42-.48,.8-.79,1.13-.31,.33-.67,.62-1.06,.84-.43,.25-.87,.38-1.32,.38h-17.29Zm16.26-4.45v-16.06h-15.23v16.06h15.23Z" fill="#bd001f"/><path d="M93.45,137.99c-.29,0-.61-.09-.97-.27-.35-.18-.64-.41-.87-.69l-18.09-22.2c-.23-.24-.36-.57-.36-.92,0-.42,.28-.87,.9-.87h2.62c.36,0,.72,.19,1.07,.55l14.41,17.78v-16.82c0-.41,.14-.78,.42-1.07,.27-.29,.62-.44,1.01-.44h1.44c.39,0,.74,.15,1.01,.44,.27,.29,.42,.66,.42,1.08v21.98c0,.43-.15,.8-.44,1.07-.27,.26-.61,.39-.98,.39h-1.59Zm-18.87,0c-.39,0-.73-.14-.98-.42-.25-.27-.39-.63-.39-1.05v-16.43c0-.63,.4-.91,.77-.91s.7,.32,.96,.63l2.03,2.53c.31,.42,.44,.79,.44,1.15v13.04c0,.41-.14,.78-.39,1.05-.26,.27-.6,.42-.98,.42h-1.46Z" fill="#bd001f"/><path d="M114.41,137.99c-.38,0-.72-.14-.99-.4-.28-.27-.43-.64-.43-1.07v-15.27c0-.42,.15-.79,.43-1.07,.27-.26,.61-.4,.99-.4h1.72c.39,0,.73,.14,.98,.42,.26,.27,.39,.64,.39,1.05v15.27c0,.41-.14,.78-.39,1.05-.25,.27-.59,.41-.98,.41h-1.72Zm-9.16-20.51c-.4,0-.75-.16-1-.46-.24-.28-.37-.65-.37-1.05v-1.47c0-.37,.13-.72,.37-1,.26-.3,.6-.46,1-.46h20.08c.4,0,.74,.16,1,.46,.24,.29,.37,.63,.37,1v1.47c0,.93-.53,1.51-1.37,1.51h-20.08Z" fill="#bd001f"/><path d="M154.3,138.04c-.31,0-.62-.1-.93-.3-.29-.18-.53-.42-.72-.71l-5.66-8.22h-3.73c-.39,0-.73-.14-.98-.42-.26-.27-.39-.64-.39-1.05v-1.42c0-.41,.13-.78,.39-1.05,.25-.27,.6-.42,.98-.42h5.71c.94,0,1.73-.33,2.4-1.02,.67-.68,1-1.48,1-2.47s-.33-1.8-1-2.47c-.68-.68-1.47-1.02-2.4-1.02h-9.33v19.04c0,.43-.15,.8-.43,1.07-.27,.26-.61,.39-.98,.39h-1.72c-.39,0-.73-.14-.98-.42-.26-.27-.39-.63-.39-1.05v-21.98c0-.4,.13-.76,.37-1.05,.26-.3,.61-.46,1-.46h12.9c1.03,0,2,.21,2.89,.63,.88,.41,1.67,.98,2.33,1.69,.67,.71,1.2,1.55,1.59,2.49,.39,.95,.59,1.99,.59,3.08,0,.93-.14,1.82-.42,2.65-.28,.83-.67,1.58-1.17,2.25-.5,.66-1.09,1.24-1.77,1.72-.44,.31-.89,.56-1.37,.75l5.61,8.18c.14,.22,.2,.45,.2,.7,0,.51-.35,.87-.86,.87h-2.71Z" fill="#bd001f"/><path d="M187.06,137.99c-.46,0-.84-.26-1.05-.72l-2.29-5.11h-8.44c-.53,0-.9-.39-.9-.96,0-.19,.04-.36,.1-.51l.95-2.02c.18-.5,.62-.81,1.18-.81h5.17l-4.32-9.94-8.82,19.34c-.22,.46-.6,.73-1.05,.73h-2.15c-.62,0-1.03-.42-1.03-1.05,0-.12,.03-.24,.12-.52l10.22-22.15c.16-.34,.38-.62,.68-.85,.32-.25,.66-.38,1.02-.38h2.02c.36,0,.7,.13,1.02,.38,.29,.23,.52,.51,.68,.85l10.19,22.08c.12,.39,.15,.49,.15,.6,0,.63-.41,1.05-1.03,1.05h-2.41Z" fill="#bd001f"/></g></g></g></svg>