<svg xmlns="http://www.w3.org/2000/svg" data-name="Layer 3" viewBox="0 0 64 80" x="0px" y="0px"><path d="M59,1H5A4,4,0,0,0,1,5V47a4,4,0,0,0,4,4H17v5a1,1,0,0,0,1,1h3v6h2V57H41v6h2V57h3a1,1,0,0,0,1-1V51h4V63h2V51h2V63h2V51h2a4,4,0,0,0,4-4V5A4,4,0,0,0,59,1ZM45,55H19V51H45Zm16-8a2,2,0,0,1-2,2H5a2,2,0,0,1-2-2V5A2,2,0,0,1,5,3H59a2,2,0,0,1,2,2Z"/><path d="M56,31a3,3,0,0,0-3,3,2.87,2.87,0,0,0,.35,1.37L52,36.91V32a1,1,0,0,0-1-1H45a1,1,0,0,0-1,1V46a1,1,0,0,0,1,1h6a1,1,0,0,0,1-1V40l2.8-3.2A3,3,0,1,0,56,31ZM50,45H46V33h4v6.2l-2.75,3.14,1.5,1.32L50,42.23Zm6-10a1,1,0,1,1,1-1A1,1,0,0,1,56,35Z"/><path d="M20,5H6A1,1,0,0,0,5,6V20a1,1,0,0,0,1,1H20a1,1,0,0,0,1-1V6A1,1,0,0,0,20,5ZM19,19H7V7H19Z"/><path d="M38,5H24a1,1,0,0,0-1,1V20a1,1,0,0,0,1,1H38a1,1,0,0,0,1-1V6A1,1,0,0,0,38,5ZM37,19H25V7H37Z"/><path d="M13,23a8,8,0,1,0,8,8A8,8,0,0,0,13,23Zm1,13.91V31H12v5.91A6,6,0,0,1,7.09,32H9V30H7.09a6,6,0,0,1,1-2.47l1.18,1.18,1.42-1.42L9.53,26.11a6,6,0,0,1,2.47-1V27h2V25.09a6,6,0,0,1,2.47,1l-1.18,1.18,1.42,1.42,1.18-1.18a6,6,0,0,1,1,2.47H17v2h1.91A6,6,0,0,1,14,36.91Z"/><path d="M31,23a8,8,0,1,0,8,8A8,8,0,0,0,31,23Zm1,13.91V31H30v5.91A6,6,0,0,1,25.09,32H27V30H25.09a6,6,0,0,1,1-2.47l1.18,1.18,1.42-1.42-1.18-1.18a6,6,0,0,1,2.47-1V27h2V25.09a6,6,0,0,1,2.47,1l-1.18,1.18,1.42,1.42,1.18-1.18a6,6,0,0,1,1,2.47H35v2h1.91A6,6,0,0,1,32,36.91Z"/><path d="M12,41H8a1,1,0,0,0-1,1v4a1,1,0,0,0,1,1h4a1,1,0,0,0,1-1V42A1,1,0,0,0,12,41Zm-1,4H9V43h2Z"/><path d="M20,41H16a1,1,0,0,0-1,1v4a1,1,0,0,0,1,1h4a1,1,0,0,0,1-1V42A1,1,0,0,0,20,41Zm-1,4H17V43h2Z"/><path d="M28,41H24a1,1,0,0,0-1,1v4a1,1,0,0,0,1,1h4a1,1,0,0,0,1-1V42A1,1,0,0,0,28,41Zm-1,4H25V43h2Z"/><path d="M36,41H32a1,1,0,0,0-1,1v4a1,1,0,0,0,1,1h4a1,1,0,0,0,1-1V42A1,1,0,0,0,36,41Zm-1,4H33V43h2Z"/><path d="M49,28V24a1,1,0,0,0-1-1H42a1,1,0,0,0-1,1v4a1,1,0,0,0,1,1h6A1,1,0,0,0,49,28Zm-2-1H43V25h4Z"/><path d="M58,23H52a1,1,0,0,0-1,1v4a1,1,0,0,0,1,1h6a1,1,0,0,0,1-1V24A1,1,0,0,0,58,23Zm-1,4H53V25h4Z"/><path d="M58,5H52a1,1,0,0,0-1,1V20a1,1,0,0,0,1,1h6a1,1,0,0,0,1-1V6A1,1,0,0,0,58,5ZM57,19H53V7h4Z"/><path d="M42,21h6a1,1,0,0,0,1-1V6a1,1,0,0,0-1-1H42a1,1,0,0,0-1,1V20A1,1,0,0,0,42,21ZM43,7h4V19H43Z"/></svg>