<svg xmlns="http://www.w3.org/2000/svg" data-name="ICON Black" viewBox="0 0 32 40" x="0px" y="0px"><title>Control Panel</title><path d="M29,6.66H3a.5.5,0,0,0-.5.5V24.84a.5.5,0,0,0,.5.5H29a.5.5,0,0,0,.5-.5V7.16A.5.5,0,0,0,29,6.66Zm-.5,17.68H3.5V7.66h25Z"/><path d="M9.76,22.22a4.14,4.14,0,1,0-4.14-4.14A4.15,4.15,0,0,0,9.76,22.22Zm0-7.28a3.14,3.14,0,1,1-3.14,3.14A3.15,3.15,0,0,1,9.76,14.94Z"/><path d="M9.5,18.51a.48.48,0,0,0,.26.07.5.5,0,0,0,.43-.24l.91-1.5a.5.5,0,0,0-.86-.51l-.91,1.49A.5.5,0,0,0,9.5,18.51Z"/><path d="M7.16,10.78H9.24a.5.5,0,0,0,0-1H7.16a.5.5,0,1,0,0,1Z"/><path d="M12.36,10.78h2.08a.5.5,0,0,0,0-1H12.36a.5.5,0,0,0,0,1Z"/><path d="M17.56,10.78h2.08a.5.5,0,0,0,0-1H17.56a.5.5,0,0,0,0,1Z"/><path d="M22.76,10.78h2.08a.5.5,0,0,0,0-1H22.76a.5.5,0,0,0,0,1Z"/><path d="M15.48,16H16v4.7a.5.5,0,0,0,1,0V16h.54a.5.5,0,0,0,0-1H17v-.54a.5.5,0,0,0-1,0V15h-.54a.5.5,0,0,0,0,1Z"/><path d="M19.64,18.1a.5.5,0,0,0,0,1h.54v1.58a.5.5,0,0,0,1,0V19.1h.54a.5.5,0,0,0,0-1h-.54V14.44a.5.5,0,1,0-1,0V18.1Z"/><path d="M25.34,14.44a.5.5,0,0,0-1,0V16H23.8a.5.5,0,0,0,0,1h.54v3.66a.5.5,0,0,0,1,0V17h.54a.5.5,0,0,0,0-1h-.54Z"/></svg>