<svg version="1.1" id="aa03ddf9-f8f2-4819-a4ce-be9b0a220741"
	 xmlns="http://www.w3.org/2000/svg" xmlns:xlink="http://www.w3.org/1999/xlink" x="0px" y="0px" width="1119.61px" height="699px"
	 viewBox="0 0 1119.61 699" style="enable-background:new 0 0 1119.61 699;" xml:space="preserve">
<style type="text/css">
	.st0{fill:#F2F2F2;}
	.st1{fill:#2F2E41;}
	.st2{fill:#2563EB;}
	.st3{fill:#A8A8A8;}
	.st4{opacity:0.2;enable-background:new    ;}
	.st5{fill:#3F3D56;}
	.st6{opacity:0.1;enable-background:new    ;}
	.st7{fill:none;stroke:#2F2E41;stroke-width:2.658;stroke-miterlimit:10;}
	.st8{opacity:0.4;fill:#2563EB;enable-background:new    ;}
	.st9{opacity:0.8;fill:#2563EB;enable-background:new    ;}
</style>
<title>server down</title>
<circle class="st0" cx="292.61" cy="213" r="213"/>
<path class="st1" d="M0,51.14c0,77.5,48.62,140.21,108.7,140.21"/>
<path class="st2" d="M108.7,191.35c0-78.37,54.26-141.78,121.3-141.78"/>
<path class="st2" d="M39.38,58.17c0,73.61,31,133.18,69.32,133.18"/>
<path class="st1" d="M108.7,191.35c0-100.14,62.71-181.17,140.21-181.17"/>
<path class="st3" d="M85.83,192.34c0,0,15.42-0.47,20.06-3.78s23.71-7.26,24.87-1.95s23.17,26.39,5.76,26.53s-40.44-2.71-45.08-5.54
	S85.83,192.34,85.83,192.34z"/>
<path class="st4" d="M136.83,211.28c-17.4,0.14-40.44-2.71-45.08-5.54c-3.53-2.15-4.94-9.87-5.41-13.43
	c-0.33,0.01-0.51,0.02-0.51,0.02s0.98,12.43,5.61,15.26s27.67,5.68,45.08,5.54c5.02-0.04,6.76-1.83,6.66-4.48
	C142.49,210.26,140.57,211.25,136.83,211.28z"/>
<ellipse class="st5" cx="198.61" cy="424.5" rx="187" ry="25.44"/>
<ellipse class="st6" cx="198.61" cy="424.5" rx="157" ry="21.36"/>
<ellipse class="st5" cx="836.61" cy="660.5" rx="283" ry="38.5"/>
<path class="st7" d="M309.61,261.34c0,0,159.11-51.95,168.9,115.45C488.3,544.19,347.55,591.81,457.7,625l4.91,1
	c90,23,263-30,282-90"/>
<path class="st1" d="M778.7,563.24l-7.88,50.3c0,0-38.78,20.6-11.51,21.21s155.73,0,155.73,0s24.84,0-14.54-21.81l-7.88-52.72
	L778.7,563.24z"/>
<path class="st6" d="M753.83,634.2c6.19-5.51,17-11.25,17-11.25l7.88-50.3l113.92,0.11l7.88,49.58c9.18,5.09,14.87,8.99,18.2,11.98
	c5.06-1.15,10.59-5.44-18.2-21.39l-7.88-52.72l-113.92,3.03l-7.88,50.3C770.83,613.54,738.24,630.85,753.83,634.2z"/>
<path class="st1" d="M596.48,212.69h477.16c9.97,0,18.05,8.08,18.05,18.05v321.43c0,9.97-8.08,18.05-18.05,18.05H596.48
	c-9.97,0-18.05-8.08-18.05-18.05V230.73C578.43,220.77,586.51,212.69,596.48,212.69z"/>
<rect x="595.7" y="231.78" class="st5" width="478.71" height="267.84"/>
<circle class="st0" cx="835.06" cy="223.29" r="3.03"/>
<path class="st1" d="M1091.69,520.82v31.34c0,9.97-8.08,18.04-18.04,18.05c0,0,0,0,0,0H596.48c-9.97,0-18.04-8.08-18.05-18.04
	c0,0,0,0,0,0v-31.34H1091.69z"/>
<polygon class="st1" points="968.98,667.47 968.98,673.53 642.97,673.53 642.97,668.68 643.42,667.47 651.45,645.65 962.31,645.65 
	"/>
<path class="st1" d="M1094.44,661.53c-0.59,2.54-2.84,5.22-7.9,7.75c-18.18,9.09-55.14-2.42-55.14-2.42s-28.48-4.85-28.48-17.57
	c0.8-0.55,1.63-1.04,2.5-1.48c7.64-4.04,32.98-14.02,77.92,0.42c3.31,1.04,6.27,2.98,8.54,5.6
	C1093.69,655.95,1095.12,658.66,1094.44,661.53z"/>
<path class="st6" d="M1094.44,661.53c-22.25,8.53-42.08,9.16-62.44-4.97c-10.27-7.13-19.59-8.89-26.59-8.76
	c7.64-4.04,32.98-14.02,77.92,0.42c3.31,1.04,6.27,2.98,8.54,5.6C1093.69,655.95,1095.12,658.66,1094.44,661.53z"/>
<ellipse class="st0" cx="1066.54" cy="654.13" rx="7.88" ry="2.42"/>
<circle class="st0" cx="835.06" cy="545.67" r="11.51"/>
<polygon class="st6" points="968.98,667.47 968.98,673.53 642.97,673.53 642.97,668.68 643.42,667.47 "/>
<rect x="108.61" y="159" class="st1" width="208" height="242"/>
<rect x="87.61" y="135" class="st5" width="250" height="86"/>
<rect x="87.61" y="237" class="st5" width="250" height="86"/>
<rect x="87.61" y="339" class="st5" width="250" height="86"/>
<rect x="271.61" y="150" class="st8" width="16" height="16"/>
<rect x="294.61" y="150" class="st9" width="16" height="16"/>
<rect x="317.61" y="150" class="st2" width="16" height="16"/>
<rect x="271.61" y="251" class="st8" width="16" height="16"/>
<rect x="294.61" y="251" class="st9" width="16" height="16"/>
<rect x="317.61" y="251" class="st2" width="16" height="16"/>
<rect x="271.61" y="352" class="st8" width="16" height="16"/>
<rect x="294.61" y="352" class="st9" width="16" height="16"/>
<rect x="317.61" y="352" class="st2" width="16" height="16"/>
<path class="st7" d="M457.7,625"/>
</svg>
