<svg class="w-full h-full" version="1.1" id="prefix__layer" xmlns="http://www.w3.org/2000/svg" x="0" y="0"
    viewbox="0 0 551.3 128.7" xml:space="preserve">
    <style>
        .prefix__st0 {
            fill: #0678be;
        }

    </style>
    <path class="prefix__st0"
        d="M99.1 17.2C88.2 6.3 73.6.2 58.2.2 26.3.2.3 26.2.3 58.1s26 57.9 57.9 57.9 57.9-26 57.9-57.9c.1-15.5-6-30-17-40.9zM58.2 95.7c-17.5 0-31.7-14.3-31.7-31.7 0-14.8 9.9-24.7 18.7-33.5 5.8-5.8 11.4-11.4 13.1-17.7 1.7 6.3 7.2 11.9 13.1 17.7 8.7 8.7 18.7 18.7 18.7 33.5-.2 17.4-14.4 31.7-31.9 31.7z" />
    <path id="prefix__path3470" class="prefix__st0"
        d="M277.7 33.8c-16.3-3.8-26.6 12.4-27 13.3-.2.4-.2.7-.9.7-.6 0-.7-.7-.7-.7l-2-12.4h-16.9v70.7h19V67.1c0-3.1 8.4-18.1 24.7-14.3 8.3 2 11.8 5.5 11.8 5.5V36.8c-3.1-1.6-5.2-2.4-8-3" />
    <path id="prefix__path3472" class="prefix__st0"
        d="M405 51.7c10.5 0 19 8.5 19 18.9 0 10.5-8.5 19-19 19s-18.9-8.5-18.9-19c0-10.4 8.5-18.9 18.9-18.9zm-18.4 77V93.8s0-.8.7-.8c.6 0 .7.4.9.8 1.4 3.6 9.4 17.2 26.9 13 15.7-4.4 27.3-18.9 27.3-36 0-20.7-16.8-37.4-37.4-37.4-20.7 0-37.4 16.8-37.4 37.4v58h19" />
    <path id="prefix__path3448" class="prefix__st0"
        d="M360.9 34.6h-19v35.6c0 10.4-4.5 18.8-14.8 18.8-10.4 0-14.9-8.4-14.9-18.8V34.6h-19v35.5c0 20.5 13.2 37.2 33.7 37.2s33.9-16.6 33.9-37.2l.1-35.5" />
    <path id="prefix__path3450" class="prefix__st0" d="M532.3 12.9h18.9v92.6h-18.9V12.9z" />
    <path id="prefix__path3452" class="prefix__st0" d="M565.1 16.3V13h14.7v3.3h-5.4V31h-4V16.3h-5.3" />
    <path id="prefix__path3454" class="prefix__st0"
        d="m587.5 13 4.2 12.4h.1l4-12.4h5.6v18h-3.7V18.3h-.1L593.2 31h-3l-4.4-12.6h-.1V31H582V13h5.5" />
    <path id="prefix__path3482" class="prefix__st0"
        d="M506.1 70.7c0 10.5-8.5 19-18.9 19-10.5 0-19-8.5-19-19s8.5-18.9 19-18.9c10.4-.1 18.9 8.4 18.9 18.9zm-.6 34.8h19V70.7c0-20.7-16.8-37.4-37.4-37.4-20.7 0-37.4 16.8-37.4 37.4 0 17.2 11.5 31.6 27.3 36 17.6 4.3 25.5-9.4 26.9-13 .1-.4.3-.8.9-.8.7 0 .7.8.7.8" />
    <path id="prefix__path3484" class="prefix__st0"
        d="M175.8 28.9h-7.6v60.4l7.8.2c16.1 0 26.4-1.5 26.4-30.4 0-27.7-9.1-30.2-26.6-30.2zm-5.2 76.4H149V12.9h23.2c28.1 0 49.4 5.2 49.4 46.2 0 40.7-22.6 46.2-51 46.2" />
</svg>
