<svg class="w-full h-full" viewbox="0 0 714.636 118.299">
    <defs />
    <path fill="#1F0047"
        d="M259.216 70.316c-.072-.426-.107-1.103-.107-2.029 0-5.838 1.94-10.394 5.821-13.67 3.881-3.275 8.171-4.913 12.869-4.913 6.194 0 10.501 2.35 12.922 7.05l-31.505 13.562zm45.068-8.33c-.072-6.906-2.669-12.512-7.795-16.82-5.127-4.307-11.572-6.461-19.331-6.461a31.288 31.288 0 00-13.989 3.257c-4.416 2.173-8.116 5.554-11.107 10.147-2.99 4.592-4.487 9.915-4.487 15.966 0 8.757 2.884 15.805 8.651 21.145 5.768 5.34 12.672 8.01 20.719 8.01 9.185 0 17.158-3.488 23.923-10.466l-7.05-7.797c-4.129 4.985-9.38 7.477-15.753 7.477s-11.409-2.278-15.111-6.835l41.437-17.408-.107-.215zM233.856 42.228c-3.312 2.28-5.929 5.198-7.85 8.757V39.559h-11.961v56.815h11.961v-24.35c0-6.478 1.495-11.64 4.487-15.485 2.988-3.844 7.438-5.767 13.349-5.767h.641l-.107-12.069c-3.705.073-7.21 1.248-10.52 3.525M347.153 67.433c-1.923-1.282-3.721-2.278-5.393-2.99a60.447 60.447 0 00-5.179-1.923 96.5 96.5 0 00-6.142-1.708c-2.314-.569-4.111-1.175-5.392-1.816-1.852-.854-2.776-2.206-2.776-4.057 0-2.065.889-3.613 2.669-4.646 1.778-1.031 4.093-1.548 6.941-1.548 5.409 0 10.43 1.531 15.059 4.592l4.485-8.864c-5.838-3.844-12.033-5.768-18.582-5.768-6.551 0-11.873 1.586-15.967 4.754-4.095 3.168-6.141 7.387-6.141 12.655 0 7.476 5.91 12.814 17.729 16.018.283.072.71.215 1.281.428 7.545 2.279 11.32 4.842 11.32 7.69 0 1.922-.785 3.506-2.35 4.752-1.566 1.246-3.702 1.868-6.407 1.868-6.194 0-12.601-2.491-19.223-7.476l-5.767 9.291c3.417 2.706 7.35 4.806 11.8 6.301 4.45 1.495 8.739 2.243 12.868 2.243 6.124 0 11.143-1.619 15.06-4.859 3.914-3.24 5.873-7.564 5.873-12.976 0-5.41-1.922-9.398-5.766-11.961M188.887 59.049c-2.529 2.669-7.281 4.005-14.257 4.005h-14.631V33.15h12.815c6.835 0 11.854 1.068 15.058 3.205 3.204 2.136 4.806 5.785 4.806 10.947 0 5.163-1.264 9.076-3.791 11.747m8.917-30.81c-5.198-4.342-13.457-6.515-24.777-6.515h-25.63v74.651h12.602V74.482h13.242c10.965 0 19.098-2.1 24.403-6.301 5.302-4.199 7.956-10.822 7.956-19.864 0-9.041-2.6-15.735-7.796-20.078M380.908 86.869c-2.563 0-4.557-.802-5.98-2.403-1.425-1.602-2.137-3.754-2.137-6.461V49.17h14.953v-9.611h-14.953V21.724H360.83v55.961c0 5.981 1.797 10.733 5.393 14.257 3.594 3.525 7.937 5.286 13.028 5.286 5.09 0 9.736-1.885 13.937-5.66l-4.913-8.438c-2.346 2.495-4.803 3.739-7.367 3.739M435.652 81.476c-3.276 3.454-7.261 5.179-11.961 5.179-4.698 0-8.794-1.708-12.282-5.125-3.489-3.419-5.232-7.85-5.232-13.297s1.709-9.986 5.126-13.617c3.418-3.631 7.51-5.446 12.282-5.446 4.769 0 8.791 1.815 12.067 5.446 3.275 3.631 4.913 8.154 4.913 13.564-.001 5.412-1.639 9.843-4.913 13.296m4.699-32.091c-4.842-7.119-11.001-10.681-18.476-10.681-7.476 0-13.955 2.635-19.436 7.903-5.484 5.269-8.224 12.319-8.224 21.145 0 8.829 2.67 15.951 8.009 21.36 5.34 5.41 11.605 8.116 18.797 8.116 3.559 0 7.102-.871 10.625-2.617 3.524-1.743 6.425-4.252 8.704-7.528v9.291h11.961V39.559H440.35v9.826h.001z" />
    <path fill="#E2066F"
        d="M629.612 81.37c-3.382 3.454-7.672 5.179-12.868 5.179-5.198 0-9.488-1.725-12.868-5.179-3.383-3.453-5.073-7.92-5.073-13.403 0-5.482 1.69-9.949 5.073-13.403 3.381-3.453 7.67-5.18 12.868-5.18 5.196 0 9.487 1.727 12.868 5.18 3.381 3.454 5.073 7.92 5.073 13.403s-1.692 9.95-5.073 13.403m-12.868-42.666c-8.544 0-15.664 2.831-21.358 8.491-5.698 5.661-8.544 12.585-8.544 20.773s2.846 15.111 8.544 20.772c5.695 5.66 12.814 8.49 21.358 8.49s15.662-2.83 21.36-8.49c5.695-5.661 8.542-12.584 8.542-20.772s-2.847-15.112-8.542-20.773c-5.698-5.66-12.816-8.491-21.36-8.491M694.582 81.422c-3.49 3.418-7.582 5.127-12.282 5.127s-8.686-1.725-11.961-5.179c-3.276-3.453-4.913-7.885-4.913-13.297 0-5.409 1.637-9.914 4.913-13.509 3.275-3.596 7.297-5.394 12.068-5.394 4.769 0 8.865 1.798 12.282 5.394 3.418 3.595 5.125 8.116 5.125 13.562 0 5.447-1.744 9.879-5.232 13.296m9.078-34.815c-5.412-5.268-11.927-7.903-19.545-7.903-7.619 0-13.776 3.597-18.476 10.788V39.56h-11.961v77.533h11.961V87.832c5.697 6.266 12.122 9.397 19.277 9.397 7.155 0 13.42-2.74 18.795-8.223 5.375-5.481 8.065-12.603 8.065-21.36s-2.707-15.77-8.116-21.039M558.995 38.704c-3.988 0-7.708.999-11.161 2.99-3.454 1.995-6.034 4.736-7.742 8.225v-32.68H528.13v79.136h11.962V65.617c0-5.269 1.53-9.273 4.593-12.015 3.059-2.74 6.656-4.111 10.786-4.111 8.685 0 13.029 5.232 13.029 15.698v31.186h11.962V61.558c0-7.404-1.976-13.063-5.928-16.98-3.952-3.914-9.132-5.874-15.539-5.874M513.828 60.491c-3.881-3.346-9.648-5.944-17.301-7.796-7.654-1.85-12.655-3.578-15.005-5.18-2.349-1.601-3.524-3.915-3.524-6.942 0-3.025 1.175-5.286 3.524-6.78 2.35-1.496 5.357-2.244 9.025-2.244 3.666 0 7.384.641 11.16 1.923 3.772 1.281 6.762 2.919 8.971 4.913l6.726-9.505c-3.417-2.846-7.475-5.056-12.174-6.621-4.699-1.566-9.435-2.35-14.203-2.35-7.406 0-13.618 1.87-18.637 5.606-5.019 3.738-7.528 9.06-7.528 15.966s2.206 12.033 6.62 15.379c2.206 1.779 4.735 3.222 7.582 4.324 2.848 1.105 7.013 2.315 12.497 3.631 5.481 1.319 9.343 2.777 11.586 4.379s3.365 3.844 3.365 6.728-1.193 5.198-3.579 6.942c-2.386 1.746-5.607 2.617-9.665 2.617-8.116 0-15.949-3.275-23.495-9.826l-7.902 9.505c9.041 8.047 19.4 12.069 31.077 12.069 7.973 0 14.417-2.029 19.33-6.088 4.912-4.057 7.369-9.343 7.369-15.859s-1.939-11.443-5.819-14.791" />
    <path fill="#A0DBE8"
        d="M38.611 90.073a50.726 50.726 0 012.814-1.148 51.811 51.811 0 017.366-2.186 51.289 51.289 0 015.684-.879 177.337 177.337 0 01-3.541 10.053c.055.645.085 1.294.102 1.944 2.585-.51 5.256-.783 7.991-.783s5.406.273 7.991.783c.017-.651.046-1.3.102-1.944a177.337 177.337 0 01-3.541-10.053c1.912.186 3.809.48 5.684.879a51.078 51.078 0 017.366 2.186c.948.356 1.888.736 2.815 1.148a50.356 50.356 0 0117.49 12.911c12.325-10.644 20.137-26.372 20.137-43.935 0-32.056-25.987-58.043-58.043-58.043S.985 26.993.985 59.049c0 17.563 7.811 33.292 20.137 43.935a50.331 50.331 0 0117.489-12.911z" />
    <path fill="#525353"
        d="M42.437 100.574a40.74 40.74 0 018.599-2.717c-.017-.651-.046-1.3-.102-1.944a177.337 177.337 0 003.541-10.053c-1.912.186-3.809.48-5.684.879a51.078 51.078 0 00-7.366 2.186l4.231 1.025-3.219 10.624zM32.462 106.832c.106-1.082.171-2.173.171-3.275 0-.663.538-1.201 1.201-1.201h1.055l3.722-12.282a50.37 50.37 0 00-17.491 12.911 58.178 58.178 0 008.752 6.247 41.074 41.074 0 012.59-2.4zM79.443 90.073l3.722 12.282h1.054a1.2 1.2 0 011.201 1.201c0 1.103.065 2.194.171 3.275a41.38 41.38 0 012.59 2.399 58.178 58.178 0 008.752-6.247 50.366 50.366 0 00-17.49-12.91zM72.398 89.95l4.23-1.025a51.811 51.811 0 00-7.366-2.186 51.289 51.289 0 00-5.684-.879 177.337 177.337 0 003.541 10.053 33.066 33.066 0 00-.102 1.944 40.73 40.73 0 018.6 2.717L72.398 89.95z" />
    <path
        d="M59.027 102.355h8.179a32.664 32.664 0 01-.188-4.498c-2.585-.51-5.256-.783-7.991-.783s-5.405.273-7.991.783a32.982 32.982 0 01-.188 4.498h8.179zM29.872 109.231c.675.393 1.355.776 2.046 1.142.242-1.163.427-2.344.544-3.541a41.357 41.357 0 00-2.59 2.399z" />
    <path
        d="M41.897 102.355h8.951c.168-1.507.228-3.009.188-4.498a40.722 40.722 0 00-8.599 2.717l-.54 1.781zM85.591 106.832c.117 1.197.302 2.378.544 3.541a57.445 57.445 0 002.046-1.142 41.08 41.08 0 00-2.59-2.399zM76.157 102.355l-.54-1.78a40.73 40.73 0 00-8.6-2.717 32.982 32.982 0 00.188 4.498l8.952-.001z" />
    <path fill="#AA9678"
        d="M41.897 102.355l.54-1.781 3.22-10.625-4.231-1.025c-.948.356-1.888.736-2.814 1.148l-3.722 12.282h3.996l3.011.001zM75.618 100.575l.54 1.78h7.008l-3.722-12.282a50.756 50.756 0 00-2.815-1.148l-4.23 1.025 3.219 10.625z" />
    <path fill="#C0B098" d="M35.011 104.836l.11-.078h-.105l-.005.078z" />
    <path fill="#C0B098"
        d="M59.027 104.757H35.122l-.11.078a35.592 35.592 0 01-.877 6.656 57.811 57.811 0 0024.892 5.601v-12.335z" />
    <path fill="#AA9678" d="M83.038 104.757h-.105l.11.078c-.002-.026-.005-.051-.005-.078z" />
    <path fill="#AA9678"
        d="M82.932 104.757H59.028v12.335c8.91 0 17.348-2.013 24.892-5.601a35.664 35.664 0 01-.877-6.656l-.111-.078z" />
    <path fill="#8B7460"
        d="M85.591 106.832a33.556 33.556 0 01-.171-3.275c0-.663-.538-1.201-1.201-1.201H33.834a1.2 1.2 0 00-1.201 1.201c0 1.103-.065 2.194-.171 3.275a33.262 33.262 0 01-.544 3.541c.731.387 1.468.763 2.216 1.119.493-2.164.796-4.387.877-6.656l.005-.078h48.019l.005.078c.08 2.268.384 4.492.877 6.656a56.698 56.698 0 002.216-1.119 33.817 33.817 0 01-.542-3.541z" />
    <g>
        <path fill="none"
            d="M78.561 50.229l.005.014c.726 2.086 1.55 4.199 1.973 6.373l-.045.468a16.983 16.983 0 00.063-.397c-.421-2.204-1.26-4.344-1.996-6.458l-.008.016.008-.016zM95.464 63.351c-.032.019-.064.035-.097.052l.097-.052zM95.838 63.067c-.042.04-.083.083-.127.118.044-.035.085-.078.127-.118zM76.815 48.702a34.958 34.958 0 010 0zM90.276 62.612l.031.037-.031-.037zM92.735 65.678l.118.149-.118-.149zM80.36 57.793zM74.67 78.966c-.888 1.48-1.457 2.883-1.786 4.199.329-1.316.898-2.719 1.786-4.199zM78.567 50.219l.157-.308-.014.012c-.048.096-.096.197-.143.296zM67.046 57.838l.004.012-.004-.012zM66.611 56.864zM70.542 44.462zM70.837 44.627l-.246-.138.246.138zM72.741 49.304c.001.137-.002.273-.001.41-.001-.137.003-.273.001-.41zM66.85 57.336l.005.01-.005-.01zM95.104 68.743l.217.283-.217-.283zM72.734 51.133zM67.192 58.364l.003.014c0-.005-.002-.009-.003-.014zM72.499 45.574c-.212-.122-.768-.44-1.269-.725.494.281 1.045.597 1.269.725zM71.198 44.832l-.355-.201c.109.061.23.129.355.201zM72.592 45.627zM97.044 59.728c.001-.046.008-.089.008-.135l.001-.017-.001-.016c0-.043-.007-.083-.008-.126.001.048.008.093.008.142.001.052-.007.101-.008.152zM87.541 59.368l.166.192-.003-.003h.014a6.774 6.774 0 00-.177-.189zM79.604 51.141zM94.717 55.573zM92.485 58.457c-.012.069-.027.135-.037.206.01-.071.025-.137.037-.206zM95.257 55.691zM96.146 56.43zM97.001 58.744l-.005-.027-.008-.045c.003.026.01.049.014.076l-.001-.004zM96.996 60.438c.002-.011.005-.021.006-.033v-.003c-.004.03-.012.057-.016.087.003-.017.008-.033.01-.051zM93.197 56.56zM94.301 55.645zM83.992 55.464c-.357-.375-.721-.744-1.083-1.113.363.369.725.738 1.083 1.113zM94.717 42.882v-.016 5.397L92.65 57.73c-.007.023-.01.05-.016.073l.017-.054 2.067-9.467v-5.397l-.001-.003zM85.925 57.549l-.567-.623c.19.207.378.415.567.623zM96.784 57.748c.023.075.051.145.071.223l-.001-.003c-.02-.077-.047-.145-.07-.22zM92.381 59.557h.002c0-.038.006-.073.006-.11-.001.038-.008.072-.008.11zM93.898 55.84zM93.476 56.197zM96.855 61.18l.001-.003a5.302 5.302 0 01-.186.587 5.33 5.33 0 00.193-.592l-.008.008zM26.118 57.782c.085-.135.174-.267.26-.401-.086.134-.175.266-.26.401zM95.658 55.918zM27.764 55.364c.042-.057.081-.117.124-.174-.042.057-.082.117-.124.174zM67.327 59.529l.002-.001v-.009h.01l-.014-.031.002.041zM23.596 62.407zM22.326 65.372l-.041.104.041-.104zM96.155 44.259l-.005-.006zM33.794 48.854l-.004.004.004-.004zM31.523 50.966c.115-.115.232-.227.348-.341-.116.114-.234.226-.348.341zM29.476 53.203c.117-.138.233-.277.352-.413-.119.136-.235.274-.352.413zM96.785 57.749l-2.068-9.467 2.068 9.467zM60.739 64.919c-.039-.008-.076-.02-.115-.029.039.009.076.021.115.029zM61.292 65.006c-.044-.005-.086-.014-.129-.02.043.005.085.015.129.02zM24.869 59.905c-.131.237-.254.478-.38.717.126-.239.249-.48.38-.717zM59.194 64.339l-.007-.004.007.004zM60.202 64.777c-.025-.008-.05-.019-.075-.028.025.009.049.02.075.028zM59.685 64.583c-.013-.006-.025-.013-.038-.018l.038.018zM56.798 61.631l.005.013-.005-.013zM56.54 58.32c-.009.04-.022.079-.031.12.009-.04.022-.079.031-.12zM57.105 56.871l-.01.016a.086.086 0 00.01-.016zM58.919 54.961l-.003.001.003-.001zM56.683 57.816c-.01.029-.022.056-.031.085.009-.029.022-.057.031-.085zM56.872 57.334l-.023.048.023-.048zM62.935 54.205l-.025-.004a.257.257 0 01.025.004zM63.929 54.506l-.016-.006.016.006zM59.834 54.49l-.025.009c.008-.003.017-.005.025-.009zM60.83 54.198l-.036.005.036-.005zM67.287 58.917l.001.008-.001-.008zM61.891 41.968v-.237.237zM61.891 41.588v-.143.143zM61.891 41.367v-.031.031zM61.891 42.699v-.326-.233.559zM96.319 62.477zM56.441 58.866c-.005.044-.015.086-.02.13.005-.044.015-.086.02-.13zM56.496 60.623l.003.022-.003-.022zM96.609 61.907z" />
        <path fill="#525353" d="M75.646 94.072z" />
        <path fill="#AA9678"
            d="M76.981 95.398l.012.038-.012-.038s-.588-.466-1.335-1.326c.746.86 1.335 1.326 1.335 1.326z" />
        <circle cx="94.702" cy="42.885" r=".001" fill="#FFF" transform="rotate(-4.585 94.693 42.909)" />
        <path fill="#FFF" d="M97.052 59.593l.001-.017-.001.017z" />
        <path fill="#BBBCBD"
            d="M97.673 46.132l-.029-.038h.001a19.79 19.79 0 00-1.49-1.836l-.013-.016a16.562 16.562 0 00-.703-.719c-.09-.086-.182-.161-.272-.243-.149-.135-.298-.275-.449-.4v5.4l2.067 9.467c.022.074.05.142.069.219l1.432 1.605.014-.016h1.499c.002-.139.01-.276.01-.415v-.002a40.61 40.61 0 00-2.063-12.775c-.025-.076-.047-.154-.073-.231zM97.053 59.576l-.001-.016.001.016z" />
        <path fill="#676A6A"
            d="M96.988 58.672l.008.045.005.027v.004c.027.222.038.453.043.687.001.043.008.083.008.126l.001.016-.001.017c0 .046-.007.089-.008.135a6.717 6.717 0 01-.042.674v.003l-.006.033c-.002.018-.007.034-.01.051a6.055 6.055 0 01-.13.687l-.001.003.008-.009.003-.011 1.42-1.588-1.432-1.605.001.003c.057.224.1.459.133.702z" />
        <path
            d="M96.986 60.49c.004-.03.012-.057.016-.087.027-.218.037-.445.042-.674.001-.052.009-.1.009-.152 0-.049-.007-.094-.008-.142a6.959 6.959 0 00-.043-.687c-.003-.026-.01-.05-.014-.076a6.304 6.304 0 00-.133-.701c-.02-.078-.048-.147-.071-.223a4.484 4.484 0 00-.547-1.189c-.03-.044-.06-.088-.091-.129a2.975 2.975 0 00-.187-.233 2.293 2.293 0 00-.3-.279c-.04-.03-.082-.051-.123-.078a1.7 1.7 0 00-.403-.194c-.135-.042-.273-.072-.416-.072a1.403 1.403 0 00-.54.118c-.096.039-.188.09-.279.148-.04.027-.083.047-.122.078a2.293 2.293 0 00-.3.279 4.288 4.288 0 00-.279.363c-.222.334-.41.735-.547 1.189l-.017.054c-.06.208-.108.428-.148.654-.012.069-.028.135-.037.206a6.214 6.214 0 00-.059.784c-.001.037-.006.073-.006.11h.009c0 2.211 1.046 4.003 2.336 4.003a1.44 1.44 0 00.736-.21c.085-.048.167-.102.247-.165.044-.035.085-.078.127-.118a3.344 3.344 0 00.481-.59c.038-.06.072-.126.107-.19.065-.12.127-.246.183-.38.02-.048.042-.094.061-.144.071-.186.134-.381.186-.587.056-.218.098-.449.13-.686zm-2.185-1.447c-.484 0-.876-.672-.876-1.501s.392-1.501.876-1.501.876.672.876 1.501-.392 1.501-.876 1.501z" />
        <ellipse cx="94.801" cy="57.542" fill="#FFF" rx=".876" ry="1.501" />
        <path fill="#909393"
            d="M92.65 57.749a4.47 4.47 0 01.547-1.189c.03-.045.061-.088.092-.13a2.359 2.359 0 01.487-.512c.04-.03.082-.051.122-.078a1.627 1.627 0 01.403-.194c.135-.042.273-.072.416-.072s.281.029.416.072a1.705 1.705 0 01.403.194c.041.027.083.048.123.078.105.08.204.174.3.279a4.217 4.217 0 01.278.362c.222.334.409.735.547 1.189v.001l-2.067-9.467-2.067 9.467z" />
        <path
            d="M67.325 59.488a5.544 5.544 0 00-.037-.564l-.001-.008a5.664 5.664 0 00-.091-.539l-.003-.014a5.197 5.197 0 00-.142-.514l-.004-.012a5.524 5.524 0 00-.435-.974 5.526 5.526 0 00-2.682-2.359l-.016-.006a5.378 5.378 0 00-.979-.295l-.025-.004a5.487 5.487 0 00-1.049-.103 5.47 5.47 0 00-1.031.1l-.036.005a5.346 5.346 0 00-.96.287l-.025.009c-.312.127-.61.282-.89.462l-.003.001a5.522 5.522 0 00-.792.618l-.006.019-.02.005c-.39.37-.725.797-.993 1.267l-.01.016a5.463 5.463 0 00-.224.446l-.023.048a5.386 5.386 0 00-.165.434c-.01.029-.022.056-.031.085a5.287 5.287 0 00-.112.42c-.009.04-.022.079-.031.12-.029.14-.049.282-.068.426-.005.044-.015.086-.02.13a5.37 5.37 0 00.074 1.627l.003.022c.069.341.169.671.299.986l.005.013a5.486 5.486 0 001.114 1.705c.372.387.8.72 1.27.986l.007.004c.147.082.299.157.453.226.013.006.025.013.038.018.143.063.291.116.441.167l.075.028c.138.044.28.079.423.112.039.009.076.021.115.029.139.029.281.048.424.067.043.006.086.015.129.02a5.451 5.451 0 003.626-.904 5.491 5.491 0 001.981-2.406c.277-.654.43-1.374.43-2.129l-.002-.038c.001-.012-.001-.025-.001-.039zm-5.465-.641a2.054 2.054 0 110-4.108 2.054 2.054 0 010 4.108z" />
        <circle cx="61.86" cy="56.792" r="2.054" fill="#FFF" />
        <path fill="#BBBCBD"
            d="M58.098 55.605l.02-.005.006-.019 3.766-11.518V42.7v-.559-.172-.237-.143-.143-.078-.031a32.115 32.115 0 00-6.462-.666c-.737 0-1.468.031-2.194.081l-.318.022c-3.781.287-7.503 1.273-10.95 2.846a35.02 35.02 0 00-8.172 5.236l-.004.004a36.427 36.427 0 00-1.919 1.767c-.116.114-.234.226-.348.341a38.963 38.963 0 00-1.695 1.823c-.119.136-.235.275-.352.413a39.49 39.49 0 00-1.588 1.988c-.042.057-.082.117-.124.174a40.412 40.412 0 00-1.385 2.017c-.086.134-.175.266-.26.401a41.342 41.342 0 00-1.022 1.737h17.157l15.844-3.916z" />
        <path fill="#E2DDDB"
            d="M72.583 54.308c.035-.449.064-.899.087-1.348.031-.609.052-1.218.064-1.827.009-.473.008-.946.006-1.419-.001-.137.003-.273.001-.41a72.303 72.303 0 00-.135-3.661l-.01-.007-.005-.009a1.923 1.923 0 00-.038-.022l-.055-.031c-.224-.129-.775-.444-1.269-.725l-.031-.018-.355-.201a.031.031 0 01-.006-.004l-.246-.138-.048-.027a4.8 4.8 0 00-.179-.097 34.156 34.156 0 00-2.412-1.134c-1.951-.824-4.579-1.546-6.06-1.895v2.726l3.733 11.537.004.01a5.474 5.474 0 011.222 1.726l.005.01c.072.16.135.325.191.493l.004.012c.055.168.103.339.142.514l.003.014c.039.176.07.356.091.539l.001.008c.022.185.034.373.037.564l.014.031h4.571c.309-1.673.524-3.368.661-5.07l.012-.141z" />
        <path fill="#FBB040"
            d="M78.561 50.229l-.008.016.008-.016zM67.364 75.959a202.257 202.257 0 002.95-2.989c.555-.575 1.097-1.145 1.615-1.707 3.82-4.147 6.625-8.028 8.312-13.02.04-.119.08-.275.118-.45l.018-.081c.04-.186.078-.393.116-.627l.045-.468c-.424-2.174-1.247-4.286-1.973-6.373l.008.021-.021-.02c-.139-.132-.285-.255-.426-.385-.43-.396-.867-.783-1.312-1.158a35.067 35.067 0 00-4.209-3.059c.075 1.221.122 2.442.135 3.661.002.137-.002.273-.001.41.002.473.003.946-.006 1.419a58.672 58.672 0 01-.064 1.827c-.023.45-.052.899-.087 1.348-.004.047-.009.093-.012.14a49.706 49.706 0 01-.661 5.07l-.537 2.539c-1.121 4.546-3.399 8.67-5.272 12.928a50.409 50.409 0 00-1.381 3.434l-.117.329a74.898 74.898 0 011.497-1.536c.43-.425.852-.842 1.265-1.253z" />
        <path fill="#909393"
            d="M58.124 55.581c.244-.229.509-.436.792-.618l.003-.001c.28-.18.578-.335.89-.462l.025-.009c.307-.124.628-.221.96-.287l.036-.005a5.47 5.47 0 011.031-.1c.359 0 .709.037 1.049.103l.025.004a5.458 5.458 0 012.694 1.405l-.004-.01-3.733-11.537-3.768 11.517z" />
        <path fill="#676A6A"
            d="M56.798 61.631a5.46 5.46 0 01-.299-.986l-.003-.022a5.49 5.49 0 01-.074-1.627c.005-.044.014-.086.02-.13.019-.143.038-.286.068-.426.009-.041.021-.08.031-.12.033-.142.068-.283.112-.42.009-.029.021-.056.031-.085.05-.147.103-.293.165-.434l.023-.048c.069-.152.142-.302.224-.446l.01-.016c.268-.47.603-.897.993-1.267l-15.845 3.914h-.03l15.694 3.83a5.486 5.486 0 01-1.114-1.705c-.003-.003-.004-.008-.006-.012z" />
        <path fill="#E2DDDB"
            d="M92.448 58.662c.01-.071.025-.137.037-.206.04-.225.087-.445.148-.654.007-.023.01-.05.016-.073l2.067-9.467v-5.398c-1.689-1.395-3.498-2.158-5.382-2.158-2.379 0-4.598 1.314-6.257 2.937-1.816 1.776-3.218 4.011-4.353 6.266-.052.104-.105.203-.157.308.35.303.696.61 1.037.922a81.635 81.635 0 012.274 2.168c.348.343.688.693 1.03 1.042.363.369.726.738 1.083 1.113a111.301 111.301 0 011.933 2.085 127.08 127.08 0 011.616 1.819l.001.001c.089.094.152.16.176.188h4.662c0-.038.008-.072.008-.11.007-.268.025-.531.061-.783zM78.566 50.243l-.005-.014-.008.016.021.02-.008-.022z" />
        <path fill="#525353"
            d="M22.285 65.476l.041-.104c.3-.785.629-1.56.975-2.327.096-.214.196-.425.295-.638.283-.602.582-1.196.892-1.785.126-.24.249-.48.38-.717.072-.131.154-.256.227-.387.331-.585.664-1.169 1.022-1.737.085-.135.174-.267.26-.401.443-.685.903-1.36 1.385-2.017.042-.057.081-.117.124-.174a39.946 39.946 0 011.588-1.988c.117-.138.233-.277.352-.413a38.433 38.433 0 011.695-1.823c.115-.115.232-.227.348-.341a36.862 36.862 0 011.919-1.767l.004-.004c2.607-8.736 10.586-15.095 20.027-15.095 3.801 0 7.579 1.095 10.818 3.076 3.322 2.032 6.029 5.009 7.788 8.479l.026.052c.044.088.094.172.138.261a.04.04 0 00.005.009l.01.007a35.037 35.037 0 014.209 3.059c.445.375.882.762 1.312 1.158.141.13.287.253.426.385l.008-.016a.047.047 0 00.005-.01c.048-.099.095-.199.144-.295 1.33-8.397 5.034-14.446 9.403-14.446 3.293 0 6.21 3.434 8.018 8.719l.018.057.005.006a19.79 19.79 0 011.49 1.836h-.001l.029.038v-.001.001c.026.077.048.155.073.232l-.069-.275C92.239 30 77.021 18.416 59.097 18.416c-22.483 0-40.708 18.226-40.708 40.708 0 4.432.708 8.699 2.023 12.67l.005-.023c.259-1.198.568-2.388.929-3.566.285-.919.598-1.829.939-2.729z" />
        <path fill="#FFF"
            d="M98.286 59.573l-1.42 1.588-.003.011a5.33 5.33 0 01-.193.592c-.019.05-.04.096-.061.144-.057.133-.117.26-.183.38-.035.064-.07.13-.107.19-.059.095-.122.18-.187.264-.093.121-.191.23-.294.326-.042.04-.083.083-.127.118a1.897 1.897 0 01-.344.217 1.454 1.454 0 01-.639.158c-1.29 0-2.336-1.792-2.336-4.003h-4.687l.003.003c.87 1.005 1.726 2.024 2.569 3.052l.031.037c.82 1.001 1.629 2.012 2.428 3.028l.118.149c.758.967 1.508 1.94 2.251 2.915l.217.283a370.926 370.926 0 012.337 3.109l.016.022a40.645 40.645 0 002.135-12.599H98.301l-.015.016z" />
        <path
            d="M52.916 40.772l.318-.022a32.552 32.552 0 012.194-.081c2.207 0 4.364.237 6.462.666V42.372v-1.037c1.481.349 4.109 1.071 6.06 1.895.819.346 1.624.724 2.412 1.134l.179.097.048.027.246.138a.031.031 0 01.006.004l.355.201.031.018a296.873 296.873 0 011.324.756l.038.022c-.044-.088-.094-.173-.138-.261l-.026-.052c-1.758-3.47-4.466-6.447-7.788-8.479-3.239-1.981-7.018-3.076-10.818-3.076-9.441 0-17.42 6.359-20.027 15.095a34.999 34.999 0 018.172-5.236c3.449-1.574 7.172-2.559 10.952-2.846z" />
        <path fill="none" d="M61.891 42.373v.243" />
        <path
            d="M83.077 43.645c1.659-1.623 3.878-2.937 6.257-2.937 1.884 0 3.693.763 5.382 2.158v.019-.003c.151.124.299.264.449.4.09.082.183.157.272.243.237.227.471.467.703.719l.013.016a.012.012 0 00-.005-.005l-.019-.057c-1.808-5.285-4.725-8.719-8.018-8.719-4.369 0-8.073 6.049-9.403 14.446l.014-.012c1.137-2.257 2.54-4.492 4.355-6.268z" />
        <path fill="#FFF"
            d="M44.525 97.096c.372.143.75.272 1.127.404a40.596 40.596 0 0013.449 2.288 40.571 40.571 0 0015.204-2.946c.249-.1.492-.21.738-.315.399-.17.795-.345 1.187-.527.351-.163.702-.325 1.047-.497-.083.01-.167.026-.25.036-1.461.164-2.91.174-4.327-.029-8.376-1.204-10.232-5.243-9.966-9.449a20.899 20.899 0 01-1.841-1.192c-6.442-4.673-10.265-9.652-10.265-9.652s4.969 3.836 12.392 6.707c.159.062.308.115.465.174.347-1.199.757-2.339 1.118-3.349l.117-.329a50.617 50.617 0 011.381-3.434c1.873-4.258 4.15-8.382 5.272-12.928l.537-2.539H67.329v.009l-.002.001.002.038a5.451 5.451 0 01-.934 3.058 5.491 5.491 0 01-2.406 1.981 5.448 5.448 0 01-2.697.4c-.044-.005-.086-.014-.129-.02a5.348 5.348 0 01-.424-.067c-.039-.008-.076-.02-.115-.029a5.36 5.36 0 01-.423-.112c-.025-.008-.05-.019-.075-.028a5.193 5.193 0 01-.441-.167l-.038-.018a5.166 5.166 0 01-.453-.226l-.007-.004a5.467 5.467 0 01-1.27-.986l-15.694-3.83H25.096c-.074.13-.155.256-.227.387-.131.237-.254.478-.38.717a41.808 41.808 0 00-1.187 2.423 44.644 44.644 0 00-.975 2.327l-.041.104a44.06 44.06 0 00-1.864 6.294c2.697 8.224 7.942 15.29 14.8 20.271.199.145.41.274.612.415a40.737 40.737 0 003.602 2.258 40.542 40.542 0 005.089 2.381z" />
        <path fill="#9F2255"
            d="M72.631 84.452a11.115 11.115 0 00.31 4.721c.177.622.399 1.203.648 1.74a13.04 13.04 0 001.089 1.91 14.096 14.096 0 00.97 1.25c.747.859 1.335 1.326 1.335 1.326l.012.038.034.103c.083-.009.167-.025.25-.036 1.815-.227 3.644-.719 5.448-1.368a35.88 35.88 0 002.738-1.101c.275-.126.544-.265.817-.397 9.325-4.509 17.133-12.484 17.133-12.484-11.718 5.756-23.169 5.527-30.784 4.298z" />
        <path fill="#E2066F"
            d="M95.104 68.743a240.816 240.816 0 00-2.251-2.915l-.118-.149a190.26 190.26 0 00-2.428-3.028l-.031-.037a152.872 152.872 0 00-2.735-3.244 132.757 132.757 0 00-1.616-1.819c-.189-.208-.377-.416-.567-.623-.451-.492-.906-.979-1.366-1.462-.358-.375-.72-.744-1.083-1.113-.342-.348-.683-.699-1.03-1.042a87.713 87.713 0 00-2.274-2.168 53.41 53.41 0 00-1.038-.923l-.005.01c.736 2.114 1.575 4.255 1.995 6.459.109.573.2 1.132.273 1.677 1.025 7.631-1.42 12.613-5.304 19.167-.278.47-.564.947-.856 1.435-.888 1.48-1.457 2.882-1.786 4.199-.11.439-.193.868-.253 1.287 7.615 1.229 19.066 1.458 30.782-4.299 0 0-2.297-3.377-5.755-8.019a420.36 420.36 0 00-2.337-3.109c-.072-.096-.145-.19-.217-.284z" />
        <path
            d="M76.981 95.398s-.588-.466-1.335-1.326a14.176 14.176 0 01-.97-1.25 12.87 12.87 0 01-1.089-1.91 12.075 12.075 0 01-.648-1.74 11.277 11.277 0 01-.427-3.442 12.638 12.638 0 01.37-2.566c.329-1.316.898-2.718 1.786-4.199a327.295 327.295 0 00.856-1.434c3.883-6.554 6.328-11.536 5.304-19.167a31.168 31.168 0 00-.273-1.677c-.058.396-.118.737-.179 1.024l-.018.081a4.722 4.722 0 01-.118.45c-1.687 4.992-4.492 8.873-8.312 13.02-.518.562-1.06 1.132-1.615 1.707-.934.968-1.913 1.957-2.95 2.989l-1.264 1.254c-.394.39-.912.922-1.497 1.536-.361 1.011-.772 2.151-1.118 3.349-.156-.059-.305-.112-.465-.174-7.422-2.871-12.392-6.707-12.392-6.707s3.823 4.979 10.265 9.652c.624.453 1.238.844 1.841 1.192-.266 4.206 1.59 8.245 9.966 9.449 1.416.204 2.866.194 4.327.029l-.034-.103a2.498 2.498 0 01-.011-.037z" />
    </g>
</svg>
