<svg class="w-full h-full" xmlns="http://www.w3.org/2000/svg" width="540" height="123" viewbox="0 0 540 122.5">
    <style>
        .a {
            fill: #00749a;
        }

        .b {
            fill: #464342;
        }

    </style>
    <path
        d="M313.2 48.2h-21.3v2.3c6.6 0 7.7 1.4 7.7 9.9V75.5c0 8.4-1.1 10-7.7 10 -5.1-0.7-8.5-3.4-13.3-8.7l-5.5-5.9c7.4-1.3 11.3-5.9 11.3-11.2 0-6.5-5.6-11.5-16-11.5h-20.9v2.3c6.6 0 7.7 1.4 7.7 9.9V75.5c0 8.4-1.1 10-7.7 10v2.3h23.6v-2.3c-6.6 0-7.7-1.5-7.7-10v-4.3h2l13.2 16.5h34.6c17 0 24.3-9 24.3-19.8C337.5 57.1 330.2 48.2 313.2 48.2zM263.4 67.6V51.8h4.9c5.3 0 7.7 3.7 7.7 8 0 4.2-2.4 7.8-7.7 7.8H263.4zM313.5 84.1h-0.8c-4.3 0-4.9-1.1-4.9-6.5V51.8c0 0 5.2 0 5.7 0 12.4 0 14.6 9 14.6 16C328.2 75.1 325.9 84.1 313.5 84.1z"
        class="a" />
    <path
        d="M181.4 72l8.2-24.2c2.4-7 1.3-9-6.3-9v-2.4h22.3v2.4c-7.5 0-9.3 1.8-12.2 10.5L179.8 89.8h-1.5l-12.1-37.2 -12.3 37.2h-1.5l-13.2-40.6c-2.8-8.7-4.7-10.4-11.6-10.4v-2.4h26.4v2.4c-7 0-8.9 1.7-6.4 9l8 24.2 12-35.6h2.3L181.4 72z"
        class="a" />
    <path
        d="M221.8 89.3c-13.1 0-23.7-9.6-23.7-21.4 0-11.6 10.7-21.3 23.8-21.3 13.1 0 23.8 9.6 23.8 21.3C245.5 79.7 234.8 89.3 221.8 89.3zM221.8 50.4c-10.9 0-14.7 9.9-14.7 17.6 0 7.8 3.8 17.6 14.7 17.6 11 0 14.8-9.7 14.8-17.6C236.6 60.2 232.8 50.4 221.8 50.4z"
        class="a" />
    <path
        d="M366.9 85.4v2.4H339.7v-2.4c8 0 9.4-2 9.4-13.9V52.5c0-11.9-1.4-13.8-9.4-13.8v-2.4h24.6c12.2 0 19 6.3 19 14.7 0 8.2-6.8 14.6-19 14.6h-6.8v5.8C357.5 83.4 358.9 85.4 366.9 85.4zM364.3 40.6h-6.8v20.7h6.8c6.7 0 9.7-4.6 9.7-10.2C374 45.4 370.9 40.6 364.3 40.6z"
        class="b" />
    <path
        d="M464.8 76.6l-0.6 2.1c-1.1 3.9-2.4 5.3-10.8 5.3h-1.7c-6.2 0-7.2-1.4-7.2-9.9v-5.5c9.3 0 10 0.8 10 7h2.3V58.1h-2.3c0 6.2-0.7 7-10 7V51.8h6.5c8.4 0 9.7 1.4 10.8 5.3l0.6 2.3h1.9l-0.8-11.2h-34.9v2.3c6.6 0 7.7 1.4 7.7 9.9V75.5c0 7.7-0.9 9.7-6.2 9.9 -5-0.8-8.4-3.5-13.1-8.6l-5.5-5.9c7.4-1.3 11.3-5.9 11.3-11.2 0-6.5-5.6-11.5-16-11.5h-20.9v2.3c6.6 0 7.7 1.4 7.7 9.9V75.5c0 8.4-1.1 10-7.7 10v2.3h23.6v-2.3c-6.6 0-7.7-1.5-7.7-10v-4.3h2l13.2 16.5h48.8l0.7-11.2H464.8zM401.9 67.6V51.8h4.9c5.3 0 7.7 3.7 7.7 8 0 4.2-2.4 7.8-7.7 7.8H401.9z"
        class="b" />
    <path
        d="M488.9 89.3c-4.7 0-8.9-2.5-10.7-4 -0.6 0.6-1.7 2.4-1.9 4h-2.3V72.9h2.4c1 7.8 6.4 12.5 13.4 12.5 3.8 0 6.9-2.1 6.9-5.7 0-3.1-2.7-5.5-7.6-7.7l-6.8-3.2c-4.8-2.3-8.3-6.2-8.3-11.4 0-5.7 5.3-10.6 12.7-10.6 3.9 0 7.2 1.4 9.3 3.1 0.6-0.5 1.2-1.8 1.5-3.2h2.3v14h-2.5c-0.8-5.6-3.9-10.2-10.2-10.2 -3.3 0-6.4 1.9-6.4 4.9 0 3.1 2.5 4.7 8.2 7.4l6.5 3.2c5.7 2.7 8 7.1 8 10.7C503.4 84.1 496.9 89.3 488.9 89.3z"
        class="b" />
    <path
        d="M525.5 89.3c-4.8 0-8.9-2.5-10.7-4 -0.6 0.6-1.7 2.4-1.9 4h-2.3V72.9h2.4c1 7.8 6.4 12.5 13.4 12.5 3.8 0 6.9-2.1 6.9-5.7 0-3.1-2.7-5.5-7.6-7.7l-6.8-3.2c-4.7-2.3-8.3-6.2-8.3-11.4 0-5.7 5.3-10.6 12.7-10.6 3.9 0 7.2 1.4 9.3 3.1 0.6-0.5 1.2-1.8 1.5-3.2h2.3v14h-2.5c-0.8-5.6-3.9-10.2-10.2-10.2 -3.3 0-6.4 1.9-6.4 4.9 0 3.1 2.5 4.7 8.2 7.4l6.5 3.2c5.7 2.7 8 7.1 8 10.7C540 84.1 533.5 89.3 525.5 89.3z"
        class="b" />
    <path d="M8.7 61.3c0 20.8 12.1 38.8 29.6 47.3L13.3 39.9C10.3 46.4 8.7 53.6 8.7 61.3z" class="b" />
    <path
        d="M96.7 58.6c0-6.5-2.3-11-4.3-14.5 -2.7-4.3-5.2-8-5.2-12.3 0-4.8 3.7-9.3 8.8-9.3 0.2 0 0.5 0 0.7 0 -9.3-8.6-21.8-13.8-35.5-13.8 -18.4 0-34.5 9.4-43.9 23.7 1.2 0 2.4 0.1 3.4 0.1 5.5 0 14-0.7 14-0.7 2.8-0.2 3.2 4 0.3 4.3 0 0-2.8 0.3-6 0.5L48.2 93.5l11.5-34.5 -8.2-22.4c-2.8-0.2-5.5-0.5-5.5-0.5 -2.8-0.2-2.5-4.5 0.3-4.3 0 0 8.7 0.7 13.8 0.7 5.5 0 14-0.7 14-0.7 2.8-0.2 3.2 4 0.3 4.3 0 0-2.9 0.3-6 0.5l19 56.5 5.2-17.5C95 68.3 96.7 63.1 96.7 58.6z"
        class="b" />
    <path d="M62.2 65.9l-15.8 45.8c4.7 1.4 9.7 2.1 14.8 2.1 6.1 0 12-1.1 17.5-3 -0.1-0.2-0.3-0.5-0.4-0.7L62.2 65.9z"
        class="b" />
    <path
        d="M107.4 36c0.2 1.7 0.4 3.5 0.4 5.4 0 5.3-1 11.3-4 18.8l-16.1 46.4c15.6-9.1 26.1-26 26.1-45.4C113.8 52.1 111.5 43.5 107.4 36z"
        class="b" />
    <path
        d="M61.3 0C27.5 0 0 27.5 0 61.3c0 33.8 27.5 61.3 61.3 61.3 33.8 0 61.3-27.5 61.3-61.3C122.5 27.5 95 0 61.3 0zM61.3 119.7c-32.2 0-58.5-26.2-58.5-58.5 0-32.2 26.2-58.5 58.5-58.5 32.2 0 58.5 26.2 58.5 58.5C119.7 93.5 93.5 119.7 61.3 119.7z"
        class="b" />
</svg>
