<svg class="banner__illustration banner__illustration-left" data-animation="" data-animation-options="type:mainIllustrationLeft;" xmlns="http://www.w3.org/2000/svg" xmlns:xlink="http://www.w3.org/1999/xlink" version="1.1" id="bg-left" x="0px" y="0px" viewBox="0 0 820 684" enable-background="new 0 0 820 684" xml:space="preserve" style="
">
    <rect display="none" fill="#0F2C4C" width="820" height="684"></rect>
    <g id="server">
        <g id="rack_1">
            <path data-animation-rack-1-bottom="" style="stroke-dasharray: 335px; stroke-dashoffset: 0px;" id="bottom" fill="none" stroke="#CCDBFF" stroke-linecap="round" stroke-linejoin="round" enable-background="new    " d="
			M0.5,93v34.5c0,2.7,1.5,4.8,3.6,6l91.5,53c3.8,2.2,9.7,2.5,13,0.5l115.1-66.6c1.3-0.6,1.7-1.5,1.8-2.9l0,0V80.4"></path>
            
            <path data-animation-rack-1-top="" style="stroke-dasharray: 524px; stroke-dashoffset: 0px;" id="top" fill="none" stroke="#CCDBFF" enable-background="new    " d="M117.7,22.8L2.7,89.3c-3.3,1.9-2.9,5.3,0.9,7.5
			L95,149.7c3.9,2.2,9.7,2.5,13.1,0.5l115.1-66.5c3.3-1.9,3.1-5.2-0.9-7.5l-91.5-52.8C126.9,21.1,121,20.9,117.7,22.8z"></path>
            
            <path data-animation-light="" style="opacity: 1;" id="lights" fill-rule="evenodd" clip-rule="evenodd" fill="#FF7800" d="M211.5,107.6c0.5-0.5,1.3-0.4,1.8,0.1
			c0.3,0.3,0.4,0.7,0.3,1.1c-0.1,1.5-0.9,2.8-2.1,3.6c-0.5,0.5-1.3,0.4-1.8-0.1c-0.3-0.3-0.4-0.7-0.3-1.1
			C209.5,109.7,210.3,108.4,211.5,107.6z M202.5,112.6c0.5-0.5,1.3-0.4,1.8,0.1c0.3,0.3,0.4,0.7,0.3,1.1c-0.1,1.5-0.9,2.8-2.1,3.6
			c-0.5,0.5-1.3,0.4-1.8-0.1c-0.3-0.3-0.4-0.7-0.3-1.1C200.5,114.7,201.3,113.4,202.5,112.6z M193.5,117.6c0.5-0.5,1.3-0.4,1.8,0.1
			c0.3,0.3,0.4,0.7,0.3,1.1c-0.1,1.5-0.9,2.8-2.1,3.6c-0.5,0.5-1.3,0.4-1.8-0.1c-0.3-0.3-0.4-0.7-0.3-1.1
			C191.5,119.7,192.3,118.4,193.5,117.6z"></path>
        </g>
        <g id="rack_2">
            <path data-animation-rack-2-bottom="" style="stroke-dasharray: 335px; stroke-dashoffset: 0px;" id="bottom_1_" fill="none" stroke="#CCDBFF" stroke-linecap="round" stroke-linejoin="round" enable-background="new    " d="
			M0.5,139.9v34.6c0,2.9,1.5,4.8,3.6,6l91.5,53c3.8,2.2,9.7,2.5,13,0.5l115.1-66.6c1.3-0.6,1.7-1.5,1.8-2.9l0,0v-37.1"></path>
            
            <path data-animation-rack-2-top="" style="stroke-dasharray: 277px; stroke-dashoffset: 0px;" id="top_4_" fill="none" stroke="#CCDBFF" stroke-linecap="round" stroke-linejoin="round" enable-background="new    " d="
			M5.7,134.5l-3,1.8c-3.3,1.9-2.9,5.3,0.9,7.5L95,196.7c3.9,2.2,9.7,2.5,13.1,0.5l115.1-66.5c3.2-1.9,3.2-5.2-0.9-7.5l-1.7-1"></path>
            
            <path data-animation-light="" style="opacity: 1;" id="lights_1_" fill-rule="evenodd" clip-rule="evenodd" fill="#FF7800" d="M211.5,154.6c0.5-0.5,1.3-0.4,1.8,0.1
			c0.3,0.3,0.4,0.7,0.3,1.1c-0.1,1.5-0.9,2.8-2.1,3.6c-0.5,0.5-1.3,0.4-1.8-0.1c-0.3-0.3-0.4-0.7-0.3-1.1
			C209.5,156.7,210.3,155.4,211.5,154.6z M202.5,159.6c0.5-0.5,1.3-0.4,1.8,0.1c0.3,0.3,0.4,0.7,0.3,1.1c-0.1,1.5-0.9,2.8-2.1,3.6
			c-0.5,0.5-1.3,0.4-1.8-0.1c-0.3-0.3-0.4-0.7-0.3-1.1C200.5,161.7,201.3,160.4,202.5,159.6z M193.5,164.6c0.5-0.5,1.3-0.4,1.8,0.1
			c0.3,0.3,0.4,0.7,0.3,1.1c-0.1,1.5-0.9,2.8-2.1,3.6c-0.5,0.5-1.3,0.4-1.8-0.1c-0.3-0.3-0.4-0.7-0.3-1.1
			C191.5,166.7,192.3,165.4,193.5,164.6z"></path>
        </g>
        <g id="rack_3">
            <path data-animation-rack-3-bottom="" style="stroke-dasharray: 335px; stroke-dashoffset: 0px;" id="bottom_2_" fill="none" stroke="#CCDBFF" stroke-linecap="round" stroke-linejoin="round" enable-background="new    " d="
			M0.5,187v34.5c0,2.8,1.5,4.8,3.6,6l91.5,53c3.8,2.2,9.7,2.5,13,0.5l115.1-66.6c1.3-0.6,1.7-1.5,1.8-2.9l0,0V175"></path>
            
            <path data-animation-rack-3-top="" style="stroke-dasharray: 277px; stroke-dashoffset: 0px;" id="top_1_" fill="none" stroke="#CCDBFF" stroke-linecap="round" stroke-linejoin="round" enable-background="new    " d="
			M5.6,181.4l-2.9,1.9c-3.3,1.9-2.9,5.3,0.9,7.5L95,243.7c3.9,2.2,9.7,2.5,13.1,0.5l115.1-66.5c3.3-1.9,3.2-5.1-0.9-7.5l-1.6-1"></path>
            
            <path data-animation-light="" style="opacity: 1;" id="lights_2_" fill-rule="evenodd" clip-rule="evenodd" fill="#FF7800" d="M211.5,201.6c0.5-0.5,1.3-0.4,1.8,0.1
			c0.3,0.3,0.4,0.7,0.3,1.1c-0.1,1.5-0.9,2.8-2.1,3.6c-0.5,0.5-1.3,0.4-1.8-0.1c-0.3-0.3-0.4-0.7-0.3-1.1
			C209.5,203.7,210.3,202.4,211.5,201.6z M202.5,206.6c0.5-0.5,1.3-0.4,1.8,0.1c0.3,0.3,0.4,0.7,0.3,1.1c-0.1,1.5-0.9,2.8-2.1,3.6
			c-0.5,0.5-1.3,0.4-1.8-0.1c-0.3-0.3-0.4-0.7-0.3-1.1C200.5,208.7,201.3,207.4,202.5,206.6z M193.5,211.6c0.5-0.5,1.3-0.4,1.8,0.1
			c0.3,0.3,0.4,0.7,0.3,1.1c-0.1,1.5-0.9,2.8-2.1,3.6c-0.5,0.5-1.3,0.4-1.8-0.1c-0.3-0.3-0.4-0.7-0.3-1.1
			C191.5,213.7,192.3,212.4,193.5,211.6z"></path>
        </g>
        <g id="rack_4">

            <path data-animation-rack-4-bottom="" style="stroke-dasharray: 335px; stroke-dashoffset: 0px;" id="bottom_3_" fill="none" stroke="#CCDBFF" stroke-linecap="round" stroke-linejoin="round" enable-background="new    " d="
			M0.5,234v34.5c0,3.1,1.5,4.8,3.6,6l91.5,53c3.8,2.2,9.7,2.5,13,0.5l115.1-66.6c1.3-0.6,1.7-1.5,1.8-2.9l0,0v-37.1"></path>
            
            <path data-animation-rack-4-top="" style="stroke-dasharray: 277px; stroke-dashoffset: 0px;" id="top_2_" fill="none" stroke="#CCDBFF" stroke-linecap="round" stroke-linejoin="round" enable-background="new    " d="
			M5.5,228.7l-2.8,1.6c-3.3,1.9-2.9,5.3,0.9,7.5L95,290.7c3.9,2.2,9.7,2.5,13.1,0.5l115.1-66.5c3.3-1.9,3.1-5.2-0.9-7.5l-1.7-1"></path>
            
            <path data-animation-light="" style="opacity: 1;" id="lights_3_" fill-rule="evenodd" clip-rule="evenodd" fill="#FF7800" d="M211.5,248.6c0.5-0.5,1.3-0.4,1.8,0.1
			c0.3,0.3,0.4,0.7,0.3,1.1c-0.1,1.5-0.9,2.8-2.1,3.6c-0.5,0.5-1.3,0.4-1.8-0.1c-0.3-0.3-0.4-0.7-0.3-1.1
			C209.5,250.7,210.3,249.4,211.5,248.6z M202.5,253.6c0.5-0.5,1.3-0.4,1.8,0.1c0.3,0.3,0.4,0.7,0.3,1.1c-0.1,1.5-0.9,2.8-2.1,3.6
			c-0.5,0.5-1.3,0.4-1.8-0.1c-0.3-0.3-0.4-0.7-0.3-1.1C200.5,255.7,201.3,254.4,202.5,253.6z M193.5,258.6c0.5-0.5,1.3-0.4,1.8,0.1
			c0.3,0.3,0.4,0.7,0.3,1.1c-0.1,1.5-0.9,2.8-2.1,3.6c-0.5,0.5-1.3,0.4-1.8-0.1c-0.3-0.3-0.4-0.7-0.3-1.1
			C191.5,260.7,192.3,259.4,193.5,258.6z"></path>
        </g>
    </g>
    <g id="browser">
        <g id="_4">
            <path data-animation-browser-1="" style="stroke-dasharray: 370px; stroke-dashoffset: 0px;" id="browser_3_" fill="none" stroke="#CCDBFF" stroke-linecap="round" stroke-linejoin="round" enable-background="new    " d="
			M726.7,532.9l28.7,16.2c1.6,0.8,1.4,2.4-0.3,3.4L621,632.6c-1.8,1-4,1.2-5.9,0.3l-115.5-64c-1.5-0.9-1.4-2.4,0.4-3.4l28.7-17.4"></path>
        </g>
        <g id="_3">

            <path data-animation-browser-2="" style="stroke-dasharray: 370px; stroke-dashoffset: 0px;" id="browser_1_" fill="none" stroke="#CCDBFF" stroke-linecap="round" stroke-linejoin="round" enable-background="new    " d="
			M726.3,496.7l28.7,16.1c1.5,0.8,1.4,2.3-0.4,3.4l-134.1,80c-1.8,1-4,1.2-5.9,0.3l-115.5-65c-1.5-0.9-1.4-2.4,0.4-3.4l28.7-17.1"></path>
        </g>
        <g id="_2">
            
    
            <path data-animation-browser-3="" style="stroke-dasharray: 364px; stroke-dashoffset: 0px;" id="browser_2_" fill="none" stroke="#CCDBFF" stroke-linecap="round" stroke-linejoin="round" enable-background="new    " d="
			M728.9,461.1l26.5,15c1.6,0.8,1.4,2.4-0.3,3.4L621,559.6c-1.8,1-4,1.2-5.9,0.3l-115.5-65c-1.5-0.9-1.4-2.4,0.4-3.4l26.1-15.7"></path>
        </g>
        <g id="_1">

            <path data-animation-browser-4="" style="stroke-dasharray: 598px; stroke-dashoffset: 0px;" id="browser_16_" fill="none" stroke="#CCDBFF" stroke-linecap="round" stroke-linejoin="round" enable-background="new    " d="
			M755.1,445.5L621,525.6c-1.8,1-4,1.2-5.9,0.3l-115.5-65c-1.5-0.9-1.4-2.4,0.4-3.4l134-80.1c1.8-1,4-1.2,5.9-0.3l115.5,65
			C757,442.9,756.8,444.5,755.1,445.5z"></path>
            <path data-animation-browser-boxes="" style="stroke-dasharray: 150px; stroke-dashoffset: 0px;" id="boxes" fill="none" stroke="#CCDBFF" stroke-linecap="round" stroke-linejoin="round" enable-background="new    " d="
			M688.5,420.1l-28.3,17.1c-0.6,0.4-1.4,0.4-2,0.1l-30.5-17.2c-0.5-0.3-0.5-0.8,0.2-1.2l28.3-17.1c0.6-0.4,1.4-0.4,2-0.1l30.5,17.2
			C689.2,419.1,689.1,419.7,688.5,420.1z M649.1,443.2l-29.3,17.1c-0.6,0.4-1.4,0.4-2,0.1l-30.5-17.2c-0.5-0.3-0.5-0.8,0.2-1.2
			l29.3-17.1c0.6-0.4,1.4-0.4,2-0.1l30.5,17.2C649.7,442.3,649.7,442.8,649.1,443.2z M607.2,467.7l-31.3,18.1
			c-0.6,0.4-1.4,0.4-2,0.1l-30.5-17.2c-0.5-0.3-0.5-0.8,0.2-1.2l31.3-18.1c0.6-0.4,1.4-0.4,2-0.1l30.5,17.2
			C607.9,466.8,607.8,467.4,607.2,467.7z"></path>
            <path data-animation-browser-line-1="" style="stroke-dasharray: 94px; stroke-dashoffset: 0px;" id="line_2_" fill="none" stroke="#FF7800" stroke-linecap="round" stroke-linejoin="round" d="M687.5,437.5l-79,48"></path>
            <path data-animation-browser-line-2="" style="stroke-dasharray: 94px; stroke-dashoffset: 0px;" id="line_1_" fill="none" stroke="#FF7800" stroke-linecap="round" stroke-linejoin="round" d="M696.5,442.5l-79,48"></path>
            <path data-animation-browser-line-3="" style="stroke-dasharray: 32px; stroke-dashoffset: 0px;" id="line" fill="none" stroke="#FF7800" stroke-linecap="round" stroke-linejoin="round" d="M676.5,465.5l-26,16"></path>
            <path data-animation-light="" style="opacity: 1;" id="dots" fill-rule="evenodd" clip-rule="evenodd" fill="#FF7800" d="M636.5,389.2c-1.5,0.8-3.4,0.8-4.9,0
			c-1.4-0.8-1.4-2,0-2.8c1.5-0.8,3.4-0.8,4.9,0C637.8,387.2,637.8,388.4,636.5,389.2z M628,394.3c-1.5,0.8-3.2,0.8-4.7,0
			c-0.8-0.3-1.2-1.2-0.9-2c0.1-0.4,0.5-0.7,0.9-0.9c1.5-0.8,3.2-0.8,4.7,0c0.8,0.3,1.2,1.2,0.9,1.9
			C628.7,393.8,628.4,394.1,628,394.3L628,394.3z M620.2,399.1c-1.5,0.8-3.2,0.8-4.7,0c-0.8-0.3-1.2-1.2-0.9-2
			c0.1-0.4,0.5-0.7,0.9-0.9c1.5-0.8,3.2-0.8,4.7,0c0.8,0.3,1.2,1.2,0.9,2C620.9,398.6,620.6,398.9,620.2,399.1L620.2,399.1z"></path>
        </g>
    </g>
    <g id="lines">
        <path data-animation-line-1="" style="stroke-dasharray: 370px; stroke-dashoffset: 0px;" id="line_7_" opacity="0.24" fill="none" stroke="#FFFFFF" enable-background="new    " d="M225.4,222.1
		c0,0,34.7,18.3,43.6,24.4c7.3,5,5.8,10.3-2,15c-10.8,6.6-105.4,60.7-115,67s-7.4,12.9,1,18s124,73,124,73"></path>
        <path data-animation-line-2="" style="stroke-dasharray: 238px; stroke-dashoffset: 0px;" id="line_9_" opacity="0.24" fill="none" stroke="#FFFFFF" enable-background="new    " d="M498.9,460.3
		c-70.1-40.4-127.2-73.9-130.9-75.8c-7.5-3.8-15.9-8-25-3s-53,29-53,29"></path>
        <path data-animation-line-3="" style="stroke-dasharray: 128px; stroke-dashoffset: 0px;" id="line_3_" opacity="0.24" fill="none" stroke="#FFFFFF" enable-background="new    " d="M819,644.5c0,0-48.2-27.8-110.8-64
		"></path>
        <path data-animation-arrow-1="" style="stroke-dasharray: 10px; stroke-dashoffset: 0px;" id="line_6_" opacity="0.24" fill="none" stroke="#FFFFFF" enable-background="new    " d="M290,406.5v4h6"></path>
        <path data-animation-line-4="" style="stroke-dasharray: 472px; stroke-dashoffset: 0px;" id="line_5_" opacity="0.24" fill="none" stroke="#FFFFFF" enable-background="new    " d="M275,418.5c0,0,45.9,26.7,57,34
		s8.7,12.6,0,18s-332.5,188-332.5,188"></path>
        <path data-animation-line-5="" style="stroke-dasharray: 230px; stroke-dashoffset: 0px;" id="line_4_" opacity="0.24" fill="none" stroke="#FFFFFF" enable-background="new    " d="M386.5,683.5L186,569.5"></path>
        <path data-animation-line-6="" style="stroke-dasharray: 178px; stroke-dashoffset: 0px;" id="line_10_" opacity="0.24" fill="none" stroke="#FFFFFF" enable-background="new    " d="M155,549.5l-154.5-89"></path>
        <path data-animation-arrow-2="" style="stroke-dasharray: 12px; stroke-dashoffset: 0px;" id="arrow_1_" opacity="0.24" fill="none" stroke="#FFFFFF" enable-background="new    " d="M185,573.5v-5h7"></path>
        <path data-animation-arrow-3="" style="stroke-dasharray: 12px; stroke-dashoffset: 0px;" id="arrow" opacity="0.24" fill="none" stroke="#FFFFFF" enable-background="new    " d="M156,545.5v5h-7"></path>
        <path data-animation-light="" style="opacity: 1;" id="dot_1_" fill-rule="evenodd" clip-rule="evenodd" fill="#FF7800" d="M272.9,417.8c1.9-0.9,4-0.9,5.9,0
		c1.6,0.9,1.6,2.5,0,3.4c-1.9,0.9-4,0.9-5.9,0C271.3,420.3,271.3,418.8,272.9,417.8z"></path>
        <path data-animation-light="" style="opacity: 1;" id="dot" fill-rule="evenodd" clip-rule="evenodd" fill="#FF7800" d="M169.9,558.8c1.9-0.9,4-0.9,5.9,0c1.6,0.9,1.6,2.5,0,3.4
		c-1.9,0.9-4,0.9-5.9,0C168.3,561.3,168.3,559.8,169.9,558.8z"></path>
    </g>
</svg>
