<svg width="24" height="24" fill="#ffffff" viewBox="0 0 24 24" xmlns="http://www.w3.org/2000/svg" class="cf-icon-svg">
  <path d="M 24 13.130574 a 11.573856 10.862566 0 1 1 -11.905707 -10.850217 2.570019 2.412074 0 0 1 0.659317 0 11.568009 10.857078 0 0 1 11.246391 10.848845 z M 8.552111 21.73062 q 0.371322 0.14681 0.752878 0.264807 a 17.209478 16.151841 0 0 1 -2.298106 -8.12257 h -4.50265 a 9.964305 9.351932 0 0 0 6.047877 7.857764 z M 3.254188 9.49737 a 9.834196 9.229819 0 0 0 -0.747031 2.85662 h 4.499726 a 17.294268 16.23142 0 0 1 2.265944 -8.081409 q -0.364013 0.113881 -0.720716 0.255202 a 9.990619 9.376629 0 0 0 -5.297923 4.969586 z m 12.967046 2.85662 a 21.058659 19.764464 0 0 0 -0.381556 -3.169449 14.395322 13.510633 0 0 0 -1.042334 -3.100846 c -0.653469 -1.306197 -1.475056 -2.158244 -2.188463 -2.287217 a 12.379363 11.618568 0 0 0 -0.369861 0 c -0.713407 0.128973 -1.534994 0.98102 -2.188463 2.288589 a 14.395322 13.510633 0 0 0 -1.040872 3.100846 21.057197 19.763092 0 0 0 -0.381556 3.168077 z m -1.42389 7.787789 a 14.390936 13.506517 0 0 0 1.042334 -3.100846 21.070354 19.77544 0 0 0 0.380094 -3.168077 H 8.629591 a 21.068892 19.774068 0 0 0 0.381556 3.169449 14.390936 13.506517 0 0 0 1.040872 3.099474 c 0.711945 1.42145 1.621246 2.305054 2.374124 2.305054 s 1.662179 -0.883604 2.372662 -2.305054 z m 6.800755 -3.378001 a 9.848815 9.24354 0 0 0 0.749954 -2.890922 h -4.505573 a 17.206554 16.149097 0 0 1 -2.298106 8.125314 q 0.381556 -0.117997 0.755802 -0.266179 a 9.990619 9.376629 0 0 0 5.297923 -4.968214 z M 16.300177 4.527784 a 9.970153 9.357421 0 0 0 -0.725102 -0.256574 17.291344 16.228676 0 0 1 2.265944 8.081409 h 4.504112 A 9.962843 9.35056 0 0 0 16.300177 4.527784 z" fill="#ffffff"/>
</svg>
