<?xml version="1.0" encoding="utf-8"?>
<!-- Generator: Adobe Illustrator 24.0.1, SVG Export Plug-In . SVG Version: 6.00 Build 0)  -->
<svg version="1.1" xmlns="http://www.w3.org/2000/svg" xmlns:xlink="http://www.w3.org/1999/xlink" x="0px" y="0px"
	width="200px"
	height="199.937px" viewBox="0 0 200 199.937" enable-background="new 0 0 200 199.937" xml:space="preserve">
	<g id="fortress">
		<rect y="150.937" fill="#BD001F" width="200" height="49" />
		<g>
			<polyline fill="none" stroke="#ffffff" stroke-width="13" stroke-miterlimit="10" points="193.5,140.937 193.5005,41.0173 
			155.5,27.8175 155.5077,59.2205 127.5,49.2993 127.5801,18.0181 100.5419,7.5591 73.5,18.0181 100.4951,7.541 100.5419,7.5591 
			100.5887,7.541 127.5801,18.0181 100.5419,7.5591 73.5,18.0181 73.5397,48.8566 44.5,59.1434 44.508,27.5563 6.5,40.7587 
			6.5005,140.937 		" />
		</g>
	</g>
	<g id="letters">
		<g>
			<path fill="#FFFFFF" stroke="#ffffff" stroke-width="0.75" stroke-miterlimit="10" d="M40.1494,121.0247c-1.9609-1.9951-3.7705-2.54-5.6182-2.54
			c-5.5049,0-9.1621,4.0645-9.1621,9.1807c0,5.479,3.6572,9.5434,9.1621,9.5434c2.1489,0,4.2227-0.9434,5.9951-3.1201l3.9214,2.6846
			c-2.4131,3.1934-6.0327,4.5723-9.9541,4.5723c-8.2197,0-14.1016-5.3701-14.1016-13.3901c0-8.2363,5.8818-13.6064,14.1016-13.6064
			c3.6196,0,6.7114,1.124,9.3506,4.0635L40.1494,121.0247z" />
			<path fill="#FFFFFF" stroke="#ffffff" stroke-width="0.75" stroke-miterlimit="10" d="M60.3174,114.3489
			c8.3325-0.1455,14.2144,5.2246,14.2144,13.4619c0,8.019-5.8818,13.3892-14.2144,13.5347c-8.2197,0-14.1016-5.3701-14.1016-13.3901
			C46.2159,119.7191,52.0977,114.3489,60.3174,114.3489z M60.355,137.2088c5.5425,0,9.1997-4.0645,9.1997-9.5434
			c0-5.1162-3.6572-9.1807-9.1997-9.1807c-5.5049,0-9.1621,4.0645-9.1621,9.1807C51.1929,133.1443,54.8501,137.2088,60.355,137.2088
			z" />
			<path fill="#FFFFFF" stroke="#ffffff" stroke-width="0.75" stroke-miterlimit="10" d="M79.0508,115.0013h6.2969l12.9326,19.0874l0.0752,0.0723
			h-0.0752l0.0752-0.0723v-19.0874h4.751v25.6909h-6.0327L83.877,120.9886h-0.0752v19.7036h-4.751V115.0013z" />
			<path fill="#FFFFFF" stroke="#ffffff" stroke-width="0.75" stroke-miterlimit="10" d="M114.5254,119.138h-8.1816v-4.1367h21.1152v4.1367h-8.1826
			v21.5542h-4.751V119.138z" />
			<path fill="#FFFFFF" stroke="#ffffff" stroke-width="0.75" stroke-miterlimit="10" d="M130.6973,115.0013h9.2749
			c5.1279,0,9.9541,1.5967,9.9541,7.3662c0,3.7012-2.2246,6.4228-6.1836,6.9668l7.0889,11.3579h-5.7314l-6.1836-10.8862h-3.4683
			v10.8862h-4.751V115.0013z M139.1431,125.887c2.6768,0,5.8057-0.2178,5.8057-3.5557c0-3.0479-2.9404-3.4111-5.3916-3.4111h-4.1089
			v6.9668H139.1431z" />
			<path fill="#FFFFFF" stroke="#ffffff" stroke-width="0.75" stroke-miterlimit="10" d="M164.9663,115.0013h4.1094l11.5,25.6909h-5.4297
			l-2.4883-5.8779h-11.5752l-2.4131,5.8779h-5.3164L164.9663,115.0013z M170.9986,130.8948l-4.1094-10.4502l-4.1855,10.4502
			H170.9986z" />
		</g>
		<g>
			<g>
				<path fill="#FFFFFF" stroke="#FFFFFF" stroke-width="0.75" stroke-miterlimit="10" d="M9.0772,161.1746h11.1841
				c7.4556,0,14.4302,4.6465,14.4302,14.4277c0,9.8633-8.2173,14.4277-15.0317,14.4277H9.0772V161.1746z M17.896,185.3836
				c6.3335,0,11.5044-2.7715,11.5044-9.7813s-4.4897-9.7813-10.6626-9.7813H14.128v19.5625H17.896z" />
				<path fill="#FFFFFF" stroke="#FFFFFF" stroke-width="0.75" stroke-miterlimit="10" d="M39.5049,161.1746h18.7998v4.6465h-13.749
				v7.0918h13.0278v4.6455H44.5557v7.8252h14.4707v4.6465H39.5049V161.1746z" />
				<path fill="#FFFFFF" stroke="#FFFFFF" stroke-width="0.75" stroke-miterlimit="10" d="M63.9995,161.1746h18.3189v4.6465H69.0503
				v7.5801h12.5063v4.6465H69.0503v11.9824h-5.0508V161.1746z" />
				<path fill="#FFFFFF" stroke="#FFFFFF" stroke-width="0.75" stroke-miterlimit="10" d="M87.0108,161.1746h18.7998v4.6465h-13.749
				v7.0918h13.0273v4.6455H92.0616v7.8252h14.4707v4.6465H87.0108V161.1746z" />
				<path fill="#FFFFFF" stroke="#FFFFFF" stroke-width="0.75" stroke-miterlimit="10"
					d="M111.5059,161.1746h6.6943l13.749,21.4375
				l0.0801,0.082h-0.0801l0.0801-0.082v-21.4375h5.0503v28.8555h-6.4136l-14.0293-22.1309h-0.0801v22.1309h-5.0508V161.1746z" />
				<path fill="#FFFFFF" stroke="#FFFFFF" stroke-width="0.75" stroke-miterlimit="10" d="M157.3257,167.3699
				c-1.082-1.5488-3.0068-2.2822-4.9707-2.2822c-2.3252,0-4.6494,1.0596-4.6494,3.708c0,5.7881,13.4678,2.4863,13.4678,12.7568
				c0,6.1953-4.8096,9.2109-10.3818,9.2109c-3.5273,0-6.9746-1.1006-9.2998-3.9121l3.8086-3.75
				c1.2422,1.916,3.3672,3.0156,5.6113,3.0156c2.3252,0,4.9707-1.3037,4.9707-3.9531c0-6.3174-13.4678-2.6895-13.4678-13.001
				c0-5.9502,5.2109-8.7217,10.4619-8.7217c2.9658,0,5.9326,0.8555,8.1367,2.9746L157.3257,167.3699z" />
				<path fill="#FFFFFF" stroke="#FFFFFF" stroke-width="0.75" stroke-miterlimit="10" d="M175.4058,161.1746h4.3701l12.2256,28.8555
				h-5.7725l-2.6455-6.6025h-12.3057l-2.5654,6.6025h-5.6523L175.4058,161.1746z M181.8199,179.0262l-4.3691-11.7383
				l-4.4492,11.7383H181.8199z" />
			</g>
		</g>
	</g>
</svg>
