<svg class="w-20 h-20 m-auto" xmlns="http://www.w3.org/2000/svg" xmlns:xlink="http://www.w3.org/1999/xlink"
    version="1.1" x="0px" y="0px" viewbox="0 0 72 90" style="enable-background: new 0 0 72 72" xml:space="preserve">
    <g>
        <path
            d="M25.97,25.92h20.26c0.41,0,0.75-0.34,0.75-0.75V18.4c0-0.41-0.34-0.75-0.75-0.75H25.97c-0.41,0-0.75,0.34-0.75,0.75v6.77   C25.22,25.58,25.55,25.92,25.97,25.92z M26.72,19.15h18.76v5.27H26.72V19.15z" />
        <path
            d="M25.97,37.04h20.26c0.41,0,0.75-0.34,0.75-0.75v-6.77c0-0.41-0.34-0.75-0.75-0.75H25.97c-0.41,0-0.75,0.34-0.75,0.75v6.77   C25.22,36.71,25.55,37.04,25.97,37.04z M26.72,30.27h18.76v5.27H26.72V30.27z" />
        <path
            d="M25.97,48.17h20.26c0.41,0,0.75-0.34,0.75-0.75v-6.77c0-0.41-0.34-0.75-0.75-0.75H25.97c-0.41,0-0.75,0.34-0.75,0.75v6.77   C25.22,47.83,25.55,48.17,25.97,48.17z M26.72,41.4h18.76v5.27H26.72V41.4z" />
        <path
            d="M43.43,21.03h-0.47c-0.41,0-0.75,0.34-0.75,0.75s0.34,0.75,0.75,0.75h0.47c0.41,0,0.75-0.34,0.75-0.75   S43.85,21.03,43.43,21.03z" />
        <path
            d="M40.08,21.03h-0.47c-0.41,0-0.75,0.34-0.75,0.75s0.34,0.75,0.75,0.75h0.47c0.41,0,0.75-0.34,0.75-0.75   S40.5,21.03,40.08,21.03z" />
        <path
            d="M36.73,21.03h-0.47c-0.41,0-0.75,0.34-0.75,0.75s0.34,0.75,0.75,0.75h0.47c0.41,0,0.75-0.34,0.75-0.75   S37.14,21.03,36.73,21.03z" />
        <path
            d="M43.43,32.16h-0.47c-0.41,0-0.75,0.34-0.75,0.75s0.34,0.75,0.75,0.75h0.47c0.41,0,0.75-0.34,0.75-0.75   S43.85,32.16,43.43,32.16z" />
        <path
            d="M40.08,32.16h-0.47c-0.41,0-0.75,0.34-0.75,0.75s0.34,0.75,0.75,0.75h0.47c0.41,0,0.75-0.34,0.75-0.75   S40.5,32.16,40.08,32.16z" />
        <path
            d="M36.73,32.16h-0.47c-0.41,0-0.75,0.34-0.75,0.75s0.34,0.75,0.75,0.75h0.47c0.41,0,0.75-0.34,0.75-0.75   S37.14,32.16,36.73,32.16z" />
        <path
            d="M43.43,43.28h-0.47c-0.41,0-0.75,0.34-0.75,0.75s0.34,0.75,0.75,0.75h0.47c0.41,0,0.75-0.34,0.75-0.75   S43.85,43.28,43.43,43.28z" />
        <path
            d="M40.08,43.28h-0.47c-0.41,0-0.75,0.34-0.75,0.75s0.34,0.75,0.75,0.75h0.47c0.41,0,0.75-0.34,0.75-0.75   S40.5,43.28,40.08,43.28z" />
        <path
            d="M36.73,43.28h-0.47c-0.41,0-0.75,0.34-0.75,0.75s0.34,0.75,0.75,0.75h0.47c0.41,0,0.75-0.34,0.75-0.75   S37.14,43.28,36.73,43.28z" />
        <path
            d="M38.04,53.88c-0.3,0.29-0.31,0.76-0.03,1.06c0.47,0.49,0.73,1.14,0.73,1.82c0,1.45-1.18,2.64-2.64,2.64   c-1.45,0-2.64-1.18-2.64-2.64c0-0.85,0.39-1.62,1.07-2.12c0.33-0.25,0.4-0.72,0.16-1.05c-0.24-0.33-0.71-0.4-1.05-0.16   c-1.05,0.78-1.68,2.02-1.68,3.33c0,2.28,1.86,4.14,4.14,4.14c2.28,0,4.14-1.86,4.14-4.14c0-1.07-0.41-2.08-1.14-2.85   C38.81,53.6,38.33,53.59,38.04,53.88z" />
        <path
            d="M65.66,28.77H50.95v-12.5c0-1.47-1.19-2.66-2.66-2.66H23.91c-1.47,0-2.66,1.19-2.66,2.66v12.5H6.34   c-1.15,0-2.09,0.93-2.09,2.08v32.28c0,1.15,0.94,2.09,2.09,2.09h17c0.1,0,0.19-0.01,0.3-0.03l0,0c0.09,0.01,0.18,0.03,0.28,0.03   h24.38c0.06,0,0.11-0.01,0.17-0.02c0.07,0.01,0.13,0.02,0.21,0.02h17c1.15,0,2.09-0.94,2.09-2.09V30.85   C67.75,29.71,66.81,28.77,65.66,28.77z M50.95,34.06h11.96v4.48H50.95V34.06z M50.95,43.89h11.96v4.48H50.95V43.89z M22.75,16.27   c0-0.64,0.52-1.16,1.16-1.16h24.38c0.64,0,1.16,0.52,1.16,1.16v17.03v5.98v3.85v5.98v13.43c0,0.64-0.52,1.16-1.16,1.16   c0,0,0,0-0.01,0H23.91c-0.64,0-1.16-0.52-1.16-1.16V16.27z M5.75,63.13V30.85c0-0.32,0.26-0.58,0.59-0.58h14.91v2.28H8.34   c-0.41,0-0.75,0.34-0.75,0.75v5.98c0,0.41,0.34,0.75,0.75,0.75h12.91v2.35H8.34c-0.41,0-0.75,0.34-0.75,0.75v5.98   c0,0.41,0.34,0.75,0.75,0.75h12.91v12.68c0,0.42,0.11,0.81,0.28,1.16H6.34C6.01,63.72,5.75,63.45,5.75,63.13z M21.05,34.06v4.48   H9.09v-4.48H21.05z M21.05,43.89v4.48H9.09v-4.48H21.05z M66.25,63.13c0,0.32-0.26,0.59-0.59,0.59H50.67   c0.17-0.35,0.28-0.74,0.28-1.16V49.87h12.71c0.41,0,0.75-0.34,0.75-0.75v-5.98c0-0.41-0.34-0.75-0.75-0.75H50.95v-2.35h12.71   c0.41,0,0.75-0.34,0.75-0.75v-5.98c0-0.41-0.34-0.75-0.75-0.75H50.95v-2.28h14.71c0.32,0,0.59,0.26,0.59,0.58V63.13z" />
        <path
            d="M57.16,54.71c-1.63,0-2.95,1.32-2.95,2.95s1.32,2.95,2.95,2.95s2.95-1.32,2.95-2.95S58.79,54.71,57.16,54.71z M57.16,59.11   c-0.8,0-1.45-0.65-1.45-1.45s0.65-1.45,1.45-1.45s1.45,0.65,1.45,1.45S57.96,59.11,57.16,59.11z" />
        <path
            d="M14.84,54.71c-1.63,0-2.95,1.32-2.95,2.95s1.32,2.95,2.95,2.95s2.95-1.32,2.95-2.95S16.46,54.71,14.84,54.71z M14.84,59.11   c-0.8,0-1.45-0.65-1.45-1.45s0.65-1.45,1.45-1.45s1.45,0.65,1.45,1.45S15.63,59.11,14.84,59.11z" />
        <path
            d="M36.97,55.99v-3.8c0-0.41-0.34-0.75-0.75-0.75s-0.75,0.34-0.75,0.75v3.8c0,0.41,0.34,0.75,0.75,0.75   S36.97,56.4,36.97,55.99z" />
        <path
            d="M47.55,8.28h10.24V22.7l-1.43-1.74c-0.26-0.32-0.74-0.37-1.06-0.1c-0.32,0.26-0.37,0.74-0.1,1.06l2.76,3.35   c0.14,0.17,0.36,0.27,0.58,0.27c0,0,0,0,0.01,0c0.23,0,0.44-0.11,0.58-0.28l2.66-3.35c0.26-0.33,0.2-0.8-0.12-1.05   c-0.33-0.26-0.8-0.2-1.05,0.12l-1.32,1.66V7.53c0-0.41-0.34-0.75-0.75-0.75H47.55c-0.41,0-0.75,0.34-0.75,0.75   S47.14,8.28,47.55,8.28z" />
        <path
            d="M41.9,8.28h2.15c0.41,0,0.75-0.34,0.75-0.75s-0.34-0.75-0.75-0.75H41.9c-0.41,0-0.75,0.34-0.75,0.75S41.48,8.28,41.9,8.28z   " />
        <path
            d="M27.53,8.28h2.27c0.41,0,0.75-0.34,0.75-0.75s-0.34-0.75-0.75-0.75h-2.27c-0.41,0-0.75,0.34-0.75,0.75   S27.12,8.28,27.53,8.28z" />
        <path
            d="M12.58,25.27c0.14,0.17,0.35,0.27,0.58,0.27h0c0.22,0,0.44-0.1,0.58-0.27l2.76-3.35c0.26-0.32,0.22-0.79-0.1-1.06   c-0.32-0.26-0.79-0.22-1.06,0.1l-1.43,1.74V8.28h10.35c0.41,0,0.75-0.34,0.75-0.75s-0.34-0.75-0.75-0.75h-11.1   c-0.41,0-0.75,0.34-0.75,0.75v15.18l-1.45-1.75c-0.26-0.32-0.74-0.36-1.06-0.1c-0.32,0.26-0.36,0.74-0.1,1.06L12.58,25.27z" />
    </g>
</svg>
