<svg class="w-20 h-20 m-auto" xmlns="http://www.w3.org/2000/svg" xmlns:xlink="http://www.w3.org/1999/xlink"
    version="1.1" x="0px" y="0px" viewbox="0 0 72 90" style="enable-background: new 0 0 72 72" xml:space="preserve">
    <g>
        <path
            d="M36.29,23.52c0-0.41-0.34-0.75-0.75-0.75h-2.14c-0.41,0-0.75,0.34-0.75,0.75s0.34,0.75,0.75,0.75h2.14   C35.96,24.27,36.29,23.94,36.29,23.52z" />
        <path
            d="M67.38,23.52c0-0.01,0-0.02,0-0.02v-8.59c0-3.68-2.99-6.67-6.66-6.67H11.29c-3.68,0-6.67,2.99-6.67,6.67v42.19   c0,3.68,2.99,6.67,6.67,6.67h49.43c3.67,0,6.66-2.99,6.66-6.67V23.55C67.38,23.54,67.38,23.53,67.38,23.52z M60.72,62.26H11.29   c-2.85,0-5.17-2.32-5.17-5.17V20.49h16.2l2.44,3.47c0.14,0.2,0.37,0.32,0.61,0.32h4.39c0.41,0,0.75-0.34,0.75-0.75   s-0.34-0.75-0.75-0.75h-4l-2.44-3.47c-0.14-0.2-0.37-0.32-0.61-0.32H6.12v-4.08c0-2.85,2.32-5.17,5.17-5.17h49.43   c2.84,0,5.16,2.32,5.16,5.17v7.87H39.01c-0.41,0-0.75,0.34-0.75,0.75s0.34,0.75,0.75,0.75h26.86v32.82   C65.88,59.94,63.56,62.26,60.72,62.26z" />
        <path
            d="M48.41,19.05c1.6,0,2.9-1.3,2.9-2.9s-1.3-2.9-2.9-2.9s-2.9,1.3-2.9,2.9S46.81,19.05,48.41,19.05z M48.41,14.76   c0.77,0,1.4,0.63,1.4,1.4s-0.63,1.4-1.4,1.4s-1.4-0.63-1.4-1.4S47.64,14.76,48.41,14.76z" />
        <path
            d="M39.57,19.05c1.6,0,2.9-1.3,2.9-2.9s-1.3-2.9-2.9-2.9s-2.9,1.3-2.9,2.9S37.97,19.05,39.57,19.05z M39.57,14.76   c0.77,0,1.4,0.63,1.4,1.4s-0.63,1.4-1.4,1.4s-1.4-0.63-1.4-1.4S38.8,14.76,39.57,14.76z" />
        <path
            d="M57.24,19.05c1.6,0,2.9-1.3,2.9-2.9s-1.3-2.9-2.9-2.9s-2.9,1.3-2.9,2.9S55.64,19.05,57.24,19.05z M57.24,14.76   c0.77,0,1.4,0.63,1.4,1.4s-0.63,1.4-1.4,1.4s-1.4-0.63-1.4-1.4S56.47,14.76,57.24,14.76z" />
        <path
            d="M46.38,53.78c0,0.38,0.28,0.7,0.65,0.74l2.66,0.34c0.03,0,0.06,0.01,0.1,0.01c0.34,0,0.64-0.23,0.72-0.56l0.43-1.65   c0.73-0.1,1.44-0.3,2.13-0.58l1.21,1.21c0.27,0.27,0.69,0.29,0.99,0.06l2.12-1.64c0.3-0.23,0.38-0.65,0.19-0.97l-0.86-1.47   c0.45-0.59,0.82-1.23,1.1-1.91l1.71,0c0.38,0,0.7-0.28,0.74-0.65l0.34-2.66c0.05-0.37-0.19-0.73-0.55-0.82l-1.65-0.43   c-0.1-0.73-0.3-1.44-0.58-2.13l1.21-1.21c0.27-0.27,0.29-0.69,0.06-0.99l-1.64-2.12c-0.23-0.3-0.65-0.38-0.97-0.19l-1.48,0.86   c-0.59-0.45-1.23-0.82-1.91-1.1l0-1.71c0-0.38-0.28-0.7-0.65-0.74l-2.66-0.34c-0.37-0.05-0.73,0.19-0.82,0.55l-0.43,1.65   c-0.73,0.1-1.44,0.3-2.13,0.58l-1.21-1.21c-0.27-0.27-0.69-0.29-0.99-0.06l-2.12,1.64c-0.3,0.23-0.38,0.65-0.19,0.97l0.86,1.47   c-0.45,0.59-0.82,1.23-1.1,1.91l-1.71,0c-0.38,0-0.7,0.28-0.74,0.65l-0.34,2.66c-0.05,0.37,0.19,0.73,0.55,0.82l1.65,0.43   c0.1,0.73,0.3,1.44,0.58,2.13l-1.21,1.21c-0.27,0.27-0.29,0.69-0.06,0.99l1.64,2.12c0.23,0.3,0.65,0.38,0.97,0.19l1.48-0.86   c0.59,0.45,1.23,0.82,1.91,1.1L46.38,53.78z M44.16,49.42l-1.35,0.79l-0.83-1.08l1.11-1.11c0.23-0.23,0.28-0.57,0.14-0.86   c-0.41-0.83-0.65-1.71-0.71-2.61c-0.02-0.32-0.25-0.59-0.56-0.67l-1.51-0.4l0.17-1.35l1.56,0c0.32,0,0.6-0.2,0.71-0.51   c0.3-0.86,0.75-1.65,1.35-2.35c0.21-0.24,0.24-0.59,0.08-0.87l-0.79-1.35l1.08-0.83l1.11,1.11c0.23,0.23,0.57,0.28,0.86,0.14   c0.83-0.4,1.71-0.65,2.61-0.71c0.32-0.02,0.59-0.25,0.67-0.56l0.4-1.51l1.35,0.17l0,1.56c0,0.32,0.2,0.6,0.51,0.71   c0.86,0.29,1.65,0.75,2.35,1.35c0.24,0.21,0.59,0.24,0.87,0.08l1.35-0.79l0.83,1.08l-1.11,1.11c-0.23,0.23-0.28,0.57-0.14,0.86   c0.41,0.83,0.65,1.71,0.71,2.61c0.02,0.32,0.25,0.59,0.56,0.67l1.51,0.4l-0.17,1.35l-1.56,0c-0.32,0-0.6,0.2-0.71,0.51   c-0.29,0.86-0.75,1.65-1.35,2.35c-0.21,0.24-0.24,0.59-0.08,0.87l0.79,1.35l-1.08,0.83l-1.11-1.11c-0.23-0.23-0.57-0.29-0.86-0.14   c-0.83,0.4-1.71,0.65-2.61,0.71c-0.32,0.02-0.59,0.25-0.67,0.56l-0.4,1.51l-1.35-0.17l0-1.56c0-0.32-0.2-0.6-0.51-0.71   c-0.86-0.29-1.65-0.75-2.35-1.35C44.78,49.29,44.44,49.26,44.16,49.42z" />
        <path
            d="M13.74,37.12v-3.85c0-0.41-0.34-0.75-0.75-0.75s-0.75,0.34-0.75,0.75v3.85c-1.32,0.34-2.31,1.53-2.31,2.95   s0.98,2.62,2.31,2.95v12.49c0,0.41,0.34,0.75,0.75,0.75s0.75-0.34,0.75-0.75V43.03c1.33-0.34,2.31-1.53,2.31-2.96   S15.06,37.46,13.74,37.12z M12.99,41.64C12.99,41.64,12.99,41.63,12.99,41.64c-0.01,0-0.01,0-0.02,0c-0.86-0.01-1.55-0.7-1.55-1.56   c0-0.86,0.7-1.56,1.56-1.56s1.56,0.7,1.56,1.56C14.55,40.93,13.85,41.63,12.99,41.64z" />
        <path
            d="M21.42,46.25V33.27c0-0.41-0.34-0.75-0.75-0.75s-0.75,0.34-0.75,0.75v12.98c-1.33,0.34-2.31,1.53-2.31,2.96   s0.99,2.62,2.31,2.96v3.36c0,0.41,0.34,0.75,0.75,0.75s0.75-0.34,0.75-0.75v-3.36c1.32-0.34,2.31-1.53,2.31-2.95   S22.75,46.59,21.42,46.25z M20.68,50.77C20.68,50.77,20.68,50.76,20.68,50.77c-0.01,0-0.02,0-0.02,0c-0.86,0-1.55-0.7-1.55-1.56   c0-0.86,0.7-1.56,1.56-1.56s1.56,0.7,1.56,1.56C22.23,50.06,21.54,50.76,20.68,50.77z" />
        <path
            d="M29.11,38.65v-5.38c0-0.41-0.34-0.75-0.75-0.75s-0.75,0.34-0.75,0.75v5.38c-1.33,0.34-2.31,1.53-2.31,2.96   s0.99,2.62,2.31,2.96v10.96c0,0.41,0.34,0.75,0.75,0.75s0.75-0.34,0.75-0.75V44.56c1.32-0.34,2.31-1.53,2.31-2.95   S30.43,38.99,29.11,38.65z M28.36,43.16C28.36,43.16,28.36,43.16,28.36,43.16C28.35,43.16,28.35,43.16,28.36,43.16   c-0.87,0-1.57-0.7-1.57-1.56c0-0.86,0.7-1.56,1.56-1.56s1.56,0.7,1.56,1.56C29.91,42.46,29.22,43.16,28.36,43.16z" />
        <path
            d="M49.75,49.06c1.1,0,2.16-0.35,3.05-1.03c1.08-0.82,1.78-2.01,1.96-3.35c0.18-1.34-0.16-2.67-0.98-3.75   s-2.01-1.78-3.35-1.96c-1.34-0.18-2.67,0.16-3.75,0.98c-1.08,0.82-1.78,2.01-1.96,3.35c-0.18,1.34,0.16,2.67,0.98,3.75   s2.01,1.78,3.35,1.96C49.28,49.05,49.52,49.06,49.75,49.06z M46.9,46.15c-0.58-0.76-0.82-1.7-0.69-2.64   c0.13-0.94,0.62-1.78,1.38-2.36c0.63-0.47,1.37-0.72,2.15-0.72c0.16,0,0.33,0.01,0.5,0.03c0.94,0.13,1.78,0.62,2.36,1.38   c0.58,0.76,0.82,1.7,0.69,2.64c-0.13,0.94-0.62,1.78-1.38,2.36s-1.69,0.82-2.64,0.69C48.31,47.4,47.47,46.91,46.9,46.15z" />
        <path
            d="M64.13,47c-0.39-0.1-0.81,0.13-0.92,0.54c-0.13,0.52-0.3,1.03-0.5,1.53c-0.15,0.39,0.04,0.82,0.43,0.97   c0.09,0.04,0.18,0.05,0.27,0.05c0.3,0,0.58-0.18,0.7-0.48c0.21-0.55,0.4-1.12,0.55-1.69C64.77,47.51,64.53,47.1,64.13,47z" />
        <path
            d="M62.72,50.9c-0.36-0.21-0.82-0.1-1.03,0.26c-3.16,5.28-9.53,7.87-15.48,6.3c-0.39-0.1-0.81,0.13-0.92,0.54   c-0.11,0.4,0.13,0.81,0.54,0.92c1.29,0.34,2.59,0.5,3.88,0.5c5.33,0,10.45-2.78,13.27-7.48C63.19,51.58,63.07,51.12,62.72,50.9z" />
        <path
            d="M36.47,37.67c-0.38-0.16-0.82,0.02-0.98,0.41c-0.27,0.65-0.5,1.32-0.67,2c-0.1,0.4,0.13,0.81,0.54,0.92   c0.06,0.02,0.13,0.02,0.19,0.02c0.33,0,0.64-0.22,0.72-0.56c0.16-0.61,0.36-1.22,0.61-1.81C37.04,38.27,36.85,37.83,36.47,37.67z" />
        <path
            d="M53.28,30.52c0.4,0.1,0.81-0.13,0.92-0.54c0.11-0.4-0.13-0.81-0.54-0.92C47.21,27.38,40.43,30,36.8,35.59   c-0.23,0.35-0.13,0.81,0.22,1.04c0.13,0.08,0.27,0.12,0.41,0.12c0.25,0,0.49-0.12,0.63-0.34C41.33,31.36,47.45,28.99,53.28,30.52z" />
    </g>
</svg>
