<svg class="w-20 h-20 m-auto" xmlns="http://www.w3.org/2000/svg" viewbox="0 0 72 90">
    <title>ssds</title>
    <path
        d="M63.07,45.69a2.64,2.64,0,0,0,2.64-2.64V30.29a2.64,2.64,0,0,0-2.64-2.64H53.64a18.11,18.11,0,0,0,.74-5,18.38,18.38,0,0,0-36.76,0,18.05,18.05,0,0,0,.74,5H8.93a2.64,2.64,0,0,0-2.64,2.64V43.05a2.64,2.64,0,0,0,2.64,2.64h1.58v4H8.93a2.64,2.64,0,0,0-2.64,2.64V65.11a2.64,2.64,0,0,0,2.64,2.64H63.08a2.64,2.64,0,0,0,2.64-2.64V52.35a2.64,2.64,0,0,0-2.64-2.64H61.5v-4ZM19.12,22.63a16.88,16.88,0,1,1,33,5H49.68a14.26,14.26,0,0,0,.93-5,14.6,14.6,0,0,0-29.2,0,14.22,14.22,0,0,0,.93,5H19.93A16.17,16.17,0,0,1,19.12,22.63Zm3.78,0A14.37,14.37,0,0,1,23,21l1.36.24h.13a.76.76,0,0,0,.74-.62.75.75,0,0,0-.61-.87l-1.35-.24a13.18,13.18,0,0,1,3.8-6.48l.86,1a.73.73,0,0,0,1,.09.75.75,0,0,0,.09-1.06l-.85-1a13.13,13.13,0,0,1,7.05-2.54v1.32a.75.75,0,0,0,1.5,0V9.56a13,13,0,0,1,7,2.57l-.85,1a.76.76,0,0,0,.09,1.06.74.74,0,0,0,.48.18.72.72,0,0,0,.57-.27l.86-1a13.21,13.21,0,0,1,3.77,6.49l-1.35.24a.75.75,0,0,0,.13,1.49h.13L49,21.07a13.33,13.33,0,0,1,.1,1.56,12.91,12.91,0,0,1-1,5H23.92A12.91,12.91,0,0,1,22.9,22.63ZM7.79,43.05V30.29a1.14,1.14,0,0,1,1.14-1.14H63.07a1.14,1.14,0,0,1,1.14,1.14V43.05a1.14,1.14,0,0,1-1.14,1.14H8.93A1.14,1.14,0,0,1,7.79,43.05Zm56.42,9.3V65.11a1.14,1.14,0,0,1-1.14,1.14H8.93a1.14,1.14,0,0,1-1.14-1.14V52.35a1.14,1.14,0,0,1,1.14-1.14H63.08A1.14,1.14,0,0,1,64.21,52.35ZM60,49.71H12v-4H60v4Z"
        transform="translate(-6.29 -4.25)" />
    <path d="M12,35.46a.76.76,0,0,0,.75-.75V32.8a.75.75,0,0,0-1.5,0v1.91A.74.74,0,0,0,12,35.46Z"
        transform="translate(-6.29 -4.25)" />
    <path d="M16.34,35.46a.76.76,0,0,0,.75-.75V32.8a.75.75,0,0,0-1.5,0v1.91A.75.75,0,0,0,16.34,35.46Z"
        transform="translate(-6.29 -4.25)" />
    <path d="M20.68,35.46a.76.76,0,0,0,.75-.75V32.8a.75.75,0,0,0-1.5,0v1.91A.74.74,0,0,0,20.68,35.46Z"
        transform="translate(-6.29 -4.25)" />
    <path d="M25,35.46a.76.76,0,0,0,.75-.75V32.8a.75.75,0,0,0-1.5,0v1.91A.75.75,0,0,0,25,35.46Z"
        transform="translate(-6.29 -4.25)" />
    <path d="M12,41.29a.76.76,0,0,0,.75-.75V38.63a.75.75,0,0,0-1.5,0v1.91A.75.75,0,0,0,12,41.29Z"
        transform="translate(-6.29 -4.25)" />
    <path d="M16.34,41.29a.76.76,0,0,0,.75-.75V38.63a.75.75,0,0,0-1.5,0v1.91A.76.76,0,0,0,16.34,41.29Z"
        transform="translate(-6.29 -4.25)" />
    <path d="M20.68,41.29a.76.76,0,0,0,.75-.75V38.63a.75.75,0,0,0-1.5,0v1.91A.75.75,0,0,0,20.68,41.29Z"
        transform="translate(-6.29 -4.25)" />
    <path d="M25,41.29a.76.76,0,0,0,.75-.75V38.63a.75.75,0,0,0-1.5,0v1.91A.76.76,0,0,0,25,41.29Z"
        transform="translate(-6.29 -4.25)" />
    <path d="M12,54.11a.76.76,0,0,0-.75.75v1.91a.75.75,0,0,0,1.5,0V54.86A.76.76,0,0,0,12,54.11Z"
        transform="translate(-6.29 -4.25)" />
    <path d="M16.34,54.11a.76.76,0,0,0-.75.75v1.91a.75.75,0,0,0,1.5,0V54.86A.75.75,0,0,0,16.34,54.11Z"
        transform="translate(-6.29 -4.25)" />
    <path d="M20.68,54.11a.76.76,0,0,0-.75.75v1.91a.75.75,0,0,0,1.5,0V54.86A.76.76,0,0,0,20.68,54.11Z"
        transform="translate(-6.29 -4.25)" />
    <path d="M25,54.11a.76.76,0,0,0-.75.75v1.91a.75.75,0,1,0,1.5,0V54.86A.76.76,0,0,0,25,54.11Z"
        transform="translate(-6.29 -4.25)" />
    <path d="M12,59.94a.76.76,0,0,0-.75.75V62.6a.75.75,0,0,0,1.5,0V60.69A.75.75,0,0,0,12,59.94Z"
        transform="translate(-6.29 -4.25)" />
    <path d="M16.34,59.94a.76.76,0,0,0-.75.75V62.6a.75.75,0,0,0,1.5,0V60.69A.74.74,0,0,0,16.34,59.94Z"
        transform="translate(-6.29 -4.25)" />
    <path d="M20.68,59.94a.76.76,0,0,0-.75.75V62.6a.75.75,0,0,0,1.5,0V60.69A.75.75,0,0,0,20.68,59.94Z"
        transform="translate(-6.29 -4.25)" />
    <path d="M25,59.94a.76.76,0,0,0-.75.75V62.6a.75.75,0,0,0,1.5,0V60.69A.75.75,0,0,0,25,59.94Z"
        transform="translate(-6.29 -4.25)" />
    <path
        d="M31.51,41.29H59.79a.76.76,0,0,0,.75-.75V32.8a.76.76,0,0,0-.75-.75H31.51a.76.76,0,0,0-.75.75v7.74A.76.76,0,0,0,31.51,41.29Zm.75-7.74H59v6.24H32.26Z"
        transform="translate(-6.29 -4.25)" />
    <path
        d="M59.79,54.11H31.51a.76.76,0,0,0-.75.75V62.6a.76.76,0,0,0,.75.75H59.79a.76.76,0,0,0,.75-.75V54.86A.75.75,0,0,0,59.79,54.11ZM59,61.85H32.26V55.61H59Z"
        transform="translate(-6.29 -4.25)" />
    <path d="M41,35.92H39.75a.75.75,0,0,0,0,1.5H41a.75.75,0,1,0,0-1.5Z" transform="translate(-6.29 -4.25)" />
    <path d="M46.27,35.92H45a.75.75,0,0,0,0,1.5h1.23a.75.75,0,0,0,0-1.5Z" transform="translate(-6.29 -4.25)" />
    <path d="M51.56,35.92H50.33a.75.75,0,0,0,0,1.5h1.23a.75.75,0,0,0,0-1.5Z" transform="translate(-6.29 -4.25)" />
    <path d="M39.75,59.48H41A.75.75,0,0,0,41,58H39.75a.75.75,0,0,0,0,1.5Z" transform="translate(-6.29 -4.25)" />
    <path d="M45,59.48h1.23a.75.75,0,0,0,0-1.5H45a.75.75,0,0,0,0,1.5Z" transform="translate(-6.29 -4.25)" />
    <path d="M50.33,59.48h1.23a.75.75,0,0,0,0-1.5H50.33a.75.75,0,0,0,0,1.5Z" transform="translate(-6.29 -4.25)" />
    <path
        d="M36.78,19.79V14.5a.75.75,0,0,0-1.5,0v5.27a3,3,0,1,0,1.5,0ZM36,24.08a1.46,1.46,0,1,1,1.46-1.46A1.46,1.46,0,0,1,36,24.08Z"
        transform="translate(-6.29 -4.25)" />
    <path
        d="M52,9.25a.74.74,0,0,0,.58.27A.78.78,0,0,0,53,9.35a.75.75,0,0,0,.1-1.06,20.86,20.86,0,0,0-1.48-1.64.75.75,0,1,0-1.06,1.06C51.06,8.21,51.52,8.72,52,9.25Z"
        transform="translate(-6.29 -4.25)" />
    <path
        d="M53.29,11.07a20.48,20.48,0,0,1,3.29,12.35.75.75,0,0,0,.71.79h0a.75.75,0,0,0,.75-.71,21.88,21.88,0,0,0-3.53-13.25.75.75,0,0,0-1.26.82Z"
        transform="translate(-6.29 -4.25)" />
    <path
        d="M14.69,24.58h.05a.76.76,0,0,0,.7-.8c0-.56-.06-1.12,0-1.66a.76.76,0,0,0-.74-.76h0a.75.75,0,0,0-.75.74c0,.58,0,1.18.06,1.78A.74.74,0,0,0,14.69,24.58Z"
        transform="translate(-6.29 -4.25)" />
    <path
        d="M14.72,20.36h.09a.75.75,0,0,0,.74-.66,20.45,20.45,0,0,1,5.87-12,.75.75,0,0,0-1.06-1.06,21.92,21.92,0,0,0-6.3,12.86A.75.75,0,0,0,14.72,20.36Z"
        transform="translate(-6.29 -4.25)" />
</svg>
