<?xml version="1.0" encoding="UTF-8" standalone="no"?>
<!DOCTYPE svg
          PUBLIC "-//W3C//DTD SVG 1.1//EN" "http://www.w3.org/Graphics/SVG/1.1/DTD/svg11.dtd"><svg width="100%"
     height="100%"
     viewBox="0 0 554 129"
     preserveAspectRatio="none"
     version="1.1"
     xmlns="http://www.w3.org/2000/svg"
     xmlns:xlink="http://www.w3.org/1999/xlink"
     xml:space="preserve"
     xmlns:serif="http://www.serif.com/"
     style="fill-rule:evenodd;clip-rule:evenodd;stroke-linejoin:round;stroke-miterlimit:2;">
        <g>
                <path d="M153,1c-1.4,0.4 -6.7,0.6 -11.7,0.3c-10.4,-0.7 -38.7,1.1 -53.8,3.3c-28,4.1 -56.5,9.8 -60.2,12.1c-1.2,0.7 -2.9,1.3 -3.7,1.3c-2.1,0 -3.1,2.1 -1.5,3.1c1.8,1.1 0.7,2 -3.3,2.8c-2.9,0.6 -3.3,1.1 -3.6,4.1c-0.2,2 -1.4,4.3 -2.9,5.7c-2.7,2.6 -2.6,4.6 0.2,5.2c1,0.2 2.7,1.4 3.7,2.7c1,1.2 2.7,2.6 3.8,2.9c2.7,0.9 2.5,2.4 -0.4,3.5c-1.4,0.5 -2.9,1.8 -3.5,2.8c-0.6,1.1 -2.5,2.5 -4.2,3.1c-2.1,0.7 -3,1.6 -2.7,2.8c0.4,1.9 3.5,3.1 9.2,3.2c3.4,0.1 3.8,0.3 3.3,2.3c-0.4,1.2 -0.1,2.8 0.5,3.6c1,1.1 0.7,1.8 -1.1,3.2c-2.9,2.1 -2.1,2.6 4.8,3.4c6.6,0.7 7.2,1.2 3.5,2.6c-2.3,0.9 -2.5,1.3 -1.4,2c0.8,0.6 3.3,1 5.5,1c2.2,0 5.3,0.7 6.9,1.5c1.9,1 5.9,1.5 12.6,1.5c7.6,0 9.9,0.3 10.3,1.4c0.3,0.8 2.7,1.8 5.2,2.2c6.3,0.9 3.9,2.4 -4,2.4c-3.3,-0 -9.9,0.5 -14.5,1.1c-4.7,0.6 -13.2,1.4 -19,1.8c-6.7,0.5 -12.5,1.6 -16,3c-4.2,1.6 -6.6,2 -10.3,1.5c-4.7,-0.7 -4.9,-0.6 -4.5,1.7c0.3,2.3 0.7,2.4 11.3,3c14.2,0.8 13.7,0.8 13.1,1.8c-0.3,0.4 -2.5,1.2 -4.8,1.6l-4.3,0.7l3.5,1.2c2.3,0.9 3.6,2.1 4,3.7c0.5,2 1.5,2.6 6.5,3.5c6,1.1 6,1.3 0.5,3.1c-1.1,0.4 -0.9,0.7 0.9,1.4c1.5,0.6 4.5,0.6 7.9,-0.1c8.2,-1.5 9.4,-1.4 8.7,0.9c-0.5,1.7 0.1,2 7.2,2.5c4.3,0.3 11.9,1.1 16.8,1.7c5,0.6 14.6,1.4 21.5,1.9c6.9,0.5 17.7,1.4 24,1.9c12.9,1.2 49.2,1.3 53,0.2c2.4,-0.8 -2,-1.4 -16,-2.4c-1.9,-0.1 -3.4,-0.7 -3.2,-1.2c0.1,-0.7 13.8,-0.9 39.5,-0.6c21.5,0.2 40.1,0.3 41.2,0.2c1.1,-0.1 37.1,-0.5 80,-1.1c82.2,-1 132.4,-2.4 143.9,-4.1c3.9,-0.5 12.9,-1.3 20,-1.6c10.8,-0.5 13.8,-1 17.2,-2.8c2.3,-1.2 5.4,-2.5 7,-2.9c1.5,-0.4 3.9,-1.6 5.2,-2.7c1.4,-1 3.7,-1.9 5.2,-1.9c2.3,-0 2.7,-0.4 2.3,-2c-0.4,-1.4 0.1,-2.1 1.8,-2.5c1.3,-0.3 5.3,-1.2 8.9,-2c4.3,-0.9 7,-2.1 7.9,-3.5c1,-1.5 2.4,-2 5.8,-2c2.8,-0 4.3,-0.4 4.1,-1.1c-0.9,-2.8 -14.2,-4.7 -39.8,-5.5c-14.6,-0.5 -13.8,-0.4 -11.5,-1.4c1.8,-0.7 1.8,-0.9 0.3,-1.5c-1,-0.4 -2,-1.5 -2.3,-2.6c-0.5,-1.3 -1.6,-1.9 -3.8,-1.9c-3.9,-0 -7,-1.6 -4.7,-2.4c0.8,-0.2 4.1,-0.7 7.4,-1c3.2,-0.4 6.6,-1.1 7.7,-1.6c1,-0.6 4.1,-1.1 6.9,-1.1c4.9,-0.2 7.3,-1.2 4.7,-2.1c-0.6,-0.3 -3.7,-0.6 -6.7,-0.7c-3,-0.1 -5.7,-0.4 -5.9,-0.7c-1.2,-1.2 1.9,-1.8 13.2,-2.4c15.3,-0.9 20.3,-3 14.1,-5.9c-1.5,-0.6 -2.3,-1.5 -2,-1.9c0.4,-0.4 5.6,-0.9 11.4,-1.2c11.8,-0.6 14.3,-2.2 4.5,-3c-3.4,-0.3 -6.8,-1.1 -7.5,-1.8c-0.6,-0.6 -2.4,-1.2 -3.9,-1.2c-1.5,-0 -3.1,-0.5 -3.4,-1c-1.2,-1.9 1.5,-3.7 7.5,-5.1l6,-1.3l-3.1,-1.3c-1.7,-0.7 -4,-1.3 -5.1,-1.3c-1.1,-0 -4.1,-0.7 -6.7,-1.5c-6.8,-2.2 -17.6,-4.5 -20.8,-4.5c-1.6,-0 -3.7,-0.6 -4.8,-1.4c-1.1,-0.7 -6.3,-1.9 -11.5,-2.7c-11.8,-1.6 -9.7,-2.3 9.5,-3.3c7.7,-0.4 15.7,-1.1 17.8,-1.4l3.9,-0.7l-3.3,-2.4c-3.1,-2.3 -4.3,-2.5 -16.9,-2.7c-7.4,-0.2 -22.3,-0.8 -33,-1.3c-10.7,-0.6 -28.3,-1.3 -39,-1.6c-26.2,-0.7 -41.6,-1.6 -43.2,-2.6c-2.2,-1.4 0,-2.2 6.5,-2.4c9.2,-0.4 14.5,-1.4 15.1,-3.2c0.3,-0.8 0.4,-1.8 0.1,-2.2c-0.2,-0.4 -14.1,-1.1 -30.7,-1.4c-16.7,-0.4 -42.7,-1.2 -57.8,-1.7c-15.1,-0.6 -50.9,-1 -79.6,-0.9c-47.1,0.2 -52.3,0.1 -54.5,-1.4c-1.8,-1.3 -4.5,-1.7 -11.4,-1.6c-4.9,0.1 -10.1,0.5 -11.5,0.9Zm217,13c0,0.5 -0.7,1 -1.5,1c-0.8,-0 -1.5,-0.5 -1.5,-1c0,-0.6 0.7,-1 1.5,-1c0.8,-0 1.5,0.4 1.5,1Zm-229.6,37.6c2.6,1 1.8,2.4 -1.3,2.4c-3,-0 -4.6,-1.2 -3.4,-2.4c0.8,-0.8 2.7,-0.8 4.7,-0Zm-109.1,6.9c-0.3,1.3 -3,1.8 -5.1,1c-1.4,-0.5 -1.4,-0.7 -0.2,-1.6c1.9,-1.1 5.6,-0.8 5.3,0.6Z"
                      style="fill-rule:nonzero;" />
                <path d="M436.8,7.4c-3.7,0.6 -10.6,1.3 -15.5,1.4c-7.4,0.3 -9,0.6 -10.2,2.3c-0.8,1.2 -2.5,1.9 -4.4,1.9c-2.2,-0 -2.8,0.3 -2,1.1c1.2,1.2 19.9,-0.3 27.3,-2.2c2.5,-0.6 9.9,-1.3 16.5,-1.6c11.9,-0.4 12.1,-0.4 14.7,2.1l2.6,2.6l36.7,-0.2c26.2,-0.2 36.9,-0.6 37.2,-1.4c0.3,-0.8 -2.6,-1.4 -8.4,-1.7c-13.1,-0.9 -20.8,-2.3 -23.4,-4.1c-2.1,-1.4 -6.3,-1.6 -33.4,-1.5c-19.2,0.1 -33.6,0.5 -37.7,1.3Z"
                      style="fill-rule:nonzero;" />
                <path d="M548.5,52c-0.8,1.3 2,2.4 4.1,1.6c2,-0.8 0.9,-2.6 -1.6,-2.6c-1,0 -2.2,0.5 -2.5,1Z"
                      style="fill-rule:nonzero;" />
                <path d="M526.5,64c-0.4,0.6 0.5,1 2,1c1.5,0 2.4,-0.4 2,-1c-0.3,-0.6 -1.2,-1 -2,-1c-0.8,0 -1.7,0.4 -2,1Z"
                      style="fill-rule:nonzero;" />
                <path d="M468.5,121.6c-5.5,0.7 -13.1,1.7 -17,2c-6.8,0.7 -6.9,0.8 -3,1.5c7.2,1.4 22.7,1 25.9,-0.6c1.9,-1 5.8,-1.5 11.6,-1.5c9.6,-0 13.1,-0.7 10.8,-2.1c-1.9,-1.3 -16.8,-0.9 -28.3,0.7Z"
                      style="fill-rule:nonzero;" />
                <path d="M334.6,124.9c-1.1,1.7 0.3,1.9 17.9,3.1c16.6,1.1 40.8,1.1 42.7,-0.1c2.5,-1.5 -0.6,-3 -6,-2.8c-3.1,0.1 -16.5,-0.1 -29.8,-0.6c-18,-0.6 -24.3,-0.5 -24.8,0.4Z"
                      style="fill-rule:nonzero;" />
                <path d="M411.2,126.9c-2,1.2 0.9,2.1 6.9,2.1c3.7,0 4.9,-0.4 4.9,-1.5c0,-1.1 -1.2,-1.5 -5.2,-1.5c-2.9,0 -5.9,0.4 -6.6,0.9Z"
                      style="fill-rule:nonzero;" />
        </g>
</svg>
