<?xml version="1.0" encoding="UTF-8" standalone="no"?>
<!DOCTYPE svg
          PUBLIC "-//W3C//DTD SVG 1.1//EN" "http://www.w3.org/Graphics/SVG/1.1/DTD/svg11.dtd"><svg width="100%"
     height="100%"
     viewBox="0 0 2440 150"
     preserveAspectRatio="none"
     version="1.1"
     xmlns="http://www.w3.org/2000/svg"
     xmlns:xlink="http://www.w3.org/1999/xlink"
     xml:space="preserve"
     xmlns:serif="http://www.serif.com/"
     style="fill-rule:evenodd;clip-rule:evenodd;stroke-linejoin:round;stroke-miterlimit:2;">
    <path d="M1121.45,0.006c-37.993,0.024 -76,0.493 -114.014,0.631c-94.938,0.325 -189.932,-0.832 -284.779,1.284c-88.534,1.965 -176.99,6.426 -265.295,11.498c-113.356,6.505 -226.588,14.205 -339.715,22.473c-35.761,2.594 -71.183,8.242 -106.437,13.574c-4.902,0.759 -10.364,7.553 -11.127,11.936c-0.749,4.062 3.549,11.915 7.237,12.457c20.235,2.901 40.919,4.953 61.541,5.446c11.999,0.3 24.081,-3.343 36.254,-4.476c58.15,-5.485 116.412,-10.576 174.542,-16.121c12,-1.162 23.59,-4.554 35.582,-5.471c40.357,-3.102 80.777,-5.799 121.258,-8.183c27.63,-1.64 55.364,-2.441 83.065,-3.629c-6.268,4.349 -13.006,5.51 -19.861,6.086c-72.714,6.244 -145.866,10.729 -218.109,19.021c-80.153,9.218 -159.669,21.572 -239.154,33.532c-9.331,1.413 -16.803,9.074 -25.142,13.84c7.986,5.771 14.779,12.946 24.274,16.88c9.476,3.905 24.81,2.205 31.978,7.11c18.812,12.89 40.495,12.663 62.996,10.999c110.535,-8.114 221.021,-16.815 331.59,-24.629c31.214,-2.216 62.803,-1.841 94.12,-3.417c8.291,-0.398 16.297,-3.668 23.749,-5.471c7.52,1.261 15.72,4.024 23.686,3.709c28.095,-1.133 56.078,-4.59 84.131,-4.825c68.659,-0.622 137.299,0.251 205.972,0.008c7.382,-0.023 14.764,-3.417 26.001,-6.199c24.857,8.09 24.857,8.09 26.064,2.872c19.201,-0 39.095,3.278 54.92,-1.01c13.331,-3.604 29.939,8.548 39.007,-5.254c0.055,-0.064 3.229,0.38 3.659,1.02c10.821,16.426 22.57,5.623 34.444,0.871c3.119,-1.26 7.362,-1.713 11.036,-1.591c24.629,0.886 49.472,0.798 73.748,3.378c31.732,3.392 62.663,3.408 94.425,-0.01c13.877,-1.487 29.066,3.216 43.656,5.092c3.459,0.453 8.145,2.029 10.308,1.009c26.638,-12.541 55.808,-3.254 82.55,-2.433c23.659,0.72 47.221,-1.397 70.72,0.075c20.865,1.325 44.218,-6.288 61.47,6.834c11.777,-1.413 23.741,-4.388 35.436,-3.91c22.535,0.906 45.923,7.765 67.044,4.969c40.545,-5.357 79.62,0.881 119.249,1.811c24.219,0.571 48.211,5.22 72.473,6.19c17.495,0.694 35.24,-1.522 52.862,-2.684c8.054,-0.541 16.288,-3.062 23.99,-2.294c19.644,1.979 39.04,5.333 58.581,8.03c1.026,0.139 2.342,-0.743 3.971,-1.324c-3.389,-3.289 -6.723,-6.528 -10.327,-10.035c5.447,-1.261 10.542,-2.432 15.637,-3.604c-7.702,-1.866 -15.298,-4.825 -23.124,-5.179c-67.135,-3.079 -134.262,-5.825 -201.445,-8.292c-130.7,-4.816 -261.392,-9.454 -392.105,-14.019c-12.138,-0.428 -24.366,0.616 -36.538,0.34c-44.933,-0.984 -89.865,-2.472 -134.832,-3.265c-27.789,-0.491 -55.648,-0.103 -83.458,-0.103c0.04,-1.586 0.09,-3.185 0.145,-4.786c40.156,-0 80.403,1.462 120.316,-0.595c21.025,-1.084 44.023,5.913 64.091,-6.087c4.603,-2.762 16.401,-0.063 24.651,1.045c9.018,1.211 17.745,5.017 26.618,5.017c25.182,0.025 50.968,4.716 75.452,-4.663c5.4,-2.053 14.446,-0.718 21.191,0.63c30.008,5.988 59.412,7.538 90.75,3.152c16.506,-2.305 35.083,3.642 52.884,4.903c8.076,0.581 16.519,-0.995 24.684,-1.979c2.835,-0.339 7.202,-3.087 7.806,-2.635c10.681,7.816 21.065,3.822 33.965,2.911c20.462,-1.448 41.93,4.347 62.607,7.036c2.233,-2.6 4.348,-6.987 6.247,-6.933c12.013,0.3 23.992,1.576 35.949,2.521c5.946,1.561 12.636,-0.227 19.186,-0.064c30.535,0.783 61.062,1.891 91.527,3.314c17.462,0.822 34.876,2.285 52.247,3.807c11.673,1.023 23.207,3.52 34.887,3.844c25.252,0.72 50.553,-0.073 75.771,0.833c16.269,0.566 32.352,3.392 48.621,4.589c8.234,0.606 17.412,-1.778 24.844,-0.016c17.163,4.063 29.356,0.685 39.2,-8.984c-4.348,-3.418 -8.355,-9.051 -13.152,-9.405c-41.008,-2.999 -82.211,-4.525 -123.219,-7.573c-8.269,-0.62 -15.956,-5.21 -23.853,-8.283c-0.408,0.04 -0.816,0.064 -1.241,0.09c-0.179,-0.08 -0.374,-0.168 -0.567,-0.242c-3.585,2.595 -7.383,7.061 -10.593,6.834c-31.393,-2.108 -62.677,-5.096 -97.793,-8.183c13.183,-5.544 21.364,-13.649 34.637,-4.333c1.88,1.319 8.923,0.389 12.243,-1.048c23.477,-10.238 42.429,-1.788 61.506,6.73c0.159,-0.113 0.319,-0.251 0.477,-0.365c0.444,0.163 0.887,0.356 1.331,0.517c10.544,-0.832 21.365,-0.945 31.498,-2.875c16.242,-3.062 32.013,-7.474 49.279,-11.635c-0.422,4.048 -0.797,7.603 -1.095,10.537c21.524,-0 41.576,0.872 61.394,-0.261c17.676,-0.984 34.959,-4.929 52.635,-6.302c33.786,-2.635 66.634,-9.193 101.877,-5.535c25.764,2.659 52.883,-1.778 79.411,-2.245c29.688,-0.517 59.411,-0.114 90.75,-0.114c-7.347,-17.833 -17.531,-21.615 -36.753,-17.228c-6.015,1.374 -13.822,4.988 -17.814,3.515c-23.125,-8.596 -46.651,-2.141 -69.921,-2.811c-17.724,-0.501 -35.207,-4.574 -52.967,-5.574c-8.143,-0.452 -19.873,5.915 -24.469,3.619c-26.604,-13.259 -64.79,2.182 -87.701,-18.577c-1.296,-1.186 -5.518,-0.945 -8.373,-1.025c-59.947,-1.633 -119.851,-3.943 -179.818,-4.446c-22.265,-0.201 -44.523,5.303 -66.9,5.649c-21.364,0.3 -42.804,-3.733 -64.271,-4.097c-117.141,-1.98 -234.297,-3.481 -351.472,-5.033c-49.153,-0.639 -98.341,-1.068 -147.495,-1.462c-64.203,-0.502 -128.461,-1.068 -192.683,-1.236c-5.429,-0.01 -10.855,-0.025 -16.291,-0.01Zm1011.4,92.407c0.124,0.088 0.234,0.201 0.36,0.29c0.048,-0 0.229,-0.616 0.262,-0.808c-0.033,0.192 -0.214,0.808 -0.214,0.823c0.159,-0.104 0.284,-0.178 0.443,-0.281c-0.069,-0.227 -0.124,-0.439 -0.193,-0.665l-0,-0.015c-0.215,0.227 -0.444,0.429 -0.658,0.656Zm0.851,0.024c1.296,4.967 2.614,9.946 3.903,14.81c17.163,-7.537 30.577,-13.421 44.225,-19.434c-26.583,-4.352 -36.08,-3.432 -48.128,4.624Zm-162.988,23.634c0.229,0.064 0.458,0.129 0.708,0.178c-0,-0.015 0.444,-0.38 0.513,-0.429c-0.16,0.114 -0.444,0.364 -0.444,0.38c0.194,-0.065 0.408,-0.153 0.623,-0.227c-0.019,-0.089 -0.055,-0.168 -0.089,-0.251c0,-0 -0.056,0.049 -0.069,0.059c-0.41,0.103 -0.832,0.192 -1.242,0.29Zm1.4,-0.098c6.814,21.921 34.036,13.94 53.057,18.414c18.244,4.299 14.287,-10.157 23.866,-12.718c-0.193,-0.049 -0.367,-0.103 -0.561,-0.153c0,0.016 0.776,0.075 0.776,0.075c-0.069,0.029 -0.139,0.054 -0.215,0.078c7.458,1.867 14.924,3.742 22.432,5.623c1.636,-3.116 3.251,-6.203 4.956,-9.444c-32.316,-6.972 -65.541,4.663 -97.199,-3.944c-1.732,-0.478 -4.629,1.172 -7.112,2.069Zm99.355,11.319c-0.105,0.173 -0.195,0.364 -0.298,0.542l0.069,-0.024c-0.021,0.024 -0.055,0.034 -0.09,0.058c-0,-0.009 0.942,-0.388 0.942,-0.388c-1.012,0.669 -2.536,1.245 -2.822,2.067c-0.284,0.784 0.818,2.585 1.186,2.571c24.989,-0.792 49.959,-1.502 74.836,-3.013c2.344,-0.138 4.048,-5.422 6.869,-9.503c-28.822,0.591 -56.659,-6.835 -80.248,7.803c-0.16,-0.039 -0.298,-0.078 -0.444,-0.113Zm149.422,-39.543c-7.279,-0.138 -14.945,0.921 -22.363,1.147c-2.841,0.113 -5.698,0.113 -8.532,0.162c0.229,2.296 -0.729,6.052 0.811,6.667c9.178,3.62 18.972,6.506 28.538,9.647c0.616,-1.025 1.241,-2.043 1.864,-3.078c2.163,-0 4.45,0.291 6.496,-0.049c7.182,-1.236 14.3,-2.684 21.453,-4.057c-7.015,-3.417 -13.433,-8.562 -21.155,-9.833c-2.308,-0.379 -4.686,-0.557 -7.112,-0.606Zm54.047,3.339c-4.083,-0 -8.123,0.088 -12.137,0.442c-1.296,0.114 -1.775,4.88 -2.662,7.5l26.284,0c0.243,-2.61 0.515,-5.23 0.742,-7.854c-4.062,0 -8.158,-0.088 -12.227,-0.088Z"
          style="fill:#ffd700;" />
</svg>
