<?xml version="1.0" encoding="UTF-8" standalone="no"?><!DOCTYPE svg PUBLIC "-//W3C//DTD SVG 1.1//EN" "http://www.w3.org/Graphics/SVG/1.1/DTD/svg11.dtd"><svg width="100%" height="100%" viewBox="0 0 446 461" version="1.1" xmlns="http://www.w3.org/2000/svg" xmlns:xlink="http://www.w3.org/1999/xlink" xml:space="preserve" xmlns:serif="http://www.serif.com/" style="fill-rule:evenodd;clip-rule:evenodd;stroke-linejoin:round;stroke-miterlimit:2;"><rect id="Artboard1" x="0" y="0" width="446" height="461" style="fill:none;"/><g><path d="M78.7,1.6c-0.3,0.4 -2.5,0.7 -4.9,0.9c-2.4,0.1 -9.4,0.7 -15.6,1.4c-6.1,0.6 -12.3,0.9 -13.5,0.6c-2.4,-0.6 -25.9,3.4 -33,5.7c-2.1,0.6 -4.2,1.9 -4.7,2.9c-0.5,0.9 -1,23.6 -1.1,50.5c-0.3,51.8 -1.1,85.7 -3,124.9c-0.7,13.2 -1.4,45.9 -1.6,72.7c-0.3,47.5 -0.3,48.9 1.7,53.3c2.2,4.7 2.9,5.2 4.8,3.3c0.6,-0.6 1.5,-0.9 1.9,-0.5c2.2,2.3 3.1,49.9 1.9,101.9c-0.9,39.6 -0.8,40.8 3.3,40.8c2.1,0 8.2,-12.9 7.5,-15.7c-0.3,-1.1 0.3,-5.1 1.4,-8.9c5.6,-19.4 15.5,-98.9 16.7,-134.9c1,-30 3.6,-80.9 5.1,-102c0.8,-11.6 1.9,-28 2.4,-36.5c1.3,-21 2.8,-42.2 4.1,-55.5c0.5,-6.1 1.3,-18.8 1.6,-28.3c0.4,-11.2 1,-17.5 1.7,-17.8c2.3,-0.8 43.2,-6 55.1,-6.9c9.2,-0.7 58.5,-3.2 90,-4.6c23.1,-1 107.1,-0.6 117,0.6c2.2,0.2 16.8,0.9 32.5,1.5c27.6,1 44.6,2 67.4,4c5.9,0.5 11.3,0.7 11.8,0.4c0.6,-0.4 0.8,-1.9 0.4,-3.4c-0.3,-1.8 0,-3.3 1,-4.1c0.8,-0.7 1.2,-2 0.8,-3.1c-0.3,-1 0,-2.5 0.6,-3.3c1,-1.2 0.9,-1.6 -0.3,-2.1c-1.2,-0.4 -1.5,-1.4 -1,-3.5c0.4,-2.4 0.1,-3 -2.1,-4c-1.4,-0.7 -2.6,-1.6 -2.6,-2.2c0,-0.5 -0.7,-2.4 -1.6,-4.3c-0.9,-1.9 -1.4,-3.7 -1.2,-4c0.3,-0.3 4.8,-0.8 10,-1.3c5.2,-0.4 10,-1.1 10.6,-1.5c2,-1.2 1.3,-3.5 -1,-4c-5.4,-1.1 -26.6,-2.7 -41.8,-3.1c-9.1,-0.3 -28.2,-1.2 -42.5,-2c-14.3,-0.8 -34.5,-1.7 -45,-2c-10.4,-0.3 -21,-0.7 -23.5,-0.9c-5.6,-0.5 -26.9,-1.4 -50,-2.1c-9.6,-0.4 -29,-1.3 -43,-2.1c-25.3,-1.4 -117,-2 -118.3,-0.8Z" style="fill-rule:nonzero;"/></g></svg>