<?xml version="1.0" standalone="no"?>
<!DOCTYPE svg PUBLIC "-//W3C//DTD SVG 20010904//EN"
 "http://www.w3.org/TR/2001/REC-SVG-20010904/DTD/svg10.dtd">
<svg version="1.0" xmlns="http://www.w3.org/2000/svg"
 width="300.000000pt" height="225.000000pt" viewBox="0 0 300.000000 225.000000"
 preserveAspectRatio="xMidYMid meet">
<metadata>
Created by potrace 1.10, written by Peter Selinger 2001-2011
</metadata>
<g transform="translate(0.000000,225.000000) scale(0.050000,-0.050000)"
fill="#000000" stroke="none">
<path d="M1059 4453 c-5 -5 -67 -14 -139 -21 -71 -6 -191 -19 -265 -28 -80 -9
-135 -9 -135 2 0 23 -131 0 -184 -32 -89 -54 -113 -208 -29 -183 43 13 43 12
-2 -20 -78 -57 -26 -200 63 -174 10 3 7 -9 -8 -27 -64 -77 36 -80 240 -8 129
46 525 73 830 58 l200 -10 -100 -23 c-55 -13 -122 -23 -150 -22 -27 2 -117 0
-200 -4 -232 -9 -30 -36 230 -30 110 2 209 -1 219 -7 32 -19 316 -25 339 -7
51 40 137 45 174 11 33 -30 95 -35 453 -40 228 -3 478 -13 555 -23 98 -13 144
-12 155 3 10 15 14 15 15 -2 0 -18 71 -21 295 -13 162 7 324 12 360 11 36 -1
65 8 65 20 0 14 47 17 145 7 178 -17 438 -13 465 8 11 8 115 13 230 11 116 -2
221 4 234 14 14 12 39 11 63 -3 50 -26 84 -27 43 -1 -22 14 -11 19 45 20 41 0
75 -10 75 -21 0 -12 10 -15 22 -8 11 7 50 15 85 18 34 2 79 11 98 20 43 19 43
-3 14 -465 -26 -409 -37 -1065 -21 -1184 7 -49 6 -143 -3 -209 -17 -132 -1
-234 26 -161 28 78 45 -150 29 -388 -26 -375 -27 -547 -5 -628 43 -149 60 -38
64 392 2 367 7 433 35 461 67 67 76 40 76 -220 0 -324 26 -313 48 19 7 105 30
183 33 112 3 -55 64 173 65 242 0 38 13 81 27 96 15 15 28 49 30 75 3 74 6 84
22 101 22 22 18 104 -6 119 -14 8 -14 21 -2 36 35 41 30 1814 -5 1801 -29 -11
-58 45 -48 95 3 15 -7 24 -22 21 -16 -3 -36 6 -44 20 -27 42 -226 56 -263 19
-14 -14 -35 -11 -63 6 -71 45 -267 55 -1272 64 -1756 16 -2005 21 -2460 53
-478 32 -726 42 -741 27z m2951 -173 c8 -13 -64 -19 -204 -16 l-216 4 190 12
c105 7 196 14 204 16 7 2 19 -5 26 -16z m1525 -153 c34 -9 45 -26 45 -72 0
-58 -85 -70 -120 -16 -5 8 -37 16 -70 18 -149 7 -207 39 -75 41 69 1 125 11
125 22 0 23 29 25 95 7z m-1315 -66 c0 -48 -23 -64 -61 -40 -20 13 -21 18 -4
19 14 0 25 14 25 30 0 17 9 30 20 30 11 0 20 -17 20 -39z"/>
<path d="M130 2395 c-35 -34 -41 -34 -47 -5 -9 45 -49 26 -65 -31 -27 -97 -20
-1999 7 -1994 16 3 27 -23 31 -70 7 -84 17 -91 56 -40 26 34 38 12 32 -56 -1
-11 22 -14 156 -22 39 -2 70 10 88 33 26 36 27 36 40 -1 41 -121 328 -153 892
-101 375 34 422 35 653 4 317 -42 619 -43 659 -3 32 33 95 50 338 97 l160 30
-190 4 -190 4 140 28 c77 15 165 32 195 37 244 41 -79 69 -373 33 -139 -17
-336 -5 -320 20 5 10 -28 19 -76 21 -81 2 -78 4 39 23 127 20 162 45 80 58
-25 5 23 20 105 34 83 14 183 38 223 53 40 15 135 32 210 39 240 20 356 28
400 29 26 1 47 17 53 43 12 45 54 35 54 -13 0 -21 26 -27 105 -25 195 5 455
-12 455 -30 0 -10 16 -12 35 -3 19 8 302 16 629 18 327 2 601 9 609 17 7 8
-13 15 -45 16 l-58 3 60 14 c110 27 -56 66 -300 71 -99 2 -234 16 -300 31
-160 37 -1738 39 -1990 3 -102 -14 -172 -17 -176 -6 -7 22 -384 6 -414 -17
-11 -9 -123 -12 -250 -6 -211 10 -278 11 -525 9 -47 -1 -148 -1 -225 -2 -77 0
-207 -1 -290 -3 -82 -1 -163 -1 -180 0 -16 2 -74 -3 -127 -10 l-97 -12 12 426
c7 235 17 556 23 713 7 194 3 283 -10 274 -13 -8 -21 17 -21 64 0 52 -13 88
-40 111 -22 19 -40 54 -40 78 0 41 -2 41 -37 10 -47 -43 -81 -42 -99 4 -14 36
-15 36 -54 -2z m3646 -1664 c6 -6 -45 -10 -112 -9 -68 2 -124 12 -124 22 0 20
215 7 236 -13z m-3270 -94 c24 -13 98 -30 164 -37 l120 -13 -187 -16 c-115
-10 -176 -23 -160 -33 15 -10 18 -18 7 -18 -11 -1 -3 -14 19 -30 47 -37 32
-56 -32 -40 -44 11 -60 97 -38 205 3 14 69 2 107 -18z"/>
</g>
</svg>
