<?xml version="1.0" standalone="no"?>
<!DOCTYPE svg PUBLIC "-//W3C//DTD SVG 20010904//EN"
 "http://www.w3.org/TR/2001/REC-SVG-20010904/DTD/svg10.dtd">
<svg version="1.0" xmlns="http://www.w3.org/2000/svg"
 width="627.000000pt" height="638.000000pt" viewBox="0 0 627.000000 638.000000"
 preserveAspectRatio="xMidYMid meet">
<metadata>
Created by potrace 1.10, written by Peter Selinger 2001-2011
</metadata>
<g transform="translate(0.000000,638.000000) scale(0.100000,-0.100000)"
fill="#000000" stroke="none">
<path d="M4076 6356 c-48 -35 -64 -325 -41 -736 3 -47 10 -247 16 -444 5 -198
12 -362 13 -365 2 -3 7 -94 10 -201 4 -107 11 -303 16 -435 6 -132 10 -523 10
-870 1 -536 4 -657 19 -810 10 -99 17 -182 15 -184 -2 -2 -65 7 -141 20 -132
23 -158 24 -578 23 -242 -1 -510 -7 -595 -13 -85 -6 -191 -14 -235 -17 -440
-28 -661 -51 -965 -98 -85 -14 -193 -29 -240 -35 -47 -5 -143 -17 -215 -26
-71 -8 -195 -20 -275 -25 -264 -18 -366 -31 -596 -75 -103 -20 -245 -70 -262
-92 -13 -18 -16 -91 -4 -108 4 -6 24 -21 45 -33 47 -27 164 -30 242 -7 66 21
325 53 500 63 122 8 142 7 153 -7 15 -19 -23 -18 977 -8 667 7 905 14 1474 44
246 12 321 13 347 4 25 -9 37 -9 51 0 24 14 268 -21 346 -51 74 -28 97 -25
167 21 77 52 96 87 82 152 -9 46 -2 67 23 67 6 0 21 19 34 43 26 49 26 87 -3
337 -8 74 -22 221 -31 327 -18 229 -14 313 38 793 18 170 16 1190 -3 1475 -14
211 -19 683 -11 963 l4 133 -39 40 c-60 62 -117 95 -186 108 -35 7 -72 17 -83
21 -38 16 -64 18 -79 6z"/>
</g>
</svg>
