<?xml version="1.0" standalone="no"?>
<!DOCTYPE svg PUBLIC "-//W3C//DTD SVG 20010904//EN"
 "http://www.w3.org/TR/2001/REC-SVG-20010904/DTD/svg10.dtd">
<svg version="1.0" xmlns="http://www.w3.org/2000/svg"
 width="1350.000000pt" height="801.000000pt" viewBox="0 0 1350.000000 801.000000"
 preserveAspectRatio="xMidYMid meet">
<metadata>
Created by potrace 1.10, written by Peter Selinger 2001-2011
</metadata>
<g transform="translate(0.000000,801.000000) scale(0.100000,-0.100000)"
fill="#000000" stroke="none">
<path d="M3270 7995 c0 -8 5 -15 10 -15 6 0 10 7 10 15 0 8 -4 15 -10 15 -5 0
-10 -7 -10 -15z"/>
<path d="M3091 7721 c-18 -12 -6 -47 19 -54 10 -3 27 1 37 9 17 13 17 15 -6
34 -26 22 -30 23 -50 11z"/>
<path d="M2417 7532 c-10 -10 -17 -25 -17 -33 1 -11 4 -10 14 4 7 9 18 17 25
17 6 0 11 7 11 15 0 20 -13 19 -33 -3z"/>
<path d="M2705 7511 c-3 -6 4 -15 15 -21 16 -8 19 -17 14 -33 -10 -31 -26 -38
-46 -20 -16 14 -18 14 -24 0 -7 -20 3 -37 22 -37 8 0 14 -7 14 -15 0 -15 -49
-45 -74 -45 -25 0 -70 -45 -63 -63 9 -24 35 -21 39 4 2 17 12 22 48 26 25 2
60 4 78 3 40 -1 58 32 36 67 -8 12 -14 32 -14 44 0 18 4 20 25 15 18 -5 25 -2
25 9 0 8 -4 15 -10 15 -5 0 -10 6 -10 13 0 31 -60 61 -75 38z"/>
<path d="M3182 7511 c-21 -13 -10 -46 16 -49 27 -4 40 22 22 43 -14 17 -20 18
-38 6z"/>
<path d="M11786 7493 c-11 -11 -6 -23 9 -23 8 0 15 4 15 9 0 13 -16 22 -24 14z"/>
<path d="M3290 7468 c1 -36 52 -90 99 -104 l41 -12 -21 30 c-12 16 -33 35 -46
41 -13 6 -31 24 -39 39 -17 34 -34 36 -34 6z"/>
<path d="M3590 7470 c0 -5 7 -10 15 -10 8 0 15 5 15 10 0 6 -7 10 -15 10 -8 0
-15 -4 -15 -10z"/>
<path d="M12176 7463 c-3 -4 -6 -12 -6 -20 0 -14 46 -18 54 -4 6 10 -39 32
-48 24z"/>
<path d="M12017 7432 c-20 -22 -22 -32 -4 -32 25 0 40 17 30 34 -8 15 -11 15
-26 -2z"/>
<path d="M9744 7416 c-4 -9 -4 -20 0 -23 3 -4 12 -1 18 5 9 9 9 15 0 24 -9 9
-13 7 -18 -6z"/>
<path d="M2820 7395 c0 -14 5 -25 10 -25 6 0 10 -11 10 -25 0 -19 5 -25 23
-25 22 0 67 46 67 70 0 5 5 10 10 10 6 0 10 4 10 9 0 5 -29 9 -65 10 -63 1
-65 1 -65 -24z"/>
<path d="M12555 7409 c-4 -5 -4 -22 0 -36 4 -19 1 -31 -14 -44 -26 -25 -37
-24 -44 2 -3 12 -10 18 -16 14 -16 -9 -13 -35 4 -35 9 0 15 -9 15 -25 0 -31
-29 -40 -123 -39 -62 0 -70 3 -102 34 -30 29 -36 31 -50 20 -15 -12 -16 -11
-13 5 2 12 -4 21 -15 23 -26 5 -49 -18 -44 -45 2 -13 -1 -27 -8 -33 -7 -6 -10
-21 -8 -34 11 -54 -53 -35 -77 23 -7 17 -17 31 -22 31 -18 0 -47 -44 -48 -71
0 -15 -7 -32 -15 -39 -14 -12 -12 -17 15 -45 17 -17 27 -34 24 -38 -13 -13
-49 -7 -74 13 -32 25 -40 25 -40 0 0 -18 -6 -19 -72 -17 l-71 2 -13 35 c-7 19
-13 27 -13 18 -1 -24 -35 -40 -67 -32 -36 9 -45 -10 -28 -60 14 -37 13 -42 -3
-54 -16 -11 -19 -9 -29 20 -8 25 -17 34 -37 36 -15 2 -27 10 -27 18 0 19 -19
18 -26 -1 -4 -8 -17 -15 -29 -15 -29 0 -42 -18 -21 -26 9 -3 16 -17 16 -29 0
-26 28 -40 59 -30 22 7 49 -19 30 -30 -6 -4 -29 -9 -50 -10 -35 -3 -39 -1 -39
20 0 14 -7 25 -20 28 -12 3 -20 14 -20 26 0 28 -74 81 -113 81 l-30 0 7 -49
c7 -55 -5 -73 -32 -47 -11 9 -27 13 -41 9 -21 -5 -38 0 -105 33 -20 10 -32 12
-40 4 -5 -5 -20 -10 -32 -10 -15 0 -24 -8 -28 -26 -7 -25 -8 -25 -26 -9 -15
13 -22 14 -38 4 -25 -15 -55 -5 -50 18 3 14 11 17 37 15 30 -3 32 -2 26 19 -5
13 -17 36 -28 51 -16 22 -23 25 -34 16 -11 -9 -21 -6 -44 11 -22 16 -34 20
-42 12 -7 -7 -7 -14 2 -24 9 -12 8 -16 -5 -21 -26 -10 -54 -7 -60 7 -11 29
-154 5 -154 -26 0 -5 -13 -6 -29 -2 -23 5 -29 2 -34 -15 -5 -19 -8 -20 -29 -8
-13 7 -31 19 -40 27 -24 19 -48 7 -48 -24 0 -27 -18 -32 -51 -14 -30 16 -58 2
-67 -34 -10 -37 -39 -48 -59 -21 -11 16 -17 16 -53 4 -71 -24 -120 14 -135
102 l-6 38 -35 -15 c-34 -14 -35 -14 -44 10 -5 14 -17 37 -26 51 -15 22 -18
24 -27 9 -6 -11 -4 -22 7 -34 22 -24 20 -48 -4 -61 -11 -6 -20 -18 -20 -26 0
-11 -6 -14 -16 -10 -9 3 -20 6 -25 6 -5 0 -9 15 -9 34 0 38 -33 86 -60 86 -9
0 -24 -10 -32 -22 l-15 -22 -12 22 c-11 21 -40 29 -54 15 -4 -3 3 -17 15 -30
19 -21 20 -26 9 -63 -8 -28 -19 -42 -35 -46 -13 -3 -34 -17 -47 -30 -12 -13
-26 -24 -31 -24 -18 0 -6 36 22 65 l30 31 -21 20 c-20 18 -21 18 -34 0 -12
-15 -22 -17 -65 -11 -41 6 -54 12 -62 31 -6 13 -17 24 -25 24 -18 0 -76 -30
-85 -44 -13 -19 -9 -63 7 -76 12 -10 15 -9 15 7 0 25 8 33 26 26 32 -12 -16
-113 -53 -113 -8 0 -25 -7 -39 -17 -24 -15 -27 -15 -52 4 -18 13 -29 33 -33
59 -9 59 -36 104 -63 104 -12 0 -27 5 -34 12 -9 9 -12 6 -12 -15 0 -31 -23
-45 -44 -28 -18 15 -41 5 -61 -25 -12 -19 -13 -27 -3 -44 10 -15 10 -22 0 -32
-15 -15 -47 12 -56 47 -6 25 -58 40 -87 24 -8 -4 -49 -5 -91 -2 -77 6 -94 0
-82 -31 5 -12 9 -13 25 -3 15 9 21 8 33 -8 22 -29 19 -44 -9 -51 -37 -9 -18
-27 22 -21 55 9 54 -16 -3 -74 -45 -46 -51 -49 -99 -49 -44 0 -55 4 -80 30
-16 17 -37 30 -48 30 -16 0 -19 -6 -15 -37 4 -33 1 -42 -25 -64 -17 -14 -28
-30 -24 -36 3 -5 31 -15 60 -22 30 -6 63 -21 72 -31 11 -12 31 -20 51 -20 18
0 36 -5 39 -10 4 -7 12 -7 25 0 27 15 60 12 66 -5 8 -20 43 -19 67 3 17 15 41
17 177 17 114 0 161 -4 173 -13 10 -9 17 -10 22 -2 9 15 214 13 245 -3 19 -9
26 -22 28 -50 2 -20 7 -37 11 -37 17 0 30 27 24 48 -5 19 -1 22 25 22 17 0 32
-6 35 -12 3 -10 9 -10 24 -2 13 8 87 12 214 13 107 1 332 3 500 6 305 6 306 6
315 -16 10 -21 10 -21 43 6 32 27 33 28 87 15 41 -10 60 -10 77 -2 12 6 33 12
47 14 22 3 25 0 22 -24 -3 -33 1 -34 36 -10 15 10 46 19 70 20 23 0 58 6 77
13 24 9 38 9 47 2 8 -6 21 -7 33 -2 35 14 119 10 143 -6 19 -14 25 -14 49 -2
32 16 66 8 81 -19 8 -14 10 -13 16 10 l7 27 92 -5 c189 -12 253 -13 284 -4 24
7 39 5 62 -6 22 -12 37 -13 55 -6 15 5 86 7 168 4 118 -4 145 -8 156 -22 10
-12 12 -43 8 -112 -5 -116 -5 -96 1 -210 4 -79 2 -96 -12 -106 -14 -11 -14
-12 0 -18 14 -5 16 -24 12 -143 -2 -76 -8 -146 -12 -155 -4 -9 -3 -23 1 -30
10 -16 14 -60 15 -148 0 -36 1 -76 2 -90 0 -14 1 -54 1 -89 -1 -57 -4 -67 -27
-86 -34 -26 -34 -42 -2 -57 27 -12 33 -34 13 -41 -10 -3 -10 -8 1 -21 20 -23
16 -209 -4 -240 -12 -19 -12 -25 0 -49 11 -21 14 -67 14 -176 l0 -147 -31 -10
c-44 -13 -45 -28 -3 -52 37 -22 47 -56 23 -80 -9 -9 -8 -21 2 -53 13 -38 12
-42 -5 -55 -10 -8 -26 -14 -34 -14 -32 -1 -61 -36 -58 -69 5 -41 13 -48 21
-16 9 34 28 31 48 -8 33 -66 31 -34 47 -602 5 -176 12 -327 15 -335 3 -8 10
-50 15 -93 10 -89 30 -127 66 -127 29 0 39 -14 31 -46 -4 -16 -13 -24 -29 -24
-29 0 -67 -27 -67 -47 0 -11 6 -14 23 -9 12 3 36 6 54 6 42 0 52 20 63 128 10
95 18 107 88 127 20 6 37 15 39 21 6 19 -27 44 -58 44 -16 0 -29 5 -29 10 0
17 35 46 70 59 43 14 68 -6 77 -61 8 -53 41 -85 58 -58 3 5 -1 20 -9 32 -9 12
-16 42 -16 65 0 33 -4 43 -16 43 -9 0 -32 14 -51 30 -18 17 -40 30 -47 30 -7
0 -23 11 -36 25 l-23 24 55 24 c31 14 59 30 63 36 12 20 -16 41 -55 41 -25 0
-43 7 -55 21 -19 20 -18 20 10 44 17 13 37 25 45 25 8 0 34 9 58 20 39 18 42
21 30 40 -18 29 -58 25 -96 -10 -37 -33 -63 -38 -82 -15 -11 13 -5 27 34 85
51 74 127 150 150 150 8 0 18 10 22 23 3 12 13 30 22 39 24 28 -8 33 -54 9
-71 -38 -126 -14 -70 30 15 11 33 34 41 50 13 24 22 29 52 29 20 0 45 8 55 17
16 14 23 15 39 5 17 -11 19 -9 19 14 0 40 100 134 144 134 6 0 18 5 26 10 13
8 12 11 -5 25 -43 33 -66 37 -91 14 -12 -11 -28 -18 -34 -14 -7 4 -18 -2 -26
-14 -8 -12 -24 -21 -35 -21 -11 0 -33 -7 -49 -15 l-29 -15 -12 40 c-9 30 -9
46 -1 65 15 32 32 32 32 0 0 -34 41 -35 64 0 13 20 25 24 78 27 68 3 84 19 39
38 -29 12 -48 11 -130 -6 -31 -6 -33 -5 -26 17 10 32 13 35 70 57 28 11 51 27
53 36 2 10 -17 35 -47 62 -30 27 -51 54 -51 66 0 18 4 20 33 13 50 -12 110
-11 114 2 2 7 -8 13 -24 15 -18 2 -35 15 -50 37 -31 46 -19 59 53 53 54 -4 56
-4 45 16 -7 13 -23 22 -44 24 -29 3 -32 6 -29 36 3 47 35 75 78 68 51 -10 94
40 62 72 -15 15 -53 16 -78 2 -16 -9 -22 -5 -35 20 -8 16 -15 33 -15 37 0 5
-13 12 -30 16 -37 9 -37 15 -2 44 27 22 27 22 10 53 -15 25 -16 40 -7 88 18
106 17 105 44 98 27 -7 45 12 24 25 -7 4 -14 24 -15 44 -1 30 4 38 23 46 14 5
23 17 23 29 0 19 -5 20 -67 18 -64 -3 -68 -2 -71 20 -2 12 0 22 5 23 4 0 28 1
53 2 56 3 114 35 118 65 4 26 -16 29 -34 5 -19 -27 -109 -21 -141 8 -30 29
-29 34 6 49 22 9 42 9 78 2 26 -6 51 -8 55 -6 4 3 5 25 1 50 -5 37 -2 51 16
75 21 28 22 32 7 55 -18 27 -44 32 -52 9 -4 -8 -12 -15 -19 -15 -20 0 -28 -19
-16 -34 13 -16 -10 -46 -34 -46 -19 0 -29 38 -15 55 11 14 5 55 -8 55 -4 0
-18 9 -32 20 l-25 19 34 35 c29 30 32 36 18 42 -10 3 -17 13 -17 21 0 9 -20
40 -45 69 -52 60 -58 98 -22 132 13 12 26 22 30 22 4 0 7 -31 7 -70 0 -56 3
-70 15 -70 8 0 15 9 15 20 0 12 22 43 50 70 47 48 51 50 104 50 30 0 58 4 61
10 9 14 52 -17 59 -43 4 -15 8 -19 16 -11 15 15 -23 97 -62 129 -32 27 -36 28
-123 10 -26 -6 -36 -1 -68 31 -20 20 -37 43 -37 49 0 7 -7 18 -15 25 -8 7 -15
23 -15 35 0 12 7 28 15 35 20 17 20 113 0 133 -8 9 -20 17 -27 19 -24 8 8 58
36 58 14 0 29 6 33 14 13 22 66 44 121 52 68 9 82 25 48 59 -14 14 -36 25 -49
25 -14 0 -27 7 -31 15 -11 28 -25 15 -28 -27 l-3 -41 -69 -25 c-84 -30 -129
-23 -134 21 -4 30 0 32 27 15 16 -10 27 -8 58 8 21 10 39 19 40 19 0 0 4 17 8
38 7 34 5 37 -15 37 -18 0 -21 4 -17 21 13 50 -59 105 -125 95 -35 -6 -38 -4
-38 18 0 13 13 38 30 56 33 35 31 50 -4 50 -46 0 -86 -55 -86 -118 0 -45 -26
-102 -46 -102 -6 0 -17 14 -25 31 -12 30 -11 33 15 52 24 17 27 24 21 57 -4
26 -2 40 9 49 10 9 13 22 9 42 -5 24 -2 29 15 29 26 0 36 29 17 50 -8 9 -15
24 -15 32 0 39 -21 61 -35 37z m-256 -184 c13 -14 39 -32 57 -41 60 -29 94
-68 94 -108 0 -29 -4 -36 -19 -36 -11 0 -23 5 -26 10 -3 6 -15 10 -25 10 -10
0 -22 9 -25 20 -5 15 -14 20 -33 18 -22 -3 -27 2 -33 30 -8 39 -36 73 -54 65
-27 -10 -36 7 -18 32 23 31 52 31 82 0z m227 -17 c8 -9 -26 -58 -41 -58 -7 0
-15 9 -18 20 -3 14 -14 20 -31 20 -23 0 -35 18 -21 32 6 6 103 -6 111 -14z
m219 -148 c3 -5 -3 -10 -14 -10 -11 0 -23 5 -26 10 -3 6 3 10 14 10 11 0 23
-4 26 -10z m-2767 -60 c-2 -19 -8 -35 -15 -37 -18 -6 -27 41 -13 67 16 30 32
12 28 -30z m697 -8 c6 -17 -2 -32 -19 -32 -12 0 -47 66 -38 74 6 7 50 -26 57
-42z m1289 40 c3 -5 2 -18 -1 -30 -4 -16 -13 -22 -34 -22 -24 0 -29 4 -29 23
0 13 3 27 7 30 9 10 51 9 57 -1z m56 -7 c0 -8 -6 -15 -14 -15 -17 0 -28 14
-19 24 12 12 33 6 33 -9z m106 -15 c21 -8 23 -12 12 -35 -6 -14 -19 -25 -29
-25 -22 0 -33 16 -19 25 6 4 9 21 6 38 -3 18 -3 26 0 19 3 -7 17 -17 30 -22z
m-2585 1 c14 -13 17 -21 9 -26 -13 -8 -40 12 -40 31 0 19 7 18 31 -5z m-436
-12 c0 -8 -12 -15 -27 -17 -32 -4 -40 23 -10 31 25 7 37 2 37 -14z m1633 0 c4
-19 -27 -34 -41 -20 -14 14 0 43 20 39 10 -2 19 -10 21 -19z m1931 12 c21 -13
6 -41 -19 -34 -24 6 -34 19 -25 33 8 12 25 13 44 1z m-3495 -10 c3 -5 -1 -14
-8 -20 -16 -13 -32 2 -21 19 8 12 22 13 29 1z m2391 -9 c0 -18 -20 -15 -23 4
-3 10 1 15 10 12 7 -3 13 -10 13 -16z m-1677 -25 c3 -13 -4 -17 -27 -17 -34 0
-40 14 -13 29 22 13 36 9 40 -12z m-1078 -2 c0 -8 -7 -15 -15 -15 -8 0 -15 7
-15 15 0 8 7 15 15 15 8 0 15 -7 15 -15z m120 -17 c0 -6 -11 -23 -25 -39 l-24
-29 -7 36 c-5 30 -3 40 11 50 19 14 45 3 45 -18z m538 4 c2 -15 -2 -22 -12
-22 -11 0 -16 9 -16 26 0 31 23 28 28 -4z m1620 6 c-5 -32 -28 -35 -28 -4 0
17 5 26 16 26 10 0 14 -7 12 -22z m1440 2 c24 -20 22 -40 -4 -40 -8 0 -17 7
-20 15 -4 9 -19 15 -35 15 -19 0 -29 5 -29 15 0 22 60 19 88 -5z m-3448 -25
c0 -8 -7 -15 -15 -15 -8 0 -15 7 -15 15 0 8 7 15 15 15 8 0 15 -7 15 -15z m73
-16 c-6 -23 -26 -34 -43 -24 -8 5 -4 15 11 31 25 27 40 24 32 -7z m2681 -2
c-3 -9 -12 -17 -20 -17 -17 0 -17 5 -3 32 13 24 33 10 23 -15z m481 24 c3 -5
1 -12 -4 -15 -12 -8 -41 3 -41 15 0 12 37 12 45 0z m385 -6 c0 -16 -35 -21
-44 -6 -8 12 4 21 26 21 10 0 18 -7 18 -15z m-650 -51 c0 -8 -7 -14 -15 -14
-17 0 -18 2 -9 24 7 18 24 12 24 -10z m-2070 -45 c0 -10 -7 -19 -15 -19 -15 0
-21 31 -9 43 11 10 24 -3 24 -24z m-339 8 c-1 -12 -15 -9 -19 4 -3 6 1 10 8 8
6 -3 11 -8 11 -12z m2107 2 c-2 -6 -8 -10 -13 -10 -5 0 -11 4 -13 10 -2 6 4
11 13 11 9 0 15 -5 13 -11z m752 -19 c0 -24 -15 -34 -35 -23 -13 8 -13 11 1
31 17 25 34 21 34 -8z m-3117 -22 c4 -20 3 -40 -2 -90 -2 -20 -22 -4 -35 27
-12 28 -13 41 -4 60 14 31 34 32 41 3z m3325 -21 c5 -25 -26 -57 -55 -57 -26
0 -29 11 -12 43 22 41 61 49 67 14z m-3658 -8 c0 -24 -23 -21 -28 4 -2 10 3
17 12 17 10 0 16 -9 16 -21z m118 -11 c-2 -13 -7 -23 -13 -23 -5 0 -11 10 -13
23 -2 15 2 22 13 22 11 0 15 -7 13 -22z m-178 -19 c0 -5 -7 -9 -15 -9 -15 0
-20 12 -9 23 8 8 24 -1 24 -14z m577 -24 c-4 -8 -13 -15 -22 -15 -21 0 -19 28
3 32 22 5 26 2 19 -17z m-700 -11 c-9 -9 -28 6 -21 18 4 6 10 6 17 -1 6 -6 8
-13 4 -17z m3577 17 c3 -5 -1 -14 -8 -20 -16 -13 -32 2 -21 19 8 12 22 13 29
1z m-3684 -62 c0 -3 -6 -12 -14 -18 -22 -18 -41 11 -25 40 11 22 12 22 25 4 8
-10 14 -22 14 -26z m3978 -121 c-6 -18 -28 -21 -28 -4 0 9 7 16 16 16 9 0 14
-5 12 -12z m-111 -294 c7 -20 -17 -37 -34 -23 -15 13 -6 39 13 39 8 0 17 -7
21 -16z m133 -249 c0 -8 -9 -15 -20 -15 -11 0 -20 7 -20 15 0 8 9 15 20 15 11
0 20 -7 20 -15z m8 -116 c-2 -6 -8 -10 -13 -10 -5 0 -11 4 -13 10 -2 6 4 11
13 11 9 0 15 -5 13 -11z m62 -34 c0 -8 -4 -15 -9 -15 -13 0 -22 16 -14 24 11
11 23 6 23 -9z m-52 -323 c2 -7 -3 -12 -12 -12 -9 0 -16 7 -16 16 0 17 22 14
28 -4z m-218 -123 c0 -5 -7 -9 -15 -9 -15 0 -20 12 -9 23 8 8 24 -1 24 -14z
m213 -81 c5 -16 -9 -58 -20 -58 -24 1 -33 18 -24 43 11 28 35 36 44 15z m115
-260 c17 -34 29 -64 28 -66 -2 -1 -19 -5 -37 -8 -25 -3 -41 1 -61 18 -24 20
-26 28 -21 65 5 40 13 48 49 52 6 0 25 -27 42 -61z m-97 -263 c0 -5 -9 -11
-21 -13 -20 -3 -27 8 -13 22 10 9 34 3 34 -9z m-83 -207 c-6 -18 -28 -21 -28
-4 0 9 7 16 16 16 9 0 14 -5 12 -12z m66 -296 c2 -4 -5 -22 -16 -40 -22 -35
-61 -44 -72 -16 -8 21 1 34 23 34 10 0 24 7 31 15 14 17 26 19 34 7z m-306
-843 c-2 -6 -8 -10 -13 -10 -5 0 -11 4 -13 10 -2 6 4 11 13 11 9 0 15 -5 13
-11z m60 -11 c-2 -13 -7 -23 -13 -23 -5 0 -11 10 -13 23 -2 15 2 22 13 22 11
0 15 -7 13 -22z m-72 -179 c21 -23 11 -51 -21 -57 -22 -5 -35 14 -35 51 0 33
28 37 56 6z"/>
<path d="M12360 7115 c0 -17 2 -18 24 -9 23 9 20 24 -4 24 -11 0 -20 -7 -20
-15z"/>
<path d="M9836 7403 c-11 -11 -6 -23 9 -23 8 0 15 4 15 9 0 13 -16 22 -24 14z"/>
<path d="M4467 7394 c-8 -8 1 -24 14 -24 5 0 9 7 9 15 0 15 -12 20 -23 9z"/>
<path d="M3076 7371 c-11 -12 -16 -24 -12 -28 9 -9 39 22 34 37 -2 7 -10 4
-22 -9z"/>
<path d="M10201 7376 c-12 -7 -34 -11 -48 -8 -22 4 -24 2 -21 -24 3 -29 11
-33 100 -51 37 -7 45 16 24 62 -19 39 -21 40 -55 21z"/>
<path d="M10910 7366 c0 -17 5 -26 16 -26 10 0 14 7 12 22 -5 32 -28 35 -28 4z"/>
<path d="M2970 7361 c0 -11 4 -21 9 -21 18 0 21 18 6 30 -13 10 -15 9 -15 -9z"/>
<path d="M9950 7365 c-10 -12 -10 -19 -1 -28 14 -14 46 2 46 24 0 20 -30 23
-45 4z"/>
<path d="M4050 7362 c0 -13 25 -22 57 -22 15 0 23 5 21 13 -5 14 -78 23 -78 9z"/>
<path d="M2327 7334 c-3 -3 -1 -17 5 -30 8 -18 17 -22 33 -18 32 8 85 -39 85
-76 0 -19 6 -29 20 -33 15 -4 20 -14 20 -36 0 -24 4 -31 20 -31 19 0 27 -19
14 -32 -3 -4 -22 1 -42 9 -20 9 -51 15 -69 14 -17 -1 -34 3 -38 9 -9 15 -28
12 -22 -4 7 -17 -65 -96 -87 -96 -7 0 -16 6 -19 14 -3 8 -18 16 -34 18 -26 3
-28 7 -31 50 -3 45 -5 48 -38 54 -42 8 -56 -2 -22 -15 24 -9 26 -14 26 -75 l0
-65 -39 -19 c-34 -17 -40 -17 -51 -5 -14 18 -62 11 -84 -12 -21 -21 -31 -19
-58 10 -16 17 -29 22 -44 18 -42 -11 -17 34 36 65 33 19 54 16 47 -8 -6 -19
-5 -19 29 -5 33 14 36 14 46 -5 14 -26 30 -17 30 17 0 21 -4 24 -21 20 -30 -8
-48 1 -64 33 -11 22 -20 27 -49 26 -48 -2 -75 -29 -58 -56 16 -27 16 -28 -15
-32 -21 -2 -29 -9 -31 -28 -2 -14 -8 -30 -14 -37 -10 -13 26 -38 41 -29 5 3
14 -1 21 -9 7 -8 28 -15 46 -15 28 0 36 -5 44 -25 5 -14 14 -25 19 -25 15 0
41 -30 41 -46 0 -8 -11 -19 -25 -24 -31 -12 -32 -28 -2 -39 17 -7 7 -10 -45
-16 -74 -8 -118 8 -118 43 1 16 1 16 11 0 11 -19 64 -25 74 -8 13 21 -15 50
-50 50 -21 0 -37 6 -43 16 -16 28 -46 12 -58 -31 -8 -32 -16 -41 -36 -43 -19
-2 -27 2 -31 19 -5 20 -9 18 -47 -22 -48 -50 -68 -114 -34 -107 11 2 23 16 28
35 18 59 61 51 61 -10 0 -32 1 -32 60 -38 73 -8 242 -35 310 -49 27 -6 86 -11
131 -12 79 -2 83 -1 118 30 l37 32 268 0 c252 0 270 -1 293 -20 25 -19 25 -19
44 1 14 15 28 19 63 17 39 -3 46 -6 49 -25 4 -28 22 -30 29 -3 6 23 53 27 110
11 21 -6 35 -6 39 0 4 6 45 8 107 4 282 -16 1195 -18 1637 -4 386 13 506 22
552 43 36 15 38 15 48 -3 5 -11 26 -25 46 -31 45 -15 89 1 107 38 23 50 101
54 103 6 0 -11 6 -32 12 -47 7 -16 12 -32 12 -37 0 -9 25 -20 45 -20 7 0 18
14 25 30 7 17 16 30 21 30 5 0 14 11 19 25 8 22 13 24 30 15 17 -9 21 -8 27 7
3 10 8 21 10 26 2 4 -8 12 -22 17 -19 7 -25 15 -21 26 3 9 6 22 6 30 0 8 7 14
15 14 17 0 20 26 4 35 -6 4 -13 -1 -15 -12 -3 -10 -15 -23 -27 -28 -15 -7 -23
-21 -25 -45 -6 -61 -18 -63 -76 -17 -83 66 -114 137 -61 137 l26 0 -33 45
c-18 24 -41 44 -50 45 -19 0 -25 -25 -8 -35 6 -3 10 -20 10 -36 0 -28 -2 -30
-32 -27 -18 2 -33 -2 -35 -9 -3 -7 2 -13 10 -13 8 0 20 -6 26 -13 8 -11 7 -18
-7 -29 -26 -24 -94 -49 -111 -42 -9 4 -35 7 -58 8 -24 1 -48 7 -54 13 -15 15
-14 82 1 97 9 9 15 46 7 46 -9 0 -126 -44 -150 -56 -15 -8 -32 -26 -37 -39
-12 -31 -93 -47 -117 -22 -14 13 -13 16 6 27 12 6 30 8 40 5 13 -4 24 2 35 20
15 23 15 28 1 55 -17 33 -36 38 -55 15 -20 -24 -39 -17 -57 20 -10 20 -24 35
-34 35 -25 0 -32 -15 -14 -30 8 -7 15 -23 15 -36 0 -21 -4 -23 -47 -22 -67 2
-87 -7 -105 -46 -29 -59 -128 -76 -128 -21 0 13 -8 28 -17 34 -15 8 -16 13 -5
30 6 12 12 34 12 51 0 29 -2 30 -41 30 -36 0 -40 -2 -29 -15 19 -23 -2 -65
-32 -65 -23 0 -98 -44 -98 -58 0 -14 16 -30 33 -33 32 -7 19 -24 -25 -32 -24
-5 -47 -13 -52 -18 -6 -5 -18 -9 -28 -9 -22 0 -24 46 -6 115 10 36 9 52 -1 81
-11 30 -11 38 0 45 12 7 12 12 1 30 -11 18 -11 23 4 34 17 12 16 13 -5 20 -12
4 -27 18 -33 31 -6 13 -22 31 -35 39 -22 15 -25 14 -51 -13 -15 -16 -38 -48
-52 -71 -26 -45 -61 -61 -85 -41 -10 8 -15 9 -15 2 0 -6 -25 -12 -57 -14 -46
-2 -60 -7 -68 -23 -27 -53 -58 -86 -79 -83 -19 3 -21 9 -21 73 0 69 -1 70 -27
73 -21 3 -27 9 -30 30 -2 16 -9 27 -18 27 -12 0 -14 -10 -12 -47 3 -37 0 -49
-13 -54 -26 -10 -87 23 -151 82 -33 29 -62 53 -66 54 -21 1 -45 -39 -41 -66 7
-36 40 -74 65 -74 23 0 24 -27 1 -34 -10 -3 -34 -2 -53 3 -19 5 -39 10 -45 11
-25 6 -44 -2 -50 -20 -4 -13 -15 -20 -30 -20 -19 0 -24 7 -30 41 -4 24 -2 52
5 69 14 34 8 60 -14 60 -29 0 -85 -44 -86 -68 0 -19 -5 -23 -27 -20 -26 3 -28
7 -33 58 -5 51 -7 55 -31 58 -50 6 -86 72 -49 92 29 15 25 34 -5 26 -21 -5
-31 0 -51 24 -33 39 -74 42 -74 5 0 -32 -5 -31 -42 5 -23 24 -38 30 -72 30
-37 0 -43 -3 -53 -30 -15 -40 -56 -50 -88 -20 -29 28 -69 24 -73 -7 -2 -13 -6
-23 -10 -23 -4 0 -31 -22 -61 -50 -30 -27 -59 -50 -65 -50 -6 0 -20 14 -31 30
-26 38 -48 40 -43 3 3 -27 2 -28 -55 -31 -40 -2 -70 2 -97 15 -33 15 -38 22
-33 44 3 18 0 28 -11 32 -9 4 -16 13 -16 20 0 8 -7 20 -15 27 -8 7 -15 23 -15
36 0 26 -7 29 -29 15 -10 -6 -22 -5 -35 5 -21 15 -48 18 -59 8z m839 -95 c4
-7 -1 -16 -10 -21 -11 -6 -15 -16 -11 -29 9 -26 -22 -37 -38 -14 -7 9 -22 15
-32 13 -12 -2 -21 4 -23 16 -3 16 1 17 38 11 37 -6 42 -5 47 14 6 23 18 27 29
10z m37 -64 c1 -5 -6 -11 -15 -13 -11 -2 -18 3 -18 13 0 17 30 18 33 0z m-281
-27 c-9 -9 -12 -7 -12 12 0 19 3 21 12 12 9 -9 9 -15 0 -24z m-484 -119 c18
-17 29 -35 26 -40 -9 -15 -44 -10 -44 6 0 9 -7 18 -15 21 -15 6 -21 44 -7 44
5 0 23 -14 40 -31z m2080 15 c20 -6 32 -34 14 -34 -4 0 -12 -10 -17 -22 -13
-30 -34 -32 -65 -9 l-25 20 24 25 c26 27 33 29 69 20z m-58 -104 c0 -6 -7 -13
-15 -16 -20 -8 -48 3 -40 16 8 13 55 13 55 0z m-456 -42 c7 -12 7 -21 0 -28
-13 -13 -74 18 -74 38 0 19 61 11 74 -10z m-1834 4 c0 -4 -9 -13 -20 -20 -16
-10 -20 -10 -20 1 0 8 3 17 7 20 9 9 33 9 33 -1z m2204 -8 c19 -7 21 -30 3
-37 -20 -8 -41 9 -34 27 7 18 9 18 31 10z m-2188 -75 c3 -6 1 -16 -4 -21 -13
-13 -45 8 -36 23 7 12 31 11 40 -2z m1968 -46 c8 -21 -10 -41 -24 -27 -11 11
-3 44 10 44 4 0 11 -8 14 -17z m1296 -65 c0 -23 -4 -28 -26 -28 -23 0 -63 33
-64 53 0 4 9 16 21 28 l21 21 24 -23 c14 -13 24 -34 24 -51z m-399 9 c-13 -13
-26 -3 -16 12 3 6 11 8 17 5 6 -4 6 -10 -1 -17z m90 0 c-13 -13 -26 -3 -16 12
3 6 11 8 17 5 6 -4 6 -10 -1 -17z"/>
<path d="M3472 7301 c4 -13 18 -16 19 -4 0 4 -5 9 -11 12 -7 2 -11 -2 -8 -8z"/>
<path d="M4820 7294 c-11 -12 -10 -18 3 -31 13 -13 19 -14 31 -3 20 16 20 36
0 44 -21 8 -20 8 -34 -10z"/>
<path d="M9600 7302 c0 -14 39 -46 47 -38 4 4 2 15 -3 24 -12 19 -44 29 -44
14z"/>
<path d="M11276 7303 c-11 -11 -6 -23 9 -23 8 0 15 4 15 9 0 13 -16 22 -24 14z"/>
<path d="M3650 7283 c0 -10 -3 -27 -6 -38 -6 -26 22 -66 34 -47 12 17 0 94
-15 100 -7 2 -13 -4 -13 -15z"/>
<path d="M10790 7280 c0 -11 4 -20 9 -20 11 0 22 26 14 34 -12 12 -23 5 -23
-14z"/>
<path d="M11426 7284 c-4 -9 -4 -19 -2 -21 8 -8 26 8 26 23 0 19 -16 18 -24
-2z"/>
<path d="M2713 7280 c-25 -10 -31 -30 -9 -30 8 0 16 -7 20 -15 6 -15 69 -21
100 -9 21 8 20 41 -1 47 -44 12 -90 15 -110 7z"/>
<path d="M2006 7272 c-3 -6 -1 -14 5 -17 15 -10 25 3 12 16 -7 7 -13 7 -17 1z"/>
<path d="M9699 7261 c-23 -18 -23 -20 -5 -27 20 -8 69 14 70 31 2 19 -40 16
-65 -4z"/>
<path d="M3590 7245 c0 -15 6 -25 14 -25 22 0 30 19 16 35 -18 22 -30 18 -30
-10z"/>
<path d="M11690 7251 c0 -28 17 -35 29 -12 15 27 14 31 -9 31 -13 0 -20 -7
-20 -19z"/>
<path d="M3927 7243 c-10 -9 -8 -81 2 -87 12 -8 65 70 56 83 -7 12 -48 15 -58
4z"/>
<path d="M9855 7240 c-8 -12 20 -24 35 -15 5 3 10 10 10 16 0 12 -37 12 -45
-1z"/>
<path d="M2364 7227 c-8 -21 2 -35 16 -21 5 5 6 15 0 24 -8 12 -10 12 -16 -3z"/>
<path d="M10347 7233 c-17 -16 -5 -33 23 -33 23 0 30 -4 30 -20 0 -23 -11 -33
-70 -64 -52 -26 -57 -40 -15 -44 37 -4 117 50 146 98 19 30 19 33 3 51 -12 14
-31 19 -64 19 -26 0 -50 -3 -53 -7z"/>
<path d="M10838 7229 c-29 -16 -22 -39 11 -39 29 0 61 22 61 41 0 12 -50 11
-72 -2z"/>
<path d="M3434 7192 c21 -41 44 -58 58 -44 7 7 23 12 38 12 42 0 54 14 30 35
-17 16 -25 17 -40 7 -26 -16 -45 -15 -60 3 -7 8 -19 15 -26 15 -12 0 -12 -4 0
-28z"/>
<path d="M9617 7200 c-31 -36 -15 -57 16 -22 18 19 23 42 9 42 -4 0 -15 -9
-25 -20z"/>
<path d="M10650 7205 c0 -8 9 -15 19 -15 11 0 22 -8 25 -18 4 -11 17 -25 30
-31 21 -12 27 -10 45 8 29 29 27 44 -6 37 -19 -4 -41 1 -65 14 -45 24 -48 24
-48 5z"/>
<path d="M11935 7210 c-4 -6 -3 -16 3 -22 6 -6 12 -6 17 2 4 6 3 16 -3 22 -6
6 -12 6 -17 -2z"/>
<path d="M12770 7199 c-8 -14 -9 -24 -2 -31 14 -14 32 -1 32 22 0 28 -17 33
-30 9z"/>
<path d="M4313 7194 c-7 -20 4 -30 45 -39 25 -5 33 -3 39 11 4 11 0 22 -12 30
-25 19 -64 18 -72 -2z"/>
<path d="M10023 7193 c-20 -7 -15 -26 12 -51 l25 -24 10 28 c18 45 -3 65 -47
47z"/>
<path d="M2274 7178 c-3 -5 3 -12 15 -15 12 -3 21 -9 21 -14 0 -5 7 -9 15 -9
12 0 13 4 6 19 -12 21 -48 34 -57 19z"/>
<path d="M10520 7176 c0 -8 7 -17 16 -20 19 -7 47 12 38 25 -9 15 -54 10 -54
-5z"/>
<path d="M11000 7174 c0 -10 7 -14 22 -12 32 5 35 28 4 28 -17 0 -26 -5 -26
-16z"/>
<path d="M1825 7168 c-4 -10 -4 -26 0 -35 8 -17 8 -17 12 0 3 9 3 25 0 35 -4
16 -4 16 -12 0z"/>
<path d="M2424 7155 c-7 -17 4 -37 17 -30 12 8 12 45 -1 45 -6 0 -13 -7 -16
-15z"/>
<path d="M4617 7153 c-3 -5 -2 -15 2 -22 7 -10 10 -10 16 -1 4 6 3 16 -3 22
-5 5 -12 6 -15 1z"/>
<path d="M5024 7152 c-38 -26 -57 -95 -32 -120 8 -8 8 -15 -3 -29 -13 -16 -12
-17 3 -5 14 11 21 10 45 -5 15 -9 32 -22 36 -28 5 -5 5 1 1 15 -15 53 -13 55
56 55 85 0 87 20 5 50 -42 16 -64 30 -73 49 -14 27 -20 30 -38 18z"/>
<path d="M10136 7153 c-11 -11 -6 -23 9 -23 8 0 15 4 15 9 0 13 -16 22 -24 14z"/>
<path d="M11504 7134 c-4 -17 -2 -29 7 -35 23 -14 39 -10 39 10 0 52 -35 71
-46 25z"/>
<path d="M2200 7142 c0 -17 37 -42 63 -42 36 0 34 15 -5 34 -34 18 -58 21 -58
8z"/>
<path d="M9145 7141 c-10 -17 12 -21 25 -6 10 12 10 15 -3 15 -9 0 -18 -4 -22
-9z"/>
<path d="M4224 7115 c-10 -26 6 -38 27 -19 10 9 16 21 13 25 -8 14 -34 10 -40
-6z"/>
<path d="M5355 7119 c-4 -6 -4 -13 -1 -16 8 -8 36 5 36 17 0 13 -27 13 -35 -1z"/>
<path d="M8953 7118 c-30 -14 -29 -38 0 -38 25 0 47 17 47 37 0 15 -17 16 -47
1z"/>
<path d="M11025 7121 c-3 -5 3 -12 14 -16 11 -3 21 -16 23 -27 4 -27 28 -36
28 -11 0 10 -11 28 -24 41 -26 24 -32 26 -41 13z"/>
<path d="M11175 7110 c-8 -13 3 -68 15 -75 11 -7 31 52 24 70 -7 17 -30 20
-39 5z"/>
<path d="M3685 7091 c-6 -11 9 -23 19 -14 9 9 7 23 -3 23 -6 0 -12 -4 -16 -9z"/>
<path d="M8056 7067 c-25 -62 -28 -77 -14 -77 18 0 48 52 48 84 0 36 -17 32
-34 -7z"/>
<path d="M11430 7085 c0 -8 5 -15 10 -15 6 0 10 7 10 15 0 8 -4 15 -10 15 -5
0 -10 -7 -10 -15z"/>
<path d="M4796 7048 c-3 -13 -2 -26 2 -30 16 -16 52 4 52 28 0 33 -45 34 -54
2z"/>
<path d="M10140 7053 c0 -13 5 -23 10 -23 13 0 13 11 0 30 -8 12 -10 11 -10
-7z"/>
<path d="M12860 7046 c0 -15 18 -31 26 -23 7 7 -7 37 -17 37 -5 0 -9 -6 -9
-14z"/>
<path d="M7200 7026 c0 -9 7 -16 16 -16 9 0 14 5 12 12 -6 18 -28 21 -28 4z"/>
<path d="M7280 7030 c0 -6 7 -13 15 -16 8 -4 15 -18 15 -33 0 -21 -9 -30 -41
-45 -29 -13 -45 -29 -56 -55 -8 -20 -22 -40 -30 -44 -13 -8 -12 -12 5 -30 11
-12 20 -37 20 -55 1 -28 -4 -34 -35 -47 -29 -12 -38 -13 -44 -3 -4 7 -12 9
-16 4 -4 -4 0 -14 10 -21 27 -20 6 -52 -38 -61 -19 -3 -35 -10 -35 -14 0 -22
119 -27 158 -6 15 7 48 19 75 25 42 10 49 9 67 -9 11 -11 29 -20 40 -20 32 0
70 22 70 41 0 24 -19 34 -26 15 -3 -9 -13 -16 -21 -16 -21 0 -73 55 -73 79 0
25 -26 51 -51 51 -25 0 -35 25 -21 55 8 18 8 26 -3 35 -8 7 -12 16 -9 21 8 14
50 10 64 -6 7 -8 21 -15 31 -15 11 0 19 -7 19 -15 0 -8 -7 -15 -15 -15 -8 0
-15 -7 -15 -15 0 -8 6 -15 14 -15 18 0 30 -33 21 -60 -7 -22 -2 -24 25 -10 13
7 21 6 30 -5 7 -8 23 -15 37 -15 16 0 29 -10 41 -30 19 -33 37 -39 46 -15 7
18 71 20 113 4 51 -20 127 7 190 66 48 46 54 56 51 86 -3 32 -5 34 -43 34 -34
0 -40 -3 -43 -23 -2 -13 3 -25 12 -28 36 -14 7 -46 -64 -71 -29 -10 -37 -10
-52 4 -10 9 -18 26 -18 38 0 35 -11 36 -42 3 -24 -26 -33 -30 -64 -25 -30 5
-37 3 -41 -13 -3 -11 -11 -20 -18 -20 -21 0 -117 99 -111 115 3 8 -1 21 -10
29 -9 9 -10 17 -4 21 17 11 11 25 -16 35 -32 13 -28 40 9 58 34 17 26 32 -17
32 -19 0 -39 7 -46 15 -14 17 -60 21 -60 5z m9 -329 c9 -6 10 -10 2 -16 -16
-9 -44 2 -36 15 8 12 16 12 34 1z"/>
<path d="M5855 7010 c10 -11 23 -20 28 -20 6 0 2 9 -8 20 -10 11 -23 20 -28
20 -6 0 -2 -9 8 -20z"/>
<path d="M1723 7013 c-20 -8 -15 -23 7 -23 11 0 20 7 20 15 0 15 -6 17 -27 8z"/>
<path d="M7817 7004 c-8 -8 1 -24 14 -24 5 0 9 7 9 15 0 15 -12 20 -23 9z"/>
<path d="M8605 6980 c-8 -12 34 -60 53 -60 19 0 14 28 -8 50 -22 22 -36 25
-45 10z"/>
<path d="M4912 6954 c4 -33 32 -54 49 -37 9 9 6 18 -12 37 -31 33 -41 33 -37
0z"/>
<path d="M6917 6973 c-13 -12 -7 -23 11 -23 24 0 45 -43 29 -59 -6 -6 -19 -11
-29 -11 -16 0 -17 -3 -8 -20 9 -17 14 -18 30 -8 15 10 22 10 31 1 18 -18 -5
-63 -31 -63 -24 0 -25 -6 -6 -26 20 -20 30 -18 57 11 32 33 54 31 88 -7 l29
-33 8 29 c6 25 3 33 -20 51 -15 12 -33 32 -39 45 -7 12 -28 28 -47 34 -41 13
-53 44 -21 53 32 8 25 20 -16 27 -49 8 -58 7 -66 -1z"/>
<path d="M4650 6966 c0 -16 40 -47 57 -44 28 5 23 34 -6 30 -13 -1 -30 3 -37
9 -8 6 -14 8 -14 5z"/>
<path d="M5634 6946 c-3 -14 -2 -35 2 -48 6 -21 8 -20 19 17 6 22 10 43 8 48
-8 15 -23 6 -29 -17z"/>
<path d="M7526 6882 c-3 -5 1 -15 9 -22 8 -7 15 -19 15 -26 0 -8 5 -14 10 -14
6 0 10 7 10 15 0 21 -36 59 -44 47z"/>
<path d="M8356 6871 c-10 -16 6 -69 26 -88 14 -13 23 -15 36 -7 30 19 26 50
-11 78 -37 28 -43 30 -51 17z"/>
<path d="M8228 6838 c-10 -15 -24 -22 -41 -20 -16 1 -30 -6 -40 -21 -8 -12
-32 -31 -53 -41 -55 -28 -94 -66 -94 -92 0 -38 17 -36 37 3 18 37 19 38 83 41
88 4 108 -2 112 -36 2 -21 9 -28 31 -30 36 -4 46 22 24 60 -11 19 -17 52 -17
94 0 70 -14 84 -42 42z"/>
<path d="M6120 6815 c0 -14 38 -46 44 -37 3 5 -5 17 -19 26 -14 9 -25 14 -25
11z"/>
<path d="M6360 6759 l0 -43 21 22 c23 26 22 55 -4 60 -14 3 -17 -4 -17 -39z"/>
<path d="M6687 6782 c-21 -23 -22 -38 -3 -45 17 -7 61 37 51 52 -10 16 -30 13
-48 -7z"/>
<path d="M6910 6721 c0 -17 85 -91 105 -91 15 0 16 3 7 12 -7 7 -12 22 -12 34
0 17 -8 24 -30 29 -16 4 -32 11 -35 16 -8 12 -35 12 -35 0z"/>
<path d="M12946 6705 c28 -26 36 -29 47 -18 7 7 -46 43 -64 43 -5 0 2 -11 17
-25z"/>
<path d="M6125 6700 c-9 -15 -6 -18 35 -22 26 -2 35 1 35 12 0 18 -60 27 -70
10z"/>
<path d="M6250 6670 c-8 -5 -12 -11 -10 -13 10 -7 88 -27 108 -27 23 0 39 18
26 30 -14 12 -108 21 -124 10z"/>
<path d="M8397 6674 c-8 -8 1 -24 14 -24 5 0 9 7 9 15 0 15 -12 20 -23 9z"/>
<path d="M6063 6663 c-23 -9 -14 -43 14 -54 33 -12 53 -5 53 19 0 33 -31 50
-67 35z"/>
<path d="M1642 6641 c4 -13 18 -16 19 -4 0 4 -5 9 -11 12 -7 2 -11 -2 -8 -8z"/>
<path d="M13016 6611 c-7 -11 3 -41 14 -41 12 0 40 36 33 43 -9 10 -41 8 -47
-2z"/>
<path d="M12890 6557 c0 -59 18 -94 44 -84 23 9 21 62 -5 103 -11 19 -25 34
-30 34 -5 0 -9 -24 -9 -53z"/>
<path d="M11098 6583 c-2 -5 -1 -26 3 -48 l6 -40 2 48 c1 44 -3 57 -11 40z"/>
<path d="M2727 6564 c-8 -8 1 -24 14 -24 5 0 9 7 9 15 0 15 -12 20 -23 9z"/>
<path d="M12891 6228 c-43 -45 -50 -72 -27 -103 13 -18 14 -18 45 4 33 24 61
77 61 117 0 37 -32 30 -79 -18z"/>
<path d="M1032 6218 c-17 -17 -15 -55 4 -62 24 -9 34 2 34 40 0 35 -16 44 -38
22z"/>
<path d="M883 6169 c-15 -15 1 -49 23 -49 11 0 14 8 12 27 -3 30 -18 39 -35
22z"/>
<path d="M13006 6126 c-4 -18 -4 -41 0 -50 12 -30 29 -10 32 37 2 36 0 47 -11
47 -9 0 -17 -14 -21 -34z"/>
<path d="M13137 6104 c-8 -8 1 -24 14 -24 5 0 9 7 9 15 0 15 -12 20 -23 9z"/>
<path d="M1031 6071 c-10 -6 -9 -10 3 -14 8 -3 18 -2 21 3 8 13 -9 20 -24 11z"/>
<path d="M919 5941 c-32 -32 -37 -56 -14 -65 8 -3 15 -12 15 -21 0 -21 -56
-20 -64 2 -5 12 -10 13 -17 6 -15 -15 -2 -35 45 -72 45 -36 66 -39 66 -11 0
13 10 24 26 30 28 11 26 19 -18 63 -23 23 -23 29 2 57 19 22 19 40 -1 40 -6 0
-24 -13 -40 -29z"/>
<path d="M1062 5731 c-20 -12 -10 -46 13 -46 14 0 20 7 20 24 0 27 -13 35 -33
22z"/>
<path d="M960 5635 c-29 -31 -21 -40 36 -38 39 1 44 -1 44 -20 -1 -12 -7 -33
-15 -47 -7 -14 -11 -37 -8 -52 3 -17 -1 -37 -11 -53 -16 -24 -16 -25 9 -25 31
0 58 -47 53 -93 -3 -31 -4 -32 -60 -35 -63 -3 -71 5 -37 39 19 19 20 23 6 36
-20 20 -45 10 -57 -22 -6 -15 -17 -25 -30 -25 -13 0 -20 -7 -20 -20 0 -16 7
-20 33 -21 31 -2 31 -2 3 -6 -17 -3 -30 -12 -33 -24 -3 -10 -12 -19 -19 -19
-8 0 -14 -7 -14 -15 0 -13 4 -14 20 -5 13 7 33 7 62 1 34 -8 44 -7 51 5 24 42
55 -7 43 -69 -5 -27 -2 -38 17 -55 15 -14 30 -20 40 -16 26 10 20 34 -8 34
-20 0 -25 5 -25 26 0 14 7 32 15 40 8 9 15 31 15 49 0 20 11 50 25 71 39 57
30 116 -19 128 -35 9 -38 28 -10 97 27 71 29 94 12 132 -18 38 -83 39 -118 2z"/>
<path d="M13050 5635 c0 -8 9 -19 21 -25 20 -11 20 -11 4 14 -20 30 -25 32
-25 11z"/>
<path d="M13045 5561 c-3 -5 -1 -12 5 -16 12 -7 30 2 30 16 0 12 -27 12 -35 0z"/>
<path d="M13015 5487 c-4 -10 -5 -21 -1 -24 10 -10 18 4 13 24 -4 17 -4 17
-12 0z"/>
<path d="M12963 5384 c-7 -3 -10 -18 -6 -38 6 -41 -11 -55 -38 -30 -15 14 -22
15 -32 5 -9 -9 -7 -13 11 -17 12 -4 22 -10 22 -14 0 -5 16 -14 35 -20 39 -13
34 -15 98 57 18 20 17 21 -16 42 -34 21 -51 24 -74 15z"/>
<path d="M13165 5321 c-7 -12 12 -24 25 -16 11 7 4 25 -10 25 -5 0 -11 -4 -15
-9z"/>
<path d="M12975 5208 c4 -24 11 -52 16 -63 7 -19 8 -19 8 2 1 12 6 25 11 28
15 9 12 42 -6 59 -27 28 -36 19 -29 -26z"/>
<path d="M13032 5198 c5 -15 28 -18 29 -3 0 6 -7 12 -17 13 -10 3 -15 -1 -12
-10z"/>
<path d="M13130 5195 c0 -8 7 -15 15 -15 8 0 15 7 15 15 0 8 -7 15 -15 15 -8
0 -15 -7 -15 -15z"/>
<path d="M980 4935 c0 -27 1 -28 24 -19 12 5 13 10 5 25 -14 27 -29 24 -29 -6z"/>
<path d="M1036 4931 c-3 -5 1 -14 8 -20 16 -13 32 2 21 19 -8 12 -22 13 -29 1z"/>
<path d="M12976 4841 c-7 -11 22 -23 36 -15 6 4 5 10 -3 15 -18 11 -26 11 -33
0z"/>
<path d="M13021 4696 c-20 -24 -9 -51 19 -51 21 0 25 5 25 30 0 34 -24 45 -44
21z"/>
<path d="M12925 4690 c-8 -13 4 -32 16 -25 12 8 12 35 0 35 -6 0 -13 -4 -16
-10z"/>
<path d="M13136 4634 c-7 -19 13 -66 32 -72 10 -3 12 7 10 39 -3 46 -29 66
-42 33z"/>
<path d="M12986 4603 c-12 -13 -6 -53 9 -53 9 0 15 9 15 24 0 26 -12 40 -24
29z"/>
<path d="M987 4563 c-4 -3 -7 -15 -7 -25 0 -28 34 -19 38 10 3 21 -16 31 -31
15z"/>
<path d="M13042 4554 c3 -19 34 -41 43 -32 9 9 -18 48 -33 48 -7 0 -12 -7 -10
-16z"/>
<path d="M790 4435 c-17 -18 -21 -28 -13 -36 15 -15 53 6 53 31 0 30 -15 32
-40 5z"/>
<path d="M865 4330 c-4 -6 -6 -30 -5 -53 3 -72 5 -70 -49 -62 -91 12 -62 -32
32 -49 21 -4 40 -14 43 -22 15 -50 13 -48 32 -30 23 20 61 21 68 1 7 -17 37
-20 65 -5 23 13 25 33 4 50 -9 7 -13 21 -10 30 3 9 -1 23 -10 30 -14 11 -13
16 4 46 l20 33 -32 -6 c-18 -3 -42 -17 -54 -30 -25 -26 -35 -28 -64 -13 -13 7
-19 21 -19 45 0 35 -14 54 -25 35z"/>
<path d="M13096 4318 c-22 -31 -20 -58 3 -58 20 0 31 18 31 50 0 29 -17 33
-34 8z"/>
<path d="M12907 4292 c-20 -21 -22 -38 -6 -48 11 -6 69 42 69 58 0 15 -47 8
-63 -10z"/>
<path d="M12834 4164 c3 -9 6 -18 6 -20 0 -2 7 -4 15 -4 13 0 14 4 5 20 -13
24 -35 27 -26 4z"/>
<path d="M755 4089 c-4 -6 -4 -13 -1 -16 8 -8 36 5 36 17 0 13 -27 13 -35 -1z"/>
<path d="M957 4064 c-10 -10 -9 -44 2 -44 13 0 23 32 13 42 -5 5 -11 5 -15 2z"/>
<path d="M1019 4010 c-45 -24 -60 -42 -68 -83 -6 -28 -11 -32 -41 -35 -35 -4
-85 -45 -75 -62 3 -5 1 -19 -5 -31 -10 -17 -8 -21 7 -25 22 -6 57 -76 76 -154
l13 -55 40 0 c35 0 39 -3 42 -27 3 -22 -2 -30 -23 -38 -14 -5 -29 -9 -33 -9
-18 3 -32 -2 -32 -10 0 -6 15 -11 33 -13 31 -3 32 -4 30 -47 -1 -24 -5 -46 -8
-49 -11 -11 -40 15 -38 34 3 29 -29 66 -50 58 -9 -3 -17 -12 -17 -19 0 -25 19
-65 31 -65 15 0 38 -30 39 -50 0 -9 -7 -26 -16 -38 -14 -21 -17 -21 -45 -6
-24 12 -34 13 -45 4 -17 -15 -44 -6 -44 14 0 8 8 20 18 25 15 10 15 10 -3 11
-12 0 -26 -5 -32 -11 -8 -8 -17 -8 -31 0 -15 8 -23 7 -32 -4 -20 -25 -4 -45
32 -43 30 3 33 1 30 -22 -1 -13 -8 -27 -14 -31 -18 -11 10 -39 38 -39 29 0 46
-36 38 -79 -4 -17 -1 -32 5 -36 9 -5 9 -10 1 -20 -16 -19 5 -28 30 -13 23 15
26 33 7 45 -25 15 -26 40 -1 77 27 39 59 47 79 19 10 -14 16 -15 28 -5 12 10
16 10 21 -3 6 -16 -12 -65 -24 -65 -4 0 -28 -20 -53 -45 -26 -25 -51 -45 -57
-45 -5 0 -10 -8 -10 -18 0 -23 -19 -42 -42 -42 -11 0 -18 7 -18 19 0 33 -15
32 -40 -1 -22 -30 -22 -31 -4 -42 11 -6 30 -11 43 -11 13 0 26 -6 28 -12 3 -8
-5 -13 -21 -13 -14 0 -26 -4 -26 -9 0 -13 34 -23 54 -15 10 4 16 1 16 -9 0 -9
-10 -17 -22 -19 -17 -2 -24 -11 -26 -33 -4 -29 -51 -85 -73 -85 -5 0 -19 5
-30 10 -23 13 -26 60 -4 60 8 0 15 -4 15 -10 0 -13 47 -13 55 0 11 18 -4 45
-35 58 -30 14 -50 10 -50 -11 0 -6 -11 -23 -25 -37 -24 -25 -25 -28 -10 -56 8
-16 15 -46 15 -66 0 -31 -8 -45 -45 -84 -25 -25 -45 -49 -45 -53 0 -15 40 -84
56 -95 21 -16 11 -53 -18 -62 -21 -6 -21 -7 -4 -20 19 -13 16 -44 -4 -44 -5 0
-10 -11 -10 -25 0 -32 -32 -50 -61 -34 -15 8 -24 8 -32 0 -18 -18 -27 -13 -27
14 0 25 -13 31 -44 19 -20 -8 -21 -38 -1 -54 19 -16 19 -49 0 -74 -19 -25 -19
-36 0 -36 8 0 15 5 15 11 0 6 17 9 42 7 49 -3 61 -27 32 -60 -18 -18 -18 -20
-1 -29 19 -11 23 -39 6 -39 -6 0 -13 9 -16 20 -10 37 -47 25 -79 -25 -30 -48
-44 -45 -44 10 0 24 -6 33 -30 43 -36 16 -65 12 -65 -9 0 -9 -5 -23 -12 -30
-22 -27 -19 -43 12 -49 46 -8 44 -36 -3 -44 -49 -7 -59 -29 -29 -59 16 -16 34
-22 65 -22 60 -1 78 -21 61 -69 -7 -20 -19 -36 -26 -36 -7 0 -22 -5 -33 -12
-16 -10 -24 -9 -49 10 -37 27 -41 27 -41 2 0 -12 -10 -24 -22 -30 -21 -8 -21
-9 7 -9 40 -1 75 -27 75 -55 0 -13 7 -29 15 -36 8 -7 15 -19 15 -26 0 -8 -7
-14 -15 -14 -8 0 -15 7 -15 15 0 8 -9 15 -19 15 -23 0 -36 -16 -21 -25 5 -3
10 -15 10 -26 0 -14 -7 -19 -25 -19 -14 0 -25 -4 -25 -10 0 -5 9 -10 21 -10
13 0 23 -10 30 -29 6 -16 19 -31 30 -34 12 -3 19 -14 19 -28 0 -22 0 -22 -14
-3 -12 16 -17 17 -28 6 -11 -11 -9 -16 11 -31 25 -19 24 -51 -1 -51 -7 0 -21
-14 -30 -30 -13 -24 -14 -31 -4 -37 16 -10 36 -47 36 -67 0 -9 -8 -16 -19 -16
-10 0 -24 -7 -31 -15 -16 -19 -5 -23 78 -27 52 -3 63 0 68 15 6 20 29 23 40 5
6 -9 10 -5 15 12 14 51 10 69 -20 85 -16 8 -32 23 -35 33 -3 10 -19 23 -36 29
-32 12 -35 19 -20 43 8 12 14 12 45 -3 20 -9 41 -17 49 -17 16 0 76 -53 76
-68 0 -5 -6 -13 -12 -16 -10 -3 -8 -9 5 -19 20 -16 22 -59 5 -87 -10 -15 -9
-26 5 -54 9 -20 21 -36 26 -36 13 0 24 37 16 51 -7 11 31 59 47 59 5 0 19 -11
32 -25 l23 -25 12 27 12 26 24 -23 c22 -21 23 -25 11 -39 -8 -9 -16 -29 -18
-46 -3 -26 -6 -30 -31 -27 -31 3 -30 -5 5 -44 11 -13 23 -47 28 -81 12 -89 37
-121 69 -90 11 9 14 9 18 0 3 -7 16 -13 29 -13 31 0 41 -25 20 -49 -20 -22
-21 -41 -1 -41 8 0 39 -12 70 -26 39 -19 64 -25 86 -20 27 5 30 3 27 -16 -4
-30 -55 -44 -80 -21 -17 15 -18 15 -18 -5 0 -12 -9 -26 -20 -32 -11 -6 -20
-17 -20 -24 0 -18 43 -46 70 -46 12 0 31 -11 44 -25 13 -14 28 -25 34 -25 5 0
12 -7 16 -15 6 -17 36 -21 36 -5 0 6 -4 10 -10 10 -5 0 -10 9 -10 20 0 15 7
20 25 20 39 0 74 -28 86 -71 11 -36 62 -99 80 -99 17 0 9 24 -16 50 -28 29
-40 78 -26 100 9 12 15 10 39 -13 21 -21 38 -27 70 -27 46 0 52 -11 26 -48
-25 -37 -15 -66 25 -70 39 -4 51 9 51 54 0 37 18 45 79 37 49 -7 79 10 97 53
15 35 34 43 52 22 5 -7 12 -92 15 -188 6 -201 21 -273 64 -307 40 -32 67 -29
108 14 87 89 131 184 121 260 -14 107 -18 98 44 97 30 -1 77 -4 104 -8 50 -8
51 -10 31 -58 -5 -13 3 -18 48 -28 60 -12 74 -24 106 -88 28 -55 56 -57 66 -5
7 40 19 53 49 53 10 0 35 13 56 30 32 25 47 30 93 30 60 0 72 11 61 57 -5 17
0 34 15 53 24 33 28 99 9 130 -10 16 -10 22 4 32 9 7 18 22 20 33 5 31 44 32
52 1 3 -13 3 -31 0 -39 -4 -11 2 -16 23 -19 20 -2 29 -9 31 -26 3 -21 1 -22
-36 -16 -51 8 -60 -7 -31 -48 l23 -32 12 29 c9 22 22 31 60 41 27 7 51 10 53
8 3 -2 -5 -22 -17 -43 -29 -51 -28 -71 2 -71 14 0 28 -4 31 -10 3 -5 15 -10
27 -10 11 0 33 -8 49 -17 31 -19 49 -12 29 12 -10 12 -8 16 15 25 35 13 40 13
55 -5 20 -24 30 -18 30 18 0 19 3 36 6 40 10 10 78 -29 92 -52 18 -30 40 -27
34 4 -5 29 4 31 36 9 13 -9 30 -13 39 -10 8 4 22 1 29 -5 11 -9 11 -15 -1 -32
-8 -12 -15 -27 -15 -34 0 -18 35 -16 50 2 12 14 15 14 30 0 16 -14 50 -21 50
-9 0 3 -5 14 -11 26 -8 15 -17 18 -36 13 -17 -4 -29 -1 -34 7 -11 17 9 38 37
38 30 0 33 31 5 51 -11 8 -21 28 -22 44 -3 34 8 75 20 75 16 0 43 -40 37 -55
-4 -11 9 -31 38 -61 49 -49 61 -53 69 -25 8 31 65 33 114 4 37 -21 47 -23 75
-14 18 6 45 27 61 46 15 19 36 39 47 45 17 9 23 6 40 -22 12 -18 19 -43 17
-56 -5 -28 16 -40 38 -22 21 17 32 5 27 -29 -3 -22 1 -32 16 -40 27 -15 50 -5
68 31 18 36 13 45 -41 69 -39 17 -55 35 -55 59 0 5 28 7 63 6 62 -3 62 -3 65
-35 4 -40 18 -39 39 3 23 50 13 66 -42 66 -25 0 -45 4 -45 8 0 5 16 27 35 50
31 36 34 44 23 61 -9 15 -10 23 -1 32 8 8 22 -3 53 -40 25 -30 54 -52 70 -56
40 -9 53 -55 16 -55 -16 0 -46 -32 -46 -48 0 -26 49 -11 89 28 22 22 42 37 43
32 0 -4 2 -25 3 -47 0 -22 11 -61 22 -85 12 -25 27 -74 32 -110 6 -36 14 -80
17 -97 6 -41 45 -63 111 -63 41 0 54 5 88 37 25 23 40 46 41 62 5 88 39 181
93 255 60 81 65 83 98 42 15 -20 33 -36 39 -36 6 0 32 9 58 20 37 17 46 26 46
45 0 22 5 25 35 25 31 0 35 3 35 25 0 33 25 42 50 20 51 -46 -1 -136 -75 -133
-38 1 -51 -5 -41 -21 9 -14 69 -24 94 -17 30 10 74 52 92 87 17 36 33 40 38 9
2 -11 13 -25 25 -31 12 -6 29 -21 38 -32 19 -23 49 -17 49 10 0 10 -18 33 -40
52 -22 19 -40 40 -40 47 0 21 22 28 32 10 6 -11 17 -14 33 -10 20 5 27 1 35
-20 11 -29 25 -34 34 -11 3 9 18 15 35 15 29 0 41 14 41 51 0 28 22 23 55 -11
36 -38 98 -58 199 -66 45 -3 98 -12 119 -20 39 -15 49 -5 22 22 -20 21 -19 51
3 63 9 5 46 12 82 16 52 6 71 13 95 35 37 35 84 45 131 30 34 -11 39 -10 91
26 30 21 60 49 66 62 8 18 16 22 34 17 15 -3 30 0 38 9 19 19 19 37 0 30 -18
-7 -47 14 -39 27 17 29 87 -4 105 -48 9 -24 33 -31 44 -13 8 13 82 13 90 1 3
-6 -2 -14 -11 -19 -20 -11 -9 -36 13 -28 8 3 23 1 34 -4 26 -15 59 4 59 34 0
13 9 31 21 42 17 15 23 16 40 6 11 -7 19 -8 19 -2 0 5 9 10 20 10 24 0 28 -41
5 -60 -8 -7 -15 -19 -15 -27 0 -11 -7 -14 -21 -10 -15 4 -22 -1 -29 -19 -5
-13 -20 -29 -32 -34 -56 -23 -77 -60 -34 -60 13 0 26 -7 30 -15 9 -26 26 -17
26 14 0 17 4 32 9 35 4 3 11 19 14 34 6 31 43 50 61 32 7 -7 22 1 43 22 24 23
36 29 44 21 8 -8 8 -13 0 -17 -15 -10 -14 -26 2 -26 6 0 31 10 55 22 35 19 42
28 42 53 0 17 -6 37 -12 43 -7 7 -13 27 -14 45 -1 18 -5 42 -9 54 -6 19 -4 23
14 23 12 0 24 -7 27 -15 9 -22 67 -19 89 5 10 11 24 20 32 20 16 0 28 25 18
39 -4 7 -12 7 -24 -1 -14 -8 -25 -7 -50 5 -29 14 -31 14 -31 -2 0 -36 -54 -58
-66 -26 -8 21 -27 19 -44 -6 -40 -57 -34 -54 -69 -30 -39 28 -53 20 -23 -12
39 -42 21 -78 -40 -80 -24 -2 -33 3 -36 16 -2 12 3 20 17 24 27 7 37 40 18 61
-17 18 -111 23 -137 7 -10 -6 -12 -4 -6 10 8 22 -8 35 -46 35 -23 0 -28 -4
-28 -25 0 -14 -4 -25 -9 -25 -12 0 -25 31 -22 53 2 12 -5 17 -23 17 -14 0 -26
-4 -26 -10 0 -5 7 -10 15 -10 8 0 15 -5 15 -10 0 -16 -30 -24 -43 -11 -6 6
-19 11 -30 11 -14 0 -17 -5 -12 -20 5 -16 2 -20 -19 -20 -19 0 -27 7 -32 25
-4 18 -13 25 -31 25 -32 0 -63 -17 -63 -35 0 -12 -15 -15 -65 -15 -54 0 -66 3
-75 20 -14 26 -26 25 -33 -1 -8 -30 -27 -14 -27 22 0 25 -4 30 -21 27 -12 -2
-27 -12 -33 -23 -6 -11 -12 -22 -14 -25 -2 -3 -9 2 -16 10 -16 21 -76 51 -87
44 -5 -3 -9 -18 -9 -34 0 -24 -5 -30 -31 -35 -22 -5 -36 -2 -50 11 -19 17 -20
17 -35 -4 l-15 -22 -667 5 c-846 6 -762 4 -734 15 26 11 29 25 5 34 -10 4 -23
-1 -35 -14 -29 -31 -68 -37 -87 -13 -24 30 -76 37 -93 12 -28 -42 -158 -28
-158 18 0 23 -80 12 -116 -16 -23 -18 -35 -21 -73 -15 -25 3 -50 10 -55 15
-19 17 -56 10 -56 -10 0 -19 -10 -19 -312 -15 -172 3 -323 7 -335 10 -15 3
-23 12 -23 24 0 11 -7 20 -15 20 -8 0 -20 10 -26 23 -12 22 -13 22 -26 -11
-14 -35 -24 -39 -43 -17 -18 21 -37 19 -68 -10 -31 -29 -67 -33 -76 -8 -6 14
-9 14 -27 -6 -18 -20 -27 -21 -82 -15 -77 8 -90 19 -46 37 30 13 32 15 14 22
-11 3 -34 13 -52 20 -29 13 -34 12 -49 -3 -17 -16 -17 -17 3 -20 27 -4 47 -27
38 -43 -5 -7 -21 -9 -44 -5 -20 4 -43 6 -51 5 -82 -7 -593 -8 -746 -1 -156 7
-199 12 -211 25 -14 14 -18 14 -40 0 -37 -25 -124 -14 -155 20 -14 15 -31 27
-39 27 -10 0 -10 -3 -1 -12 26 -26 13 -38 -43 -38 -45 0 -56 4 -65 21 -19 34
-9 63 24 69 42 7 44 28 4 32 -30 3 -34 7 -42 46 -7 31 -5 49 4 68 11 19 11 27
2 36 -15 15 -15 80 -1 131 8 29 7 42 -2 53 -13 15 -8 190 12 467 8 111 7 149
-4 200 -16 70 -18 84 -17 218 0 74 -3 99 -15 109 -8 7 -15 18 -15 26 0 22 21
27 34 9 11 -16 14 -16 19 -2 3 8 -1 23 -8 34 -16 20 -20 128 -6 137 16 10 0
100 -20 115 -24 17 -26 89 -3 133 12 23 15 47 11 84 -3 28 -1 56 4 61 6 6 14
43 18 84 l8 74 -30 27 c-33 29 -32 58 3 58 12 0 18 5 15 10 -3 6 -14 10 -25
10 -15 0 -18 7 -16 42 1 23 8 44 14 46 7 2 12 25 12 58 0 50 -2 54 -27 60 -52
13 -94 45 -91 68 2 14 10 21 25 21 21 0 53 33 66 68 4 11 16 21 27 24 27 7 25
21 -5 53 -24 25 -25 28 -10 57 18 36 16 113 -4 137 -16 20 -17 20 -62 -4z m-9
-135 c0 -8 -7 -15 -15 -15 -8 0 -15 7 -15 15 0 8 7 15 15 15 8 0 15 -7 15 -15z
m-57 -45 c9 0 28 -10 43 -23 23 -20 25 -26 15 -46 -7 -12 -15 -21 -19 -18 -4
2 -22 9 -40 16 -19 8 -34 22 -38 37 -3 13 -12 29 -20 35 -12 10 -12 14 -2 20
7 5 19 2 29 -7 8 -7 23 -14 32 -14z m83 -561 c28 -17 34 -27 34 -55 0 -19 -3
-34 -7 -34 -17 0 -83 73 -83 91 0 24 14 24 56 -2z m-91 -259 c3 -5 3 -15 0
-20 -7 -12 -45 5 -45 20 0 13 37 13 45 0z m63 -82 c-2 -18 -11 -24 -37 -26
-39 -4 -66 14 -35 23 10 4 26 10 34 15 27 16 42 11 38 -12z m-68 -73 c0 -9 -9
-15 -25 -15 -16 0 -25 6 -25 15 0 9 9 15 25 15 16 0 25 -6 25 -15z m34 -91 c7
-18 -23 -74 -40 -74 -7 0 -15 -7 -18 -16 -14 -36 -17 -3 -4 50 10 47 16 56 34
56 12 0 25 -7 28 -16z m124 -32 c2 -7 -1 -12 -6 -12 -6 0 -14 -15 -17 -32 -11
-49 -15 -52 -41 -27 -30 28 -31 63 -3 83 23 15 60 9 67 -12z m-238 -93 c0 -25
-33 -22 -38 4 -2 12 3 17 17 17 15 0 21 -6 21 -21z m-180 -139 c0 -5 -11 -10
-25 -10 -14 0 -25 5 -25 10 0 6 11 10 25 10 14 0 25 -4 25 -10z m120 -111 c0
-28 -4 -39 -15 -39 -11 0 -15 11 -15 38 0 21 3 42 6 45 14 13 24 -6 24 -44z
m-80 3 c19 -16 21 -22 11 -40 -8 -16 -21 -22 -45 -22 -29 0 -34 4 -40 31 -3
17 -3 35 0 40 9 15 51 10 74 -9z m252 -24 c-13 -13 -26 8 -17 30 6 16 7 16 17
-1 7 -13 7 -22 0 -29z m-144 -98 c2 -12 -2 -27 -10 -31 -41 -27 -75 13 -37 44
27 22 43 18 47 -13z m-83 -11 c11 -17 -26 -49 -57 -49 -30 0 -44 19 -34 45 6
18 81 21 91 4z m-115 -184 c17 -20 5 -45 -20 -45 -11 0 -23 7 -26 15 -6 15 11
45 26 45 4 0 13 -7 20 -15z m-282 -47 c-2 -25 -8 -34 -26 -36 -33 -5 -41 26
-11 49 34 26 41 24 37 -13z m72 -93 c7 -8 20 -15 30 -15 10 0 20 7 24 15 7 20
52 19 74 -2 10 -10 27 -23 37 -29 10 -6 20 -15 22 -21 6 -16 -40 -3 -50 13 -4
7 -14 11 -22 8 -19 -8 -19 -24 0 -24 8 0 15 -6 15 -14 0 -8 9 -18 21 -21 15
-5 18 -10 10 -18 -7 -7 -16 -6 -29 6 -27 24 -36 22 -84 -23 -47 -43 -53 -41
-64 28 -5 33 -3 43 10 48 26 10 18 24 -14 24 -18 0 -30 5 -30 13 0 29 30 36
50 12z m-92 -35 c17 0 23 -3 16 -10 -12 -12 -86 -1 -78 12 3 5 13 7 21 4 8 -3
26 -6 41 -6z m422 -115 c10 -12 9 -16 -4 -21 -24 -9 -47 3 -40 21 8 19 28 19
44 0z m-185 -71 c26 -17 34 -57 14 -69 -5 -4 -18 0 -28 9 -10 9 -23 16 -29 16
-13 0 -26 36 -17 50 9 15 32 12 60 -6z m-139 -41 c7 -28 -8 -48 -30 -40 -21 8
-32 57 -16 67 20 12 39 1 46 -27z m8 -75 c15 -20 16 -21 34 -5 10 9 22 14 25
10 9 -8 9 -58 1 -66 -8 -8 -47 12 -57 30 -5 8 -16 11 -28 8 -24 -8 -39 23 -18
36 21 13 26 11 43 -13z m236 -44 c0 -16 -9 -18 -29 -5 -7 5 -11 14 -7 19 9 15
36 4 36 -14z m-202 -98 c2 -15 1 -35 -2 -43 -5 -12 -10 -11 -26 10 -23 29 -25
38 -8 55 18 18 33 9 36 -22z m54 19 c0 -5 -5 -11 -11 -13 -6 -2 -11 4 -11 13
0 9 5 15 11 13 6 -2 11 -8 11 -13z m232 -11 c25 -9 19 -34 -7 -34 -30 0 -40
10 -26 27 13 15 12 15 33 7z m-346 -46 c-6 -18 -28 -21 -28 -4 0 9 7 16 16 16
9 0 14 -5 12 -12z m212 -63 c0 -8 -7 -15 -15 -15 -16 0 -20 12 -8 23 11 12 23
8 23 -8z m-50 -31 c14 -42 9 -50 -19 -32 -27 16 -34 37 -20 54 18 22 27 17 39
-22z m-230 -38 c0 -34 -30 -42 -52 -14 -17 23 -17 23 10 29 15 4 30 7 35 8 4
0 7 -10 7 -23z m380 5 c5 -11 10 -22 10 -24 0 -11 -61 -28 -80 -22 -27 9 -22
39 8 43 12 2 22 8 22 13 0 17 29 9 40 -10z m-332 -54 c2 -11 -3 -17 -16 -17
-20 0 -36 23 -24 34 11 12 37 1 40 -17z m379 -147 c10 -11 25 -20 35 -20 23 0
41 -35 32 -63 -9 -29 -43 -77 -55 -77 -15 0 -10 38 7 48 29 16 7 59 -42 83
-36 17 -42 24 -33 35 16 20 36 17 56 -6z m5123 -60 c0 -5 -9 -10 -21 -10 -11
0 -17 5 -14 10 3 6 13 10 21 10 8 0 14 -4 14 -10z m-4970 -69 c0 -11 -9 -21
-22 -24 -29 -8 -32 -3 -16 22 16 26 38 27 38 2z m5551 4 c-1 -15 -24 -12 -29
3 -3 9 2 13 12 10 10 -1 17 -7 17 -13z m392 -79 c9 -3 17 -15 17 -26 0 -19 -2
-19 -32 -7 -21 9 -34 21 -36 36 -3 19 -1 21 15 12 10 -5 26 -12 36 -15z m-719
-48 c-15 -24 -54 8 -54 45 0 11 9 8 29 -11 17 -14 28 -29 25 -34z m-5231 6
c35 -40 48 -74 27 -74 -5 0 -14 9 -20 19 -5 11 -20 21 -32 23 -22 3 -43 51
-32 70 8 13 16 8 57 -38z m5017 -26 c0 -5 -7 -8 -15 -8 -15 0 -20 21 -8 33 7
7 23 -11 23 -25z m180 -33 c0 -8 -9 -15 -20 -15 -20 0 -26 11 -13 23 12 13 33
7 33 -8z m-1920 -30 c0 -8 -7 -15 -15 -15 -8 0 -15 7 -15 15 0 8 7 15 15 15 8
0 15 -7 15 -15z m1495 5 c8 -13 -20 -24 -41 -16 -20 8 -9 26 16 26 10 0 22 -5
25 -10z m-4591 -29 c3 -4 20 -11 37 -15 27 -5 31 -10 27 -30 -4 -18 0 -26 14
-29 10 -3 18 -12 18 -21 0 -14 -11 -16 -67 -15 -38 1 -71 4 -75 6 -4 2 -1 15
8 28 10 15 14 34 10 48 -7 31 13 52 28 28z m486 -36 c0 -8 -4 -15 -9 -15 -13
0 -22 16 -14 24 11 11 23 6 23 -9z m4108 -23 c8 -53 -47 -69 -88 -26 l-24 26
21 18 c31 25 87 13 91 -18z m-2303 -1 c7 -12 -12 -24 -25 -16 -11 7 -4 25 10
25 5 0 11 -4 15 -9z m1529 3 c23 -9 20 -24 -4 -24 -11 0 -20 7 -20 15 0 17 2
18 24 9z m-1854 -24 c12 -8 13 -13 3 -30 -21 -32 -16 -60 10 -60 12 0 29 4 37
10 11 6 22 1 42 -23 15 -18 27 -40 28 -50 0 -20 -23 -33 -42 -23 -39 20 -59
35 -75 55 -26 32 -60 21 -71 -22 -7 -25 -14 -32 -33 -32 -19 0 -25 -6 -27 -28
-4 -30 -32 -50 -56 -41 -20 8 -20 17 -1 54 8 16 12 36 9 44 -4 12 6 21 41 36
26 11 58 20 71 20 19 0 24 5 24 28 0 33 10 72 19 72 3 0 13 -5 21 -10z m1824
-51 c-8 -14 -34 -11 -34 4 0 8 3 17 7 20 9 9 34 -13 27 -24z m-1144 -24 c0
-43 -1 -44 -37 -51 -21 -4 -42 -10 -48 -14 -16 -11 -160 -19 -176 -9 -11 7
-12 12 -2 27 8 14 8 23 1 30 -12 12 -4 42 12 42 5 0 10 -7 10 -15 0 -9 8 -18
18 -22 9 -3 25 -13 34 -21 11 -9 27 -12 43 -8 28 7 115 66 115 78 0 4 7 8 15
8 11 0 15 -12 15 -45z m-2477 21 c26 -20 21 -36 -12 -36 -26 0 -41 14 -41 41
0 13 32 10 53 -5z m152 -31 c0 -30 -31 -42 -54 -21 -26 23 -27 43 -3 48 27 7
57 -8 57 -27z m1895 -54 c0 -14 -28 -33 -40 -26 -11 7 -14 38 -4 48 8 8 44
-10 44 -22z m-1250 -6 c0 -26 -14 -33 -25 -15 -9 14 1 40 15 40 5 0 10 -11 10
-25z m450 -80 c0 -8 -7 -15 -15 -15 -8 0 -15 7 -15 15 0 8 7 15 15 15 8 0 15
-7 15 -15z"/>
<path d="M12774 3983 c-3 -16 -7 -32 -9 -38 -5 -21 14 -55 29 -49 20 8 28 32
16 54 -8 14 -6 21 6 28 21 11 10 32 -16 32 -13 0 -22 -9 -26 -27z"/>
<path d="M860 3955 c0 -30 11 -32 33 -7 23 25 21 32 -8 32 -20 0 -25 -5 -25
-25z"/>
<path d="M12668 3955 c-21 -28 -23 -55 -5 -55 17 0 43 28 51 58 10 31 -23 29
-46 -3z"/>
<path d="M716 3853 c-11 -11 -6 -23 9 -23 8 0 15 4 15 9 0 13 -16 22 -24 14z"/>
<path d="M760 3791 c0 -11 26 -22 34 -14 3 3 3 10 0 14 -7 12 -34 11 -34 0z"/>
<path d="M656 3743 c-10 -11 -7 -65 8 -122 17 -62 24 -71 36 -51 15 23 12 86
-5 100 -8 7 -15 25 -15 41 0 28 -12 44 -24 32z"/>
<path d="M810 3675 c0 -3 4 -13 9 -23 5 -9 12 -26 16 -37 6 -20 7 -20 21 -1
12 18 12 22 -8 43 -20 21 -38 30 -38 18z"/>
<path d="M12834 3515 c-8 -20 13 -45 37 -45 24 0 24 22 1 43 -23 21 -31 21
-38 2z"/>
<path d="M780 3480 c0 -20 24 -60 37 -60 7 0 13 4 13 9 0 5 2 16 5 23 4 9 -4
19 -20 26 -31 14 -35 15 -35 2z"/>
<path d="M594 3295 c-7 -18 10 -42 37 -50 10 -4 19 -13 19 -20 0 -20 20 -29
33 -15 9 9 8 14 -5 24 -10 7 -18 20 -18 28 0 17 -31 48 -49 48 -6 0 -14 -7
-17 -15z"/>
<path d="M523 3175 c-15 -16 -16 -25 -5 -25 4 0 13 9 20 20 14 23 3 26 -15 5z"/>
<path d="M12661 3101 c-25 -25 -26 -34 -7 -50 30 -25 118 21 91 48 -23 22 -63
23 -84 2z"/>
<path d="M221 3091 c-14 -25 -14 -51 -1 -51 6 0 10 9 10 20 0 17 7 20 41 20
52 0 49 24 -4 28 -27 2 -38 -1 -46 -17z"/>
<path d="M346 3086 c-13 -21 -14 -29 -4 -46 18 -28 32 -20 36 20 5 45 -11 57
-32 26z"/>
<path d="M12540 3081 c-5 -11 -10 -28 -10 -37 0 -10 -13 -32 -28 -49 -19 -19
-33 -50 -41 -86 -15 -72 -31 -94 -59 -85 -28 9 -28 20 5 83 31 58 27 69 -25
79 -40 8 -48 -9 -57 -133 -6 -73 -4 -102 10 -146 12 -39 16 -79 14 -136 -3
-60 -1 -81 8 -81 16 0 45 55 53 100 6 34 7 35 48 32 37 -3 42 -1 42 17 0 20
-10 25 -65 33 -15 2 -21 12 -23 41 l-3 37 56 0 c40 0 57 4 61 15 9 22 27 18
54 -10 28 -30 51 -32 74 -6 17 19 17 20 -22 30 -26 7 -42 18 -45 31 -3 12 -14
20 -27 20 -30 0 -60 18 -60 36 0 21 40 137 51 149 5 5 9 19 9 31 0 13 5 26 10
29 15 9 12 25 -5 25 -8 0 -19 -9 -25 -19z"/>
<path d="M740 3060 c0 -23 4 -24 31 -9 23 12 16 29 -12 29 -12 0 -19 -7 -19
-20z"/>
<path d="M385 2979 c-10 -15 3 -25 16 -12 7 7 7 13 1 17 -6 3 -14 1 -17 -5z"/>
<path d="M310 2965 c-10 -12 -24 -14 -57 -9 -34 5 -43 3 -43 -8 0 -18 31 -48
51 -48 8 0 22 -7 32 -15 24 -17 47 -9 47 17 0 12 8 26 17 33 16 12 16 14 1 29
-21 20 -32 20 -48 1z m8 -37 c19 -19 14 -28 -13 -28 -27 0 -28 1 -19 24 7 19
16 20 32 4z"/>
<path d="M560 2971 c0 -11 28 -41 39 -41 18 0 20 15 4 32 -17 19 -43 24 -43 9z"/>
<path d="M12584 2924 c-16 -23 -16 -26 -1 -42 16 -15 18 -15 33 0 11 11 14 25
10 42 -8 33 -21 33 -42 0z"/>
<path d="M253 2833 c-22 -8 -14 -23 11 -23 18 0 25 -7 30 -32 6 -30 8 -31 20
-15 7 9 18 17 25 17 19 0 12 15 -19 38 -29 22 -43 25 -67 15z"/>
<path d="M210 2780 c0 -11 5 -20 10 -20 6 0 10 9 10 20 0 11 -4 20 -10 20 -5
0 -10 -9 -10 -20z"/>
<path d="M233 2738 c2 -7 14 -13 27 -13 13 0 25 6 28 13 2 8 -7 12 -28 12 -21
0 -30 -4 -27 -12z"/>
<path d="M380 2705 c0 -9 5 -15 11 -13 6 2 11 8 11 13 0 5 -5 11 -11 13 -6 2
-11 -4 -11 -13z"/>
<path d="M507 2703 c-4 -3 -7 -25 -7 -47 0 -29 6 -47 20 -59 11 -9 22 -17 24
-17 4 0 -2 70 -10 108 -4 22 -15 28 -27 15z"/>
<path d="M295 2680 c-11 -17 3 -28 30 -22 22 4 25 1 25 -27 0 -26 -4 -31 -23
-31 -13 0 -34 9 -47 20 -13 11 -27 20 -32 20 -14 0 -9 -29 8 -38 13 -7 14 -13
5 -30 -6 -12 -20 -26 -31 -32 -14 -7 -20 -21 -20 -44 0 -29 4 -34 31 -40 37
-7 49 -1 49 24 0 13 9 22 25 26 14 4 28 5 30 3 2 -2 5 -29 7 -59 l3 -55 -69
-5 c-38 -3 -71 -10 -73 -16 -6 -18 17 -21 111 -13 l90 7 29 -29 c33 -34 51
-33 55 2 6 39 19 43 31 9 12 -36 35 -36 39 1 2 18 -6 31 -27 47 -18 13 -32 18
-36 12 -12 -20 -35 -10 -35 15 0 18 -5 25 -19 25 -10 0 -21 -7 -25 -15 -3 -8
-15 -15 -26 -15 -19 0 -21 4 -15 29 5 22 0 35 -20 60 -15 17 -33 31 -41 31
-23 0 -16 13 21 43 41 33 44 55 12 85 -25 23 -52 29 -62 12z"/>
<path d="M557 2634 c-14 -14 -7 -35 11 -32 9 2 17 10 17 17 0 16 -18 25 -28
15z"/>
<path d="M12755 2576 c-11 -8 -16 -20 -12 -29 7 -19 33 -13 42 10 9 24 -8 35
-30 19z"/>
<path d="M12485 2506 c-22 -16 -14 -46 13 -46 10 0 27 9 36 19 17 19 17 20 -3
30 -25 14 -23 14 -46 -3z"/>
<path d="M12346 2404 c-21 -20 -17 -58 6 -62 11 -2 22 6 30 23 9 21 9 29 -4
41 -14 14 -17 14 -32 -2z"/>
<path d="M226 2284 c-18 -17 -22 -54 -6 -54 6 0 10 9 10 20 0 16 7 20 30 20
24 0 35 -7 48 -30 12 -22 24 -30 45 -30 25 0 27 3 27 39 0 42 -16 64 -26 37
-8 -20 -28 -20 -44 -1 -16 20 -64 19 -84 -1z"/>
<path d="M12500 2245 c-12 -15 -5 -55 10 -55 12 0 30 34 30 54 0 20 -24 21
-40 1z"/>
<path d="M243 2163 c-26 -18 -29 -35 -9 -52 12 -10 17 -8 26 8 12 23 58 28 92
10 17 -9 19 -8 16 8 -2 10 -11 17 -20 15 -8 -1 -21 5 -28 13 -16 19 -49 18
-77 -2z"/>
<path d="M210 2036 c0 -14 5 -26 10 -26 6 0 10 9 10 19 0 11 -4 23 -10 26 -6
4 -10 -5 -10 -19z"/>
<path d="M150 1810 c0 -5 12 -10 26 -10 14 0 23 4 19 10 -3 6 -15 10 -26 10
-10 0 -19 -4 -19 -10z"/>
<path d="M114 1686 c-4 -10 -2 -22 4 -28 8 -8 13 -7 18 6 4 10 2 22 -4 28 -8
8 -13 7 -18 -6z"/>
<path d="M162 1446 c-10 -23 -10 -24 11 -17 23 9 30 32 11 38 -6 2 -16 -8 -22
-21z"/>
<path d="M2761 1180 c-14 -8 -7 -30 9 -30 11 0 21 28 12 34 -5 3 -14 1 -21 -4z"/>
<path d="M265 1080 c-8 -48 -31 -53 -40 -10 -7 31 -25 32 -25 1 0 -22 30 -51
53 -51 8 0 28 18 44 40 15 22 33 40 39 40 6 0 14 -18 18 -40 7 -45 26 -46 26
-2 -1 43 -22 62 -68 62 -39 0 -40 -1 -47 -40z"/>
<path d="M7151 1036 c-18 -19 -35 -26 -61 -26 -29 0 -45 -7 -70 -34 -28 -28
-70 -112 -70 -138 0 -5 33 -8 74 -8 67 0 74 -2 81 -22 7 -22 8 -22 12 5 3 16
0 42 -6 59 -14 40 -14 98 -1 98 6 0 30 -9 52 -20 23 -11 45 -20 50 -20 16 0 8
35 -11 47 -12 8 -21 26 -23 49 l-3 36 -24 -26z"/>
<path d="M9420 1050 c-8 -5 -31 -10 -51 -10 -27 0 -40 -7 -57 -30 -30 -40 -28
-50 14 -50 48 0 65 -11 108 -67 59 -80 105 -137 123 -155 18 -19 53 -24 53 -8
0 6 -4 10 -10 10 -5 0 -10 11 -10 25 0 14 -4 25 -10 25 -13 0 -50 37 -50 50 0
5 9 14 21 21 17 9 25 7 43 -10 12 -12 27 -21 33 -21 6 0 17 -7 24 -16 10 -13
25 -15 66 -11 42 4 53 3 53 -9 0 -14 26 -20 32 -6 2 4 21 22 43 40 77 63 145
30 74 -36 -37 -35 -31 -52 17 -52 29 0 34 3 34 24 0 14 10 30 25 40 14 9 36
34 50 56 27 42 49 51 59 24 5 -13 15 -15 41 -11 19 3 37 1 41 -4 3 -5 21 -7
40 -3 24 4 42 1 59 -10 24 -16 35 -56 15 -56 -18 0 -10 -34 15 -62 27 -32 40
-35 49 -12 16 41 -7 110 -55 173 -29 36 -24 49 18 53 28 2 39 8 41 22 6 30
-16 36 -133 36 -134 0 -180 -12 -220 -56 -37 -40 -91 -56 -101 -30 -4 9 1 25
10 35 9 10 16 25 16 33 0 13 -22 17 -132 21 -73 3 -146 9 -163 13 -27 6 -29 6
-17 -9 8 -9 11 -21 7 -27 -12 -19 -42 -10 -98 30 -55 40 -89 48 -117 30z m215
-109 c8 -14 -30 -32 -49 -25 -9 4 -23 1 -31 -6 -12 -10 -15 -10 -15 2 0 8 5
19 12 26 14 14 74 16 83 3z"/>
<path d="M7400 1033 c-19 -7 -49 -44 -50 -60 0 -7 11 -15 25 -19 14 -3 25 -10
25 -15 0 -5 7 -9 15 -9 12 0 13 4 5 19 -16 32 -12 58 11 64 12 3 18 10 14 16
-7 12 -21 13 -45 4z"/>
<path d="M7580 1016 c0 -20 27 -39 45 -32 13 4 14 10 5 26 -12 23 -50 27 -50
6z"/>
<path d="M563 990 c-8 -22 -7 -31 4 -43 13 -12 12 -17 -10 -34 -31 -24 -51
-133 -24 -133 22 0 40 26 32 49 -4 13 2 25 22 40 15 12 32 38 39 58 11 31 10
39 -4 59 -26 34 -47 36 -59 4z"/>
<path d="M7900 990 c-42 -24 -84 -75 -74 -91 5 -9 10 -8 18 3 19 25 48 36 76
28 32 -9 45 -3 54 28 8 24 -8 52 -28 51 -6 0 -27 -9 -46 -19z"/>
<path d="M8220 995 c-13 -16 -7 -45 9 -45 14 0 41 30 41 46 0 18 -34 18 -50
-1z"/>
<path d="M8684 995 c-9 -22 16 -85 33 -85 8 0 34 16 58 36 50 40 88 43 93 7 4
-27 25 -35 57 -23 38 14 31 43 -15 63 -53 23 -218 25 -226 2z"/>
<path d="M9030 997 c0 -7 15 -28 34 -46 l34 -33 16 30 c27 53 22 62 -34 62
-34 0 -50 -4 -50 -13z"/>
<path d="M10625 1001 c-49 -12 -74 -30 -99 -70 -13 -21 -38 -43 -54 -50 -38
-16 -47 -38 -26 -62 22 -24 29 -24 86 3 30 14 54 34 65 55 18 34 23 37 85 48
31 5 40 2 50 -15 18 -28 52 -26 66 5 14 30 1 58 -34 73 -32 15 -105 22 -139
13z"/>
<path d="M10890 997 c0 -16 76 -49 103 -45 35 5 29 25 -13 42 -48 19 -90 21
-90 3z"/>
<path d="M8067 973 c-35 -38 -72 -122 -59 -135 24 -24 54 14 82 102 4 14 11
33 15 43 11 26 -8 21 -38 -10z"/>
<path d="M8602 941 c-20 -12 -10 -46 12 -46 27 0 46 33 26 45 -18 12 -21 12
-38 1z"/>
<path d="M7277 923 c-7 -27 -3 -73 6 -74 4 -1 21 4 38 11 24 10 28 17 23 34
-14 46 -58 65 -67 29z"/>
<path d="M7517 911 c-8 -39 2 -102 20 -122 8 -9 18 -29 22 -45 l7 -28 23 37
c25 41 22 67 -7 67 -30 0 -39 18 -34 70 4 40 2 50 -10 50 -9 0 -18 -12 -21
-29z"/>
<path d="M9185 894 c-19 -40 -10 -79 20 -90 20 -8 71 41 54 51 -6 4 -17 23
-25 41 -8 19 -18 34 -23 34 -5 0 -16 -16 -26 -36z"/>
<path d="M267 913 c-9 -8 12 -33 28 -33 14 0 27 25 18 34 -8 8 -38 8 -46 -1z"/>
<path d="M357 904 c-4 -4 -7 -18 -7 -31 0 -22 -3 -23 -40 -17 -32 5 -40 3 -40
-9 0 -37 93 -25 105 14 7 21 -7 53 -18 43z"/>
<path d="M8244 879 c-11 -19 12 -31 45 -24 43 9 41 35 -3 35 -19 0 -38 -5 -42
-11z"/>
<path d="M8522 881 c4 -13 18 -16 19 -4 0 4 -5 9 -11 12 -7 2 -11 -2 -8 -8z"/>
<path d="M7234 835 c-5 -12 -14 -15 -35 -11 -16 3 -31 1 -34 -4 -8 -12 66 -70
90 -70 18 1 18 2 4 13 -23 18 -31 48 -18 64 7 7 9 16 6 20 -4 3 -10 -2 -13
-12z"/>
<path d="M7407 824 c-8 -8 1 -24 14 -24 5 0 9 7 9 15 0 15 -12 20 -23 9z"/>
<path d="M8934 816 c-9 -22 4 -36 32 -36 21 0 25 4 22 23 -4 26 -45 37 -54 13z"/>
<path d="M6366 783 c-25 -13 -36 -14 -64 -3 -33 12 -60 6 -28 -6 11 -4 16 -18
16 -43 0 -41 31 -106 50 -106 21 0 35 55 21 78 -11 17 -8 24 19 52 36 37 29
51 -14 28z"/>
<path d="M10167 794 c-15 -15 -7 -45 11 -42 9 2 17 12 17 22 0 20 -16 31 -28
20z"/>
<path d="M265 760 c-11 -17 5 -32 21 -19 8 6 14 15 14 20 0 12 -27 11 -35 -1z"/>
<path d="M320 760 c0 -5 7 -10 15 -10 20 0 19 -39 -1 -47 -10 -3 -30 -1 -46 5
-20 7 -38 8 -58 0 -55 -19 -32 -29 58 -26 81 3 87 5 90 25 2 12 -6 31 -17 42
-22 22 -41 27 -41 11z"/>
<path d="M6931 741 l-23 -18 38 -20 c22 -11 53 -29 70 -38 33 -20 64 -15 64
10 0 9 -16 19 -45 26 -34 9 -47 17 -51 35 -7 29 -21 30 -53 5z"/>
<path d="M9450 750 c0 -5 6 -10 14 -10 8 0 18 5 21 10 3 6 -3 10 -14 10 -12 0
-21 -4 -21 -10z"/>
<path d="M6870 725 c0 -9 5 -15 11 -13 6 2 11 8 11 13 0 5 -5 11 -11 13 -6 2
-11 -4 -11 -13z"/>
<path d="M7835 730 c-8 -13 9 -20 24 -11 10 6 9 10 -3 14 -8 3 -18 2 -21 -3z"/>
<path d="M9826 711 c-12 -13 -14 -21 -6 -26 16 -10 40 2 40 19 0 24 -16 27
-34 7z"/>
<path d="M5990 690 c0 -11 10 -30 21 -41 20 -20 23 -20 31 -5 6 11 3 24 -9 41
-22 30 -43 32 -43 5z"/>
<path d="M6195 700 c-8 -13 14 -52 26 -45 15 10 11 55 -5 55 -8 0 -18 -4 -21
-10z"/>
<path d="M6736 695 c-21 -22 -16 -39 12 -43 28 -4 40 24 20 44 -13 14 -17 14
-32 -1z"/>
<path d="M6083 675 c-3 -9 2 -24 11 -34 9 -10 16 -25 16 -35 0 -20 29 -66 41
-66 16 0 10 104 -7 128 -17 25 -52 29 -61 7z"/>
<path d="M772 644 c4 -51 28 -59 25 -8 -1 21 -8 39 -15 42 -10 3 -12 -6 -10
-34z"/>
<path d="M10225 669 c-10 -15 3 -25 16 -12 7 7 7 13 1 17 -6 3 -14 1 -17 -5z"/>
<path d="M9630 641 c0 -12 5 -21 10 -21 6 0 10 6 10 14 0 8 -4 18 -10 21 -5 3
-10 -3 -10 -14z"/>
<path d="M5920 616 c0 -7 7 -19 15 -26 12 -10 16 -9 21 3 3 9 3 21 -1 27 -9
15 -35 12 -35 -4z"/>
<path d="M267 613 c-12 -11 -8 -23 8 -23 8 0 15 7 15 15 0 16 -12 20 -23 8z"/>
<path d="M6385 611 c-7 -12 12 -24 25 -16 11 7 4 25 -10 25 -5 0 -11 -4 -15
-9z"/>
<path d="M348 585 c3 -18 -2 -31 -14 -41 -18 -15 -18 -15 -1 -10 10 3 22 6 27
6 12 0 21 31 15 51 -10 30 -33 24 -27 -6z"/>
<path d="M6941 591 c-12 -8 -12 -12 -2 -25 17 -20 41 -20 67 -1 16 13 17 16 4
25 -19 12 -50 13 -69 1z"/>
<path d="M9173 584 c-8 -20 13 -42 27 -28 12 12 3 44 -11 44 -5 0 -12 -7 -16
-16z"/>
<path d="M6296 582 c-3 -6 -1 -14 5 -17 15 -10 25 3 12 16 -7 7 -13 7 -17 1z"/>
<path d="M5427 567 c-8 -21 14 -48 49 -63 19 -8 34 -18 34 -23 0 -17 -30 -33
-54 -29 -16 3 -27 0 -31 -9 -16 -43 47 -45 91 -3 18 16 44 32 58 36 14 3 26
10 26 14 0 19 -34 40 -64 40 -19 0 -49 11 -69 24 -24 16 -37 21 -40 13z"/>
<path d="M265 560 c-8 -13 3 -30 21 -30 18 0 18 14 0 29 -10 8 -16 9 -21 1z"/>
<path d="M772 521 c4 -13 18 -16 19 -4 0 4 -5 9 -11 12 -7 2 -11 -2 -8 -8z"/>
<path d="M920 491 c0 -52 8 -71 31 -71 20 0 26 15 9 25 -6 4 -5 14 3 27 9 16
9 22 0 25 -7 3 -13 11 -13 19 0 8 -7 14 -15 14 -11 0 -15 -11 -15 -39z"/>
<path d="M6080 515 c0 -9 5 -15 11 -13 6 2 11 8 11 13 0 5 -5 11 -11 13 -6 2
-11 -4 -11 -13z"/>
<path d="M7357 524 c-11 -11 3 -24 18 -18 8 4 12 10 9 15 -6 11 -18 12 -27 3z"/>
<path d="M221 471 c-11 -7 -6 -13 19 -26 29 -15 34 -15 48 -1 9 8 14 17 11 20
-11 10 -65 15 -78 7z"/>
<path d="M335 461 c-3 -6 -1 -11 4 -11 6 0 11 -9 11 -20 0 -27 -39 -43 -61
-24 -18 16 -30 9 -22 -12 6 -16 69 -19 91 -5 21 13 21 74 0 79 -9 2 -19 -2
-23 -7z"/>
<path d="M4200 455 c0 -16 16 -20 24 -6 3 5 -1 11 -9 15 -9 3 -15 0 -15 -9z"/>
<path d="M4890 462 c0 -11 55 -52 70 -52 6 0 10 12 8 28 -3 23 -8 27 -40 30
-21 2 -38 -1 -38 -6z"/>
<path d="M1034 442 c-16 -10 -27 -49 -16 -56 12 -7 81 27 82 40 0 20 -44 31
-66 16z"/>
<path d="M5870 426 c0 -14 28 -42 35 -34 2 2 2 14 -2 26 -6 24 -33 31 -33 8z"/>
<path d="M2682 387 c-12 -13 -22 -28 -22 -33 0 -11 42 -54 52 -54 15 0 38 33
38 55 0 23 -23 55 -39 55 -4 0 -17 -10 -29 -23z"/>
<path d="M3422 398 c3 -7 13 -15 24 -16 10 -2 24 -10 31 -18 7 -10 13 -12 18
-5 3 6 -1 14 -9 17 -9 3 -16 12 -16 20 0 8 -10 14 -26 14 -16 0 -24 -5 -22
-12z"/>
<path d="M3622 394 c2 -11 11 -20 22 -22 13 -3 17 1 14 14 -2 11 -11 20 -22
22 -13 3 -17 -1 -14 -14z"/>
<path d="M1102 338 c2 -12 10 -23 18 -23 22 0 19 39 -3 43 -15 3 -18 -1 -15
-20z"/>
<path d="M1571 351 c-8 -5 -11 -16 -8 -25 5 -14 11 -15 27 -6 21 11 23 31 4
37 -5 1 -15 -1 -23 -6z"/>
<path d="M340 335 c-7 -8 -23 -15 -36 -15 -34 0 -104 -30 -104 -44 0 -14 25
-28 90 -49 25 -8 53 -18 63 -22 12 -5 17 -3 17 9 0 9 -8 16 -20 16 -43 0 -40
85 3 92 10 2 18 7 18 13 1 16 -17 17 -31 0z m-56 -41 c19 -7 21 -31 4 -37 -34
-11 -67 23 -35 36 6 3 13 6 14 6 1 1 8 -2 17 -5z"/>
<path d="M2514 276 c-8 -22 3 -33 18 -18 9 9 9 15 0 24 -9 9 -13 7 -18 -6z"/>
<path d="M1436 221 c-9 -14 29 -55 42 -47 16 10 15 22 -4 40 -17 18 -30 20
-38 7z"/>
</g>
</svg>
