<?xml version="1.0" encoding="UTF-8" standalone="no"?><!DOCTYPE svg PUBLIC "-//W3C//DTD SVG 1.1//EN" "http://www.w3.org/Graphics/SVG/1.1/DTD/svg11.dtd"><svg width="100%" height="100%" viewBox="0 0 1325 10" version="1.1" xmlns="http://www.w3.org/2000/svg" xmlns:xlink="http://www.w3.org/1999/xlink" xml:space="preserve" xmlns:serif="http://www.serif.com/" style="fill-rule:evenodd;clip-rule:evenodd;stroke-linejoin:round;stroke-miterlimit:2;"><rect id="Artboard1" x="0" y="0" width="1325" height="10" style="fill:none;"/><clipPath id="_clip1"><rect x="0" y="0" width="1325" height="10"/></clipPath><g clip-path="url(#_clip1)"><g><path d="M325.8,1.525c-2.2,0.325 -2.3,1.394 -0.2,1.765c0.9,0.14 3,0.279 4.7,0.279c2.4,-0 2.8,0.139 1.7,0.464c-0.8,0.233 -2.8,0.465 -4.3,0.465c-1.6,-0 -3.7,0.232 -4.8,0.464c-1.1,0.279 -3.5,0.372 -5.5,0.186c-3.2,-0.279 -3.5,-0.418 -2.9,-1.579c0.3,-0.743 0.2,-1.44 -0.4,-1.579c-0.6,-0.186 -7.7,-0.093 -15.8,0.139c-20.8,0.65 -44.4,0.65 -75.8,0.047c-21.7,-0.465 -30.9,-0.465 -46.5,0.046c-12.7,0.372 -43.7,0.604 -89.1,0.65c-66.7,0.093 -69.8,0.14 -72.9,0.976c-1.8,0.464 -3.3,1.068 -3.2,1.346c0.2,0.929 6.7,1.254 14.4,0.697c7.3,-0.557 7.7,-0.511 10.7,0.511c3,1.022 3.2,1.022 19.3,0.604c10.8,-0.325 17,-0.325 18.3,-0c1.2,0.278 17.4,0.557 39.7,0.65c33.5,0.186 38.3,0.093 41.9,-0.557c2.3,-0.465 7.2,-0.883 10.8,-1.022c7.6,-0.325 20.2,-1.393 24.7,-2.137c1.8,-0.278 3.9,-0.371 5,-0.139c1.1,0.232 4.4,0.418 7.4,0.418c5.3,0.047 5.5,0.093 5.5,1.301l-0.1,1.3l11.1,0.093c6,0.093 13.9,0.139 17.3,0.139c4.9,0.047 6.6,0.232 7.3,0.836c0.7,0.558 2.3,0.79 5.5,0.79c3.9,-0 5.1,-0.232 7.6,-1.533l3.1,-1.486l10,0.139c5.5,0.093 10.8,0.325 11.7,0.558c1.1,0.278 3.1,0.232 5.3,-0.047c3,-0.371 5.1,-0.279 10.9,0.557c6,0.79 9,0.976 16.6,0.79c5.1,-0.139 9.8,-0.464 10.5,-0.79c0.6,-0.278 3.1,-0.51 5.7,-0.51c3.8,-0.047 5,-0.279 8,-1.626c2.6,-1.254 4.2,-1.626 7,-1.626c4,0 6.8,-0.65 5.1,-1.114c-0.6,-0.186 -4.6,-0.279 -8.9,-0.232c-4.2,0.046 -9.3,-0 -11.2,-0.186c-1.9,-0.14 -4.3,-0.14 -5.2,-0.047Z" style="fill-rule:nonzero;"/><path d="M0.4,2.408c-1,1.161 0.4,2.09 3.1,2.09c3,-0 4.3,-1.115 2.5,-2.09c-1.6,-0.883 -4.9,-0.883 -5.6,-0Z" style="fill-rule:nonzero;"/><path d="M376.5,2.176c-2.7,0.185 -7,0.603 -9.5,0.928c-2.5,0.279 -6.7,0.744 -9.5,0.976c-2.7,0.278 -5.7,0.882 -6.5,1.347c-1.1,0.65 -3.1,0.929 -7.4,1.021c-5.7,0.14 -6,0.186 -6.8,1.533c-0.5,0.883 -0.3,1.486 0.4,1.672c1.8,0.557 6.9,-0.557 8,-1.718c1.3,-1.301 5.2,-1.487 7.9,-0.372c1.9,0.79 6.2,0.604 21.5,-1.022c3.3,-0.371 7.8,-0.65 10,-0.65c2.1,0 6.1,-0.325 8.8,-0.697c6.9,-0.975 8.3,-0.882 10.1,0.697c1.2,1.115 2.2,1.393 4.8,1.393c1.7,-0.046 4.3,-0.325 5.7,-0.696c1.4,-0.372 3.9,-0.697 5.5,-0.697c3,-0.046 7.5,-1.393 7.5,-2.276c-0,-0.232 -1,-0.789 -2.2,-1.161c-1.9,-0.604 -5.7,-0.743 -22.8,-0.696c-11.3,0.046 -22.7,0.232 -25.5,0.418Z" style="fill-rule:nonzero;"/><path d="M432.5,2.176c-0.3,0.232 0.5,0.65 1.9,0.928c1.4,0.233 2.6,0.79 2.6,1.208c-0,0.65 0.3,0.65 1.5,0.186c0.9,-0.325 1.6,-0.511 1.8,-0.418c0.1,0.093 0.7,0.604 1.3,1.114c1,0.79 2,0.929 7.5,0.79c5.9,-0.139 27.2,1.115 38.1,2.276c6.9,0.743 36.8,0.046 37.5,-0.836c1.2,-1.44 -1.6,-1.765 -14.3,-1.672c-6.8,0.046 -13.2,0.278 -14.1,0.511c-1.8,0.464 -9.3,-0.697 -9.3,-1.44c-0,-0.279 7.4,-0.325 20.8,-0.093c12.9,0.186 22.4,0.139 25.1,-0.139c5.4,-0.604 6.4,-0.418 7.8,1.3c0.9,1.161 1.7,1.393 4.5,1.393c1.8,0 5.1,-0.325 7.3,-0.696c6.5,-1.068 10.3,-0.883 14.2,0.696c1.8,0.744 4,1.394 4.8,1.394c0.7,-0 3.2,-0.836 5.5,-1.858c4.2,-1.904 6.7,-2.229 10,-1.393c1,0.232 5.8,0.464 10.7,0.511c13.6,0.092 21.3,0.464 18.6,0.928c-1.3,0.233 -2.3,0.604 -2.3,0.929c-0,0.79 14.6,0.047 19.9,-1.021c3.7,-0.744 6.8,-0.883 21.5,-0.883c9.4,0 19.6,-0.186 22.6,-0.418c3,-0.279 9.1,-0.511 13.4,-0.604c7.6,-0.139 8.1,-0.093 9.3,1.022c1.1,1.068 3.4,1.765 5.9,1.811c0.6,0.047 2.9,-0.603 5,-1.393c3.6,-1.3 4.3,-1.393 9.4,-1.115c9.3,0.465 35.6,0.651 39.3,0.233c2.1,-0.186 5.6,-0.14 8.4,0.139c2.6,0.279 7.2,0.464 10.2,0.418c3,-0.046 6,0.139 6.8,0.418c1.6,0.65 4.3,0.186 4.3,-0.743c-0,-0.929 2.7,-0.883 14.1,0.232c10.1,1.022 14.2,0.883 17.4,-0.511c3.1,-1.3 6.9,-1.347 7.3,-0.139c0.3,0.929 0.9,1.022 8.8,1.068c5,0.047 11.4,-0.279 15.5,-0.743c6.2,-0.697 7.6,-0.697 12.2,-0.139c6.2,0.789 27.8,0.743 32,-0.047c2.1,-0.418 4.2,-0.371 9,0.093c8.4,0.79 22.2,0.836 23.9,0.047c1.1,-0.511 0.9,-0.79 -0.9,-1.44c-1.8,-0.697 -4.9,-0.929 -17.5,-1.161c-8.4,-0.186 -18.2,-0.186 -21.8,-0c-3.6,0.185 -7.8,0.278 -9.5,0.278c-27.5,-0.511 -38.2,-0.464 -40.2,0.186c-2.6,0.743 -5.3,0.836 -5.3,0.186c-0,-0.279 -2.1,-0.511 -4.7,-0.511c-2.7,0 -21.4,-0.139 -41.8,-0.279c-20.3,-0.139 -43.7,-0.278 -52,-0.278c-8.2,0.046 -19.3,-0 -24.5,-0c-5.2,-0.047 -13.3,-0.047 -18,-0c-4.7,0.046 -22,0.093 -38.5,0.139c-16.5,0 -31.8,0.186 -34,0.418c-2.2,0.186 -5.7,0.139 -7.9,-0.046c-2.4,-0.279 -5.1,-0.233 -7.1,0.092c-2.6,0.372 -4.1,0.372 -6.7,-0.139c-2.8,-0.511 -5.3,-0.557 -15.8,-0.046c-6.9,0.325 -14.4,0.743 -16.7,0.929c-2.8,0.185 -4.8,0.092 -5.7,-0.233c-1,-0.371 -4.5,-0.464 -11.6,-0.278c-8.2,0.232 -11.1,0.139 -14.9,-0.511c-4.2,-0.697 -6.4,-0.697 -17.7,-0.325c-7.1,0.278 -14.7,0.371 -16.8,0.232c-2.1,-0.093 -6.2,0.046 -9.1,0.371c-4.3,0.465 -5.6,0.465 -8.1,-0.092c-3.6,-0.883 -49.8,-1.626 -50.9,-0.836Z" style="fill-rule:nonzero;"/><path d="M944.8,3.755c-1.5,0.371 -3.8,0.743 -5,0.836c-3.1,0.185 -3.1,1.579 -0,1.439c1.3,-0.092 2.5,0.186 2.8,0.558c0.8,0.882 2.4,0.882 6,-0c1.6,-0.372 3.7,-0.697 4.6,-0.697c2.6,0 3.2,-0.882 1.2,-1.904c-2,-1.022 -5.8,-1.115 -9.6,-0.232Z" style="fill-rule:nonzero;"/><path d="M966,4.08c-1.9,0.464 -3.9,0.975 -4.5,1.068c-0.7,0.093 -0.7,0.325 -0,0.65c0.6,0.325 3.9,0.372 9,0.186c7.7,-0.325 8,-0.372 8,-1.486c-0,-1.068 -0.4,-1.161 -4.5,-1.254c-2.8,-0 -5.8,0.278 -8,0.836Z" style="fill-rule:nonzero;"/><path d="M985.2,3.43c-1.9,0.185 -2.3,0.418 -1.8,1.207c0.3,0.557 0.6,1.393 0.6,1.811c-0,0.883 2.9,1.115 4.6,0.418c0.5,-0.232 2.4,-0.603 4.3,-0.836c4.1,-0.464 4.8,-1.114 2.6,-2.182c-1.6,-0.697 -5.3,-0.836 -10.3,-0.418Z" style="fill-rule:nonzero;"/><path d="M1037.5,3.662c-1.3,0.371 -5.7,0.511 -12.2,0.418c-16.1,-0.186 -25.4,0.557 -22.6,1.858c1.7,0.789 20.5,0.836 27.2,0.046c3.3,-0.372 6.9,-0.511 9,-0.279c2,0.186 10.8,0.372 19.6,0.418c11,0.047 16.9,0.279 18.8,0.697c2.4,0.557 2.9,0.511 4.2,-0.279c1.8,-1.114 1.9,-1.579 0.3,-1.765c-7.5,-0.928 -11.4,-1.068 -19.3,-0.743c-6.8,0.279 -9.8,0.186 -12.4,-0.278c-4.1,-0.79 -9.9,-0.836 -12.6,-0.093Z" style="fill-rule:nonzero;"/><path d="M1097.1,4.405c-4.7,0.418 -5,1.347 -0.6,2.183c5.3,1.068 28.8,0.789 29.3,-0.325c0.2,-0.604 -1,-0.836 -6.5,-1.254c-9.9,-0.697 -18.3,-0.929 -22.2,-0.604Z" style="fill-rule:nonzero;"/><path d="M1141.4,5.194c-0.9,1.069 0.3,2.09 2.5,2.09c1.1,0 2.5,0.093 3.3,0.233c0.7,0.139 2.2,-0.047 3.3,-0.372c1.8,-0.65 1.8,-0.697 -0.6,-1.347c-3.9,-1.161 -7.9,-1.44 -8.5,-0.604Z" style="fill-rule:nonzero;"/><path d="M1163.5,4.962c-0.3,0.279 -0.3,0.883 -0,1.394c0.5,0.743 1.5,0.928 4.9,0.928c4.5,0 6.6,-0.603 6.6,-1.95c-0,-0.697 -0.9,-0.836 -5.4,-0.836c-3,-0 -5.8,0.232 -6.1,0.464Z" style="fill-rule:nonzero;"/><path d="M1183,5.194c-1.4,0.372 -3.3,0.651 -4.2,0.697c-2,0 -2.4,1.208 -0.5,1.533c0.6,0.139 4.7,0.093 8.9,-0.047c4.8,-0.139 9.4,0 12.2,0.372c3.7,0.464 5.2,0.464 7.6,-0c6,-1.161 3.5,-1.904 -8,-2.369c-4.7,-0.232 -9.6,-0.464 -11,-0.604c-1.4,-0.185 -3.6,0.047 -5,0.418Z" style="fill-rule:nonzero;"/><path d="M1230.3,6.123c-0.3,0.418 -0.2,0.883 0.1,1.069c0.4,0.139 6.1,0.325 12.7,0.418c9.6,0.046 11.9,-0.047 11.9,-0.558c-0,-1.207 -3.8,-1.625 -14,-1.625c-8.1,-0 -10.2,0.139 -10.7,0.696Z" style="fill-rule:nonzero;"/><path d="M1266.3,6.913c-1.1,0.604 -1.8,1.347 -1.6,1.625c0.6,0.79 6.4,0.79 8.6,0c1.5,-0.464 1.6,-0.696 0.5,-1.346c-2.2,-1.301 -5.2,-1.394 -7.5,-0.279Z" style="fill-rule:nonzero;"/><path d="M1212,6.774c-0,0.696 2.9,1.532 4.5,1.254c2.8,-0.465 1.7,-1.672 -1.5,-1.672c-1.6,-0 -3,0.185 -3,0.418Z" style="fill-rule:nonzero;"/><path d="M1282,7.517c-2,1.114 -0.1,1.765 4.7,1.486c5.2,-0.279 7.6,-1.068 5.3,-1.719c-2.3,-0.696 -8.6,-0.557 -10,0.233Z" style="fill-rule:nonzero;"/><path d="M427.2,7.795c-1.3,0.233 -2.2,0.651 -2,0.976c0.5,0.696 5.4,1.347 7.4,0.975c1.9,-0.325 1.8,-1.811 -0.2,-2.183c-1.9,-0.325 -2.3,-0.325 -5.2,0.232Z" style="fill-rule:nonzero;"/><path d="M1314.5,7.749c-1,0.743 0.4,1.393 3,1.393c3.4,0 5.5,-0.464 5.5,-1.207c-0,-0.79 -7.5,-0.929 -8.5,-0.186Z" style="fill-rule:nonzero;"/><path d="M202,8.956c-0,0.79 2.2,0.651 2.8,-0.185c0.2,-0.325 -0.3,-0.558 -1.2,-0.558c-0.9,0 -1.6,0.325 -1.6,0.743Z" style="fill-rule:nonzero;"/><path d="M597.6,9.003c-0.7,0.789 1.1,1.625 2.9,1.393c0.6,-0.093 1.1,-0.604 1.3,-1.161c0.3,-0.743 -0.2,-1.022 -1.6,-1.022c-1.1,0 -2.3,0.372 -2.6,0.79Z" style="fill-rule:nonzero;"/><path d="M401.7,9.003c-1.5,0.65 -0.6,1.068 2.2,1.068c3.4,0 4.9,-0.697 2.5,-1.115c-2.1,-0.371 -3.9,-0.371 -4.7,0.047Z" style="fill-rule:nonzero;"/><path d="M536.7,9.003c-1.4,0.65 -0.7,1.997 1.1,1.997c2.3,0 6.4,-1.347 5.7,-1.904c-0.7,-0.465 -5.8,-0.558 -6.8,-0.093Z" style="fill-rule:nonzero;"/></g></g></svg>