<?xml version="1.0" encoding="UTF-8" standalone="no"?>
<!DOCTYPE svg
          PUBLIC "-//W3C//DTD SVG 1.1//EN" "http://www.w3.org/Graphics/SVG/1.1/DTD/svg11.dtd">
<svg width="100%"
     height="100%"
     viewBox="0 0 147 195"
     preserveAspectRatio="none"
     version="1.1"
     xmlns="http://www.w3.org/2000/svg"
     xmlns:xlink="http://www.w3.org/1999/xlink"
     xml:space="preserve"
     xmlns:serif="http://www.serif.com/"
     style="fill-rule:evenodd;clip-rule:evenodd;stroke-linejoin:round;stroke-miterlimit:2;">
    <rect id="Artboard1"
          x="0"
          y="0"
          width="147"
          height="195"
          style="fill:none;" />
    <g>
        <path d="M1.376,190.835c-0.46,3.9 6.3,3.7 6.3,3.7c0,-0 26,-3.1 48.3,-2.3l63.2,-2.4c9.692,-1.049 8.544,-5.271 8.66,-8.259c0.231,-5.954 -9.375,-12.976 -22.16,-13.841c-1.5,-0.3 -8.9,-2.2 -26.2,-4.1c-40.6,-4.5 -42,-4.7 -42.5,-5.5c-0.4,-0.6 15.8,-6.6 43.5,-16.1c14.3,-4.9 18.5,-10.1 14.5,-17.9c-1.7,-3.3 -3.7,-4.1 -20,-7.5c-6.6,-1.4 -14.2,-3.1 -16.9,-3.9l-5,-1.3l2.5,-1.6c1.3,-0.9 8.5,-4.4 15.9,-7.7c15.5,-7.1 18,-9 18,-13.6c0,-4.8 -3.4,-8.1 -11.4,-10.9c-3.8,-1.4 -7.1,-2.7 -7.3,-2.9c-0.2,-0.2 2.2,-2 5.4,-3.9c10.3,-6.3 10.3,-6.3 10.3,-11.2c0,-3.8 -0.5,-4.8 -3,-6.7c-1.7,-1.2 -2.9,-2.6 -2.7,-3.1c0.4,-1.3 29.761,-16.224 30.661,-15.724c0.4,0.2 -0.5,3 -2.1,6.1c-4.1,8.2 -4.8,13.5 -2.2,16.1c4,4 6.4,2.5 8.9,-5.6c3,-9.6 10.8,-21.6 20.9,-32.3c5.7,-6 9.3,-10.6 9.3,-11.9c0,-2 -3.2,-6.1 -4.8,-6.1c-0.5,-0 -3.5,1.6 -6.8,3.6c-9.6,5.8 -12.4,7 -21.6,9.3c-7.6,1.9 -11.1,2.2 -28.7,2c-20.9,-0.1 -23.1,0.3 -23.1,4.1c0,1 0.7,2.3 1.5,3c1.8,1.5 29.1,3.3 38.5,2.5l6.5,-0.6l-2.7,2.3c-1.6,1.2 -6.1,3.9 -10,6.1c-12.7,6.9 -23.761,11.624 -25.661,13.524c-3.2,3.2 -2.5,7.4 2.1,11c2.2,1.8 3.7,3.6 3.3,3.9c-0.5,0.4 -4.2,2.4 -8.3,4.5c-9.5,4.9 -11,6.2 -11,9.5c0,4.3 2.1,6 12,9.5c5.2,1.7 9.5,3.6 9.7,4.2c0.2,0.5 -7,4 -15.9,7.8c-18.4,7.9 -21.1,9.7 -21.1,14.4c0,6.1 3,7.8 23.9,12.9c10.4,2.6 18.8,5.2 18.7,5.7c-0.2,1.1 -5.7,3.2 -32.3,12.5c-31.4,11 -35,13.8 -27,21.5c4.6,4.4 18.6,7.2 50.5,10c27.8,2.4 42.6,5.7 42.2,6.8c-0.7,2.3 -20.3,2 -61.7,2.7c0,-0 -33.885,1.252 -39.219,1.517c-20.209,1.005 -13.588,3.7 -13.881,6.183Z"
              style="fill-rule:nonzero;" />
    </g>
</svg>
