<svg xmlns="http://www.w3.org/2000/svg" xmlns:xlink="http://www.w3.org/1999/xlink" version="1.1" x="0px" y="0px" viewBox="0 0 72 90" style="enable-background:new 0 0 72 72;" xml:space="preserve"><g><path d="M37.18,24.02h0.91c0.41,0,0.75-0.34,0.75-0.75s-0.34-0.75-0.75-0.75h-0.91c-0.41,0-0.75,0.34-0.75,0.75   S36.76,24.02,37.18,24.02z"/><path d="M66.13,27.47L62.71,25v-1.73c0,0,0,0,0,0s0,0,0,0v-8.82c0-2.34-1.9-4.24-4.24-4.24H42.2l-4.44-3.2   c-1.05-0.76-2.48-0.76-3.53,0l-4.44,3.2H13.54c-2.34,0-4.24,1.9-4.24,4.24v10.55l-3.43,2.48c-1.01,0.73-1.61,1.91-1.61,3.15v31.06   c0,1.03,0.41,1.97,1.07,2.67c0,0,0,0,0,0c0,0,0,0,0,0c0.71,0.75,1.7,1.22,2.81,1.22h55.72c2.14,0,3.89-1.75,3.89-3.89V30.63   C67.75,29.38,67.15,28.2,66.13,27.47z M65.26,28.69c0.14,0.1,0.27,0.23,0.39,0.36L62.71,31v-4.15L65.26,28.69z M35.1,8.21   c0.53-0.39,1.25-0.38,1.78,0l2.75,1.99h-7.29L35.1,8.21z M13.54,11.7h44.93c1.51,0,2.74,1.23,2.74,2.74v8.08h-20.3   c-0.41,0-0.75,0.34-0.75,0.75s0.34,0.75,0.75,0.75h20.3v7.97L41.7,44.92c-0.01,0.01-0.02,0.01-0.03,0.02L36,48.7l-5.6-3.69   c-0.05-0.04-0.1-0.08-0.16-0.1L10.79,32.07V20.81h13.55l2.04,2.89c0.14,0.2,0.37,0.32,0.61,0.32h6.89c0.41,0,0.75-0.34,0.75-0.75   s-0.34-0.75-0.75-0.75h-6.5l-2.04-2.89c-0.14-0.2-0.37-0.32-0.61-0.32H10.79v-4.87C10.79,12.93,12.02,11.7,13.54,11.7z M6.06,62.85   c-0.19-0.35-0.31-0.74-0.31-1.16V30.63c0-0.03,0.01-0.06,0.01-0.09l22.87,15.09L6.06,62.85z M6.74,28.69l2.55-1.85v4.23L6.3,29.1   C6.43,28.95,6.57,28.81,6.74,28.69z M8.14,64.08c-0.34,0-0.66-0.07-0.95-0.2l22.76-17.37l5.63,3.72c0.13,0.08,0.27,0.12,0.41,0.12   c0.14,0,0.29-0.04,0.41-0.13l5.62-3.73l4.85,3.7c0.14,0.1,0.3,0.15,0.45,0.15c0.23,0,0.45-0.1,0.6-0.29   c0.25-0.33,0.19-0.8-0.14-1.05l-4.43-3.38l22.87-15.16c0,0.06,0.02,0.11,0.02,0.17v31.06c0,0.42-0.12,0.82-0.32,1.16l-12.57-9.49   c-0.33-0.25-0.8-0.18-1.05,0.15c-0.25,0.33-0.18,0.8,0.15,1.05l12.35,9.33c-0.29,0.13-0.61,0.2-0.95,0.2H8.14z"/><path d="M49.97,50.67c-0.33-0.25-0.8-0.19-1.05,0.14c-0.25,0.33-0.19,0.8,0.14,1.05l1.5,1.14c0.14,0.1,0.3,0.15,0.45,0.15   c0.23,0,0.45-0.1,0.6-0.29c0.25-0.33,0.19-0.8-0.14-1.05L49.97,50.67z"/><path d="M38.96,19.44h3.32c0.41,0,0.75-0.34,0.75-0.75v-3.32c0-0.41-0.34-0.75-0.75-0.75h-3.32c-0.41,0-0.75,0.34-0.75,0.75v3.32   C38.21,19.1,38.54,19.44,38.96,19.44z M39.71,16.12h1.82v1.82h-1.82V16.12z"/><path d="M46.67,19.44H50c0.41,0,0.75-0.34,0.75-0.75v-3.32c0-0.41-0.34-0.75-0.75-0.75h-3.32c-0.41,0-0.75,0.34-0.75,0.75v3.32   C45.92,19.1,46.26,19.44,46.67,19.44z M47.42,16.12h1.82v1.82h-1.82V16.12z"/><path d="M54.39,19.44h3.32c0.41,0,0.75-0.34,0.75-0.75v-3.32c0-0.41-0.34-0.75-0.75-0.75h-3.32c-0.41,0-0.75,0.34-0.75,0.75v3.32   C53.64,19.1,53.98,19.44,54.39,19.44z M55.14,16.12h1.82v1.82h-1.82V16.12z"/><path d="M28.13,34.97c0,4.51,3.67,8.18,8.18,8.18c0.41,0,0.75-0.34,0.75-0.75s-0.34-0.75-0.75-0.75c-3.68,0-6.68-3-6.68-6.68   c0-1.87,0.75-3.6,2.11-4.88c1.36-1.28,3.15-1.91,5.01-1.79c3.43,0.22,6.23,3.21,6.23,6.66c0,0.98-0.19,1.92-0.58,2.78   c-0.23,0.52-0.74,0.86-1.29,0.86c-0.77,0-1.39-0.62-1.39-1.39v-5.34c0-0.01,0-0.02-0.01-0.03l0-0.43c0-0.35-0.24-0.65-0.58-0.73   c-1.27-0.29-3.34-0.25-5.02,0.84c-1.19,0.77-1.96,1.96-2.24,3.42c-0.22,1.16,0.03,2.36,0.69,3.28c0.57,0.79,1.4,1.3,2.33,1.43   c0.19,0.03,0.37,0.04,0.55,0.04c0.87,0,1.7-0.28,2.4-0.81c0.19-0.15,0.39-0.33,0.6-0.56c0.44,1.04,1.47,1.77,2.66,1.77   c1.14,0,2.19-0.69,2.66-1.75c0.47-1.06,0.71-2.2,0.7-3.39c0-4.22-3.43-7.88-7.63-8.15c-2.29-0.14-4.47,0.63-6.14,2.19   C29.07,30.54,28.13,32.72,28.13,34.97z M36.95,37.7c-0.52,0.4-1.17,0.57-1.83,0.48c-0.67-0.09-1.09-0.5-1.32-0.82   c-0.42-0.58-0.58-1.37-0.44-2.13c0.21-1.07,0.74-1.89,1.59-2.44c0.83-0.54,1.86-0.76,2.76-0.76c0.18,0,0.35,0.01,0.52,0.02l0,3.05   C38.08,36.28,37.63,37.17,36.95,37.7z"/><path d="M24.96,8.55h1.33c0.41,0,0.75-0.34,0.75-0.75s-0.34-0.75-0.75-0.75h-1.33c-0.41,0-0.75,0.34-0.75,0.75   S24.54,8.55,24.96,8.55z"/><path d="M13.76,8.55h8.68c0.41,0,0.75-0.34,0.75-0.75s-0.34-0.75-0.75-0.75h-8.68c-0.41,0-0.75,0.34-0.75,0.75   S13.35,8.55,13.76,8.55z"/></g></svg>