<?xml version="1.0" encoding="UTF-8"?>
<svg width="700pt" height="700pt" version="1.1" viewBox="0 0 700 700" xmlns="http://www.w3.org/2000/svg" xmlns:xlink="http://www.w3.org/1999/xlink">
 <defs>
  <symbol id="f" overflow="visible">
   <path d="m39.078-2.3281c-2.0117 1.043-4.1094 1.8281-6.2969 2.3594s-4.4648 0.79688-6.8281 0.79688c-7.0859 0-12.699-1.9766-16.844-5.9375-4.1367-3.957-6.2031-9.3281-6.2031-16.109 0-6.7891 2.0664-12.164 6.2031-16.125 4.1445-3.9688 9.7578-5.9531 16.844-5.9531 2.3633 0 4.6406 0.26562 6.8281 0.79688s4.2852 1.3242 6.2969 2.375v8.7969c-2.0312-1.3828-4.0391-2.3984-6.0156-3.0469-1.9688-0.64453-4.0469-0.96875-6.2344-0.96875-3.9062 0-6.9844 1.2578-9.2344 3.7656-2.2422 2.5-3.3594 5.9531-3.3594 10.359 0 4.3867 1.1172 7.8359 3.3594 10.344 2.25 2.5 5.3281 3.75 9.2344 3.75 2.1875 0 4.2656-0.32031 6.2344-0.96875 1.9766-0.64453 3.9844-1.6602 6.0156-3.0469z"/>
  </symbol>
  <symbol id="e" overflow="visible">
   <path d="m16.031-40.953v9.0625h10.516v7.2812h-10.516v13.531c0 1.4805 0.28906 2.4805 0.875 3 0.59375 0.52344 1.7656 0.78125 3.5156 0.78125h5.2344v7.2969h-8.7344c-4.0312 0-6.8867-0.83594-8.5625-2.5156-1.6797-1.6875-2.5156-4.5391-2.5156-8.5625v-13.531h-5.0781v-7.2812h5.0781v-9.0625z"/>
  </symbol>
  <symbol id="d" overflow="visible">
   <path d="m26.594-27.234v-17.078h10.266v44.312h-10.266v-4.6094c-1.3984 1.875-2.9453 3.25-4.6406 4.125-1.6875 0.875-3.6406 1.3125-5.8594 1.3125-3.9297 0-7.1562-1.5625-9.6875-4.6875-2.5234-3.125-3.7812-7.1445-3.7812-12.062 0-4.9141 1.2578-8.9375 3.7812-12.062 2.5312-3.125 5.7578-4.6875 9.6875-4.6875 2.1953 0 4.1445 0.44531 5.8438 1.3281 1.707 0.88672 3.2578 2.2578 4.6562 4.1094zm-6.7188 20.656c2.1875 0 3.8516-0.79688 5-2.3906 1.1445-1.5938 1.7188-3.9102 1.7188-6.9531 0-3.0391-0.57422-5.3594-1.7188-6.9531-1.1484-1.5938-2.8125-2.3906-5-2.3906-2.168 0-3.8242 0.79688-4.9688 2.3906-1.1484 1.5938-1.7188 3.9141-1.7188 6.9531 0 3.043 0.57031 5.3594 1.7188 6.9531 1.1445 1.5938 2.8008 2.3906 4.9688 2.3906z"/>
  </symbol>
  <symbol id="a" overflow="visible">
   <path d="m21.875-6.5781c2.1758 0 3.8359-0.79688 4.9844-2.3906 1.1562-1.5938 1.7344-3.9102 1.7344-6.9531 0-3.0391-0.57812-5.3594-1.7344-6.9531-1.1484-1.5938-2.8086-2.3906-4.9844-2.3906-2.1875 0-3.8672 0.80469-5.0312 2.4062-1.168 1.6055-1.75 3.918-1.75 6.9375 0 3.0234 0.58203 5.3359 1.75 6.9375 1.1641 1.6055 2.8438 2.4062 5.0312 2.4062zm-6.7812-20.656c1.4062-1.8516 2.9609-3.2227 4.6719-4.1094 1.707-0.88281 3.6719-1.3281 5.8906-1.3281 3.9375 0 7.1641 1.5625 9.6875 4.6875 2.5195 3.125 3.7812 7.1484 3.7812 12.062 0 4.918-1.2617 8.9375-3.7812 12.062-2.5234 3.125-5.75 4.6875-9.6875 4.6875-2.2188 0-4.1836-0.44531-5.8906-1.3281-1.7109-0.88281-3.2656-2.2539-4.6719-4.1094v4.6094h-10.188v-44.312h10.188z"/>
  </symbol>
  <symbol id="c" overflow="visible">
   <path d="m5.3594-42.516h10.953v42.516h-10.953z"/>
  </symbol>
  <symbol id="b" overflow="visible">
   <path d="m5.3594-42.516h10.953v34.234h19.266v8.2812h-30.219z"/>
  </symbol>
 </defs>
 <g>
  <path d="m507.5 46.668h-315c-3.2227 0-5.832 2.6094-5.832 5.832v420c0 3.2227 2.6094 5.832 5.832 5.832h285.83c3.2227 0 5.8359-2.6094 5.8359-5.832 0-24.023 8.5156-38.941 27.227-55.715l13.457-11.77 0.79297-0.71875c11.426-10.516 16.855-19.297 16.855-30.965 0-24.773-18.066-40.832-40.832-40.832l-2.2578 0.054688c-19.418 0.92187-35.027 13.773-38.047 33.633l-0.16797 1.3125h-23.449l0.089844-1.0117c2.9844-30.227 25.891-57.32 69.664-57.32 3.2227 0 5.832-2.6133 5.832-5.8359v-250.83c0-3.2227-2.6094-5.832-5.832-5.832zm-5.832 11.664v239.32l-0.96875 0.046875c-49.895 2.9688-74.867 38.625-74.867 75.633 0 3.2227 2.6133 5.8359 5.8359 5.8359h35c3.2188 0 5.832-2.6133 5.832-5.8359 0-17.938 12.602-29.164 29.168-29.164 16.609 0 29.164 11.16 29.164 29.164 0 7.6641-3.832 13.859-13.086 22.383l-14.141 12.383-2.5625 2.3438c-17.551 16.383-26.848 32.348-28.332 55.305l-0.046876 0.92188h-274.33v-408.34z"/>
  <path d="m460.83 93.332c3.2227 0 5.8359 2.6133 5.8359 5.8359 0 2.8633-2.0664 5.2422-4.7852 5.7383l-1.0508 0.09375h-221.66c-3.2227 0-5.8359-2.6133-5.8359-5.832 0-2.8633 2.0664-5.2461 4.7852-5.7422l1.0508-0.09375z"/>
  <path d="m460.83 140c3.2227 0 5.8359 2.6133 5.8359 5.832 0 2.8633-2.0664 5.2461-4.7852 5.7422l-1.0508 0.09375h-221.66c-3.2227 0-5.8359-2.6133-5.8359-5.8359 0-2.8633 2.0664-5.2422 4.7852-5.7383l1.0508-0.09375z"/>
  <path d="m460.83 186.67c3.2227 0 5.8359 2.6094 5.8359 5.832 0 2.8633-2.0664 5.2461-4.7852 5.7383l-1.0508 0.09375h-221.66c-3.2227 0-5.8359-2.6094-5.8359-5.832 0-2.8633 2.0664-5.2461 4.7852-5.7383l1.0508-0.09375z"/>
  <path d="m460.83 233.33c3.2227 0 5.8359 2.6133 5.8359 5.8359 0 2.8633-2.0664 5.2422-4.7852 5.7383l-1.0508 0.09375h-221.66c-3.2227 0-5.8359-2.6133-5.8359-5.832 0-2.8633 2.0664-5.2461 4.7852-5.7422l1.0508-0.09375z"/>
  <path d="m460.83 280c3.2227 0 5.8359 2.6133 5.8359 5.832 0 2.8633-2.0664 5.2461-4.7852 5.7422l-1.0508 0.09375h-221.66c-3.2227 0-5.8359-2.6133-5.8359-5.8359 0-2.8633 2.0664-5.2422 4.7852-5.7383l1.0508-0.09375z"/>
  <path d="m402.5 326.67c3.2227 0 5.832 2.6094 5.832 5.832 0 2.8633-2.0625 5.2461-4.7852 5.7383l-1.0469 0.09375h-163.33c-3.2227 0-5.8359-2.6094-5.8359-5.832 0-2.8633 2.0664-5.2461 4.7852-5.7383l1.0508-0.09375z"/>
  <path d="m402.5 373.33c3.2227 0 5.832 2.6133 5.832 5.8359 0 2.8633-2.0625 5.2422-4.7852 5.7383l-1.0469 0.09375h-163.33c-3.2227 0-5.8359-2.6133-5.8359-5.832 0-2.8633 2.0664-5.2461 4.7852-5.7422l1.0508-0.09375z"/>
  <path d="m460.83 420c3.2227 0 5.8359 2.6133 5.8359 5.832 0 2.8633-2.0664 5.2461-4.7852 5.7422l-1.0508 0.09375h-221.66c-3.2227 0-5.8359-2.6133-5.8359-5.8359 0-2.8633 2.0664-5.2422 4.7852-5.7383l1.0508-0.09375z"/>
  <path d="m513.33 495.83h-34.668c-3.2188 0-5.832 2.6133-5.832 5.8359v35c0 3.2188 2.6133 5.832 5.832 5.832h34.668c3.2227 0 5.8359-2.6133 5.8359-5.832v-35c0-3.2227-2.6133-5.8359-5.8359-5.8359zm-5.832 11.668v23.332h-23.008v-23.332z"/>
  <path d="m501.67 297.5c-40.211 0-75.836 33.645-75.836 75.832 0 3.2227 2.6133 5.8359 5.8359 5.8359h35c3.2188 0 5.832-2.6133 5.832-5.8359 0-18.004 12.559-29.164 29.168-29.164s29.164 11.16 29.164 29.164c0 8.2383-4.2344 14.883-14.504 24.199l-12.879 11.207c-23.473 20.738-33.703 39.574-30.926 70.125 0.27344 3.0039 2.793 5.3047 5.8086 5.3047h35c3.2227 0 5.8359-2.6133 5.8359-5.8359 0-21.207 5.8281-30.645 24.473-45.918l2.5039-2.0273c23.121-18.496 31.355-30.574 31.355-57.055 0-46.16-33.379-75.832-75.832-75.832zm0 11.668c36.297 0 64.164 24.773 64.164 64.164 0 21.211-5.8281 30.645-24.473 45.918l-5.1055 4.1367c-19.449 15.953-27.449 27.508-28.613 49.113h-23.836l-0.023438-0.79297c-0.5625-21.617 7.3438-35.852 24.832-51.918l4.8008-4.25 9.9922-8.6836 0.75781-0.68359c12.48-11.316 18.336-20.504 18.336-32.84 0-24.773-18.066-40.832-40.832-40.832l-2.2617 0.054688c-19.445 0.91797-35.027 13.719-38.043 33.617l-0.16797 1.3281h-23.414l0.19531-1.8594c3.9727-31.926 32.262-56.473 63.691-56.473z"/>
 </g>
</svg>
