 <svg  version="1.0" xmlns="http://www.w3.org/2000/svg"  width="100%" height="100%" viewBox="0 0 444.000000 408.000000"  preserveAspectRatio="xMidYMid meet">  <g transform="translate(0.000000,408.000000) scale(0.100000,-0.100000)" fill="#162556" stroke="none"> <path d="M1630 3700 c-154 -26 -247 -51 -385 -107 -125 -50 -156 -66 -270 -141 -234 -153 -409 -394 -477 -658 -20 -78 -23 -113 -23 -279 0 -174 2 -199 27 -295 54 -206 172 -391 335 -522 82 -66 133 -97 258 -155 115 -53 174 -71 310 -94 435 -73 846 61 1096 355 63 75 148 234 173 326 33 122 28 342 -10 437 -49 122 -102 210 -174 286 -175 187 -414 287 -683 287 -190 0 -350 -42 -476 -124 -142 -94 -201 -169 -277 -355 -28 -67 -26 -245 3 -327 59 -165 171 -280 348 -358 142 -63 382 -63 511 0 162 79 246 233 214 393 -7 36 -23 82 -35 101 -31 49 -102 112 -157 138 -25 13 -63 44 -84 69 -44 53 -85 73 -151 73 -62 0 -110 -25 -150 -78 -29 -38 -33 -51 -33 -106 0 -83 39 -147 106 -176 58 -25 89 -25 158 1 67 26 94 18 126 -33 24 -40 25 -63 2 -104 -86 -158 -411 -150 -568 14 -69 72 -96 135 -96 229 0 101 26 170 92 244 65 74 144 126 239 157 67 22 94 25 221 26 164 0 224 -13 360 -81 96 -49 225 -173 262 -253 82 -179 81 -354 -3 -524 -45 -90 -128 -185 -233 -265 -52 -40 -188 -99 -292 -128 -90 -25 -115 -27 -269 -27 -154 0 -179 2 -260 26 -187 55 -289 105 -397 194 -156 129 -248 297 -277 509 -49 347 81 663 354 867 59 44 197 128 210 128 4 0 21 7 38 14 129 59 314 101 534 121 133 12 386 -28 550 -89 243 -90 465 -320 550 -571 56 -163 58 -177 58 -420 0 -217 -1 -236 -27 -335 -44 -171 -96 -320 -143 -412 -153 -300 -245 -428 -460 -642 -167 -166 -274 -251 -450 -358 -72 -44 -156 -125 -149 -143 3 -7 19 -19 36 -26 32 -13 110 -5 263 27 99 21 359 44 495 44 113 0 486 -26 500 -35 5 -3 43 -10 86 -16 44 -6 116 -19 162 -30 101 -23 149 -17 206 25 81 62 85 147 11 262 -19 30 -35 57 -35 61 0 4 25 30 55 59 49 47 55 57 55 94 0 42 -13 61 -71 102 -20 13 -22 20 -13 34 6 10 24 22 40 26 44 12 75 43 80 80 5 34 -2 51 -49 117 -19 27 -27 46 -22 60 3 11 46 50 95 87 100 75 120 99 120 146 0 48 -19 71 -201 251 -138 136 -171 174 -203 237 l-40 75 -7 162 c-4 89 -10 166 -13 171 -3 5 -10 41 -16 78 -10 73 -66 257 -102 333 -94 205 -231 367 -413 492 -186 126 -343 193 -553 235 -110 21 -148 24 -335 23 -117 -1 -232 -5 -257 -9z"/> </g> </svg> 
